<?xml version="1.0" encoding="UTF-8" standalone="no"?>
<!DOCTYPE svg PUBLIC "-//W3C//DTD SVG 1.0//EN" "http://www.w3.org/TR/2001/REC-SVG-20010904/DTD/svg10.dtd">
<svg width="21.59cm" height="27.94cm" xmlns="http://www.w3.org/2000/svg">
<rect width="21.59cm" height="27.94cm" style="fill: none;"/>
<polygon fill="#ffffff" style="stroke:#000000;  stroke-width:0.50pt;" points="125.43,596.60 107.72,596.60 107.72,603.69 90.00,585.97 107.72,568.26 107.72,575.34 125.43,575.34 125.43,596.60"/>
<rect x="2.79cm" y="13.97cm" width="5.12cm" height="1.33cm" style="fill:#ffffff; stroke:#000000; stroke-width:0.500000;"/>
<rect x="5.02cm" y="8.25cm" width="5.12cm" height="1.78cm" style="fill:#ffffff; stroke:#000000; stroke-width:0.500000;"/>
<line x1="5.02cm" y1="9.14cm" x2="3.79cm" y2="9.14cm" style="stroke:#000000; stroke-width:0.50pt;"/>
<line x1="3.79cm" y1="13.97cm" x2="3.79cm" y2="9.14cm" style="stroke:#000000; stroke-width:0.50pt;"/>
<rect x="5.02cm" y="19.68cm" width="5.12cm" height="1.33cm" style="fill:#ffffff; stroke:#000000; stroke-width:0.500000;"/>
<line x1="5.02cm" y1="20.35cm" x2="3.79cm" y2="20.35cm" style="stroke:#000000; stroke-width:0.50pt;"/>
<line x1="3.79cm" y1="15.30cm" x2="3.79cm" y2="20.35cm" style="stroke:#000000; stroke-width:0.50pt;"/>
<rect x="7.49cm" y="5.40cm" width="5.12cm" height="1.78cm" style="fill:#ffffff; stroke:#000000; stroke-width:0.500000;"/>
<line x1="7.49cm" y1="6.29cm" x2="6.02cm" y2="6.29cm" style="stroke:#000000; stroke-width:0.50pt;"/>
<line x1="6.02cm" y1="8.25cm" x2="6.02cm" y2="6.29cm" style="stroke:#000000; stroke-width:0.50pt;"/>
<rect x="7.49cm" y="11.11cm" width="5.12cm" height="1.33cm" style="fill:#ffffff; stroke:#000000; stroke-width:0.500000;"/>
<line x1="7.49cm" y1="11.78cm" x2="6.02cm" y2="11.78cm" style="stroke:#000000; stroke-width:0.50pt;"/>
<line x1="6.02cm" y1="10.03cm" x2="6.02cm" y2="11.78cm" style="stroke:#000000; stroke-width:0.50pt;"/>
<text x="6.87cm" y="3.22cm" style="fill:#000000;font-size:16pt; font-family:sans-serif;">Pedigree Chart for Garner, Rita Marie</text>
<text x="3.04cm" y="16.67cm" style="fill:#000000;font-size:9pt; font-family:sans-serif;">1</text>
<text x="3.14cm" y="14.33cm" style="fill:#000000;  font-size:9pt; font-family:sans-serif;">Boucher, William Bernard</text>
<text x="3.14cm" y="14.71cm" style="fill:#000000;  font-size:9pt; font-family:sans-serif;">b. 1854-01-25</text>
<text x="3.14cm" y="15.09cm" style="fill:#000000;  font-size:9pt; font-family:sans-serif;">d. 1928-12-27</text>
<text x="5.37cm" y="8.65cm" style="fill:#000000;  font-size:9pt; font-family:sans-serif;">Boucher, Michael</text>
<text x="5.37cm" y="9.03cm" style="fill:#000000;  font-size:9pt; font-family:sans-serif;">b. 1820</text>
<text x="5.37cm" y="9.41cm" style="fill:#000000;  font-size:9pt; font-family:sans-serif;">m. </text>
<text x="5.37cm" y="9.79cm" style="fill:#000000;  font-size:9pt; font-family:sans-serif;">d. 1859-01-09</text>
<text x="5.37cm" y="20.05cm" style="fill:#000000;  font-size:9pt; font-family:sans-serif;">Boucher, Honora</text>
<text x="5.37cm" y="20.43cm" style="fill:#000000;  font-size:9pt; font-family:sans-serif;">b. 1824</text>
<text x="5.37cm" y="20.81cm" style="fill:#000000;  font-size:9pt; font-family:sans-serif;">d. 1895-02-09</text>
<text x="7.85cm" y="5.79cm" style="fill:#000000;  font-size:9pt; font-family:sans-serif;">Boucher, David</text>
<text x="7.85cm" y="6.17cm" style="fill:#000000;  font-size:9pt; font-family:sans-serif;">b. </text>
<text x="7.85cm" y="6.55cm" style="fill:#000000;  font-size:9pt; font-family:sans-serif;">m. 1810</text>
<text x="7.85cm" y="6.93cm" style="fill:#000000;  font-size:9pt; font-family:sans-serif;">d. </text>
<text x="7.85cm" y="11.47cm" style="fill:#000000;  font-size:9pt; font-family:sans-serif;">Morrison, Nancy</text>
<text x="7.85cm" y="11.86cm" style="fill:#000000;  font-size:9pt; font-family:sans-serif;">b. </text>
<text x="7.85cm" y="12.24cm" style="fill:#000000;  font-size:9pt; font-family:sans-serif;">d. </text>
<text x="2.54cm" y="25.02cm" style="fill:#000000;font-size:9pt; font-family:sans-serif;">2015-12-22
Page 8</text>
</svg>
