<?xml version="1.0" encoding="UTF-8" standalone="no"?>
<!DOCTYPE svg PUBLIC "-//W3C//DTD SVG 1.0//EN" "http://www.w3.org/TR/2001/REC-SVG-20010904/DTD/svg10.dtd">
<svg width="21.59cm" height="27.94cm" xmlns="http://www.w3.org/2000/svg">
<rect width="21.59cm" height="27.94cm" style="fill: none;"/>
<rect x="2.79cm" y="13.97cm" width="5.12cm" height="1.33cm" style="fill:#ffffff; stroke:#000000; stroke-width:0.500000;"/>
<rect x="5.02cm" y="8.25cm" width="5.12cm" height="1.78cm" style="fill:#ffffff; stroke:#000000; stroke-width:0.500000;"/>
<line x1="5.02cm" y1="9.14cm" x2="3.79cm" y2="9.14cm" style="stroke:#000000; stroke-width:0.50pt;"/>
<line x1="3.79cm" y1="13.97cm" x2="3.79cm" y2="9.14cm" style="stroke:#000000; stroke-width:0.50pt;"/>
<rect x="5.02cm" y="19.68cm" width="5.12cm" height="1.33cm" style="fill:#ffffff; stroke:#000000; stroke-width:0.500000;"/>
<line x1="5.02cm" y1="20.35cm" x2="3.79cm" y2="20.35cm" style="stroke:#000000; stroke-width:0.50pt;"/>
<line x1="3.79cm" y1="15.30cm" x2="3.79cm" y2="20.35cm" style="stroke:#000000; stroke-width:0.50pt;"/>
<rect x="7.49cm" y="5.40cm" width="5.12cm" height="1.78cm" style="fill:#ffffff; stroke:#000000; stroke-width:0.500000;"/>
<line x1="7.49cm" y1="6.29cm" x2="6.02cm" y2="6.29cm" style="stroke:#000000; stroke-width:0.50pt;"/>
<line x1="6.02cm" y1="8.25cm" x2="6.02cm" y2="6.29cm" style="stroke:#000000; stroke-width:0.50pt;"/>
<rect x="7.49cm" y="11.11cm" width="5.12cm" height="1.33cm" style="fill:#ffffff; stroke:#000000; stroke-width:0.500000;"/>
<line x1="7.49cm" y1="11.78cm" x2="6.02cm" y2="11.78cm" style="stroke:#000000; stroke-width:0.50pt;"/>
<line x1="6.02cm" y1="10.03cm" x2="6.02cm" y2="11.78cm" style="stroke:#000000; stroke-width:0.50pt;"/>
<rect x="7.49cm" y="16.83cm" width="5.12cm" height="1.78cm" style="fill:#ffffff; stroke:#000000; stroke-width:0.500000;"/>
<line x1="7.49cm" y1="17.72cm" x2="6.02cm" y2="17.72cm" style="stroke:#000000; stroke-width:0.50pt;"/>
<line x1="6.02cm" y1="19.68cm" x2="6.02cm" y2="17.72cm" style="stroke:#000000; stroke-width:0.50pt;"/>
<rect x="7.49cm" y="22.54cm" width="5.12cm" height="1.33cm" style="fill:#ffffff; stroke:#000000; stroke-width:0.500000;"/>
<line x1="7.49cm" y1="23.21cm" x2="6.02cm" y2="23.21cm" style="stroke:#000000; stroke-width:0.50pt;"/>
<line x1="6.02cm" y1="21.02cm" x2="6.02cm" y2="23.21cm" style="stroke:#000000; stroke-width:0.50pt;"/>
<rect x="12.86cm" y="3.97cm" width="5.12cm" height="1.78cm" style="fill:#ffffff; stroke:#000000; stroke-width:0.500000;"/>
<polygon fill="#ffffff" style="stroke:#000000;  stroke-width:0.50pt;" points="639.78,191.61 657.49,191.61 657.49,198.70 675.21,180.98 657.49,163.27 657.49,170.35 639.78,170.35 639.78,191.61"/>
<line x1="12.86cm" y1="4.86cm" x2="8.49cm" y2="4.86cm" style="stroke:#000000; stroke-width:0.50pt;"/>
<line x1="8.49cm" y1="5.40cm" x2="8.49cm" y2="4.86cm" style="stroke:#000000; stroke-width:0.50pt;"/>
<rect x="12.86cm" y="7.18cm" width="5.12cm" height="1.33cm" style="fill:#ffffff; stroke:#000000; stroke-width:0.500000;"/>
<polygon fill="#ffffff" style="stroke:#000000;  stroke-width:0.50pt;" points="639.78,297.64 657.49,297.64 657.49,304.73 675.21,287.01 657.49,269.30 657.49,276.38 639.78,276.38 639.78,297.64"/>
<line x1="12.86cm" y1="7.85cm" x2="8.49cm" y2="7.85cm" style="stroke:#000000; stroke-width:0.50pt;"/>
<line x1="8.49cm" y1="7.18cm" x2="8.49cm" y2="7.85cm" style="stroke:#000000; stroke-width:0.50pt;"/>
<rect x="12.86cm" y="9.68cm" width="5.12cm" height="1.78cm" style="fill:#ffffff; stroke:#000000; stroke-width:0.500000;"/>
<polygon fill="#ffffff" style="stroke:#000000;  stroke-width:0.50pt;" points="639.78,394.11 657.49,394.11 657.49,401.20 675.21,383.48 657.49,365.77 657.49,372.85 639.78,372.85 639.78,394.11"/>
<line x1="12.86cm" y1="10.57cm" x2="8.49cm" y2="10.57cm" style="stroke:#000000; stroke-width:0.50pt;"/>
<line x1="8.49cm" y1="11.11cm" x2="8.49cm" y2="10.57cm" style="stroke:#000000; stroke-width:0.50pt;"/>
<rect x="12.86cm" y="12.54cm" width="5.12cm" height="1.33cm" style="fill:#ffffff; stroke:#000000; stroke-width:0.500000;"/>
<polygon fill="#ffffff" style="stroke:#000000;  stroke-width:0.50pt;" points="639.78,487.49 657.49,487.49 657.49,494.57 675.21,476.86 657.49,459.14 657.49,466.23 639.78,466.23 639.78,487.49"/>
<line x1="12.86cm" y1="13.21cm" x2="8.49cm" y2="13.21cm" style="stroke:#000000; stroke-width:0.50pt;"/>
<line x1="8.49cm" y1="12.45cm" x2="8.49cm" y2="13.21cm" style="stroke:#000000; stroke-width:0.50pt;"/>
<rect x="12.86cm" y="15.40cm" width="5.12cm" height="1.78cm" style="fill:#ffffff; stroke:#000000; stroke-width:0.500000;"/>
<polygon fill="#ffffff" style="stroke:#000000;  stroke-width:0.50pt;" points="639.78,596.61 657.49,596.61 657.49,603.70 675.21,585.98 657.49,568.27 657.49,575.35 639.78,575.35 639.78,596.61"/>
<line x1="12.86cm" y1="16.29cm" x2="8.49cm" y2="16.29cm" style="stroke:#000000; stroke-width:0.50pt;"/>
<line x1="8.49cm" y1="16.83cm" x2="8.49cm" y2="16.29cm" style="stroke:#000000; stroke-width:0.50pt;"/>
<rect x="12.86cm" y="18.61cm" width="5.12cm" height="1.33cm" style="fill:#ffffff; stroke:#000000; stroke-width:0.500000;"/>
<polygon fill="#ffffff" style="stroke:#000000;  stroke-width:0.50pt;" points="639.78,702.64 657.49,702.64 657.49,709.73 675.21,692.01 657.49,674.30 657.49,681.38 639.78,681.38 639.78,702.64"/>
<line x1="12.86cm" y1="19.28cm" x2="8.49cm" y2="19.28cm" style="stroke:#000000; stroke-width:0.50pt;"/>
<line x1="8.49cm" y1="18.61cm" x2="8.49cm" y2="19.28cm" style="stroke:#000000; stroke-width:0.50pt;"/>
<rect x="12.86cm" y="21.11cm" width="5.12cm" height="1.78cm" style="fill:#ffffff; stroke:#000000; stroke-width:0.500000;"/>
<polygon fill="#ffffff" style="stroke:#000000;  stroke-width:0.50pt;" points="639.78,799.11 657.49,799.11 657.49,806.20 675.21,788.48 657.49,770.77 657.49,777.85 639.78,777.85 639.78,799.11"/>
<line x1="12.86cm" y1="22.00cm" x2="8.49cm" y2="22.00cm" style="stroke:#000000; stroke-width:0.50pt;"/>
<line x1="8.49cm" y1="22.54cm" x2="8.49cm" y2="22.00cm" style="stroke:#000000; stroke-width:0.50pt;"/>
<rect x="12.86cm" y="23.97cm" width="5.12cm" height="1.33cm" style="fill:#ffffff; stroke:#000000; stroke-width:0.500000;"/>
<polygon fill="#ffffff" style="stroke:#000000;  stroke-width:0.50pt;" points="639.78,892.49 657.49,892.49 657.49,899.57 675.21,881.86 657.49,864.14 657.49,871.23 639.78,871.23 639.78,892.49"/>
<line x1="12.86cm" y1="24.64cm" x2="8.49cm" y2="24.64cm" style="stroke:#000000; stroke-width:0.50pt;"/>
<line x1="8.49cm" y1="23.88cm" x2="8.49cm" y2="24.64cm" style="stroke:#000000; stroke-width:0.50pt;"/>
<text x="6.87cm" y="3.22cm" style="fill:#000000;font-size:16pt; font-family:sans-serif;">Pedigree Chart for Garner, Rita Marie</text>
<text x="3.14cm" y="14.33cm" style="fill:#000000;  font-size:9pt; font-family:sans-serif;">Garner, Rita Marie</text>
<text x="3.14cm" y="14.71cm" style="fill:#000000;  font-size:9pt; font-family:sans-serif;">b. 1952-09-07</text>
<text x="3.14cm" y="15.09cm" style="fill:#000000;  font-size:9pt; font-family:sans-serif;">d. ____________</text>
<text x="5.37cm" y="8.65cm" style="fill:#000000;  font-size:9pt; font-family:sans-serif;">Garner, Howard Lane</text>
<text x="5.37cm" y="9.03cm" style="fill:#000000;  font-size:9pt; font-family:sans-serif;">b. 1928-07-09</text>
<text x="5.37cm" y="9.41cm" style="fill:#000000;  font-size:9pt; font-family:sans-serif;">m. 1948-02-02</text>
<text x="5.37cm" y="9.79cm" style="fill:#000000;  font-size:9pt; font-family:sans-serif;">d. ____________</text>
<text x="5.37cm" y="20.05cm" style="fill:#000000;  font-size:9pt; font-family:sans-serif;">Marín, Mary Anne</text>
<text x="5.37cm" y="20.43cm" style="fill:#000000;  font-size:9pt; font-family:sans-serif;">b. 1927-01-13</text>
<text x="5.37cm" y="20.81cm" style="fill:#000000;  font-size:9pt; font-family:sans-serif;">d. ____________</text>
<text x="7.85cm" y="5.79cm" style="fill:#000000;  font-size:9pt; font-family:sans-serif;">Garner, Eugene Stanley</text>
<text x="7.85cm" y="6.17cm" style="fill:#000000;  font-size:9pt; font-family:sans-serif;">b. 1895-12-01</text>
<text x="7.85cm" y="6.55cm" style="fill:#000000;  font-size:9pt; font-family:sans-serif;">m. 1921-01-03</text>
<text x="7.85cm" y="6.93cm" style="fill:#000000;  font-size:9pt; font-family:sans-serif;">d. 1984-03-01</text>
<text x="7.85cm" y="11.47cm" style="fill:#000000;  font-size:9pt; font-family:sans-serif;">Reed, Frances Lucille (Babe)</text>
<text x="7.85cm" y="11.86cm" style="fill:#000000;  font-size:9pt; font-family:sans-serif;">b. 1902-07-08</text>
<text x="7.85cm" y="12.24cm" style="fill:#000000;  font-size:9pt; font-family:sans-serif;">d. 1988-08-09</text>
<text x="7.85cm" y="17.22cm" style="fill:#000000;  font-size:9pt; font-family:sans-serif;">Marín, Walter Matthew</text>
<text x="7.85cm" y="17.60cm" style="fill:#000000;  font-size:9pt; font-family:sans-serif;">b. 1893-12-29</text>
<text x="7.85cm" y="17.98cm" style="fill:#000000;  font-size:9pt; font-family:sans-serif;">m. 1920-06-23</text>
<text x="7.85cm" y="18.36cm" style="fill:#000000;  font-size:9pt; font-family:sans-serif;">d. 1969-01-16</text>
<text x="7.85cm" y="22.90cm" style="fill:#000000;  font-size:9pt; font-family:sans-serif;">Boucher, Mary Cecilia</text>
<text x="7.85cm" y="23.29cm" style="fill:#000000;  font-size:9pt; font-family:sans-serif;">b. 1890-02-17</text>
<text x="7.85cm" y="23.67cm" style="fill:#000000;  font-size:9pt; font-family:sans-serif;">d. 1945-06-03</text>
<text x="13.21cm" y="4.36cm" style="fill:#000000;  font-size:9pt; font-family:sans-serif;">Garner von Zieliński, Lewis And...</text>
<text x="13.21cm" y="4.74cm" style="fill:#000000;  font-size:9pt; font-family:sans-serif;">b. 1855-06-21</text>
<text x="13.21cm" y="5.12cm" style="fill:#000000;  font-size:9pt; font-family:sans-serif;">m. 1875-04-01</text>
<text x="13.21cm" y="5.51cm" style="fill:#000000;  font-size:9pt; font-family:sans-serif;">d. 1911-06-28</text>
<text x="18.56cm" y="5.24cm" style="fill:#000000;font-size:9pt; font-family:sans-serif;">2</text>
<text x="13.21cm" y="7.55cm" style="fill:#000000;  font-size:9pt; font-family:sans-serif;">Martel, Luella Jacques</text>
<text x="13.21cm" y="7.93cm" style="fill:#000000;  font-size:9pt; font-family:sans-serif;">b. 1852-01-23</text>
<text x="13.21cm" y="8.31cm" style="fill:#000000;  font-size:9pt; font-family:sans-serif;">d. 1921-04-28</text>
<text x="18.56cm" y="8.23cm" style="fill:#000000;font-size:9pt; font-family:sans-serif;">3</text>
<text x="13.21cm" y="10.08cm" style="fill:#000000;  font-size:9pt; font-family:sans-serif;">Reed, Francis Vincent</text>
<text x="13.21cm" y="10.46cm" style="fill:#000000;  font-size:9pt; font-family:sans-serif;">b. 1857-05-02</text>
<text x="13.21cm" y="10.84cm" style="fill:#000000;  font-size:9pt; font-family:sans-serif;">m. 1883-09-12</text>
<text x="13.21cm" y="11.22cm" style="fill:#000000;  font-size:9pt; font-family:sans-serif;">d. 1945-03-02</text>
<text x="18.56cm" y="10.95cm" style="fill:#000000;font-size:9pt; font-family:sans-serif;">4</text>
<text x="13.21cm" y="12.90cm" style="fill:#000000;  font-size:9pt; font-family:sans-serif;">Тихонов, Catherine Virginia</text>
<text x="13.21cm" y="13.28cm" style="fill:#000000;  font-size:9pt; font-family:sans-serif;">b. 1864-01-27</text>
<text x="13.21cm" y="13.67cm" style="fill:#000000;  font-size:9pt; font-family:sans-serif;">d. 1903-11-27</text>
<text x="18.56cm" y="13.59cm" style="fill:#000000;font-size:9pt; font-family:sans-serif;">5</text>
<text x="13.21cm" y="15.79cm" style="fill:#000000;  font-size:9pt; font-family:sans-serif;">Marín, Moses Wallace</text>
<text x="13.21cm" y="16.17cm" style="fill:#000000;  font-size:9pt; font-family:sans-serif;">b. 1862-04-08</text>
<text x="13.21cm" y="16.55cm" style="fill:#000000;  font-size:9pt; font-family:sans-serif;">m. 1885-10-15</text>
<text x="13.21cm" y="16.94cm" style="fill:#000000;  font-size:9pt; font-family:sans-serif;">d. 1909-08-08</text>
<text x="18.56cm" y="16.67cm" style="fill:#000000;font-size:9pt; font-family:sans-serif;">6</text>
<text x="13.21cm" y="18.98cm" style="fill:#000000;  font-size:9pt; font-family:sans-serif;">Landry, Eleanor (Nellie) Therese</text>
<text x="13.21cm" y="19.36cm" style="fill:#000000;  font-size:9pt; font-family:sans-serif;">b. 1864-12-00</text>
<text x="13.21cm" y="19.74cm" style="fill:#000000;  font-size:9pt; font-family:sans-serif;">d. 1935-12-12</text>
<text x="18.56cm" y="19.66cm" style="fill:#000000;font-size:9pt; font-family:sans-serif;">7</text>
<text x="13.21cm" y="21.51cm" style="fill:#000000;  font-size:9pt; font-family:sans-serif;">Boucher, William Bernard</text>
<text x="13.21cm" y="21.89cm" style="fill:#000000;  font-size:9pt; font-family:sans-serif;">b. 1854-01-25</text>
<text x="13.21cm" y="22.27cm" style="fill:#000000;  font-size:9pt; font-family:sans-serif;">m. 1875-04-11</text>
<text x="13.21cm" y="22.65cm" style="fill:#000000;  font-size:9pt; font-family:sans-serif;">d. 1928-12-27</text>
<text x="18.56cm" y="22.38cm" style="fill:#000000;font-size:9pt; font-family:sans-serif;">8</text>
<text x="13.21cm" y="24.33cm" style="fill:#000000;  font-size:9pt; font-family:sans-serif;">Reeves, Maria</text>
<text x="13.21cm" y="24.71cm" style="fill:#000000;  font-size:9pt; font-family:sans-serif;">b. 1856-11-26</text>
<text x="13.21cm" y="25.10cm" style="fill:#000000;  font-size:9pt; font-family:sans-serif;">d. 1929-01-29</text>
<text x="18.56cm" y="25.02cm" style="fill:#000000;font-size:9pt; font-family:sans-serif;">9</text>
<text x="2.54cm" y="25.02cm" style="fill:#000000;font-size:9pt; font-family:sans-serif;">2015-12-23
Page 1</text>
</svg>
