<?xml version="1.0" encoding="UTF-8" standalone="no"?>
<!DOCTYPE svg PUBLIC "-//W3C//DTD SVG 1.0//EN" "http://www.w3.org/TR/2001/REC-SVG-20010904/DTD/svg10.dtd">
<svg width="21.59cm" height="27.94cm" xmlns="http://www.w3.org/2000/svg">
<rect width="21.59cm" height="27.94cm" style="fill: none;"/>
<rect x="10.07cm" y="4.79cm" width="5.98cm" height="1.59cm" style="fill:#808080; stroke:#808080; stroke-width:1;"/>
<rect x="9.88cm" y="4.59cm" width="5.98cm" height="1.59cm" style="fill:#ffffff; stroke:#000000; stroke-width:0.500000;"/>
<line x1="15.86cm" y1="5.39cm" x2="16.85cm" y2="5.39cm" style="stroke:#000000; stroke-width:0.50pt;"/>
<line x1="16.85cm" y1="3.40cm" x2="16.85cm" y2="7.61cm" style="stroke:#000000; stroke-width:0.50pt;"/>
<line x1="16.85cm" y1="3.40cm" x2="17.18cm" y2="3.40cm" style="stroke:#000000; stroke-width:0.50pt;"/>
<line x1="16.85cm" y1="7.61cm" x2="17.18cm" y2="7.61cm" style="stroke:#000000; stroke-width:0.50pt;"/>
<rect x="2.77cm" y="8.75cm" width="5.98cm" height="1.59cm" style="fill:#808080; stroke:#808080; stroke-width:1;"/>
<rect x="2.58cm" y="8.56cm" width="5.98cm" height="1.59cm" style="fill:#ffffff; stroke:#000000; stroke-width:0.500000;"/>
<line x1="8.56cm" y1="9.36cm" x2="9.55cm" y2="9.36cm" style="stroke:#000000; stroke-width:0.50pt;"/>
<line x1="9.55cm" y1="5.39cm" x2="9.55cm" y2="13.56cm" style="stroke:#000000; stroke-width:0.50pt;"/>
<line x1="9.55cm" y1="5.39cm" x2="9.88cm" y2="5.39cm" style="stroke:#000000; stroke-width:0.50pt;"/>
<line x1="9.55cm" y1="13.56cm" x2="9.88cm" y2="13.56cm" style="stroke:#000000; stroke-width:0.50pt;"/>
<rect x="10.07cm" y="12.72cm" width="5.98cm" height="2.06cm" style="fill:#808080; stroke:#808080; stroke-width:1;"/>
<rect x="9.88cm" y="12.53cm" width="5.98cm" height="2.06cm" style="fill:#ffffff; stroke:#000000; stroke-width:0.500000;"/>
<line x1="15.86cm" y1="13.56cm" x2="16.85cm" y2="13.56cm" style="stroke:#000000; stroke-width:0.50pt;"/>
<line x1="16.85cm" y1="11.34cm" x2="16.85cm" y2="15.31cm" style="stroke:#000000; stroke-width:0.50pt;"/>
<line x1="16.85cm" y1="11.34cm" x2="17.18cm" y2="11.34cm" style="stroke:#000000; stroke-width:0.50pt;"/>
<line x1="16.85cm" y1="15.31cm" x2="17.18cm" y2="15.31cm" style="stroke:#000000; stroke-width:0.50pt;"/>
<text x="10.23cm" y="5.08cm" style="fill:#000000;  font-size:9pt; font-family:sans-serif;">Garner, Robert W.</text>
<text x="10.23cm" y="5.46cm" style="fill:#000000;  font-size:9pt; font-family:sans-serif;">b. 1826/7-04-24 (Julien)</text>
<text x="10.23cm" y="5.85cm" style="fill:#000000;  font-size:9pt; font-family:sans-serif;">d. 1916-02-03</text>
<text x="2.93cm" y="9.05cm" style="fill:#000000;  font-size:9pt; font-family:sans-serif;">Garner von Zieliński, Lewis Anderson Sr</text>
<text x="2.93cm" y="9.43cm" style="fill:#000000;  font-size:9pt; font-family:sans-serif;">b. 1855-06-21</text>
<text x="2.93cm" y="9.81cm" style="fill:#000000;  font-size:9pt; font-family:sans-serif;">d. 1911-06-28</text>
<text x="10.23cm" y="13.07cm" style="fill:#000000;  font-size:9pt; font-family:sans-serif;">Zieliński, Phoebe Emily</text>
<text x="10.23cm" y="13.45cm" style="fill:#000000;  font-size:9pt; font-family:sans-serif;">b. 1827-04-12</text>
<text x="10.23cm" y="13.83cm" style="fill:#000000;  font-size:9pt; font-family:sans-serif;">m. 1849-10-04</text>
<text x="10.23cm" y="14.21cm" style="fill:#000000;  font-size:9pt; font-family:sans-serif;">d. 1882-03-07</text>
</svg>
