<?xml version="1.0" encoding="UTF-8" standalone="no"?>
<!DOCTYPE svg PUBLIC "-//W3C//DTD SVG 1.0//EN" "http://www.w3.org/TR/2001/REC-SVG-20010904/DTD/svg10.dtd">
<svg width="21.59cm" height="27.94cm" xmlns="http://www.w3.org/2000/svg">
<rect width="21.59cm" height="27.94cm" style="fill: none;"/>
<rect x="10.94cm" y="2.57cm" width="1.37cm" height="0.36cm" style="fill:#808080; stroke:#808080; stroke-width:1;"/>
<rect x="10.93cm" y="2.56cm" width="1.37cm" height="0.36cm" style="fill:#ffffff; stroke:#000000; stroke-width:0.114766;"/>
<rect x="9.26cm" y="3.02cm" width="1.37cm" height="0.36cm" style="fill:#808080; stroke:#808080; stroke-width:1;"/>
<rect x="9.25cm" y="3.01cm" width="1.37cm" height="0.36cm" style="fill:#ffffff; stroke:#000000; stroke-width:0.114766;"/>
<line x1="10.63cm" y1="3.19cm" x2="10.86cm" y2="3.19cm" style="stroke:#000000; stroke-width:0.11pt;"/>
<line x1="10.86cm" y1="2.74cm" x2="10.86cm" y2="3.70cm" style="stroke:#000000; stroke-width:0.11pt;"/>
<line x1="10.86cm" y1="2.74cm" x2="10.93cm" y2="2.74cm" style="stroke:#000000; stroke-width:0.11pt;"/>
<line x1="10.86cm" y1="3.70cm" x2="10.93cm" y2="3.70cm" style="stroke:#000000; stroke-width:0.11pt;"/>
<rect x="10.94cm" y="3.48cm" width="1.37cm" height="0.47cm" style="fill:#808080; stroke:#808080; stroke-width:1;"/>
<rect x="10.93cm" y="3.47cm" width="1.37cm" height="0.47cm" style="fill:#ffffff; stroke:#000000; stroke-width:0.114766;"/>
<rect x="7.59cm" y="3.93cm" width="1.37cm" height="0.36cm" style="fill:#808080; stroke:#808080; stroke-width:1;"/>
<rect x="7.58cm" y="3.92cm" width="1.37cm" height="0.36cm" style="fill:#ffffff; stroke:#000000; stroke-width:0.114766;"/>
<line x1="8.95cm" y1="4.10cm" x2="9.18cm" y2="4.10cm" style="stroke:#000000; stroke-width:0.11pt;"/>
<line x1="9.18cm" y1="3.19cm" x2="9.18cm" y2="5.07cm" style="stroke:#000000; stroke-width:0.11pt;"/>
<line x1="9.18cm" y1="3.19cm" x2="9.25cm" y2="3.19cm" style="stroke:#000000; stroke-width:0.11pt;"/>
<line x1="9.18cm" y1="5.07cm" x2="9.25cm" y2="5.07cm" style="stroke:#000000; stroke-width:0.11pt;"/>
<rect x="10.94cm" y="4.39cm" width="1.37cm" height="0.36cm" style="fill:#808080; stroke:#808080; stroke-width:1;"/>
<rect x="10.93cm" y="4.38cm" width="1.37cm" height="0.36cm" style="fill:#ffffff; stroke:#000000; stroke-width:0.114766;"/>
<rect x="9.26cm" y="4.84cm" width="1.37cm" height="0.47cm" style="fill:#808080; stroke:#808080; stroke-width:1;"/>
<rect x="9.25cm" y="4.83cm" width="1.37cm" height="0.47cm" style="fill:#ffffff; stroke:#000000; stroke-width:0.114766;"/>
<line x1="10.63cm" y1="5.07cm" x2="10.86cm" y2="5.07cm" style="stroke:#000000; stroke-width:0.11pt;"/>
<line x1="10.86cm" y1="4.56cm" x2="10.86cm" y2="5.47cm" style="stroke:#000000; stroke-width:0.11pt;"/>
<line x1="10.86cm" y1="4.56cm" x2="10.93cm" y2="4.56cm" style="stroke:#000000; stroke-width:0.11pt;"/>
<line x1="10.86cm" y1="5.47cm" x2="10.93cm" y2="5.47cm" style="stroke:#000000; stroke-width:0.11pt;"/>
<rect x="10.94cm" y="5.30cm" width="1.37cm" height="0.36cm" style="fill:#808080; stroke:#808080; stroke-width:1;"/>
<rect x="10.93cm" y="5.29cm" width="1.37cm" height="0.36cm" style="fill:#ffffff; stroke:#000000; stroke-width:0.114766;"/>
<rect x="5.91cm" y="5.75cm" width="1.37cm" height="0.36cm" style="fill:#808080; stroke:#808080; stroke-width:1;"/>
<rect x="5.90cm" y="5.74cm" width="1.37cm" height="0.36cm" style="fill:#ffffff; stroke:#000000; stroke-width:0.114766;"/>
<line x1="7.27cm" y1="5.93cm" x2="7.50cm" y2="5.93cm" style="stroke:#000000; stroke-width:0.11pt;"/>
<line x1="7.50cm" y1="4.10cm" x2="7.50cm" y2="6.89cm" style="stroke:#000000; stroke-width:0.11pt;"/>
<line x1="7.50cm" y1="4.10cm" x2="7.58cm" y2="4.10cm" style="stroke:#000000; stroke-width:0.11pt;"/>
<line x1="7.50cm" y1="6.89cm" x2="7.58cm" y2="6.89cm" style="stroke:#000000; stroke-width:0.11pt;"/>
<rect x="9.26cm" y="6.21cm" width="1.37cm" height="0.36cm" style="fill:#808080; stroke:#808080; stroke-width:1;"/>
<rect x="9.25cm" y="6.20cm" width="1.37cm" height="0.36cm" style="fill:#ffffff; stroke:#000000; stroke-width:0.114766;"/>
<rect x="7.59cm" y="6.67cm" width="1.37cm" height="0.47cm" style="fill:#808080; stroke:#808080; stroke-width:1;"/>
<rect x="7.58cm" y="6.66cm" width="1.37cm" height="0.47cm" style="fill:#ffffff; stroke:#000000; stroke-width:0.114766;"/>
<line x1="8.95cm" y1="6.89cm" x2="9.18cm" y2="6.89cm" style="stroke:#000000; stroke-width:0.11pt;"/>
<line x1="9.18cm" y1="6.38cm" x2="9.18cm" y2="7.35cm" style="stroke:#000000; stroke-width:0.11pt;"/>
<line x1="9.18cm" y1="6.38cm" x2="9.25cm" y2="6.38cm" style="stroke:#000000; stroke-width:0.11pt;"/>
<line x1="9.18cm" y1="7.35cm" x2="9.25cm" y2="7.35cm" style="stroke:#000000; stroke-width:0.11pt;"/>
<rect x="9.26cm" y="7.12cm" width="1.37cm" height="0.47cm" style="fill:#808080; stroke:#808080; stroke-width:1;"/>
<rect x="9.25cm" y="7.11cm" width="1.37cm" height="0.47cm" style="fill:#ffffff; stroke:#000000; stroke-width:0.114766;"/>
<rect x="4.23cm" y="7.58cm" width="1.37cm" height="0.26cm" style="fill:#808080; stroke:#808080; stroke-width:1;"/>
<rect x="4.22cm" y="7.57cm" width="1.37cm" height="0.26cm" style="fill:#ffffff; stroke:#000000; stroke-width:0.114766;"/>
<line x1="5.60cm" y1="7.69cm" x2="5.83cm" y2="7.69cm" style="stroke:#000000; stroke-width:0.11pt;"/>
<line x1="5.83cm" y1="5.93cm" x2="5.83cm" y2="9.63cm" style="stroke:#000000; stroke-width:0.11pt;"/>
<line x1="5.83cm" y1="5.93cm" x2="5.90cm" y2="5.93cm" style="stroke:#000000; stroke-width:0.11pt;"/>
<line x1="5.83cm" y1="9.63cm" x2="5.90cm" y2="9.63cm" style="stroke:#000000; stroke-width:0.11pt;"/>
<rect x="9.26cm" y="8.03cm" width="1.37cm" height="0.36cm" style="fill:#808080; stroke:#808080; stroke-width:1;"/>
<rect x="9.25cm" y="8.02cm" width="1.37cm" height="0.36cm" style="fill:#ffffff; stroke:#000000; stroke-width:0.114766;"/>
<rect x="7.59cm" y="8.49cm" width="1.37cm" height="0.36cm" style="fill:#808080; stroke:#808080; stroke-width:1;"/>
<rect x="7.58cm" y="8.48cm" width="1.37cm" height="0.36cm" style="fill:#ffffff; stroke:#000000; stroke-width:0.114766;"/>
<line x1="8.95cm" y1="8.66cm" x2="9.18cm" y2="8.66cm" style="stroke:#000000; stroke-width:0.11pt;"/>
<line x1="9.18cm" y1="8.20cm" x2="9.18cm" y2="9.17cm" style="stroke:#000000; stroke-width:0.11pt;"/>
<line x1="9.18cm" y1="8.20cm" x2="9.25cm" y2="8.20cm" style="stroke:#000000; stroke-width:0.11pt;"/>
<line x1="9.18cm" y1="9.17cm" x2="9.25cm" y2="9.17cm" style="stroke:#000000; stroke-width:0.11pt;"/>
<rect x="9.26cm" y="8.94cm" width="1.37cm" height="0.47cm" style="fill:#808080; stroke:#808080; stroke-width:1;"/>
<rect x="9.25cm" y="8.93cm" width="1.37cm" height="0.47cm" style="fill:#ffffff; stroke:#000000; stroke-width:0.114766;"/>
<rect x="5.91cm" y="9.40cm" width="1.37cm" height="0.47cm" style="fill:#808080; stroke:#808080; stroke-width:1;"/>
<rect x="5.90cm" y="9.39cm" width="1.37cm" height="0.47cm" style="fill:#ffffff; stroke:#000000; stroke-width:0.114766;"/>
<line x1="7.27cm" y1="9.63cm" x2="7.50cm" y2="9.63cm" style="stroke:#000000; stroke-width:0.11pt;"/>
<line x1="7.50cm" y1="8.66cm" x2="7.50cm" y2="11.45cm" style="stroke:#000000; stroke-width:0.11pt;"/>
<line x1="7.50cm" y1="8.66cm" x2="7.58cm" y2="8.66cm" style="stroke:#000000; stroke-width:0.11pt;"/>
<line x1="7.50cm" y1="11.45cm" x2="7.58cm" y2="11.45cm" style="stroke:#000000; stroke-width:0.11pt;"/>
<rect x="10.94cm" y="9.85cm" width="1.37cm" height="0.36cm" style="fill:#808080; stroke:#808080; stroke-width:1;"/>
<rect x="10.93cm" y="9.84cm" width="1.37cm" height="0.36cm" style="fill:#ffffff; stroke:#000000; stroke-width:0.114766;"/>
<rect x="9.26cm" y="10.31cm" width="1.37cm" height="0.36cm" style="fill:#808080; stroke:#808080; stroke-width:1;"/>
<rect x="9.25cm" y="10.30cm" width="1.37cm" height="0.36cm" style="fill:#ffffff; stroke:#000000; stroke-width:0.114766;"/>
<line x1="10.63cm" y1="10.48cm" x2="10.86cm" y2="10.48cm" style="stroke:#000000; stroke-width:0.11pt;"/>
<line x1="10.86cm" y1="10.03cm" x2="10.86cm" y2="10.99cm" style="stroke:#000000; stroke-width:0.11pt;"/>
<line x1="10.86cm" y1="10.03cm" x2="10.93cm" y2="10.03cm" style="stroke:#000000; stroke-width:0.11pt;"/>
<line x1="10.86cm" y1="10.99cm" x2="10.93cm" y2="10.99cm" style="stroke:#000000; stroke-width:0.11pt;"/>
<rect x="10.94cm" y="10.76cm" width="1.37cm" height="0.47cm" style="fill:#808080; stroke:#808080; stroke-width:1;"/>
<rect x="10.93cm" y="10.75cm" width="1.37cm" height="0.47cm" style="fill:#ffffff; stroke:#000000; stroke-width:0.114766;"/>
<rect x="7.59cm" y="11.22cm" width="1.37cm" height="0.47cm" style="fill:#808080; stroke:#808080; stroke-width:1;"/>
<rect x="7.58cm" y="11.21cm" width="1.37cm" height="0.47cm" style="fill:#ffffff; stroke:#000000; stroke-width:0.114766;"/>
<line x1="8.95cm" y1="11.45cm" x2="9.18cm" y2="11.45cm" style="stroke:#000000; stroke-width:0.11pt;"/>
<line x1="9.18cm" y1="10.48cm" x2="9.18cm" y2="12.36cm" style="stroke:#000000; stroke-width:0.11pt;"/>
<line x1="9.18cm" y1="10.48cm" x2="9.25cm" y2="10.48cm" style="stroke:#000000; stroke-width:0.11pt;"/>
<line x1="9.18cm" y1="12.36cm" x2="9.25cm" y2="12.36cm" style="stroke:#000000; stroke-width:0.11pt;"/>
<rect x="10.94cm" y="11.68cm" width="1.37cm" height="0.36cm" style="fill:#808080; stroke:#808080; stroke-width:1;"/>
<rect x="10.93cm" y="11.67cm" width="1.37cm" height="0.36cm" style="fill:#ffffff; stroke:#000000; stroke-width:0.114766;"/>
<rect x="9.26cm" y="12.13cm" width="1.37cm" height="0.47cm" style="fill:#808080; stroke:#808080; stroke-width:1;"/>
<rect x="9.25cm" y="12.12cm" width="1.37cm" height="0.47cm" style="fill:#ffffff; stroke:#000000; stroke-width:0.114766;"/>
<line x1="10.63cm" y1="12.36cm" x2="10.86cm" y2="12.36cm" style="stroke:#000000; stroke-width:0.11pt;"/>
<line x1="10.86cm" y1="11.85cm" x2="10.86cm" y2="12.81cm" style="stroke:#000000; stroke-width:0.11pt;"/>
<line x1="10.86cm" y1="11.85cm" x2="10.93cm" y2="11.85cm" style="stroke:#000000; stroke-width:0.11pt;"/>
<line x1="10.86cm" y1="12.81cm" x2="10.93cm" y2="12.81cm" style="stroke:#000000; stroke-width:0.11pt;"/>
<rect x="10.94cm" y="12.59cm" width="1.37cm" height="0.47cm" style="fill:#808080; stroke:#808080; stroke-width:1;"/>
<rect x="10.93cm" y="12.58cm" width="1.37cm" height="0.47cm" style="fill:#ffffff; stroke:#000000; stroke-width:0.114766;"/>
<rect x="2.56cm" y="13.04cm" width="1.37cm" height="0.26cm" style="fill:#808080; stroke:#808080; stroke-width:1;"/>
<rect x="2.55cm" y="13.03cm" width="1.37cm" height="0.26cm" style="fill:#ffffff; stroke:#000000; stroke-width:0.114766;"/>
<line x1="3.92cm" y1="13.16cm" x2="4.15cm" y2="13.16cm" style="stroke:#000000; stroke-width:0.11pt;"/>
<line x1="4.15cm" y1="7.69cm" x2="4.15cm" y2="19.59cm" style="stroke:#000000; stroke-width:0.11pt;"/>
<line x1="4.15cm" y1="7.69cm" x2="4.22cm" y2="7.69cm" style="stroke:#000000; stroke-width:0.11pt;"/>
<line x1="4.15cm" y1="19.59cm" x2="4.22cm" y2="19.59cm" style="stroke:#000000; stroke-width:0.11pt;"/>
<rect x="10.94cm" y="13.50cm" width="1.37cm" height="0.36cm" style="fill:#808080; stroke:#808080; stroke-width:1;"/>
<rect x="10.93cm" y="13.49cm" width="1.37cm" height="0.36cm" style="fill:#ffffff; stroke:#000000; stroke-width:0.114766;"/>
<rect x="9.26cm" y="13.95cm" width="1.37cm" height="0.36cm" style="fill:#808080; stroke:#808080; stroke-width:1;"/>
<rect x="9.25cm" y="13.94cm" width="1.37cm" height="0.36cm" style="fill:#ffffff; stroke:#000000; stroke-width:0.114766;"/>
<line x1="10.63cm" y1="14.13cm" x2="10.86cm" y2="14.13cm" style="stroke:#000000; stroke-width:0.11pt;"/>
<line x1="10.86cm" y1="13.67cm" x2="10.86cm" y2="14.64cm" style="stroke:#000000; stroke-width:0.11pt;"/>
<line x1="10.86cm" y1="13.67cm" x2="10.93cm" y2="13.67cm" style="stroke:#000000; stroke-width:0.11pt;"/>
<line x1="10.86cm" y1="14.64cm" x2="10.93cm" y2="14.64cm" style="stroke:#000000; stroke-width:0.11pt;"/>
<rect x="10.94cm" y="14.41cm" width="1.37cm" height="0.47cm" style="fill:#808080; stroke:#808080; stroke-width:1;"/>
<rect x="10.93cm" y="14.40cm" width="1.37cm" height="0.47cm" style="fill:#ffffff; stroke:#000000; stroke-width:0.114766;"/>
<rect x="7.59cm" y="14.86cm" width="1.37cm" height="0.36cm" style="fill:#808080; stroke:#808080; stroke-width:1;"/>
<rect x="7.58cm" y="14.85cm" width="1.37cm" height="0.36cm" style="fill:#ffffff; stroke:#000000; stroke-width:0.114766;"/>
<line x1="8.95cm" y1="15.04cm" x2="9.18cm" y2="15.04cm" style="stroke:#000000; stroke-width:0.11pt;"/>
<line x1="9.18cm" y1="14.13cm" x2="9.18cm" y2="16.00cm" style="stroke:#000000; stroke-width:0.11pt;"/>
<line x1="9.18cm" y1="14.13cm" x2="9.25cm" y2="14.13cm" style="stroke:#000000; stroke-width:0.11pt;"/>
<line x1="9.18cm" y1="16.00cm" x2="9.25cm" y2="16.00cm" style="stroke:#000000; stroke-width:0.11pt;"/>
<rect x="10.94cm" y="15.32cm" width="1.37cm" height="0.36cm" style="fill:#808080; stroke:#808080; stroke-width:1;"/>
<rect x="10.93cm" y="15.31cm" width="1.37cm" height="0.36cm" style="fill:#ffffff; stroke:#000000; stroke-width:0.114766;"/>
<rect x="9.26cm" y="15.78cm" width="1.37cm" height="0.47cm" style="fill:#808080; stroke:#808080; stroke-width:1;"/>
<rect x="9.25cm" y="15.76cm" width="1.37cm" height="0.47cm" style="fill:#ffffff; stroke:#000000; stroke-width:0.114766;"/>
<line x1="10.63cm" y1="16.00cm" x2="10.86cm" y2="16.00cm" style="stroke:#000000; stroke-width:0.11pt;"/>
<line x1="10.86cm" y1="15.49cm" x2="10.86cm" y2="16.46cm" style="stroke:#000000; stroke-width:0.11pt;"/>
<line x1="10.86cm" y1="15.49cm" x2="10.93cm" y2="15.49cm" style="stroke:#000000; stroke-width:0.11pt;"/>
<line x1="10.86cm" y1="16.46cm" x2="10.93cm" y2="16.46cm" style="stroke:#000000; stroke-width:0.11pt;"/>
<rect x="10.94cm" y="16.23cm" width="1.37cm" height="0.47cm" style="fill:#808080; stroke:#808080; stroke-width:1;"/>
<rect x="10.93cm" y="16.22cm" width="1.37cm" height="0.47cm" style="fill:#ffffff; stroke:#000000; stroke-width:0.114766;"/>
<rect x="5.91cm" y="16.69cm" width="1.37cm" height="0.36cm" style="fill:#808080; stroke:#808080; stroke-width:1;"/>
<rect x="5.90cm" y="16.68cm" width="1.37cm" height="0.36cm" style="fill:#ffffff; stroke:#000000; stroke-width:0.114766;"/>
<line x1="7.27cm" y1="16.86cm" x2="7.50cm" y2="16.86cm" style="stroke:#000000; stroke-width:0.11pt;"/>
<line x1="7.50cm" y1="15.04cm" x2="7.50cm" y2="18.73cm" style="stroke:#000000; stroke-width:0.11pt;"/>
<line x1="7.50cm" y1="15.04cm" x2="7.58cm" y2="15.04cm" style="stroke:#000000; stroke-width:0.11pt;"/>
<line x1="7.50cm" y1="18.73cm" x2="7.58cm" y2="18.73cm" style="stroke:#000000; stroke-width:0.11pt;"/>
<rect x="10.94cm" y="17.14cm" width="1.37cm" height="0.36cm" style="fill:#808080; stroke:#808080; stroke-width:1;"/>
<rect x="10.93cm" y="17.13cm" width="1.37cm" height="0.36cm" style="fill:#ffffff; stroke:#000000; stroke-width:0.114766;"/>
<rect x="9.26cm" y="17.60cm" width="1.37cm" height="0.36cm" style="fill:#808080; stroke:#808080; stroke-width:1;"/>
<rect x="9.25cm" y="17.59cm" width="1.37cm" height="0.36cm" style="fill:#ffffff; stroke:#000000; stroke-width:0.114766;"/>
<line x1="10.63cm" y1="17.77cm" x2="10.86cm" y2="17.77cm" style="stroke:#000000; stroke-width:0.11pt;"/>
<line x1="10.86cm" y1="17.31cm" x2="10.86cm" y2="18.28cm" style="stroke:#000000; stroke-width:0.11pt;"/>
<line x1="10.86cm" y1="17.31cm" x2="10.93cm" y2="17.31cm" style="stroke:#000000; stroke-width:0.11pt;"/>
<line x1="10.86cm" y1="18.28cm" x2="10.93cm" y2="18.28cm" style="stroke:#000000; stroke-width:0.11pt;"/>
<rect x="10.94cm" y="18.05cm" width="1.37cm" height="0.47cm" style="fill:#808080; stroke:#808080; stroke-width:1;"/>
<rect x="10.93cm" y="18.04cm" width="1.37cm" height="0.47cm" style="fill:#ffffff; stroke:#000000; stroke-width:0.114766;"/>
<rect x="7.59cm" y="18.51cm" width="1.37cm" height="0.47cm" style="fill:#808080; stroke:#808080; stroke-width:1;"/>
<rect x="7.58cm" y="18.50cm" width="1.37cm" height="0.47cm" style="fill:#ffffff; stroke:#000000; stroke-width:0.114766;"/>
<line x1="8.95cm" y1="18.73cm" x2="9.18cm" y2="18.73cm" style="stroke:#000000; stroke-width:0.11pt;"/>
<line x1="9.18cm" y1="17.77cm" x2="9.18cm" y2="19.19cm" style="stroke:#000000; stroke-width:0.11pt;"/>
<line x1="9.18cm" y1="17.77cm" x2="9.25cm" y2="17.77cm" style="stroke:#000000; stroke-width:0.11pt;"/>
<line x1="9.18cm" y1="19.19cm" x2="9.25cm" y2="19.19cm" style="stroke:#000000; stroke-width:0.11pt;"/>
<rect x="9.26cm" y="18.96cm" width="1.37cm" height="0.47cm" style="fill:#808080; stroke:#808080; stroke-width:1;"/>
<rect x="9.25cm" y="18.95cm" width="1.37cm" height="0.47cm" style="fill:#ffffff; stroke:#000000; stroke-width:0.114766;"/>
<rect x="4.23cm" y="19.42cm" width="1.37cm" height="0.36cm" style="fill:#808080; stroke:#808080; stroke-width:1;"/>
<rect x="4.22cm" y="19.41cm" width="1.37cm" height="0.36cm" style="fill:#ffffff; stroke:#000000; stroke-width:0.114766;"/>
<line x1="5.60cm" y1="19.59cm" x2="5.83cm" y2="19.59cm" style="stroke:#000000; stroke-width:0.11pt;"/>
<line x1="5.83cm" y1="16.86cm" x2="5.83cm" y2="22.38cm" style="stroke:#000000; stroke-width:0.11pt;"/>
<line x1="5.83cm" y1="16.86cm" x2="5.90cm" y2="16.86cm" style="stroke:#000000; stroke-width:0.11pt;"/>
<line x1="5.83cm" y1="22.38cm" x2="5.90cm" y2="22.38cm" style="stroke:#000000; stroke-width:0.11pt;"/>
<rect x="10.94cm" y="19.87cm" width="1.37cm" height="0.36cm" style="fill:#808080; stroke:#808080; stroke-width:1;"/>
<rect x="10.93cm" y="19.86cm" width="1.37cm" height="0.36cm" style="fill:#ffffff; stroke:#000000; stroke-width:0.114766;"/>
<rect x="9.26cm" y="20.33cm" width="1.37cm" height="0.36cm" style="fill:#808080; stroke:#808080; stroke-width:1;"/>
<rect x="9.25cm" y="20.32cm" width="1.37cm" height="0.36cm" style="fill:#ffffff; stroke:#000000; stroke-width:0.114766;"/>
<line x1="10.63cm" y1="20.50cm" x2="10.86cm" y2="20.50cm" style="stroke:#000000; stroke-width:0.11pt;"/>
<line x1="10.86cm" y1="20.05cm" x2="10.86cm" y2="21.01cm" style="stroke:#000000; stroke-width:0.11pt;"/>
<line x1="10.86cm" y1="20.05cm" x2="10.93cm" y2="20.05cm" style="stroke:#000000; stroke-width:0.11pt;"/>
<line x1="10.86cm" y1="21.01cm" x2="10.93cm" y2="21.01cm" style="stroke:#000000; stroke-width:0.11pt;"/>
<rect x="10.94cm" y="20.79cm" width="1.37cm" height="0.47cm" style="fill:#808080; stroke:#808080; stroke-width:1;"/>
<rect x="10.93cm" y="20.78cm" width="1.37cm" height="0.47cm" style="fill:#ffffff; stroke:#000000; stroke-width:0.114766;"/>
<rect x="7.59cm" y="21.24cm" width="1.37cm" height="0.36cm" style="fill:#808080; stroke:#808080; stroke-width:1;"/>
<rect x="7.58cm" y="21.23cm" width="1.37cm" height="0.36cm" style="fill:#ffffff; stroke:#000000; stroke-width:0.114766;"/>
<line x1="8.95cm" y1="21.41cm" x2="9.18cm" y2="21.41cm" style="stroke:#000000; stroke-width:0.11pt;"/>
<line x1="9.18cm" y1="20.50cm" x2="9.18cm" y2="21.92cm" style="stroke:#000000; stroke-width:0.11pt;"/>
<line x1="9.18cm" y1="20.50cm" x2="9.25cm" y2="20.50cm" style="stroke:#000000; stroke-width:0.11pt;"/>
<line x1="9.18cm" y1="21.92cm" x2="9.25cm" y2="21.92cm" style="stroke:#000000; stroke-width:0.11pt;"/>
<rect x="9.26cm" y="21.70cm" width="1.37cm" height="0.47cm" style="fill:#808080; stroke:#808080; stroke-width:1;"/>
<rect x="9.25cm" y="21.69cm" width="1.37cm" height="0.47cm" style="fill:#ffffff; stroke:#000000; stroke-width:0.114766;"/>
<rect x="5.91cm" y="22.15cm" width="1.37cm" height="0.47cm" style="fill:#808080; stroke:#808080; stroke-width:1;"/>
<rect x="5.90cm" y="22.14cm" width="1.37cm" height="0.47cm" style="fill:#ffffff; stroke:#000000; stroke-width:0.114766;"/>
<line x1="7.27cm" y1="22.38cm" x2="7.50cm" y2="22.38cm" style="stroke:#000000; stroke-width:0.11pt;"/>
<line x1="7.50cm" y1="21.41cm" x2="7.50cm" y2="24.20cm" style="stroke:#000000; stroke-width:0.11pt;"/>
<line x1="7.50cm" y1="21.41cm" x2="7.58cm" y2="21.41cm" style="stroke:#000000; stroke-width:0.11pt;"/>
<line x1="7.50cm" y1="24.20cm" x2="7.58cm" y2="24.20cm" style="stroke:#000000; stroke-width:0.11pt;"/>
<rect x="10.94cm" y="22.61cm" width="1.37cm" height="0.36cm" style="fill:#808080; stroke:#808080; stroke-width:1;"/>
<rect x="10.93cm" y="22.60cm" width="1.37cm" height="0.36cm" style="fill:#ffffff; stroke:#000000; stroke-width:0.114766;"/>
<rect x="9.26cm" y="23.06cm" width="1.37cm" height="0.36cm" style="fill:#808080; stroke:#808080; stroke-width:1;"/>
<rect x="9.25cm" y="23.05cm" width="1.37cm" height="0.36cm" style="fill:#ffffff; stroke:#000000; stroke-width:0.114766;"/>
<line x1="10.63cm" y1="23.23cm" x2="10.86cm" y2="23.23cm" style="stroke:#000000; stroke-width:0.11pt;"/>
<line x1="10.86cm" y1="22.78cm" x2="10.86cm" y2="23.74cm" style="stroke:#000000; stroke-width:0.11pt;"/>
<line x1="10.86cm" y1="22.78cm" x2="10.93cm" y2="22.78cm" style="stroke:#000000; stroke-width:0.11pt;"/>
<line x1="10.86cm" y1="23.74cm" x2="10.93cm" y2="23.74cm" style="stroke:#000000; stroke-width:0.11pt;"/>
<rect x="10.94cm" y="23.52cm" width="1.37cm" height="0.47cm" style="fill:#808080; stroke:#808080; stroke-width:1;"/>
<rect x="10.93cm" y="23.51cm" width="1.37cm" height="0.47cm" style="fill:#ffffff; stroke:#000000; stroke-width:0.114766;"/>
<rect x="7.59cm" y="23.97cm" width="1.37cm" height="0.47cm" style="fill:#808080; stroke:#808080; stroke-width:1;"/>
<rect x="7.58cm" y="23.96cm" width="1.37cm" height="0.47cm" style="fill:#ffffff; stroke:#000000; stroke-width:0.114766;"/>
<line x1="8.95cm" y1="24.20cm" x2="9.18cm" y2="24.20cm" style="stroke:#000000; stroke-width:0.11pt;"/>
<line x1="9.18cm" y1="23.23cm" x2="9.18cm" y2="25.11cm" style="stroke:#000000; stroke-width:0.11pt;"/>
<line x1="9.18cm" y1="23.23cm" x2="9.25cm" y2="23.23cm" style="stroke:#000000; stroke-width:0.11pt;"/>
<line x1="9.18cm" y1="25.11cm" x2="9.25cm" y2="25.11cm" style="stroke:#000000; stroke-width:0.11pt;"/>
<rect x="10.94cm" y="24.43cm" width="1.37cm" height="0.36cm" style="fill:#808080; stroke:#808080; stroke-width:1;"/>
<rect x="10.93cm" y="24.42cm" width="1.37cm" height="0.36cm" style="fill:#ffffff; stroke:#000000; stroke-width:0.114766;"/>
<rect x="9.26cm" y="24.88cm" width="1.37cm" height="0.47cm" style="fill:#808080; stroke:#808080; stroke-width:1;"/>
<rect x="9.25cm" y="24.87cm" width="1.37cm" height="0.47cm" style="fill:#ffffff; stroke:#000000; stroke-width:0.114766;"/>
<line x1="10.63cm" y1="25.11cm" x2="10.86cm" y2="25.11cm" style="stroke:#000000; stroke-width:0.11pt;"/>
<line x1="10.86cm" y1="24.60cm" x2="10.86cm" y2="25.11cm" style="stroke:#000000; stroke-width:0.11pt;"/>
<line x1="10.86cm" y1="24.60cm" x2="10.93cm" y2="24.60cm" style="stroke:#000000; stroke-width:0.11pt;"/>
<text x="11.28cm" y="2.67cm" style="fill:#000000;  font-size:2pt; font-family:sans-serif;">Garner, Joseph</text>
<text x="11.28cm" y="2.76cm" style="fill:#000000;  font-size:2pt; font-family:sans-serif;">b. 1792</text>
<text x="11.28cm" y="2.84cm" style="fill:#000000;  font-size:2pt; font-family:sans-serif;">d. </text>
<text x="9.61cm" y="3.12cm" style="fill:#000000;  font-size:2pt; font-family:sans-serif;">Garner, Robert W.</text>
<text x="9.61cm" y="3.21cm" style="fill:#000000;  font-size:2pt; font-family:sans-serif;">b. 1826/7-04-24 (Julien)</text>
<text x="9.61cm" y="3.30cm" style="fill:#000000;  font-size:2pt; font-family:sans-serif;">d. 1916-02-03</text>
<text x="11.28cm" y="3.59cm" style="fill:#000000;  font-size:2pt; font-family:sans-serif;">Edwards, Lucy</text>
<text x="11.28cm" y="3.68cm" style="fill:#000000;  font-size:2pt; font-family:sans-serif;">b. 1799-01-17</text>
<text x="11.28cm" y="3.77cm" style="fill:#000000;  font-size:2pt; font-family:sans-serif;">m. 1823-01-03</text>
<text x="11.28cm" y="3.85cm" style="fill:#000000;  font-size:2pt; font-family:sans-serif;">d. 1879-04-02</text>
<text x="7.93cm" y="4.03cm" style="fill:#000000;  font-size:2pt; font-family:sans-serif;">Garner von Zieliński, Lewis Anderson Sr</text>
<text x="7.93cm" y="4.12cm" style="fill:#000000;  font-size:2pt; font-family:sans-serif;">b. 1855-06-21</text>
<text x="7.93cm" y="4.21cm" style="fill:#000000;  font-size:2pt; font-family:sans-serif;">d. 1911-06-28</text>
<text x="11.28cm" y="4.49cm" style="fill:#000000;  font-size:2pt; font-family:sans-serif;">Шестаков, George</text>
<text x="11.28cm" y="4.58cm" style="fill:#000000;  font-size:2pt; font-family:sans-serif;">b. vers 1784-09-00</text>
<text x="11.28cm" y="4.67cm" style="fill:#000000;  font-size:2pt; font-family:sans-serif;">d. 1864-03-09</text>
<text x="9.61cm" y="4.96cm" style="fill:#000000;  font-size:2pt; font-family:sans-serif;">Zieliński, Phoebe Emily</text>
<text x="9.61cm" y="5.04cm" style="fill:#000000;  font-size:2pt; font-family:sans-serif;">b. 1827-04-12</text>
<text x="9.61cm" y="5.13cm" style="fill:#000000;  font-size:2pt; font-family:sans-serif;">m. 1849-10-04</text>
<text x="9.61cm" y="5.22cm" style="fill:#000000;  font-size:2pt; font-family:sans-serif;">d. 1882-03-07</text>
<text x="11.28cm" y="5.40cm" style="fill:#000000;  font-size:2pt; font-family:sans-serif;">Daniels, Phoebe</text>
<text x="11.28cm" y="5.49cm" style="fill:#000000;  font-size:2pt; font-family:sans-serif;">b. </text>
<text x="11.28cm" y="5.58cm" style="fill:#000000;  font-size:2pt; font-family:sans-serif;">m. </text>
<text x="6.25cm" y="5.86cm" style="fill:#000000;  font-size:2pt; font-family:sans-serif;">Garner, Eugene Stanley</text>
<text x="6.25cm" y="5.94cm" style="fill:#000000;  font-size:2pt; font-family:sans-serif;">b. 1895-12-01</text>
<text x="6.25cm" y="6.03cm" style="fill:#000000;  font-size:2pt; font-family:sans-serif;">d. 1984-03-01</text>
<text x="9.61cm" y="6.31cm" style="fill:#000000;  font-size:2pt; font-family:sans-serif;">Martel, Henry</text>
<text x="9.61cm" y="6.40cm" style="fill:#000000;  font-size:2pt; font-family:sans-serif;">b. 1805-10-27</text>
<text x="9.61cm" y="6.49cm" style="fill:#000000;  font-size:2pt; font-family:sans-serif;">d. 1902-01-18</text>
<text x="7.93cm" y="6.78cm" style="fill:#000000;  font-size:2pt; font-family:sans-serif;">Martel, Luella Jacques</text>
<text x="7.93cm" y="6.87cm" style="fill:#000000;  font-size:2pt; font-family:sans-serif;">b. 1852-01-23</text>
<text x="7.93cm" y="6.95cm" style="fill:#000000;  font-size:2pt; font-family:sans-serif;">m. 1875-04-01</text>
<text x="7.93cm" y="7.04cm" style="fill:#000000;  font-size:2pt; font-family:sans-serif;">d. 1921-04-28</text>
<text x="9.61cm" y="7.23cm" style="fill:#000000;  font-size:2pt; font-family:sans-serif;">Hébert, Ruth Ann</text>
<text x="9.61cm" y="7.32cm" style="fill:#000000;  font-size:2pt; font-family:sans-serif;">b. </text>
<text x="9.61cm" y="7.41cm" style="fill:#000000;  font-size:2pt; font-family:sans-serif;">m. 1840-04-04</text>
<text x="9.61cm" y="7.50cm" style="fill:#000000;  font-size:2pt; font-family:sans-serif;">d. 1843</text>
<text x="4.58cm" y="7.67cm" style="fill:#000000;  font-size:2pt; font-family:sans-serif;">Garner, Howard Lane</text>
<text x="4.58cm" y="7.76cm" style="fill:#000000;  font-size:2pt; font-family:sans-serif;">b. 1928-07-09</text>
<text x="9.61cm" y="8.13cm" style="fill:#000000;  font-size:2pt; font-family:sans-serif;">Reed, John</text>
<text x="9.61cm" y="8.22cm" style="fill:#000000;  font-size:2pt; font-family:sans-serif;">b. </text>
<text x="9.61cm" y="8.31cm" style="fill:#000000;  font-size:2pt; font-family:sans-serif;">d. 1886-08-11</text>
<text x="7.93cm" y="8.59cm" style="fill:#000000;  font-size:2pt; font-family:sans-serif;">Reed, Francis Vincent</text>
<text x="7.93cm" y="8.68cm" style="fill:#000000;  font-size:2pt; font-family:sans-serif;">b. 1857-05-02</text>
<text x="7.93cm" y="8.76cm" style="fill:#000000;  font-size:2pt; font-family:sans-serif;">d. 1945-03-02</text>
<text x="9.61cm" y="9.06cm" style="fill:#000000;  font-size:2pt; font-family:sans-serif;">Goodwin, Sarah</text>
<text x="9.61cm" y="9.14cm" style="fill:#000000;  font-size:2pt; font-family:sans-serif;">b. </text>
<text x="9.61cm" y="9.23cm" style="fill:#000000;  font-size:2pt; font-family:sans-serif;">m. 1835-02-10</text>
<text x="9.61cm" y="9.32cm" style="fill:#000000;  font-size:2pt; font-family:sans-serif;">d. </text>
<text x="6.25cm" y="9.51cm" style="fill:#000000;  font-size:2pt; font-family:sans-serif;">Reed, Frances Lucille (Babe)</text>
<text x="6.25cm" y="9.60cm" style="fill:#000000;  font-size:2pt; font-family:sans-serif;">b. 1902-07-08</text>
<text x="6.25cm" y="9.69cm" style="fill:#000000;  font-size:2pt; font-family:sans-serif;">m. 1921-01-03</text>
<text x="6.25cm" y="9.77cm" style="fill:#000000;  font-size:2pt; font-family:sans-serif;">d. 1988-08-09</text>
<text x="11.28cm" y="9.96cm" style="fill:#000000;  font-size:2pt; font-family:sans-serif;">Тихонов, Miles?</text>
<text x="11.28cm" y="10.04cm" style="fill:#000000;  font-size:2pt; font-family:sans-serif;">b. </text>
<text x="11.28cm" y="10.13cm" style="fill:#000000;  font-size:2pt; font-family:sans-serif;">d. </text>
<text x="9.61cm" y="10.41cm" style="fill:#000000;  font-size:2pt; font-family:sans-serif;">Тихонов, Moses</text>
<text x="9.61cm" y="10.50cm" style="fill:#000000;  font-size:2pt; font-family:sans-serif;">b. 1827</text>
<text x="9.61cm" y="10.59cm" style="fill:#000000;  font-size:2pt; font-family:sans-serif;">d. 1872</text>
<text x="11.28cm" y="10.88cm" style="fill:#000000;  font-size:2pt; font-family:sans-serif;">Smith, Anastasia?</text>
<text x="11.28cm" y="10.97cm" style="fill:#000000;  font-size:2pt; font-family:sans-serif;">b. </text>
<text x="11.28cm" y="11.05cm" style="fill:#000000;  font-size:2pt; font-family:sans-serif;">m. </text>
<text x="11.28cm" y="11.14cm" style="fill:#000000;  font-size:2pt; font-family:sans-serif;">d. </text>
<text x="7.93cm" y="11.33cm" style="fill:#000000;  font-size:2pt; font-family:sans-serif;">Тихонов, Catherine Virginia</text>
<text x="7.93cm" y="11.42cm" style="fill:#000000;  font-size:2pt; font-family:sans-serif;">b. 1864-01-27</text>
<text x="7.93cm" y="11.51cm" style="fill:#000000;  font-size:2pt; font-family:sans-serif;">m. 1883-09-12</text>
<text x="7.93cm" y="11.60cm" style="fill:#000000;  font-size:2pt; font-family:sans-serif;">d. 1903-11-27</text>
<text x="11.28cm" y="11.78cm" style="fill:#000000;  font-size:2pt; font-family:sans-serif;">Howell, John</text>
<text x="11.28cm" y="11.87cm" style="fill:#000000;  font-size:2pt; font-family:sans-serif;">b. </text>
<text x="11.28cm" y="11.95cm" style="fill:#000000;  font-size:2pt; font-family:sans-serif;">d. </text>
<text x="9.61cm" y="12.24cm" style="fill:#000000;  font-size:2pt; font-family:sans-serif;">Holt, Bridget</text>
<text x="9.61cm" y="12.33cm" style="fill:#000000;  font-size:2pt; font-family:sans-serif;">b. 1829-12-00</text>
<text x="9.61cm" y="12.42cm" style="fill:#000000;  font-size:2pt; font-family:sans-serif;">m. 1854-02-04</text>
<text x="9.61cm" y="12.51cm" style="fill:#000000;  font-size:2pt; font-family:sans-serif;">d. 1904-02-14</text>
<text x="11.28cm" y="12.70cm" style="fill:#000000;  font-size:2pt; font-family:sans-serif;">Yates, Sarah</text>
<text x="11.28cm" y="12.79cm" style="fill:#000000;  font-size:2pt; font-family:sans-serif;">b. </text>
<text x="11.28cm" y="12.87cm" style="fill:#000000;  font-size:2pt; font-family:sans-serif;">m. </text>
<text x="11.28cm" y="12.96cm" style="fill:#000000;  font-size:2pt; font-family:sans-serif;">d. </text>
<text x="2.90cm" y="13.13cm" style="fill:#000000;  font-size:2pt; font-family:sans-serif;">Garner, Rita Marie</text>
<text x="2.90cm" y="13.22cm" style="fill:#000000;  font-size:2pt; font-family:sans-serif;">b. 1952-09-07</text>
<text x="11.28cm" y="13.60cm" style="fill:#000000;  font-size:2pt; font-family:sans-serif;">Schultz, John</text>
<text x="11.28cm" y="13.69cm" style="fill:#000000;  font-size:2pt; font-family:sans-serif;">b. </text>
<text x="11.28cm" y="13.77cm" style="fill:#000000;  font-size:2pt; font-family:sans-serif;">d. 1860</text>
<text x="9.61cm" y="14.06cm" style="fill:#000000;  font-size:2pt; font-family:sans-serif;">Marín, Alfred Franklin(Frank)</text>
<text x="9.61cm" y="14.14cm" style="fill:#000000;  font-size:2pt; font-family:sans-serif;">b. </text>
<text x="9.61cm" y="14.23cm" style="fill:#000000;  font-size:2pt; font-family:sans-serif;">d. 1864-12-25</text>
<text x="11.28cm" y="14.52cm" style="fill:#000000;  font-size:2pt; font-family:sans-serif;">Payne, Jane Coppage</text>
<text x="11.28cm" y="14.61cm" style="fill:#000000;  font-size:2pt; font-family:sans-serif;">b. </text>
<text x="11.28cm" y="14.70cm" style="fill:#000000;  font-size:2pt; font-family:sans-serif;">m. 1811-06-21</text>
<text x="11.28cm" y="14.78cm" style="fill:#000000;  font-size:2pt; font-family:sans-serif;">d. 1873-06-07</text>
<text x="7.93cm" y="14.97cm" style="fill:#000000;  font-size:2pt; font-family:sans-serif;">Marín, Moses Wallace</text>
<text x="7.93cm" y="15.05cm" style="fill:#000000;  font-size:2pt; font-family:sans-serif;">b. 1862-04-08</text>
<text x="7.93cm" y="15.14cm" style="fill:#000000;  font-size:2pt; font-family:sans-serif;">d. 1909-08-08</text>
<text x="11.28cm" y="15.42cm" style="fill:#000000;  font-size:2pt; font-family:sans-serif;">Floyd, John S.</text>
<text x="11.28cm" y="15.51cm" style="fill:#000000;  font-size:2pt; font-family:sans-serif;">b. 1802</text>
<text x="11.28cm" y="15.60cm" style="fill:#000000;  font-size:2pt; font-family:sans-serif;">d. 1893</text>
<text x="9.61cm" y="15.89cm" style="fill:#000000;  font-size:2pt; font-family:sans-serif;">Floyd, Martha Frances "Fannie"</text>
<text x="9.61cm" y="15.98cm" style="fill:#000000;  font-size:2pt; font-family:sans-serif;">b. 1843-05-13</text>
<text x="9.61cm" y="16.06cm" style="fill:#000000;  font-size:2pt; font-family:sans-serif;">m. 1860-10-00</text>
<text x="9.61cm" y="16.15cm" style="fill:#000000;  font-size:2pt; font-family:sans-serif;">d. 1913-04-17</text>
<text x="11.28cm" y="16.34cm" style="fill:#000000;  font-size:2pt; font-family:sans-serif;">Coleman, Mary</text>
<text x="11.28cm" y="16.43cm" style="fill:#000000;  font-size:2pt; font-family:sans-serif;">b. 1812</text>
<text x="11.28cm" y="16.52cm" style="fill:#000000;  font-size:2pt; font-family:sans-serif;">m. 1830-12-10</text>
<text x="11.28cm" y="16.61cm" style="fill:#000000;  font-size:2pt; font-family:sans-serif;">d. </text>
<text x="6.25cm" y="16.79cm" style="fill:#000000;  font-size:2pt; font-family:sans-serif;">Marín, Walter Matthew</text>
<text x="6.25cm" y="16.88cm" style="fill:#000000;  font-size:2pt; font-family:sans-serif;">b. 1893-12-29</text>
<text x="6.25cm" y="16.96cm" style="fill:#000000;  font-size:2pt; font-family:sans-serif;">d. 1969-01-16</text>
<text x="11.28cm" y="17.24cm" style="fill:#000000;  font-size:2pt; font-family:sans-serif;">Fernandez, Thomas</text>
<text x="11.28cm" y="17.33cm" style="fill:#000000;  font-size:2pt; font-family:sans-serif;">b. 1787</text>
<text x="11.28cm" y="17.42cm" style="fill:#000000;  font-size:2pt; font-family:sans-serif;">d. </text>
<text x="9.61cm" y="17.70cm" style="fill:#000000;  font-size:2pt; font-family:sans-serif;">Fernandez, Thomas</text>
<text x="9.61cm" y="17.79cm" style="fill:#000000;  font-size:2pt; font-family:sans-serif;">b. 1825-11-27</text>
<text x="9.61cm" y="17.87cm" style="fill:#000000;  font-size:2pt; font-family:sans-serif;">d. 1902-11-26</text>
<text x="11.28cm" y="18.17cm" style="fill:#000000;  font-size:2pt; font-family:sans-serif;">Holloway, Sarah</text>
<text x="11.28cm" y="18.25cm" style="fill:#000000;  font-size:2pt; font-family:sans-serif;">b. 1795-09-10</text>
<text x="11.28cm" y="18.34cm" style="fill:#000000;  font-size:2pt; font-family:sans-serif;">m. 1820-02-13</text>
<text x="11.28cm" y="18.43cm" style="fill:#000000;  font-size:2pt; font-family:sans-serif;">d. </text>
<text x="7.93cm" y="18.62cm" style="fill:#000000;  font-size:2pt; font-family:sans-serif;">Landry, Eleanor (Nellie) Therese</text>
<text x="7.93cm" y="18.71cm" style="fill:#000000;  font-size:2pt; font-family:sans-serif;">b. 1864-12-00</text>
<text x="7.93cm" y="18.80cm" style="fill:#000000;  font-size:2pt; font-family:sans-serif;">m. 1885-10-15</text>
<text x="7.93cm" y="18.88cm" style="fill:#000000;  font-size:2pt; font-family:sans-serif;">d. 1935-12-12</text>
<text x="9.61cm" y="19.08cm" style="fill:#000000;  font-size:2pt; font-family:sans-serif;">Ortega, Catherine</text>
<text x="9.61cm" y="19.16cm" style="fill:#000000;  font-size:2pt; font-family:sans-serif;">b. 1843</text>
<text x="9.61cm" y="19.25cm" style="fill:#000000;  font-size:2pt; font-family:sans-serif;">m. 1863-04-27</text>
<text x="9.61cm" y="19.34cm" style="fill:#000000;  font-size:2pt; font-family:sans-serif;">d. 1876</text>
<text x="4.58cm" y="19.52cm" style="fill:#000000;  font-size:2pt; font-family:sans-serif;">Marín, Mary Anne</text>
<text x="4.58cm" y="19.61cm" style="fill:#000000;  font-size:2pt; font-family:sans-serif;">b. 1927-01-13</text>
<text x="4.58cm" y="19.70cm" style="fill:#000000;  font-size:2pt; font-family:sans-serif;">m. 1948-02-02</text>
<text x="11.28cm" y="19.98cm" style="fill:#000000;  font-size:2pt; font-family:sans-serif;">Boucher, David</text>
<text x="11.28cm" y="20.06cm" style="fill:#000000;  font-size:2pt; font-family:sans-serif;">b. </text>
<text x="11.28cm" y="20.15cm" style="fill:#000000;  font-size:2pt; font-family:sans-serif;">d. </text>
<text x="9.61cm" y="20.43cm" style="fill:#000000;  font-size:2pt; font-family:sans-serif;">Boucher, Michael</text>
<text x="9.61cm" y="20.52cm" style="fill:#000000;  font-size:2pt; font-family:sans-serif;">b. 1820</text>
<text x="9.61cm" y="20.61cm" style="fill:#000000;  font-size:2pt; font-family:sans-serif;">d. 1859-01-09</text>
<text x="11.28cm" y="20.90cm" style="fill:#000000;  font-size:2pt; font-family:sans-serif;">Morrison, Nancy</text>
<text x="11.28cm" y="20.99cm" style="fill:#000000;  font-size:2pt; font-family:sans-serif;">b. </text>
<text x="11.28cm" y="21.07cm" style="fill:#000000;  font-size:2pt; font-family:sans-serif;">m. 1810</text>
<text x="11.28cm" y="21.16cm" style="fill:#000000;  font-size:2pt; font-family:sans-serif;">d. </text>
<text x="7.93cm" y="21.34cm" style="fill:#000000;  font-size:2pt; font-family:sans-serif;">Boucher, William Bernard</text>
<text x="7.93cm" y="21.43cm" style="fill:#000000;  font-size:2pt; font-family:sans-serif;">b. 1854-01-25</text>
<text x="7.93cm" y="21.52cm" style="fill:#000000;  font-size:2pt; font-family:sans-serif;">d. 1928-12-27</text>
<text x="9.61cm" y="21.81cm" style="fill:#000000;  font-size:2pt; font-family:sans-serif;">Boucher, Honora</text>
<text x="9.61cm" y="21.90cm" style="fill:#000000;  font-size:2pt; font-family:sans-serif;">b. 1824</text>
<text x="9.61cm" y="21.98cm" style="fill:#000000;  font-size:2pt; font-family:sans-serif;">m. </text>
<text x="9.61cm" y="22.07cm" style="fill:#000000;  font-size:2pt; font-family:sans-serif;">d. 1895-02-09</text>
<text x="6.25cm" y="22.26cm" style="fill:#000000;  font-size:2pt; font-family:sans-serif;">Boucher, Mary Cecilia</text>
<text x="6.25cm" y="22.35cm" style="fill:#000000;  font-size:2pt; font-family:sans-serif;">b. 1890-02-17</text>
<text x="6.25cm" y="22.44cm" style="fill:#000000;  font-size:2pt; font-family:sans-serif;">m. 1920-06-23</text>
<text x="6.25cm" y="22.53cm" style="fill:#000000;  font-size:2pt; font-family:sans-serif;">d. 1945-06-03</text>
<text x="11.28cm" y="22.71cm" style="fill:#000000;  font-size:2pt; font-family:sans-serif;">Reeves, John</text>
<text x="11.28cm" y="22.80cm" style="fill:#000000;  font-size:2pt; font-family:sans-serif;">b. </text>
<text x="11.28cm" y="22.88cm" style="fill:#000000;  font-size:2pt; font-family:sans-serif;">d. </text>
<text x="9.61cm" y="23.16cm" style="fill:#000000;  font-size:2pt; font-family:sans-serif;">Reeves, James</text>
<text x="9.61cm" y="23.25cm" style="fill:#000000;  font-size:2pt; font-family:sans-serif;">b. 1819-03-24</text>
<text x="9.61cm" y="23.34cm" style="fill:#000000;  font-size:2pt; font-family:sans-serif;">d. 1897-07-11</text>
<text x="11.28cm" y="23.63cm" style="fill:#000000;  font-size:2pt; font-family:sans-serif;">McCarthy, Mary</text>
<text x="11.28cm" y="23.72cm" style="fill:#000000;  font-size:2pt; font-family:sans-serif;">b. </text>
<text x="11.28cm" y="23.81cm" style="fill:#000000;  font-size:2pt; font-family:sans-serif;">m. </text>
<text x="11.28cm" y="23.89cm" style="fill:#000000;  font-size:2pt; font-family:sans-serif;">d. </text>
<text x="7.93cm" y="24.09cm" style="fill:#000000;  font-size:2pt; font-family:sans-serif;">Reeves, Maria</text>
<text x="7.93cm" y="24.17cm" style="fill:#000000;  font-size:2pt; font-family:sans-serif;">b. 1856-11-26</text>
<text x="7.93cm" y="24.26cm" style="fill:#000000;  font-size:2pt; font-family:sans-serif;">m. 1875-04-11</text>
<text x="7.93cm" y="24.35cm" style="fill:#000000;  font-size:2pt; font-family:sans-serif;">d. 1929-01-29</text>
<text x="11.28cm" y="24.53cm" style="fill:#000000;  font-size:2pt; font-family:sans-serif;">Meyer, P.D.</text>
<text x="11.28cm" y="24.62cm" style="fill:#000000;  font-size:2pt; font-family:sans-serif;">b. </text>
<text x="11.28cm" y="24.71cm" style="fill:#000000;  font-size:2pt; font-family:sans-serif;">d. </text>
<text x="9.61cm" y="25.00cm" style="fill:#000000;  font-size:2pt; font-family:sans-serif;">Meyer, Catherine</text>
<text x="9.61cm" y="25.09cm" style="fill:#000000;  font-size:2pt; font-family:sans-serif;">b. 1825-06-19</text>
<text x="9.61cm" y="25.17cm" style="fill:#000000;  font-size:2pt; font-family:sans-serif;">m. 1847-08-15</text>
<text x="9.61cm" y="25.26cm" style="fill:#000000;  font-size:2pt; font-family:sans-serif;">d. 1911-01-30</text>
<text x="2.49cm" y="-97.30cm" style="fill:#000000;font-size:3pt; font-family:sans-serif;"></text>
</svg>
