<?xml version="1.0" encoding="UTF-8" standalone="no"?>
<!DOCTYPE svg PUBLIC "-//W3C//DTD SVG 1.0//EN" "http://www.w3.org/TR/2001/REC-SVG-20010904/DTD/svg10.dtd">
<svg width="21.59cm" height="27.94cm" xmlns="http://www.w3.org/2000/svg">
<rect width="21.59cm" height="27.94cm" style="fill: none;"/>
<line x1="2.54cm" y1="2.54cm" x2="2.54cm" y2="25.40cm" style="stroke:#000000; stroke-width:0.50pt;"/>
<line x1="2.54cm" y1="2.54cm" x2="19.05cm" y2="2.54cm" style="stroke:#000000; stroke-width:0.50pt;"/>
<line x1="19.05cm" y1="2.54cm" x2="19.05cm" y2="25.40cm" style="stroke:#000000; stroke-width:0.50pt;"/>
<line x1="2.54cm" y1="25.40cm" x2="19.05cm" y2="25.40cm" style="stroke:#000000; stroke-width:0.50pt;"/>
<rect x="2.54cm" y="2.54cm" width="16.51cm" height="2.54cm" style="fill:#eaeaea; stroke:#000000; stroke-width:0.000000;"/>
<line x1="2.54cm" y1="5.08cm" x2="19.05cm" y2="5.08cm" style="stroke:#000000; stroke-width:0.50pt;"/>
<line x1="14.33cm" y1="5.08cm" x2="14.33cm" y2="8.47cm" style="stroke:#000000; stroke-width:0.50pt;"/>
<line x1="14.33cm" y1="5.08cm" x2="16.69cm" y2="5.08cm" style="stroke:#000000; stroke-width:0.50pt;"/>
<line x1="16.69cm" y1="5.08cm" x2="16.69cm" y2="8.47cm" style="stroke:#000000; stroke-width:0.50pt;"/>
<line x1="14.33cm" y1="8.47cm" x2="16.69cm" y2="8.47cm" style="stroke:#000000; stroke-width:0.50pt;"/>
<line x1="16.69cm" y1="5.08cm" x2="16.69cm" y2="8.47cm" style="stroke:#000000; stroke-width:0.50pt;"/>
<line x1="16.69cm" y1="5.08cm" x2="19.05cm" y2="5.08cm" style="stroke:#000000; stroke-width:0.50pt;"/>
<line x1="19.05cm" y1="5.08cm" x2="19.05cm" y2="8.47cm" style="stroke:#000000; stroke-width:0.50pt;"/>
<line x1="16.69cm" y1="8.47cm" x2="19.05cm" y2="8.47cm" style="stroke:#000000; stroke-width:0.50pt;"/>
<line x1="2.54cm" y1="8.47cm" x2="2.54cm" y2="11.85cm" style="stroke:#000000; stroke-width:0.50pt;"/>
<line x1="2.54cm" y1="8.47cm" x2="4.90cm" y2="8.47cm" style="stroke:#000000; stroke-width:0.50pt;"/>
<line x1="4.90cm" y1="8.47cm" x2="4.90cm" y2="11.85cm" style="stroke:#000000; stroke-width:0.50pt;"/>
<line x1="2.54cm" y1="11.85cm" x2="4.90cm" y2="11.85cm" style="stroke:#000000; stroke-width:0.50pt;"/>
<line x1="4.90cm" y1="8.47cm" x2="4.90cm" y2="11.85cm" style="stroke:#000000; stroke-width:0.50pt;"/>
<line x1="4.90cm" y1="8.47cm" x2="7.26cm" y2="8.47cm" style="stroke:#000000; stroke-width:0.50pt;"/>
<line x1="7.26cm" y1="8.47cm" x2="7.26cm" y2="11.85cm" style="stroke:#000000; stroke-width:0.50pt;"/>
<line x1="4.90cm" y1="11.85cm" x2="7.26cm" y2="11.85cm" style="stroke:#000000; stroke-width:0.50pt;"/>
<line x1="7.26cm" y1="8.47cm" x2="7.26cm" y2="11.85cm" style="stroke:#000000; stroke-width:0.50pt;"/>
<line x1="7.26cm" y1="8.47cm" x2="9.62cm" y2="8.47cm" style="stroke:#000000; stroke-width:0.50pt;"/>
<line x1="9.62cm" y1="8.47cm" x2="9.62cm" y2="11.85cm" style="stroke:#000000; stroke-width:0.50pt;"/>
<line x1="7.26cm" y1="11.85cm" x2="9.62cm" y2="11.85cm" style="stroke:#000000; stroke-width:0.50pt;"/>
<line x1="9.62cm" y1="8.47cm" x2="9.62cm" y2="11.85cm" style="stroke:#000000; stroke-width:0.50pt;"/>
<line x1="9.62cm" y1="8.47cm" x2="11.97cm" y2="8.47cm" style="stroke:#000000; stroke-width:0.50pt;"/>
<line x1="11.97cm" y1="8.47cm" x2="11.97cm" y2="11.85cm" style="stroke:#000000; stroke-width:0.50pt;"/>
<line x1="9.62cm" y1="11.85cm" x2="11.97cm" y2="11.85cm" style="stroke:#000000; stroke-width:0.50pt;"/>
<line x1="11.97cm" y1="8.47cm" x2="11.97cm" y2="11.85cm" style="stroke:#000000; stroke-width:0.50pt;"/>
<line x1="11.97cm" y1="8.47cm" x2="14.33cm" y2="8.47cm" style="stroke:#000000; stroke-width:0.50pt;"/>
<line x1="14.33cm" y1="8.47cm" x2="14.33cm" y2="11.85cm" style="stroke:#000000; stroke-width:0.50pt;"/>
<line x1="11.97cm" y1="11.85cm" x2="14.33cm" y2="11.85cm" style="stroke:#000000; stroke-width:0.50pt;"/>
<line x1="14.33cm" y1="8.47cm" x2="14.33cm" y2="11.85cm" style="stroke:#000000; stroke-width:0.50pt;"/>
<line x1="14.33cm" y1="8.47cm" x2="16.69cm" y2="8.47cm" style="stroke:#000000; stroke-width:0.50pt;"/>
<line x1="16.69cm" y1="8.47cm" x2="16.69cm" y2="11.85cm" style="stroke:#000000; stroke-width:0.50pt;"/>
<line x1="14.33cm" y1="11.85cm" x2="16.69cm" y2="11.85cm" style="stroke:#000000; stroke-width:0.50pt;"/>
<line x1="16.69cm" y1="8.47cm" x2="16.69cm" y2="11.85cm" style="stroke:#000000; stroke-width:0.50pt;"/>
<line x1="16.69cm" y1="8.47cm" x2="19.05cm" y2="8.47cm" style="stroke:#000000; stroke-width:0.50pt;"/>
<line x1="19.05cm" y1="8.47cm" x2="19.05cm" y2="11.85cm" style="stroke:#000000; stroke-width:0.50pt;"/>
<line x1="16.69cm" y1="11.85cm" x2="19.05cm" y2="11.85cm" style="stroke:#000000; stroke-width:0.50pt;"/>
<line x1="2.54cm" y1="11.85cm" x2="2.54cm" y2="15.24cm" style="stroke:#000000; stroke-width:0.50pt;"/>
<line x1="2.54cm" y1="11.85cm" x2="4.90cm" y2="11.85cm" style="stroke:#000000; stroke-width:0.50pt;"/>
<line x1="4.90cm" y1="11.85cm" x2="4.90cm" y2="15.24cm" style="stroke:#000000; stroke-width:0.50pt;"/>
<line x1="2.54cm" y1="15.24cm" x2="4.90cm" y2="15.24cm" style="stroke:#000000; stroke-width:0.50pt;"/>
<line x1="4.90cm" y1="11.85cm" x2="4.90cm" y2="15.24cm" style="stroke:#000000; stroke-width:0.50pt;"/>
<line x1="4.90cm" y1="11.85cm" x2="7.26cm" y2="11.85cm" style="stroke:#000000; stroke-width:0.50pt;"/>
<line x1="7.26cm" y1="11.85cm" x2="7.26cm" y2="15.24cm" style="stroke:#000000; stroke-width:0.50pt;"/>
<line x1="4.90cm" y1="15.24cm" x2="7.26cm" y2="15.24cm" style="stroke:#000000; stroke-width:0.50pt;"/>
<line x1="7.26cm" y1="11.85cm" x2="7.26cm" y2="15.24cm" style="stroke:#000000; stroke-width:0.50pt;"/>
<line x1="7.26cm" y1="11.85cm" x2="9.62cm" y2="11.85cm" style="stroke:#000000; stroke-width:0.50pt;"/>
<line x1="9.62cm" y1="11.85cm" x2="9.62cm" y2="15.24cm" style="stroke:#000000; stroke-width:0.50pt;"/>
<line x1="7.26cm" y1="15.24cm" x2="9.62cm" y2="15.24cm" style="stroke:#000000; stroke-width:0.50pt;"/>
<line x1="9.62cm" y1="11.85cm" x2="9.62cm" y2="15.24cm" style="stroke:#000000; stroke-width:0.50pt;"/>
<line x1="9.62cm" y1="11.85cm" x2="11.97cm" y2="11.85cm" style="stroke:#000000; stroke-width:0.50pt;"/>
<line x1="11.97cm" y1="11.85cm" x2="11.97cm" y2="15.24cm" style="stroke:#000000; stroke-width:0.50pt;"/>
<line x1="9.62cm" y1="15.24cm" x2="11.97cm" y2="15.24cm" style="stroke:#000000; stroke-width:0.50pt;"/>
<line x1="11.97cm" y1="11.85cm" x2="11.97cm" y2="15.24cm" style="stroke:#000000; stroke-width:0.50pt;"/>
<line x1="11.97cm" y1="11.85cm" x2="14.33cm" y2="11.85cm" style="stroke:#000000; stroke-width:0.50pt;"/>
<line x1="14.33cm" y1="11.85cm" x2="14.33cm" y2="15.24cm" style="stroke:#000000; stroke-width:0.50pt;"/>
<line x1="11.97cm" y1="15.24cm" x2="14.33cm" y2="15.24cm" style="stroke:#000000; stroke-width:0.50pt;"/>
<line x1="14.33cm" y1="11.85cm" x2="14.33cm" y2="15.24cm" style="stroke:#000000; stroke-width:0.50pt;"/>
<line x1="14.33cm" y1="11.85cm" x2="16.69cm" y2="11.85cm" style="stroke:#000000; stroke-width:0.50pt;"/>
<line x1="16.69cm" y1="11.85cm" x2="16.69cm" y2="15.24cm" style="stroke:#000000; stroke-width:0.50pt;"/>
<line x1="14.33cm" y1="15.24cm" x2="16.69cm" y2="15.24cm" style="stroke:#000000; stroke-width:0.50pt;"/>
<line x1="16.69cm" y1="11.85cm" x2="16.69cm" y2="15.24cm" style="stroke:#000000; stroke-width:0.50pt;"/>
<line x1="16.69cm" y1="11.85cm" x2="19.05cm" y2="11.85cm" style="stroke:#000000; stroke-width:0.50pt;"/>
<line x1="19.05cm" y1="11.85cm" x2="19.05cm" y2="15.24cm" style="stroke:#000000; stroke-width:0.50pt;"/>
<line x1="16.69cm" y1="15.24cm" x2="19.05cm" y2="15.24cm" style="stroke:#000000; stroke-width:0.50pt;"/>
<line x1="2.54cm" y1="15.24cm" x2="2.54cm" y2="18.63cm" style="stroke:#000000; stroke-width:0.50pt;"/>
<line x1="2.54cm" y1="15.24cm" x2="4.90cm" y2="15.24cm" style="stroke:#000000; stroke-width:0.50pt;"/>
<line x1="4.90cm" y1="15.24cm" x2="4.90cm" y2="18.63cm" style="stroke:#000000; stroke-width:0.50pt;"/>
<line x1="2.54cm" y1="18.63cm" x2="4.90cm" y2="18.63cm" style="stroke:#000000; stroke-width:0.50pt;"/>
<line x1="4.90cm" y1="15.24cm" x2="4.90cm" y2="18.63cm" style="stroke:#000000; stroke-width:0.50pt;"/>
<line x1="4.90cm" y1="15.24cm" x2="7.26cm" y2="15.24cm" style="stroke:#000000; stroke-width:0.50pt;"/>
<line x1="7.26cm" y1="15.24cm" x2="7.26cm" y2="18.63cm" style="stroke:#000000; stroke-width:0.50pt;"/>
<line x1="4.90cm" y1="18.63cm" x2="7.26cm" y2="18.63cm" style="stroke:#000000; stroke-width:0.50pt;"/>
<line x1="7.26cm" y1="15.24cm" x2="7.26cm" y2="18.63cm" style="stroke:#000000; stroke-width:0.50pt;"/>
<line x1="7.26cm" y1="15.24cm" x2="9.62cm" y2="15.24cm" style="stroke:#000000; stroke-width:0.50pt;"/>
<line x1="9.62cm" y1="15.24cm" x2="9.62cm" y2="18.63cm" style="stroke:#000000; stroke-width:0.50pt;"/>
<line x1="7.26cm" y1="18.63cm" x2="9.62cm" y2="18.63cm" style="stroke:#000000; stroke-width:0.50pt;"/>
<line x1="9.62cm" y1="15.24cm" x2="9.62cm" y2="18.63cm" style="stroke:#000000; stroke-width:0.50pt;"/>
<line x1="9.62cm" y1="15.24cm" x2="11.97cm" y2="15.24cm" style="stroke:#000000; stroke-width:0.50pt;"/>
<line x1="11.97cm" y1="15.24cm" x2="11.97cm" y2="18.63cm" style="stroke:#000000; stroke-width:0.50pt;"/>
<line x1="9.62cm" y1="18.63cm" x2="11.97cm" y2="18.63cm" style="stroke:#000000; stroke-width:0.50pt;"/>
<line x1="11.97cm" y1="15.24cm" x2="11.97cm" y2="18.63cm" style="stroke:#000000; stroke-width:0.50pt;"/>
<line x1="11.97cm" y1="15.24cm" x2="14.33cm" y2="15.24cm" style="stroke:#000000; stroke-width:0.50pt;"/>
<line x1="14.33cm" y1="15.24cm" x2="14.33cm" y2="18.63cm" style="stroke:#000000; stroke-width:0.50pt;"/>
<line x1="11.97cm" y1="18.63cm" x2="14.33cm" y2="18.63cm" style="stroke:#000000; stroke-width:0.50pt;"/>
<line x1="14.33cm" y1="15.24cm" x2="14.33cm" y2="18.63cm" style="stroke:#000000; stroke-width:0.50pt;"/>
<line x1="14.33cm" y1="15.24cm" x2="16.69cm" y2="15.24cm" style="stroke:#000000; stroke-width:0.50pt;"/>
<line x1="16.69cm" y1="15.24cm" x2="16.69cm" y2="18.63cm" style="stroke:#000000; stroke-width:0.50pt;"/>
<line x1="14.33cm" y1="18.63cm" x2="16.69cm" y2="18.63cm" style="stroke:#000000; stroke-width:0.50pt;"/>
<line x1="16.69cm" y1="15.24cm" x2="16.69cm" y2="18.63cm" style="stroke:#000000; stroke-width:0.50pt;"/>
<line x1="16.69cm" y1="15.24cm" x2="19.05cm" y2="15.24cm" style="stroke:#000000; stroke-width:0.50pt;"/>
<line x1="19.05cm" y1="15.24cm" x2="19.05cm" y2="18.63cm" style="stroke:#000000; stroke-width:0.50pt;"/>
<line x1="16.69cm" y1="18.63cm" x2="19.05cm" y2="18.63cm" style="stroke:#000000; stroke-width:0.50pt;"/>
<line x1="2.54cm" y1="18.63cm" x2="2.54cm" y2="22.01cm" style="stroke:#000000; stroke-width:0.50pt;"/>
<line x1="2.54cm" y1="18.63cm" x2="4.90cm" y2="18.63cm" style="stroke:#000000; stroke-width:0.50pt;"/>
<line x1="4.90cm" y1="18.63cm" x2="4.90cm" y2="22.01cm" style="stroke:#000000; stroke-width:0.50pt;"/>
<line x1="2.54cm" y1="22.01cm" x2="4.90cm" y2="22.01cm" style="stroke:#000000; stroke-width:0.50pt;"/>
<line x1="4.90cm" y1="18.63cm" x2="4.90cm" y2="22.01cm" style="stroke:#000000; stroke-width:0.50pt;"/>
<line x1="4.90cm" y1="18.63cm" x2="7.26cm" y2="18.63cm" style="stroke:#000000; stroke-width:0.50pt;"/>
<line x1="7.26cm" y1="18.63cm" x2="7.26cm" y2="22.01cm" style="stroke:#000000; stroke-width:0.50pt;"/>
<line x1="4.90cm" y1="22.01cm" x2="7.26cm" y2="22.01cm" style="stroke:#000000; stroke-width:0.50pt;"/>
<line x1="7.26cm" y1="18.63cm" x2="7.26cm" y2="22.01cm" style="stroke:#000000; stroke-width:0.50pt;"/>
<line x1="7.26cm" y1="18.63cm" x2="9.62cm" y2="18.63cm" style="stroke:#000000; stroke-width:0.50pt;"/>
<line x1="9.62cm" y1="18.63cm" x2="9.62cm" y2="22.01cm" style="stroke:#000000; stroke-width:0.50pt;"/>
<line x1="7.26cm" y1="22.01cm" x2="9.62cm" y2="22.01cm" style="stroke:#000000; stroke-width:0.50pt;"/>
<line x1="9.62cm" y1="18.63cm" x2="9.62cm" y2="22.01cm" style="stroke:#000000; stroke-width:0.50pt;"/>
<line x1="9.62cm" y1="18.63cm" x2="11.97cm" y2="18.63cm" style="stroke:#000000; stroke-width:0.50pt;"/>
<line x1="11.97cm" y1="18.63cm" x2="11.97cm" y2="22.01cm" style="stroke:#000000; stroke-width:0.50pt;"/>
<line x1="9.62cm" y1="22.01cm" x2="11.97cm" y2="22.01cm" style="stroke:#000000; stroke-width:0.50pt;"/>
<line x1="11.97cm" y1="18.63cm" x2="11.97cm" y2="22.01cm" style="stroke:#000000; stroke-width:0.50pt;"/>
<line x1="11.97cm" y1="18.63cm" x2="14.33cm" y2="18.63cm" style="stroke:#000000; stroke-width:0.50pt;"/>
<line x1="14.33cm" y1="18.63cm" x2="14.33cm" y2="22.01cm" style="stroke:#000000; stroke-width:0.50pt;"/>
<line x1="11.97cm" y1="22.01cm" x2="14.33cm" y2="22.01cm" style="stroke:#000000; stroke-width:0.50pt;"/>
<line x1="14.33cm" y1="18.63cm" x2="14.33cm" y2="22.01cm" style="stroke:#000000; stroke-width:0.50pt;"/>
<line x1="14.33cm" y1="18.63cm" x2="16.69cm" y2="18.63cm" style="stroke:#000000; stroke-width:0.50pt;"/>
<line x1="16.69cm" y1="18.63cm" x2="16.69cm" y2="22.01cm" style="stroke:#000000; stroke-width:0.50pt;"/>
<line x1="14.33cm" y1="22.01cm" x2="16.69cm" y2="22.01cm" style="stroke:#000000; stroke-width:0.50pt;"/>
<line x1="16.69cm" y1="18.63cm" x2="16.69cm" y2="22.01cm" style="stroke:#000000; stroke-width:0.50pt;"/>
<line x1="16.69cm" y1="18.63cm" x2="19.05cm" y2="18.63cm" style="stroke:#000000; stroke-width:0.50pt;"/>
<line x1="19.05cm" y1="18.63cm" x2="19.05cm" y2="22.01cm" style="stroke:#000000; stroke-width:0.50pt;"/>
<line x1="16.69cm" y1="22.01cm" x2="19.05cm" y2="22.01cm" style="stroke:#000000; stroke-width:0.50pt;"/>
<line x1="2.54cm" y1="22.01cm" x2="2.54cm" y2="25.40cm" style="stroke:#000000; stroke-width:0.50pt;"/>
<line x1="2.54cm" y1="22.01cm" x2="4.90cm" y2="22.01cm" style="stroke:#000000; stroke-width:0.50pt;"/>
<line x1="4.90cm" y1="22.01cm" x2="4.90cm" y2="25.40cm" style="stroke:#000000; stroke-width:0.50pt;"/>
<line x1="2.54cm" y1="25.40cm" x2="4.90cm" y2="25.40cm" style="stroke:#000000; stroke-width:0.50pt;"/>
<text x="9.34cm" y="3.56cm" style="fill:#000000;font-weight:bold;font-style:italic;font-size:20pt; font-family:serif;">Août 2015</text>
<text x="3.14cm" y="4.95cm" style="fill:#000000;font-weight:bold;font-style:italic;font-size:12pt; font-family:serif;">Lundi</text>
<text x="5.49cm" y="4.95cm" style="fill:#000000;font-weight:bold;font-style:italic;font-size:12pt; font-family:serif;">Mardi</text>
<text x="7.64cm" y="4.95cm" style="fill:#000000;font-weight:bold;font-style:italic;font-size:12pt; font-family:serif;">Mercredi</text>
<text x="10.25cm" y="4.95cm" style="fill:#000000;font-weight:bold;font-style:italic;font-size:12pt; font-family:serif;">Jeudi</text>
<text x="12.36cm" y="4.95cm" style="fill:#000000;font-weight:bold;font-style:italic;font-size:12pt; font-family:serif;">Vendredi</text>
<text x="14.84cm" y="4.95cm" style="fill:#000000;font-weight:bold;font-style:italic;font-size:12pt; font-family:serif;">Samedi</text>
<text x="16.99cm" y="4.95cm" style="fill:#000000;font-weight:bold;font-style:italic;font-size:12pt; font-family:serif;">Dimanche</text>
<text x="15.24cm" y="5.63cm" style="fill:#000000;font-weight:bold;font-size:13pt; font-family:serif;">1</text>
<text x="17.60cm" y="5.63cm" style="fill:#000000;font-weight:bold;font-size:13pt; font-family:serif;">2</text>
<text x="16.79cm" y="8.35cm" style="fill:#000000;font-size:9pt; font-family:serif;">Gosselin, Davi...</text>
<text x="16.79cm" y="7.95cm" style="fill:#000000;font-size:9pt; font-family:serif;">Poirier, Janelle </text>
<text x="3.45cm" y="9.02cm" style="fill:#000000;font-weight:bold;font-size:13pt; font-family:serif;">3</text>
<text x="2.64cm" y="11.74cm" style="fill:#000000;font-size:9pt; font-family:serif;">Bates, Stephen </text>
<text x="2.64cm" y="11.34cm" style="fill:#000000;font-size:9pt; font-family:serif;"> Cruz, Gerald ...</text>
<text x="2.54cm" y="2.92cm" style="fill:#000000;font-size:9pt; font-family:serif;"></text>
<text x="2.64cm" y="10.94cm" style="fill:#000000;font-size:9pt; font-family:serif;">Rasmussen, M...</text>
<text x="2.54cm" y="2.92cm" style="fill:#000000;font-size:9pt; font-family:serif;"></text>
<text x="2.64cm" y="10.55cm" style="fill:#000000;font-size:9pt; font-family:serif;">Welch, Rosalie...</text>
<text x="5.81cm" y="9.02cm" style="fill:#000000;font-weight:bold;font-size:13pt; font-family:serif;">4</text>
<text x="5.00cm" y="11.74cm" style="fill:#000000;font-size:9pt; font-family:serif;">Bates, William ...</text>
<text x="8.17cm" y="9.02cm" style="fill:#000000;font-weight:bold;font-size:13pt; font-family:serif;">5</text>
<text x="7.36cm" y="11.74cm" style="fill:#000000;font-size:9pt; font-family:serif;">Garner, Peter G...</text>
<text x="7.36cm" y="11.34cm" style="fill:#000000;font-size:9pt; font-family:serif;"> Welch, Christo...</text>
<text x="2.54cm" y="2.92cm" style="fill:#000000;font-size:9pt; font-family:serif;"></text>
<text x="7.36cm" y="10.94cm" style="fill:#000000;font-size:9pt; font-family:serif;">Hayes, LeAnn ...</text>
<text x="2.54cm" y="2.92cm" style="fill:#000000;font-size:9pt; font-family:serif;"></text>
<text x="7.36cm" y="10.55cm" style="fill:#000000;font-size:9pt; font-family:serif;">Rodgers, Shaw...</text>
<text x="10.52cm" y="9.02cm" style="fill:#000000;font-weight:bold;font-size:13pt; font-family:serif;">6</text>
<text x="9.72cm" y="11.74cm" style="fill:#000000;font-size:9pt; font-family:serif;">French, Erin Je...</text>
<text x="9.72cm" y="11.34cm" style="fill:#000000;font-size:9pt; font-family:serif;">Landry, Charle...</text>
<text x="12.88cm" y="9.02cm" style="fill:#000000;font-weight:bold;font-size:13pt; font-family:serif;">7</text>
<text x="12.07cm" y="11.74cm" style="fill:#000000;font-size:9pt; font-family:serif;">Cruz, Susan M...</text>
<text x="15.24cm" y="9.02cm" style="fill:#000000;font-weight:bold;font-size:13pt; font-family:serif;">8</text>
<text x="14.43cm" y="11.74cm" style="fill:#000000;font-size:9pt; font-family:serif;"> Garner, Micha...</text>
<text x="2.54cm" y="2.92cm" style="fill:#000000;font-size:9pt; font-family:serif;"></text>
<text x="14.43cm" y="11.34cm" style="fill:#000000;font-size:9pt; font-family:serif;">Gibbs, Sharon ...</text>
<text x="2.54cm" y="2.92cm" style="fill:#000000;font-size:9pt; font-family:serif;"></text>
<text x="14.43cm" y="10.94cm" style="fill:#000000;font-size:9pt; font-family:serif;">Payne, Elizabet...</text>
<text x="14.43cm" y="10.55cm" style="fill:#000000;font-size:9pt; font-family:serif;">Rodriquez, Wil...</text>
<text x="14.43cm" y="10.15cm" style="fill:#000000;font-size:9pt; font-family:serif;">Киселев, Aaro...</text>
<text x="17.60cm" y="9.02cm" style="fill:#000000;font-weight:bold;font-size:13pt; font-family:serif;">9</text>
<text x="16.79cm" y="11.74cm" style="fill:#000000;font-size:9pt; font-family:serif;"> Page, Dwayne ...</text>
<text x="2.54cm" y="2.92cm" style="fill:#000000;font-size:9pt; font-family:serif;"></text>
<text x="16.79cm" y="11.34cm" style="fill:#000000;font-size:9pt; font-family:serif;">Scott, Cheryl L...</text>
<text x="2.54cm" y="2.92cm" style="fill:#000000;font-size:9pt; font-family:serif;"></text>
<text x="16.79cm" y="10.94cm" style="fill:#000000;font-size:9pt; font-family:serif;">Welch, Jeremy ...</text>
<text x="16.79cm" y="10.55cm" style="fill:#000000;font-size:9pt; font-family:serif;">Willis, Matea E...</text>
<text x="3.36cm" y="12.40cm" style="fill:#000000;font-weight:bold;font-size:13pt; font-family:serif;">10</text>
<text x="2.64cm" y="15.12cm" style="fill:#000000;font-size:9pt; font-family:serif;"> Graham, Steve...</text>
<text x="2.54cm" y="2.92cm" style="fill:#000000;font-size:9pt; font-family:serif;"></text>
<text x="2.64cm" y="14.73cm" style="fill:#000000;font-size:9pt; font-family:serif;">Cruz, Laura Jo...</text>
<text x="2.54cm" y="2.92cm" style="fill:#000000;font-size:9pt; font-family:serif;"></text>
<text x="2.64cm" y="14.33cm" style="fill:#000000;font-size:9pt; font-family:serif;"> Warner, Allen ...</text>
<text x="2.54cm" y="2.92cm" style="fill:#000000;font-size:9pt; font-family:serif;"></text>
<text x="2.64cm" y="13.93cm" style="fill:#000000;font-size:9pt; font-family:serif;">Garner, Rita M...</text>
<text x="2.54cm" y="2.92cm" style="fill:#000000;font-size:9pt; font-family:serif;"></text>
<text x="5.72cm" y="12.40cm" style="fill:#000000;font-weight:bold;font-size:13pt; font-family:serif;">11</text>
<text x="5.00cm" y="15.12cm" style="fill:#000000;font-size:9pt; font-family:serif;">Warner, John ...</text>
<text x="8.08cm" y="12.40cm" style="fill:#000000;font-weight:bold;font-size:13pt; font-family:serif;">12</text>
<text x="10.43cm" y="12.40cm" style="fill:#000000;font-weight:bold;font-size:13pt; font-family:serif;">13</text>
<text x="9.72cm" y="15.12cm" style="fill:#000000;font-size:9pt; font-family:serif;"> Walker, Andre...</text>
<text x="2.54cm" y="2.92cm" style="fill:#000000;font-size:9pt; font-family:serif;"></text>
<text x="9.72cm" y="14.73cm" style="fill:#000000;font-size:9pt; font-family:serif;">Pearson, Eileen...</text>
<text x="2.54cm" y="2.92cm" style="fill:#000000;font-size:9pt; font-family:serif;"></text>
<text x="12.79cm" y="12.40cm" style="fill:#000000;font-weight:bold;font-size:13pt; font-family:serif;">14</text>
<text x="12.07cm" y="15.12cm" style="fill:#000000;font-size:9pt; font-family:serif;">Cruz, Patti Jo, 56</text>
<text x="12.07cm" y="14.73cm" style="fill:#000000;font-size:9pt; font-family:serif;">Wójcik, Richar...</text>
<text x="15.15cm" y="12.40cm" style="fill:#000000;font-weight:bold;font-size:13pt; font-family:serif;">15</text>
<text x="14.43cm" y="15.12cm" style="fill:#000000;font-size:9pt; font-family:serif;">Garner, John Jo...</text>
<text x="14.43cm" y="14.73cm" style="fill:#000000;font-size:9pt; font-family:serif;"> Welch, Russell...</text>
<text x="2.54cm" y="2.92cm" style="fill:#000000;font-size:9pt; font-family:serif;"></text>
<text x="14.43cm" y="14.33cm" style="fill:#000000;font-size:9pt; font-family:serif;">Norton, Doroth...</text>
<text x="2.54cm" y="2.92cm" style="fill:#000000;font-size:9pt; font-family:serif;"></text>
<text x="17.51cm" y="12.40cm" style="fill:#000000;font-weight:bold;font-size:13pt; font-family:serif;">16</text>
<text x="3.36cm" y="15.79cm" style="fill:#000000;font-weight:bold;font-size:13pt; font-family:serif;">17</text>
<text x="2.64cm" y="18.51cm" style="fill:#000000;font-size:9pt; font-family:serif;"> Cruz, Dale Eu...</text>
<text x="2.54cm" y="2.92cm" style="fill:#000000;font-size:9pt; font-family:serif;"></text>
<text x="2.64cm" y="18.11cm" style="fill:#000000;font-size:9pt; font-family:serif;">Gill, Linda and</text>
<text x="2.54cm" y="2.92cm" style="fill:#000000;font-size:9pt; font-family:serif;"></text>
<text x="2.64cm" y="17.72cm" style="fill:#000000;font-size:9pt; font-family:serif;">Page, Mitchell ...</text>
<text x="5.72cm" y="15.79cm" style="fill:#000000;font-weight:bold;font-size:13pt; font-family:serif;">18</text>
<text x="5.00cm" y="18.51cm" style="fill:#000000;font-size:9pt; font-family:serif;"> Warner, Richa...</text>
<text x="2.54cm" y="2.92cm" style="fill:#000000;font-size:9pt; font-family:serif;"></text>
<text x="5.00cm" y="18.11cm" style="fill:#000000;font-size:9pt; font-family:serif;">Wade, Joy A. a...</text>
<text x="2.54cm" y="2.92cm" style="fill:#000000;font-size:9pt; font-family:serif;"></text>
<text x="8.08cm" y="15.79cm" style="fill:#000000;font-weight:bold;font-size:13pt; font-family:serif;">19</text>
<text x="7.36cm" y="18.51cm" style="fill:#000000;font-size:9pt; font-family:serif;">Poulsen, Curtis...</text>
<text x="7.36cm" y="18.11cm" style="fill:#000000;font-size:9pt; font-family:serif;">Warner, Beverl...</text>
<text x="7.36cm" y="17.72cm" style="fill:#000000;font-size:9pt; font-family:serif;">Willis, Mattea ...</text>
<text x="10.43cm" y="15.79cm" style="fill:#000000;font-weight:bold;font-size:13pt; font-family:serif;">20</text>
<text x="9.72cm" y="18.51cm" style="fill:#000000;font-size:9pt; font-family:serif;">Jørgensen, Ma...</text>
<text x="12.79cm" y="15.79cm" style="fill:#000000;font-weight:bold;font-size:13pt; font-family:serif;">21</text>
<text x="12.07cm" y="18.51cm" style="fill:#000000;font-size:9pt; font-family:serif;">Douglas, Jacob...</text>
<text x="12.07cm" y="18.11cm" style="fill:#000000;font-size:9pt; font-family:serif;">Page, Sylvia L...</text>
<text x="15.15cm" y="15.79cm" style="fill:#000000;font-weight:bold;font-size:13pt; font-family:serif;">22</text>
<text x="14.43cm" y="18.51cm" style="fill:#000000;font-size:9pt; font-family:serif;">Garrett, Doris ...</text>
<text x="17.51cm" y="15.79cm" style="fill:#000000;font-weight:bold;font-size:13pt; font-family:serif;">23</text>
<text x="3.36cm" y="19.18cm" style="fill:#000000;font-weight:bold;font-size:13pt; font-family:serif;">24</text>
<text x="2.64cm" y="21.90cm" style="fill:#000000;font-size:9pt; font-family:serif;"> Côté, Raymon...</text>
<text x="2.54cm" y="2.92cm" style="fill:#000000;font-size:9pt; font-family:serif;"></text>
<text x="2.64cm" y="21.50cm" style="fill:#000000;font-size:9pt; font-family:serif;">Russell, Beth A...</text>
<text x="2.54cm" y="2.92cm" style="fill:#000000;font-size:9pt; font-family:serif;"></text>
<text x="2.64cm" y="21.10cm" style="fill:#000000;font-size:9pt; font-family:serif;">Ward, Michael ...</text>
<text x="5.72cm" y="19.18cm" style="fill:#000000;font-weight:bold;font-size:13pt; font-family:serif;">25</text>
<text x="5.00cm" y="21.90cm" style="fill:#000000;font-size:9pt; font-family:serif;">Garner, Betty J...</text>
<text x="5.00cm" y="21.50cm" style="fill:#000000;font-size:9pt; font-family:serif;">Wójcik, Daniel...</text>
<text x="5.00cm" y="21.10cm" style="fill:#000000;font-size:9pt; font-family:serif;">Максимов, Hyl...</text>
<text x="8.08cm" y="19.18cm" style="fill:#000000;font-weight:bold;font-size:13pt; font-family:serif;">26</text>
<text x="7.36cm" y="21.90cm" style="fill:#000000;font-size:9pt; font-family:serif;">Warner, Whitn...</text>
<text x="10.43cm" y="19.18cm" style="fill:#000000;font-weight:bold;font-size:13pt; font-family:serif;">27</text>
<text x="9.72cm" y="21.90cm" style="fill:#000000;font-size:9pt; font-family:serif;">Garner, Regina...</text>
<text x="12.79cm" y="19.18cm" style="fill:#000000;font-weight:bold;font-size:13pt; font-family:serif;">28</text>
<text x="12.07cm" y="21.90cm" style="fill:#000000;font-size:9pt; font-family:serif;">Powers, Nancy ...</text>
<text x="15.15cm" y="19.18cm" style="fill:#000000;font-weight:bold;font-size:13pt; font-family:serif;">29</text>
<text x="14.43cm" y="21.90cm" style="fill:#000000;font-size:9pt; font-family:serif;">Garrett, Lloyd ...</text>
<text x="14.43cm" y="21.50cm" style="fill:#000000;font-size:9pt; font-family:serif;">Warner, Sarah ...</text>
<text x="17.51cm" y="19.18cm" style="fill:#000000;font-weight:bold;font-size:13pt; font-family:serif;">30</text>
<text x="16.79cm" y="21.90cm" style="fill:#000000;font-size:9pt; font-family:serif;">Neal, Helen M....</text>
<text x="3.36cm" y="22.56cm" style="fill:#000000;font-weight:bold;font-size:13pt; font-family:serif;">31</text>
<text x="2.64cm" y="25.28cm" style="fill:#000000;font-size:9pt; font-family:serif;">Garner, Bernad...</text>
<text x="10.93cm" y="24.00cm" style="fill:#000000;font-size:12pt; font-family:serif;">My Calendar</text>
<text x="10.27cm" y="24.64cm" style="fill:#000000;font-size:12pt; font-family:serif;">Produced with Gramps</text>
<text x="10.56cm" y="25.15cm" style="fill:#000000;font-size:9pt; font-family:serif;">http://gramps-project.org/</text>
</svg>
