<?xml version="1.0" encoding="UTF-8" standalone="no"?>
<!DOCTYPE svg PUBLIC "-//W3C//DTD SVG 1.0//EN" "http://www.w3.org/TR/2001/REC-SVG-20010904/DTD/svg10.dtd">
<svg width="21.59cm" height="27.94cm" xmlns="http://www.w3.org/2000/svg">
<rect width="21.59cm" height="27.94cm" style="fill: none;"/>
<line x1="2.54cm" y1="2.54cm" x2="2.54cm" y2="25.40cm" style="stroke:#000000; stroke-width:0.50pt;"/>
<line x1="2.54cm" y1="2.54cm" x2="19.05cm" y2="2.54cm" style="stroke:#000000; stroke-width:0.50pt;"/>
<line x1="19.05cm" y1="2.54cm" x2="19.05cm" y2="25.40cm" style="stroke:#000000; stroke-width:0.50pt;"/>
<line x1="2.54cm" y1="25.40cm" x2="19.05cm" y2="25.40cm" style="stroke:#000000; stroke-width:0.50pt;"/>
<rect x="2.54cm" y="2.54cm" width="16.51cm" height="2.54cm" style="fill:#eaeaea; stroke:#000000; stroke-width:0.000000;"/>
<line x1="2.54cm" y1="5.08cm" x2="19.05cm" y2="5.08cm" style="stroke:#000000; stroke-width:0.50pt;"/>
<line x1="2.54cm" y1="5.08cm" x2="2.54cm" y2="8.47cm" style="stroke:#000000; stroke-width:0.50pt;"/>
<line x1="2.54cm" y1="5.08cm" x2="4.90cm" y2="5.08cm" style="stroke:#000000; stroke-width:0.50pt;"/>
<line x1="4.90cm" y1="5.08cm" x2="4.90cm" y2="8.47cm" style="stroke:#000000; stroke-width:0.50pt;"/>
<line x1="2.54cm" y1="8.47cm" x2="4.90cm" y2="8.47cm" style="stroke:#000000; stroke-width:0.50pt;"/>
<line x1="4.90cm" y1="5.08cm" x2="4.90cm" y2="8.47cm" style="stroke:#000000; stroke-width:0.50pt;"/>
<line x1="4.90cm" y1="5.08cm" x2="7.26cm" y2="5.08cm" style="stroke:#000000; stroke-width:0.50pt;"/>
<line x1="7.26cm" y1="5.08cm" x2="7.26cm" y2="8.47cm" style="stroke:#000000; stroke-width:0.50pt;"/>
<line x1="4.90cm" y1="8.47cm" x2="7.26cm" y2="8.47cm" style="stroke:#000000; stroke-width:0.50pt;"/>
<line x1="7.26cm" y1="5.08cm" x2="7.26cm" y2="8.47cm" style="stroke:#000000; stroke-width:0.50pt;"/>
<line x1="7.26cm" y1="5.08cm" x2="9.62cm" y2="5.08cm" style="stroke:#000000; stroke-width:0.50pt;"/>
<line x1="9.62cm" y1="5.08cm" x2="9.62cm" y2="8.47cm" style="stroke:#000000; stroke-width:0.50pt;"/>
<line x1="7.26cm" y1="8.47cm" x2="9.62cm" y2="8.47cm" style="stroke:#000000; stroke-width:0.50pt;"/>
<line x1="9.62cm" y1="5.08cm" x2="9.62cm" y2="8.47cm" style="stroke:#000000; stroke-width:0.50pt;"/>
<line x1="9.62cm" y1="5.08cm" x2="11.97cm" y2="5.08cm" style="stroke:#000000; stroke-width:0.50pt;"/>
<line x1="11.97cm" y1="5.08cm" x2="11.97cm" y2="8.47cm" style="stroke:#000000; stroke-width:0.50pt;"/>
<line x1="9.62cm" y1="8.47cm" x2="11.97cm" y2="8.47cm" style="stroke:#000000; stroke-width:0.50pt;"/>
<line x1="11.97cm" y1="5.08cm" x2="11.97cm" y2="8.47cm" style="stroke:#000000; stroke-width:0.50pt;"/>
<line x1="11.97cm" y1="5.08cm" x2="14.33cm" y2="5.08cm" style="stroke:#000000; stroke-width:0.50pt;"/>
<line x1="14.33cm" y1="5.08cm" x2="14.33cm" y2="8.47cm" style="stroke:#000000; stroke-width:0.50pt;"/>
<line x1="11.97cm" y1="8.47cm" x2="14.33cm" y2="8.47cm" style="stroke:#000000; stroke-width:0.50pt;"/>
<line x1="14.33cm" y1="5.08cm" x2="14.33cm" y2="8.47cm" style="stroke:#000000; stroke-width:0.50pt;"/>
<line x1="14.33cm" y1="5.08cm" x2="16.69cm" y2="5.08cm" style="stroke:#000000; stroke-width:0.50pt;"/>
<line x1="16.69cm" y1="5.08cm" x2="16.69cm" y2="8.47cm" style="stroke:#000000; stroke-width:0.50pt;"/>
<line x1="14.33cm" y1="8.47cm" x2="16.69cm" y2="8.47cm" style="stroke:#000000; stroke-width:0.50pt;"/>
<line x1="16.69cm" y1="5.08cm" x2="16.69cm" y2="8.47cm" style="stroke:#000000; stroke-width:0.50pt;"/>
<line x1="16.69cm" y1="5.08cm" x2="19.05cm" y2="5.08cm" style="stroke:#000000; stroke-width:0.50pt;"/>
<line x1="19.05cm" y1="5.08cm" x2="19.05cm" y2="8.47cm" style="stroke:#000000; stroke-width:0.50pt;"/>
<line x1="16.69cm" y1="8.47cm" x2="19.05cm" y2="8.47cm" style="stroke:#000000; stroke-width:0.50pt;"/>
<line x1="2.54cm" y1="8.47cm" x2="2.54cm" y2="11.85cm" style="stroke:#000000; stroke-width:0.50pt;"/>
<line x1="2.54cm" y1="8.47cm" x2="4.90cm" y2="8.47cm" style="stroke:#000000; stroke-width:0.50pt;"/>
<line x1="4.90cm" y1="8.47cm" x2="4.90cm" y2="11.85cm" style="stroke:#000000; stroke-width:0.50pt;"/>
<line x1="2.54cm" y1="11.85cm" x2="4.90cm" y2="11.85cm" style="stroke:#000000; stroke-width:0.50pt;"/>
<line x1="4.90cm" y1="8.47cm" x2="4.90cm" y2="11.85cm" style="stroke:#000000; stroke-width:0.50pt;"/>
<line x1="4.90cm" y1="8.47cm" x2="7.26cm" y2="8.47cm" style="stroke:#000000; stroke-width:0.50pt;"/>
<line x1="7.26cm" y1="8.47cm" x2="7.26cm" y2="11.85cm" style="stroke:#000000; stroke-width:0.50pt;"/>
<line x1="4.90cm" y1="11.85cm" x2="7.26cm" y2="11.85cm" style="stroke:#000000; stroke-width:0.50pt;"/>
<line x1="7.26cm" y1="8.47cm" x2="7.26cm" y2="11.85cm" style="stroke:#000000; stroke-width:0.50pt;"/>
<line x1="7.26cm" y1="8.47cm" x2="9.62cm" y2="8.47cm" style="stroke:#000000; stroke-width:0.50pt;"/>
<line x1="9.62cm" y1="8.47cm" x2="9.62cm" y2="11.85cm" style="stroke:#000000; stroke-width:0.50pt;"/>
<line x1="7.26cm" y1="11.85cm" x2="9.62cm" y2="11.85cm" style="stroke:#000000; stroke-width:0.50pt;"/>
<line x1="9.62cm" y1="8.47cm" x2="9.62cm" y2="11.85cm" style="stroke:#000000; stroke-width:0.50pt;"/>
<line x1="9.62cm" y1="8.47cm" x2="11.97cm" y2="8.47cm" style="stroke:#000000; stroke-width:0.50pt;"/>
<line x1="11.97cm" y1="8.47cm" x2="11.97cm" y2="11.85cm" style="stroke:#000000; stroke-width:0.50pt;"/>
<line x1="9.62cm" y1="11.85cm" x2="11.97cm" y2="11.85cm" style="stroke:#000000; stroke-width:0.50pt;"/>
<line x1="11.97cm" y1="8.47cm" x2="11.97cm" y2="11.85cm" style="stroke:#000000; stroke-width:0.50pt;"/>
<line x1="11.97cm" y1="8.47cm" x2="14.33cm" y2="8.47cm" style="stroke:#000000; stroke-width:0.50pt;"/>
<line x1="14.33cm" y1="8.47cm" x2="14.33cm" y2="11.85cm" style="stroke:#000000; stroke-width:0.50pt;"/>
<line x1="11.97cm" y1="11.85cm" x2="14.33cm" y2="11.85cm" style="stroke:#000000; stroke-width:0.50pt;"/>
<line x1="14.33cm" y1="8.47cm" x2="14.33cm" y2="11.85cm" style="stroke:#000000; stroke-width:0.50pt;"/>
<line x1="14.33cm" y1="8.47cm" x2="16.69cm" y2="8.47cm" style="stroke:#000000; stroke-width:0.50pt;"/>
<line x1="16.69cm" y1="8.47cm" x2="16.69cm" y2="11.85cm" style="stroke:#000000; stroke-width:0.50pt;"/>
<line x1="14.33cm" y1="11.85cm" x2="16.69cm" y2="11.85cm" style="stroke:#000000; stroke-width:0.50pt;"/>
<line x1="16.69cm" y1="8.47cm" x2="16.69cm" y2="11.85cm" style="stroke:#000000; stroke-width:0.50pt;"/>
<line x1="16.69cm" y1="8.47cm" x2="19.05cm" y2="8.47cm" style="stroke:#000000; stroke-width:0.50pt;"/>
<line x1="19.05cm" y1="8.47cm" x2="19.05cm" y2="11.85cm" style="stroke:#000000; stroke-width:0.50pt;"/>
<line x1="16.69cm" y1="11.85cm" x2="19.05cm" y2="11.85cm" style="stroke:#000000; stroke-width:0.50pt;"/>
<line x1="2.54cm" y1="11.85cm" x2="2.54cm" y2="15.24cm" style="stroke:#000000; stroke-width:0.50pt;"/>
<line x1="2.54cm" y1="11.85cm" x2="4.90cm" y2="11.85cm" style="stroke:#000000; stroke-width:0.50pt;"/>
<line x1="4.90cm" y1="11.85cm" x2="4.90cm" y2="15.24cm" style="stroke:#000000; stroke-width:0.50pt;"/>
<line x1="2.54cm" y1="15.24cm" x2="4.90cm" y2="15.24cm" style="stroke:#000000; stroke-width:0.50pt;"/>
<line x1="4.90cm" y1="11.85cm" x2="4.90cm" y2="15.24cm" style="stroke:#000000; stroke-width:0.50pt;"/>
<line x1="4.90cm" y1="11.85cm" x2="7.26cm" y2="11.85cm" style="stroke:#000000; stroke-width:0.50pt;"/>
<line x1="7.26cm" y1="11.85cm" x2="7.26cm" y2="15.24cm" style="stroke:#000000; stroke-width:0.50pt;"/>
<line x1="4.90cm" y1="15.24cm" x2="7.26cm" y2="15.24cm" style="stroke:#000000; stroke-width:0.50pt;"/>
<line x1="7.26cm" y1="11.85cm" x2="7.26cm" y2="15.24cm" style="stroke:#000000; stroke-width:0.50pt;"/>
<line x1="7.26cm" y1="11.85cm" x2="9.62cm" y2="11.85cm" style="stroke:#000000; stroke-width:0.50pt;"/>
<line x1="9.62cm" y1="11.85cm" x2="9.62cm" y2="15.24cm" style="stroke:#000000; stroke-width:0.50pt;"/>
<line x1="7.26cm" y1="15.24cm" x2="9.62cm" y2="15.24cm" style="stroke:#000000; stroke-width:0.50pt;"/>
<line x1="9.62cm" y1="11.85cm" x2="9.62cm" y2="15.24cm" style="stroke:#000000; stroke-width:0.50pt;"/>
<line x1="9.62cm" y1="11.85cm" x2="11.97cm" y2="11.85cm" style="stroke:#000000; stroke-width:0.50pt;"/>
<line x1="11.97cm" y1="11.85cm" x2="11.97cm" y2="15.24cm" style="stroke:#000000; stroke-width:0.50pt;"/>
<line x1="9.62cm" y1="15.24cm" x2="11.97cm" y2="15.24cm" style="stroke:#000000; stroke-width:0.50pt;"/>
<line x1="11.97cm" y1="11.85cm" x2="11.97cm" y2="15.24cm" style="stroke:#000000; stroke-width:0.50pt;"/>
<line x1="11.97cm" y1="11.85cm" x2="14.33cm" y2="11.85cm" style="stroke:#000000; stroke-width:0.50pt;"/>
<line x1="14.33cm" y1="11.85cm" x2="14.33cm" y2="15.24cm" style="stroke:#000000; stroke-width:0.50pt;"/>
<line x1="11.97cm" y1="15.24cm" x2="14.33cm" y2="15.24cm" style="stroke:#000000; stroke-width:0.50pt;"/>
<line x1="14.33cm" y1="11.85cm" x2="14.33cm" y2="15.24cm" style="stroke:#000000; stroke-width:0.50pt;"/>
<line x1="14.33cm" y1="11.85cm" x2="16.69cm" y2="11.85cm" style="stroke:#000000; stroke-width:0.50pt;"/>
<line x1="16.69cm" y1="11.85cm" x2="16.69cm" y2="15.24cm" style="stroke:#000000; stroke-width:0.50pt;"/>
<line x1="14.33cm" y1="15.24cm" x2="16.69cm" y2="15.24cm" style="stroke:#000000; stroke-width:0.50pt;"/>
<line x1="16.69cm" y1="11.85cm" x2="16.69cm" y2="15.24cm" style="stroke:#000000; stroke-width:0.50pt;"/>
<line x1="16.69cm" y1="11.85cm" x2="19.05cm" y2="11.85cm" style="stroke:#000000; stroke-width:0.50pt;"/>
<line x1="19.05cm" y1="11.85cm" x2="19.05cm" y2="15.24cm" style="stroke:#000000; stroke-width:0.50pt;"/>
<line x1="16.69cm" y1="15.24cm" x2="19.05cm" y2="15.24cm" style="stroke:#000000; stroke-width:0.50pt;"/>
<line x1="2.54cm" y1="15.24cm" x2="2.54cm" y2="18.63cm" style="stroke:#000000; stroke-width:0.50pt;"/>
<line x1="2.54cm" y1="15.24cm" x2="4.90cm" y2="15.24cm" style="stroke:#000000; stroke-width:0.50pt;"/>
<line x1="4.90cm" y1="15.24cm" x2="4.90cm" y2="18.63cm" style="stroke:#000000; stroke-width:0.50pt;"/>
<line x1="2.54cm" y1="18.63cm" x2="4.90cm" y2="18.63cm" style="stroke:#000000; stroke-width:0.50pt;"/>
<line x1="4.90cm" y1="15.24cm" x2="4.90cm" y2="18.63cm" style="stroke:#000000; stroke-width:0.50pt;"/>
<line x1="4.90cm" y1="15.24cm" x2="7.26cm" y2="15.24cm" style="stroke:#000000; stroke-width:0.50pt;"/>
<line x1="7.26cm" y1="15.24cm" x2="7.26cm" y2="18.63cm" style="stroke:#000000; stroke-width:0.50pt;"/>
<line x1="4.90cm" y1="18.63cm" x2="7.26cm" y2="18.63cm" style="stroke:#000000; stroke-width:0.50pt;"/>
<line x1="7.26cm" y1="15.24cm" x2="7.26cm" y2="18.63cm" style="stroke:#000000; stroke-width:0.50pt;"/>
<line x1="7.26cm" y1="15.24cm" x2="9.62cm" y2="15.24cm" style="stroke:#000000; stroke-width:0.50pt;"/>
<line x1="9.62cm" y1="15.24cm" x2="9.62cm" y2="18.63cm" style="stroke:#000000; stroke-width:0.50pt;"/>
<line x1="7.26cm" y1="18.63cm" x2="9.62cm" y2="18.63cm" style="stroke:#000000; stroke-width:0.50pt;"/>
<line x1="9.62cm" y1="15.24cm" x2="9.62cm" y2="18.63cm" style="stroke:#000000; stroke-width:0.50pt;"/>
<line x1="9.62cm" y1="15.24cm" x2="11.97cm" y2="15.24cm" style="stroke:#000000; stroke-width:0.50pt;"/>
<line x1="11.97cm" y1="15.24cm" x2="11.97cm" y2="18.63cm" style="stroke:#000000; stroke-width:0.50pt;"/>
<line x1="9.62cm" y1="18.63cm" x2="11.97cm" y2="18.63cm" style="stroke:#000000; stroke-width:0.50pt;"/>
<line x1="11.97cm" y1="15.24cm" x2="11.97cm" y2="18.63cm" style="stroke:#000000; stroke-width:0.50pt;"/>
<line x1="11.97cm" y1="15.24cm" x2="14.33cm" y2="15.24cm" style="stroke:#000000; stroke-width:0.50pt;"/>
<line x1="14.33cm" y1="15.24cm" x2="14.33cm" y2="18.63cm" style="stroke:#000000; stroke-width:0.50pt;"/>
<line x1="11.97cm" y1="18.63cm" x2="14.33cm" y2="18.63cm" style="stroke:#000000; stroke-width:0.50pt;"/>
<line x1="14.33cm" y1="15.24cm" x2="14.33cm" y2="18.63cm" style="stroke:#000000; stroke-width:0.50pt;"/>
<line x1="14.33cm" y1="15.24cm" x2="16.69cm" y2="15.24cm" style="stroke:#000000; stroke-width:0.50pt;"/>
<line x1="16.69cm" y1="15.24cm" x2="16.69cm" y2="18.63cm" style="stroke:#000000; stroke-width:0.50pt;"/>
<line x1="14.33cm" y1="18.63cm" x2="16.69cm" y2="18.63cm" style="stroke:#000000; stroke-width:0.50pt;"/>
<line x1="16.69cm" y1="15.24cm" x2="16.69cm" y2="18.63cm" style="stroke:#000000; stroke-width:0.50pt;"/>
<line x1="16.69cm" y1="15.24cm" x2="19.05cm" y2="15.24cm" style="stroke:#000000; stroke-width:0.50pt;"/>
<line x1="19.05cm" y1="15.24cm" x2="19.05cm" y2="18.63cm" style="stroke:#000000; stroke-width:0.50pt;"/>
<line x1="16.69cm" y1="18.63cm" x2="19.05cm" y2="18.63cm" style="stroke:#000000; stroke-width:0.50pt;"/>
<line x1="2.54cm" y1="18.63cm" x2="2.54cm" y2="22.01cm" style="stroke:#000000; stroke-width:0.50pt;"/>
<line x1="2.54cm" y1="18.63cm" x2="4.90cm" y2="18.63cm" style="stroke:#000000; stroke-width:0.50pt;"/>
<line x1="4.90cm" y1="18.63cm" x2="4.90cm" y2="22.01cm" style="stroke:#000000; stroke-width:0.50pt;"/>
<line x1="2.54cm" y1="22.01cm" x2="4.90cm" y2="22.01cm" style="stroke:#000000; stroke-width:0.50pt;"/>
<line x1="4.90cm" y1="18.63cm" x2="4.90cm" y2="22.01cm" style="stroke:#000000; stroke-width:0.50pt;"/>
<line x1="4.90cm" y1="18.63cm" x2="7.26cm" y2="18.63cm" style="stroke:#000000; stroke-width:0.50pt;"/>
<line x1="7.26cm" y1="18.63cm" x2="7.26cm" y2="22.01cm" style="stroke:#000000; stroke-width:0.50pt;"/>
<line x1="4.90cm" y1="22.01cm" x2="7.26cm" y2="22.01cm" style="stroke:#000000; stroke-width:0.50pt;"/>
<text x="9.37cm" y="3.56cm" style="fill:#000000;font-weight:bold;font-style:italic;font-size:20pt; font-family:serif;">Juin 2015</text>
<text x="3.14cm" y="4.95cm" style="fill:#000000;font-weight:bold;font-style:italic;font-size:12pt; font-family:serif;">Lundi</text>
<text x="5.49cm" y="4.95cm" style="fill:#000000;font-weight:bold;font-style:italic;font-size:12pt; font-family:serif;">Mardi</text>
<text x="7.64cm" y="4.95cm" style="fill:#000000;font-weight:bold;font-style:italic;font-size:12pt; font-family:serif;">Mercredi</text>
<text x="10.25cm" y="4.95cm" style="fill:#000000;font-weight:bold;font-style:italic;font-size:12pt; font-family:serif;">Jeudi</text>
<text x="12.36cm" y="4.95cm" style="fill:#000000;font-weight:bold;font-style:italic;font-size:12pt; font-family:serif;">Vendredi</text>
<text x="14.84cm" y="4.95cm" style="fill:#000000;font-weight:bold;font-style:italic;font-size:12pt; font-family:serif;">Samedi</text>
<text x="16.99cm" y="4.95cm" style="fill:#000000;font-weight:bold;font-style:italic;font-size:12pt; font-family:serif;">Dimanche</text>
<text x="3.45cm" y="5.63cm" style="fill:#000000;font-weight:bold;font-size:13pt; font-family:serif;">1</text>
<text x="2.64cm" y="8.35cm" style="fill:#000000;font-size:9pt; font-family:serif;">Garner, Michae...</text>
<text x="2.64cm" y="7.95cm" style="fill:#000000;font-size:9pt; font-family:serif;"> Mortensen, Da...</text>
<text x="2.54cm" y="2.92cm" style="fill:#000000;font-size:9pt; font-family:serif;"></text>
<text x="2.64cm" y="7.56cm" style="fill:#000000;font-size:9pt; font-family:serif;">Warner, Sarah ...</text>
<text x="2.54cm" y="2.92cm" style="fill:#000000;font-size:9pt; font-family:serif;"></text>
<text x="2.64cm" y="7.16cm" style="fill:#000000;font-size:9pt; font-family:serif;">Сергеев, Adria...</text>
<text x="5.81cm" y="5.63cm" style="fill:#000000;font-weight:bold;font-size:13pt; font-family:serif;">2</text>
<text x="8.17cm" y="5.63cm" style="fill:#000000;font-weight:bold;font-size:13pt; font-family:serif;">3</text>
<text x="10.52cm" y="5.63cm" style="fill:#000000;font-weight:bold;font-size:13pt; font-family:serif;">4</text>
<text x="9.72cm" y="8.35cm" style="fill:#000000;font-size:9pt; font-family:serif;"> Warner, Steph...</text>
<text x="2.54cm" y="2.92cm" style="fill:#000000;font-size:9pt; font-family:serif;"></text>
<text x="9.72cm" y="7.95cm" style="fill:#000000;font-size:9pt; font-family:serif;">Худоногов, Pat...</text>
<text x="2.54cm" y="2.92cm" style="fill:#000000;font-size:9pt; font-family:serif;"></text>
<text x="12.88cm" y="5.63cm" style="fill:#000000;font-weight:bold;font-size:13pt; font-family:serif;">5</text>
<text x="12.07cm" y="8.35cm" style="fill:#000000;font-size:9pt; font-family:serif;"> Warner, Richa...</text>
<text x="2.54cm" y="2.92cm" style="fill:#000000;font-size:9pt; font-family:serif;"></text>
<text x="12.07cm" y="7.95cm" style="fill:#000000;font-size:9pt; font-family:serif;">Мельников, M...</text>
<text x="2.54cm" y="2.92cm" style="fill:#000000;font-size:9pt; font-family:serif;"></text>
<text x="15.24cm" y="5.63cm" style="fill:#000000;font-weight:bold;font-size:13pt; font-family:serif;">6</text>
<text x="14.43cm" y="8.35cm" style="fill:#000000;font-size:9pt; font-family:serif;">Kelly, Ashley ...</text>
<text x="17.60cm" y="5.63cm" style="fill:#000000;font-weight:bold;font-size:13pt; font-family:serif;">7</text>
<text x="16.79cm" y="8.35cm" style="fill:#000000;font-size:9pt; font-family:serif;"> Богданов, Dr. ...</text>
<text x="2.54cm" y="2.92cm" style="fill:#000000;font-size:9pt; font-family:serif;"></text>
<text x="16.79cm" y="7.95cm" style="fill:#000000;font-size:9pt; font-family:serif;">Cruz, Ann Lyn...</text>
<text x="2.54cm" y="2.92cm" style="fill:#000000;font-size:9pt; font-family:serif;"></text>
<text x="16.79cm" y="7.56cm" style="fill:#000000;font-size:9pt; font-family:serif;">Weaver, Justin </text>
<text x="3.45cm" y="9.02cm" style="fill:#000000;font-weight:bold;font-size:13pt; font-family:serif;">8</text>
<text x="2.64cm" y="11.74cm" style="fill:#000000;font-size:9pt; font-family:serif;">Barber, Mary E...</text>
<text x="2.64cm" y="11.34cm" style="fill:#000000;font-size:9pt; font-family:serif;"> Cox, Robert C....</text>
<text x="2.54cm" y="2.92cm" style="fill:#000000;font-size:9pt; font-family:serif;"></text>
<text x="2.64cm" y="10.94cm" style="fill:#000000;font-size:9pt; font-family:serif;">Garner, Jane M...</text>
<text x="2.54cm" y="2.92cm" style="fill:#000000;font-size:9pt; font-family:serif;"></text>
<text x="2.64cm" y="10.55cm" style="fill:#000000;font-size:9pt; font-family:serif;"> Lane, Joseph ...</text>
<text x="2.54cm" y="2.92cm" style="fill:#000000;font-size:9pt; font-family:serif;"></text>
<text x="2.64cm" y="10.15cm" style="fill:#000000;font-size:9pt; font-family:serif;">Козлов, Linda ...</text>
<text x="2.54cm" y="2.92cm" style="fill:#000000;font-size:9pt; font-family:serif;"></text>
<text x="5.81cm" y="9.02cm" style="fill:#000000;font-weight:bold;font-size:13pt; font-family:serif;">9</text>
<text x="5.00cm" y="11.74cm" style="fill:#000000;font-size:9pt; font-family:serif;"> Poulsen, Rand...</text>
<text x="2.54cm" y="2.92cm" style="fill:#000000;font-size:9pt; font-family:serif;"></text>
<text x="5.00cm" y="11.34cm" style="fill:#000000;font-size:9pt; font-family:serif;">Welch, Lisa Da...</text>
<text x="2.54cm" y="2.92cm" style="fill:#000000;font-size:9pt; font-family:serif;"></text>
<text x="8.08cm" y="9.02cm" style="fill:#000000;font-weight:bold;font-size:13pt; font-family:serif;">10</text>
<text x="7.36cm" y="11.74cm" style="fill:#000000;font-size:9pt; font-family:serif;">Lopez, Lee Wil...</text>
<text x="7.36cm" y="11.34cm" style="fill:#000000;font-size:9pt; font-family:serif;"> Jørgensen, Jeff...</text>
<text x="2.54cm" y="2.92cm" style="fill:#000000;font-size:9pt; font-family:serif;"></text>
<text x="7.36cm" y="10.94cm" style="fill:#000000;font-size:9pt; font-family:serif;">Osborne, Julia ...</text>
<text x="2.54cm" y="2.92cm" style="fill:#000000;font-size:9pt; font-family:serif;"></text>
<text x="7.36cm" y="10.55cm" style="fill:#000000;font-size:9pt; font-family:serif;">Warner, Micha...</text>
<text x="10.43cm" y="9.02cm" style="fill:#000000;font-weight:bold;font-size:13pt; font-family:serif;">11</text>
<text x="12.79cm" y="9.02cm" style="fill:#000000;font-weight:bold;font-size:13pt; font-family:serif;">12</text>
<text x="12.07cm" y="11.74cm" style="fill:#000000;font-size:9pt; font-family:serif;"> Bell, Gary Ric...</text>
<text x="2.54cm" y="2.92cm" style="fill:#000000;font-size:9pt; font-family:serif;"></text>
<text x="12.07cm" y="11.34cm" style="fill:#000000;font-size:9pt; font-family:serif;">Cruz, Judy Den...</text>
<text x="2.54cm" y="2.92cm" style="fill:#000000;font-size:9pt; font-family:serif;"></text>
<text x="12.07cm" y="10.94cm" style="fill:#000000;font-size:9pt; font-family:serif;">Garner, Michae...</text>
<text x="15.15cm" y="9.02cm" style="fill:#000000;font-weight:bold;font-size:13pt; font-family:serif;">13</text>
<text x="14.43cm" y="11.74cm" style="fill:#000000;font-size:9pt; font-family:serif;">Warner, Meliss...</text>
<text x="17.51cm" y="9.02cm" style="fill:#000000;font-weight:bold;font-size:13pt; font-family:serif;">14</text>
<text x="16.79cm" y="11.74cm" style="fill:#000000;font-size:9pt; font-family:serif;">Krawczyk, Do...</text>
<text x="3.36cm" y="12.40cm" style="fill:#000000;font-weight:bold;font-size:13pt; font-family:serif;">15</text>
<text x="5.72cm" y="12.40cm" style="fill:#000000;font-weight:bold;font-size:13pt; font-family:serif;">16</text>
<text x="5.00cm" y="15.12cm" style="fill:#000000;font-size:9pt; font-family:serif;">Watson, Mary ...</text>
<text x="8.08cm" y="12.40cm" style="fill:#000000;font-weight:bold;font-size:13pt; font-family:serif;">17</text>
<text x="7.36cm" y="15.12cm" style="fill:#000000;font-size:9pt; font-family:serif;">Thornton, Phill...</text>
<text x="7.36cm" y="14.73cm" style="fill:#000000;font-size:9pt; font-family:serif;">Warner, Stanle...</text>
<text x="10.43cm" y="12.40cm" style="fill:#000000;font-weight:bold;font-size:13pt; font-family:serif;">18</text>
<text x="9.72cm" y="15.12cm" style="fill:#000000;font-size:9pt; font-family:serif;">Todd, Cora Oli...</text>
<text x="12.79cm" y="12.40cm" style="fill:#000000;font-weight:bold;font-size:13pt; font-family:serif;">19</text>
<text x="15.15cm" y="12.40cm" style="fill:#000000;font-weight:bold;font-size:13pt; font-family:serif;">20</text>
<text x="14.43cm" y="15.12cm" style="fill:#000000;font-size:9pt; font-family:serif;">Brock, Stephen...</text>
<text x="17.51cm" y="12.40cm" style="fill:#000000;font-weight:bold;font-size:13pt; font-family:serif;">21</text>
<text x="16.79cm" y="15.12cm" style="fill:#000000;font-size:9pt; font-family:serif;">Osborne, Anita...</text>
<text x="16.79cm" y="14.73cm" style="fill:#000000;font-size:9pt; font-family:serif;"> Garner, Raym...</text>
<text x="2.54cm" y="2.92cm" style="fill:#000000;font-size:9pt; font-family:serif;"></text>
<text x="16.79cm" y="14.33cm" style="fill:#000000;font-size:9pt; font-family:serif;">Pérez, Angela ...</text>
<text x="2.54cm" y="2.92cm" style="fill:#000000;font-size:9pt; font-family:serif;"></text>
<text x="3.36cm" y="15.79cm" style="fill:#000000;font-weight:bold;font-size:13pt; font-family:serif;">22</text>
<text x="2.64cm" y="18.51cm" style="fill:#000000;font-size:9pt; font-family:serif;"> Garner, Franci...</text>
<text x="2.54cm" y="2.92cm" style="fill:#000000;font-size:9pt; font-family:serif;"></text>
<text x="2.64cm" y="18.11cm" style="fill:#000000;font-size:9pt; font-family:serif;">Gibbs, Connie ...</text>
<text x="2.54cm" y="2.92cm" style="fill:#000000;font-size:9pt; font-family:serif;"></text>
<text x="2.64cm" y="17.72cm" style="fill:#000000;font-size:9pt; font-family:serif;"> Russell, Bruce...</text>
<text x="2.54cm" y="2.92cm" style="fill:#000000;font-size:9pt; font-family:serif;"></text>
<text x="2.64cm" y="17.32cm" style="fill:#000000;font-size:9pt; font-family:serif;">Henderson, Cat...</text>
<text x="2.54cm" y="2.92cm" style="fill:#000000;font-size:9pt; font-family:serif;"></text>
<text x="5.72cm" y="15.79cm" style="fill:#000000;font-weight:bold;font-size:13pt; font-family:serif;">23</text>
<text x="5.00cm" y="18.51cm" style="fill:#000000;font-size:9pt; font-family:serif;">Hayes, LeAnn, ...</text>
<text x="5.00cm" y="18.11cm" style="fill:#000000;font-size:9pt; font-family:serif;"> Welch, Micha...</text>
<text x="2.54cm" y="2.92cm" style="fill:#000000;font-size:9pt; font-family:serif;"></text>
<text x="5.00cm" y="17.72cm" style="fill:#000000;font-size:9pt; font-family:serif;">Osborne, Anita...</text>
<text x="2.54cm" y="2.92cm" style="fill:#000000;font-size:9pt; font-family:serif;"></text>
<text x="5.00cm" y="17.32cm" style="fill:#000000;font-size:9pt; font-family:serif;">Warner, Matth...</text>
<text x="5.00cm" y="16.92cm" style="fill:#000000;font-size:9pt; font-family:serif;">Warner, Stepha...</text>
<text x="8.08cm" y="15.79cm" style="fill:#000000;font-weight:bold;font-size:13pt; font-family:serif;">24</text>
<text x="7.36cm" y="18.51cm" style="fill:#000000;font-size:9pt; font-family:serif;"> Киселев, Den...</text>
<text x="2.54cm" y="2.92cm" style="fill:#000000;font-size:9pt; font-family:serif;"></text>
<text x="7.36cm" y="18.11cm" style="fill:#000000;font-size:9pt; font-family:serif;">Warner, Nancy...</text>
<text x="2.54cm" y="2.92cm" style="fill:#000000;font-size:9pt; font-family:serif;"></text>
<text x="7.36cm" y="17.72cm" style="fill:#000000;font-size:9pt; font-family:serif;"> Townsend, Ma...</text>
<text x="2.54cm" y="2.92cm" style="fill:#000000;font-size:9pt; font-family:serif;"></text>
<text x="7.36cm" y="17.32cm" style="fill:#000000;font-size:9pt; font-family:serif;">Максимов, Hea...</text>
<text x="2.54cm" y="2.92cm" style="fill:#000000;font-size:9pt; font-family:serif;"></text>
<text x="10.43cm" y="15.79cm" style="fill:#000000;font-weight:bold;font-size:13pt; font-family:serif;">25</text>
<text x="9.72cm" y="18.51cm" style="fill:#000000;font-size:9pt; font-family:serif;">Wójcik, Suzan...</text>
<text x="12.79cm" y="15.79cm" style="fill:#000000;font-weight:bold;font-size:13pt; font-family:serif;">26</text>
<text x="12.07cm" y="18.51cm" style="fill:#000000;font-size:9pt; font-family:serif;"> Warner, Harol...</text>
<text x="2.54cm" y="2.92cm" style="fill:#000000;font-size:9pt; font-family:serif;"></text>
<text x="12.07cm" y="18.11cm" style="fill:#000000;font-size:9pt; font-family:serif;">Powers, Nancy ...</text>
<text x="2.54cm" y="2.92cm" style="fill:#000000;font-size:9pt; font-family:serif;"></text>
<text x="12.07cm" y="17.72cm" style="fill:#000000;font-size:9pt; font-family:serif;">Todd, Lena Vi...</text>
<text x="15.15cm" y="15.79cm" style="fill:#000000;font-weight:bold;font-size:13pt; font-family:serif;">27</text>
<text x="17.51cm" y="15.79cm" style="fill:#000000;font-weight:bold;font-size:13pt; font-family:serif;">28</text>
<text x="16.79cm" y="18.51cm" style="fill:#000000;font-size:9pt; font-family:serif;">Cruz, Joella Ly...</text>
<text x="3.36cm" y="19.18cm" style="fill:#000000;font-weight:bold;font-size:13pt; font-family:serif;">29</text>
<text x="2.64cm" y="21.90cm" style="fill:#000000;font-size:9pt; font-family:serif;">Cruz, Karla Su...</text>
<text x="5.72cm" y="19.18cm" style="fill:#000000;font-weight:bold;font-size:13pt; font-family:serif;">30</text>
<text x="5.00cm" y="21.90cm" style="fill:#000000;font-size:9pt; font-family:serif;">Warner, Noah ...</text>
<text x="9.75cm" y="24.00cm" style="fill:#000000;font-size:12pt; font-family:serif;">My Calendar</text>
<text x="9.09cm" y="24.64cm" style="fill:#000000;font-size:12pt; font-family:serif;">Produced with Gramps</text>
<text x="9.38cm" y="25.15cm" style="fill:#000000;font-size:9pt; font-family:serif;">http://gramps-project.org/</text>
</svg>
