<?xml version="1.0" encoding="UTF-8" standalone="no"?>
<!DOCTYPE svg PUBLIC "-//W3C//DTD SVG 1.0//EN" "http://www.w3.org/TR/2001/REC-SVG-20010904/DTD/svg10.dtd">
<svg width="21.59cm" height="27.94cm" xmlns="http://www.w3.org/2000/svg">
<rect width="21.59cm" height="27.94cm" style="fill: none;"/>
<rect x="10.51cm" y="4.36cm" width="6.42cm" height="1.59cm" style="fill:#808080; stroke:#808080; stroke-width:1;"/>
<rect x="10.32cm" y="4.17cm" width="6.42cm" height="1.59cm" style="fill:#ffffff; stroke:#000000; stroke-width:0.500000;"/>
<rect x="10.82cm" y="6.15cm" width="5.93cm" height="0.63cm" style="fill:#ffffff; stroke:#000000; stroke-width:0.500000;"/>
<line x1="16.74cm" y1="6.46cm" x2="17.74cm" y2="6.46cm" style="stroke:#000000; stroke-width:0.50pt;"/>
<line x1="17.74cm" y1="4.73cm" x2="17.74cm" y2="9.82cm" style="stroke:#000000; stroke-width:0.50pt;"/>
<line x1="17.74cm" y1="4.73cm" x2="18.07cm" y2="4.73cm" style="stroke:#000000; stroke-width:0.50pt;"/>
<line x1="17.74cm" y1="6.42cm" x2="18.07cm" y2="6.42cm" style="stroke:#000000; stroke-width:0.50pt;"/>
<line x1="17.74cm" y1="8.12cm" x2="18.07cm" y2="8.12cm" style="stroke:#000000; stroke-width:0.50pt;"/>
<line x1="17.74cm" y1="9.82cm" x2="18.07cm" y2="9.82cm" style="stroke:#000000; stroke-width:0.50pt;"/>
<rect x="11.01cm" y="7.37cm" width="5.93cm" height="1.59cm" style="fill:#808080; stroke:#808080; stroke-width:1;"/>
<rect x="10.82cm" y="7.18cm" width="5.93cm" height="1.59cm" style="fill:#ffffff; stroke:#000000; stroke-width:0.500000;"/>
<rect x="10.51cm" y="9.54cm" width="6.42cm" height="1.59cm" style="fill:#808080; stroke:#808080; stroke-width:1;"/>
<rect x="10.32cm" y="9.35cm" width="6.42cm" height="1.59cm" style="fill:#ffffff; stroke:#000000; stroke-width:0.500000;"/>
<line x1="9.99cm" y1="2.54cm" x2="9.99cm" y2="10.15cm" style="stroke:#000000; stroke-width:0.50pt;"/>
<line x1="9.99cm" y1="4.96cm" x2="10.32cm" y2="4.96cm" style="stroke:#000000; stroke-width:0.50pt;"/>
<line x1="9.99cm" y1="10.15cm" x2="10.32cm" y2="10.15cm" style="stroke:#000000; stroke-width:0.50pt;"/>
<text x="10.67cm" y="4.66cm" style="fill:#000000;  font-weight:bold; font-size:9pt; font-family:sans-serif;">Garner, Bertha P.</text>
<text x="10.67cm" y="5.04cm" style="fill:#000000;  font-weight:bold; font-size:9pt; font-family:sans-serif;">b. 1888-03-13</text>
<text x="10.67cm" y="5.42cm" style="fill:#000000;  font-weight:bold; font-size:9pt; font-family:sans-serif;">d. 1918-04-05</text>
<text x="11.17cm" y="6.54cm" style="fill:#000000;  font-size:9pt; font-family:sans-serif;">m. 1907-11-16</text>
<text x="11.17cm" y="7.67cm" style="fill:#000000;  font-size:9pt; font-family:sans-serif;">Robinson, Clarence</text>
<text x="11.17cm" y="8.05cm" style="fill:#000000;  font-size:9pt; font-family:sans-serif;">b. </text>
<text x="11.17cm" y="8.43cm" style="fill:#000000;  font-size:9pt; font-family:sans-serif;">d. </text>
<text x="10.67cm" y="9.84cm" style="fill:#000000;  font-weight:bold; font-size:9pt; font-family:sans-serif;">Garner, Elizabeth</text>
<text x="10.67cm" y="10.22cm" style="fill:#000000;  font-weight:bold; font-size:9pt; font-family:sans-serif;">b. 1883</text>
<text x="10.67cm" y="10.60cm" style="fill:#000000;  font-weight:bold; font-size:9pt; font-family:sans-serif;">d. </text>
</svg>
