<?xml version="1.0" encoding="UTF-8" standalone="no"?>
<!DOCTYPE svg PUBLIC "-//W3C//DTD SVG 1.0//EN" "http://www.w3.org/TR/2001/REC-SVG-20010904/DTD/svg10.dtd">
<svg width="21.59cm" height="27.94cm" xmlns="http://www.w3.org/2000/svg">
<rect width="21.59cm" height="27.94cm" style="fill: none;"/>
<rect x="3.07cm" y="2.58cm" width="5.93cm" height="0.63cm" style="fill:#ffffff; stroke:#000000; stroke-width:0.500000;"/>
<rect x="10.82cm" y="3.36cm" width="5.93cm" height="0.63cm" style="fill:#ffffff; stroke:#000000; stroke-width:0.500000;"/>
<line x1="16.74cm" y1="3.68cm" x2="17.74cm" y2="3.68cm" style="stroke:#000000; stroke-width:0.50pt;"/>
<line x1="17.74cm" y1="2.54cm" x2="17.74cm" y2="4.12cm" style="stroke:#000000; stroke-width:0.50pt;"/>
<line x1="17.74cm" y1="4.12cm" x2="18.07cm" y2="4.12cm" style="stroke:#000000; stroke-width:0.50pt;"/>
<rect x="3.26cm" y="3.80cm" width="5.93cm" height="1.11cm" style="fill:#808080; stroke:#808080; stroke-width:1;"/>
<rect x="3.07cm" y="3.61cm" width="5.93cm" height="1.11cm" style="fill:#ffffff; stroke:#000000; stroke-width:0.500000;"/>
<rect x="11.01cm" y="4.58cm" width="5.93cm" height="1.11cm" style="fill:#808080; stroke:#808080; stroke-width:1;"/>
<rect x="10.82cm" y="4.39cm" width="5.93cm" height="1.11cm" style="fill:#ffffff; stroke:#000000; stroke-width:0.500000;"/>
<rect x="2.77cm" y="5.50cm" width="6.42cm" height="1.11cm" style="fill:#808080; stroke:#808080; stroke-width:1;"/>
<rect x="2.58cm" y="5.31cm" width="6.42cm" height="1.11cm" style="fill:#ffffff; stroke:#000000; stroke-width:0.500000;"/>
<line x1="2.54cm" y1="5.86cm" x2="2.58cm" y2="5.86cm" style="stroke:#000000; stroke-width:0.50pt;"/>
<rect x="10.51cm" y="6.28cm" width="6.42cm" height="1.11cm" style="fill:#808080; stroke:#808080; stroke-width:1;"/>
<rect x="10.32cm" y="6.09cm" width="6.42cm" height="1.11cm" style="fill:#ffffff; stroke:#000000; stroke-width:0.500000;"/>
<rect x="10.82cm" y="7.59cm" width="5.93cm" height="0.63cm" style="fill:#ffffff; stroke:#000000; stroke-width:0.500000;"/>
<line x1="16.74cm" y1="7.91cm" x2="17.74cm" y2="7.91cm" style="stroke:#000000; stroke-width:0.50pt;"/>
<line x1="17.74cm" y1="6.65cm" x2="17.74cm" y2="7.91cm" style="stroke:#000000; stroke-width:0.50pt;"/>
<line x1="17.74cm" y1="6.65cm" x2="18.07cm" y2="6.65cm" style="stroke:#000000; stroke-width:0.50pt;"/>
<rect x="2.77cm" y="8.15cm" width="6.42cm" height="1.11cm" style="fill:#808080; stroke:#808080; stroke-width:1;"/>
<rect x="2.58cm" y="7.96cm" width="6.42cm" height="1.11cm" style="fill:#ffffff; stroke:#000000; stroke-width:0.500000;"/>
<line x1="2.54cm" y1="8.51cm" x2="2.58cm" y2="8.51cm" style="stroke:#000000; stroke-width:0.50pt;"/>
<rect x="11.01cm" y="8.81cm" width="5.93cm" height="1.11cm" style="fill:#808080; stroke:#808080; stroke-width:1;"/>
<rect x="10.82cm" y="8.62cm" width="5.93cm" height="1.11cm" style="fill:#ffffff; stroke:#000000; stroke-width:0.500000;"/>
<rect x="2.77cm" y="9.85cm" width="6.42cm" height="1.11cm" style="fill:#808080; stroke:#808080; stroke-width:1;"/>
<rect x="2.58cm" y="9.66cm" width="6.42cm" height="1.11cm" style="fill:#ffffff; stroke:#000000; stroke-width:0.500000;"/>
<line x1="2.54cm" y1="10.21cm" x2="2.58cm" y2="10.21cm" style="stroke:#000000; stroke-width:0.50pt;"/>
<rect x="10.51cm" y="10.51cm" width="6.42cm" height="1.11cm" style="fill:#808080; stroke:#808080; stroke-width:1;"/>
<rect x="10.32cm" y="10.32cm" width="6.42cm" height="1.11cm" style="fill:#ffffff; stroke:#000000; stroke-width:0.500000;"/>
<rect x="3.07cm" y="11.16cm" width="5.93cm" height="0.63cm" style="fill:#ffffff; stroke:#000000; stroke-width:0.500000;"/>
<rect x="10.82cm" y="11.82cm" width="5.93cm" height="0.63cm" style="fill:#ffffff; stroke:#000000; stroke-width:0.500000;"/>
<line x1="16.74cm" y1="12.14cm" x2="17.74cm" y2="12.14cm" style="stroke:#000000; stroke-width:0.50pt;"/>
<line x1="17.74cm" y1="10.88cm" x2="17.74cm" y2="18.51cm" style="stroke:#000000; stroke-width:0.50pt;"/>
<line x1="17.74cm" y1="10.88cm" x2="18.07cm" y2="10.88cm" style="stroke:#000000; stroke-width:0.50pt;"/>
<line x1="17.74cm" y1="12.58cm" x2="18.07cm" y2="12.58cm" style="stroke:#000000; stroke-width:0.50pt;"/>
<line x1="17.74cm" y1="16.81cm" x2="18.07cm" y2="16.81cm" style="stroke:#000000; stroke-width:0.50pt;"/>
<line x1="17.74cm" y1="18.51cm" x2="18.07cm" y2="18.51cm" style="stroke:#000000; stroke-width:0.50pt;"/>
<rect x="3.26cm" y="12.38cm" width="5.93cm" height="1.11cm" style="fill:#808080; stroke:#808080; stroke-width:1;"/>
<rect x="3.07cm" y="12.19cm" width="5.93cm" height="1.11cm" style="fill:#ffffff; stroke:#000000; stroke-width:0.500000;"/>
<rect x="11.01cm" y="13.04cm" width="5.93cm" height="1.11cm" style="fill:#808080; stroke:#808080; stroke-width:1;"/>
<rect x="10.82cm" y="12.85cm" width="5.93cm" height="1.11cm" style="fill:#ffffff; stroke:#000000; stroke-width:0.500000;"/>
<rect x="2.77cm" y="14.08cm" width="6.42cm" height="1.11cm" style="fill:#808080; stroke:#808080; stroke-width:1;"/>
<rect x="2.58cm" y="13.89cm" width="6.42cm" height="1.11cm" style="fill:#ffffff; stroke:#000000; stroke-width:0.500000;"/>
<line x1="2.54cm" y1="14.44cm" x2="2.58cm" y2="14.44cm" style="stroke:#000000; stroke-width:0.50pt;"/>
<rect x="2.77cm" y="16.17cm" width="6.42cm" height="1.11cm" style="fill:#808080; stroke:#808080; stroke-width:1;"/>
<rect x="2.58cm" y="15.98cm" width="6.42cm" height="1.11cm" style="fill:#ffffff; stroke:#000000; stroke-width:0.500000;"/>
<line x1="2.54cm" y1="16.54cm" x2="2.58cm" y2="16.54cm" style="stroke:#000000; stroke-width:0.50pt;"/>
<rect x="3.07cm" y="17.48cm" width="5.93cm" height="0.63cm" style="fill:#ffffff; stroke:#000000; stroke-width:0.500000;"/>
<rect x="3.26cm" y="18.70cm" width="5.93cm" height="1.11cm" style="fill:#808080; stroke:#808080; stroke-width:1;"/>
<rect x="3.07cm" y="18.51cm" width="5.93cm" height="1.11cm" style="fill:#ffffff; stroke:#000000; stroke-width:0.500000;"/>
<rect x="10.51cm" y="20.24cm" width="6.42cm" height="1.11cm" style="fill:#808080; stroke:#808080; stroke-width:1;"/>
<rect x="10.32cm" y="20.05cm" width="6.42cm" height="1.11cm" style="fill:#ffffff; stroke:#000000; stroke-width:0.500000;"/>
<rect x="2.77cm" y="20.40cm" width="6.42cm" height="1.11cm" style="fill:#808080; stroke:#808080; stroke-width:1;"/>
<rect x="2.58cm" y="20.21cm" width="6.42cm" height="1.11cm" style="fill:#ffffff; stroke:#000000; stroke-width:0.500000;"/>
<line x1="2.54cm" y1="20.77cm" x2="2.58cm" y2="20.77cm" style="stroke:#000000; stroke-width:0.50pt;"/>
<rect x="10.82cm" y="21.55cm" width="5.93cm" height="0.63cm" style="fill:#ffffff; stroke:#000000; stroke-width:0.500000;"/>
<line x1="16.74cm" y1="21.86cm" x2="17.74cm" y2="21.86cm" style="stroke:#000000; stroke-width:0.50pt;"/>
<line x1="17.74cm" y1="20.60cm" x2="17.74cm" y2="22.30cm" style="stroke:#000000; stroke-width:0.50pt;"/>
<line x1="17.74cm" y1="20.60cm" x2="18.07cm" y2="20.60cm" style="stroke:#000000; stroke-width:0.50pt;"/>
<line x1="17.74cm" y1="22.30cm" x2="18.07cm" y2="22.30cm" style="stroke:#000000; stroke-width:0.50pt;"/>
<rect x="11.01cm" y="22.77cm" width="5.93cm" height="1.11cm" style="fill:#808080; stroke:#808080; stroke-width:1;"/>
<rect x="10.82cm" y="22.58cm" width="5.93cm" height="1.11cm" style="fill:#ffffff; stroke:#000000; stroke-width:0.500000;"/>
<line x1="9.99cm" y1="2.54cm" x2="9.99cm" y2="25.40cm" style="stroke:#000000; stroke-width:0.50pt;"/>
<line x1="9.99cm" y1="6.65cm" x2="10.32cm" y2="6.65cm" style="stroke:#000000; stroke-width:0.50pt;"/>
<line x1="9.99cm" y1="10.88cm" x2="10.32cm" y2="10.88cm" style="stroke:#000000; stroke-width:0.50pt;"/>
<line x1="9.99cm" y1="20.60cm" x2="10.32cm" y2="20.60cm" style="stroke:#000000; stroke-width:0.50pt;"/>
<text x="3.42cm" y="2.97cm" style="fill:#000000;  font-size:9pt; font-family:sans-serif;">m. </text>
<text x="11.17cm" y="3.75cm" style="fill:#000000;  font-size:9pt; font-family:sans-serif;">m. 1970-08-08</text>
<text x="3.42cm" y="4.05cm" style="fill:#000000;  font-size:9pt; font-family:sans-serif;">Burgess, Edward</text>
<text x="3.42cm" y="4.43cm" style="fill:#000000;  font-size:9pt; font-family:sans-serif;">b. </text>
<text x="11.17cm" y="4.83cm" style="fill:#000000;  font-size:9pt; font-family:sans-serif;">Gibbs, Sharon</text>
<text x="11.17cm" y="5.22cm" style="fill:#000000;  font-size:9pt; font-family:sans-serif;">b. </text>
<text x="2.93cm" y="5.75cm" style="fill:#000000;  font-weight:bold; font-size:9pt; font-family:sans-serif;">Garner, Victor</text>
<text x="2.93cm" y="6.13cm" style="fill:#000000;  font-weight:bold; font-size:9pt; font-family:sans-serif;">b. </text>
<text x="10.67cm" y="6.53cm" style="fill:#000000;  font-weight:bold; font-size:9pt; font-family:sans-serif;">Garner, Barbara Jo</text>
<text x="10.67cm" y="6.91cm" style="fill:#000000;  font-weight:bold; font-size:9pt; font-family:sans-serif;">b. 1949-11-08</text>
<text x="11.17cm" y="7.99cm" style="fill:#000000;  font-size:9pt; font-family:sans-serif;">m. </text>
<text x="2.93cm" y="8.40cm" style="fill:#000000;  font-weight:bold; font-size:9pt; font-family:sans-serif;">Яковлев, Everett</text>
<text x="2.93cm" y="8.78cm" style="fill:#000000;  font-weight:bold; font-size:9pt; font-family:sans-serif;">b. </text>
<text x="11.17cm" y="9.06cm" style="fill:#000000;  font-size:9pt; font-family:sans-serif;">Díez, William George</text>
<text x="11.17cm" y="9.45cm" style="fill:#000000;  font-size:9pt; font-family:sans-serif;">b. </text>
<text x="2.93cm" y="10.10cm" style="fill:#000000;  font-weight:bold; font-size:9pt; font-family:sans-serif;">Яковлев, Esther Faye</text>
<text x="2.93cm" y="10.48cm" style="fill:#000000;  font-weight:bold; font-size:9pt; font-family:sans-serif;">b. </text>
<text x="10.67cm" y="10.76cm" style="fill:#000000;  font-weight:bold; font-size:9pt; font-family:sans-serif;">Garner, Kathryn Mary</text>
<text x="10.67cm" y="11.14cm" style="fill:#000000;  font-weight:bold; font-size:9pt; font-family:sans-serif;">b. 1952-09-10</text>
<text x="3.42cm" y="11.55cm" style="fill:#000000;  font-size:9pt; font-family:sans-serif;">m. </text>
<text x="11.17cm" y="12.22cm" style="fill:#000000;  font-size:9pt; font-family:sans-serif;">m. 1975-02-08</text>
<text x="3.42cm" y="12.63cm" style="fill:#000000;  font-size:9pt; font-family:sans-serif;">Arnold, ???????</text>
<text x="3.42cm" y="13.01cm" style="fill:#000000;  font-size:9pt; font-family:sans-serif;">b. </text>
<text x="11.17cm" y="13.30cm" style="fill:#000000;  font-size:9pt; font-family:sans-serif;">Сергеев, Dennis</text>
<text x="11.17cm" y="13.68cm" style="fill:#000000;  font-size:9pt; font-family:sans-serif;">b. </text>
<text x="2.93cm" y="14.33cm" style="fill:#000000;  font-weight:bold; font-size:9pt; font-family:sans-serif;">Яковлев, Georgia</text>
<text x="2.93cm" y="14.71cm" style="fill:#000000;  font-weight:bold; font-size:9pt; font-family:sans-serif;">b. </text>
<text x="2.93cm" y="16.42cm" style="fill:#000000;  font-weight:bold; font-size:9pt; font-family:sans-serif;">Garner, Maude</text>
<text x="2.93cm" y="16.80cm" style="fill:#000000;  font-weight:bold; font-size:9pt; font-family:sans-serif;">b. </text>
<text x="3.42cm" y="17.88cm" style="fill:#000000;  font-size:9pt; font-family:sans-serif;">m. </text>
<text x="3.42cm" y="18.96cm" style="fill:#000000;  font-size:9pt; font-family:sans-serif;">Cooper, ???????</text>
<text x="3.42cm" y="19.34cm" style="fill:#000000;  font-size:9pt; font-family:sans-serif;">b. </text>
<text x="10.67cm" y="20.49cm" style="fill:#000000;  font-weight:bold; font-size:9pt; font-family:sans-serif;">Garner, Peter George</text>
<text x="10.67cm" y="20.87cm" style="fill:#000000;  font-weight:bold; font-size:9pt; font-family:sans-serif;">b. 1954-08-05</text>
<text x="2.93cm" y="20.65cm" style="fill:#000000;  font-weight:bold; font-size:9pt; font-family:sans-serif;">Garner, Marguarite</text>
<text x="2.93cm" y="21.03cm" style="fill:#000000;  font-weight:bold; font-size:9pt; font-family:sans-serif;">b. </text>
<text x="11.17cm" y="21.94cm" style="fill:#000000;  font-size:9pt; font-family:sans-serif;">m. 1976-01-25</text>
<text x="11.17cm" y="23.02cm" style="fill:#000000;  font-size:9pt; font-family:sans-serif;">Gibbs, Joy</text>
<text x="11.17cm" y="23.40cm" style="fill:#000000;  font-size:9pt; font-family:sans-serif;">b. </text>
</svg>
