<?xml version="1.0" encoding="UTF-8" standalone="no"?>
<!DOCTYPE svg PUBLIC "-//W3C//DTD SVG 1.0//EN" "http://www.w3.org/TR/2001/REC-SVG-20010904/DTD/svg10.dtd">
<svg width="21.59cm" height="27.94cm" xmlns="http://www.w3.org/2000/svg">
<rect width="21.59cm" height="27.94cm" style="fill: none;"/>
<rect x="10.51cm" y="2.77cm" width="6.42cm" height="1.11cm" style="fill:#808080; stroke:#808080; stroke-width:1;"/>
<rect x="10.32cm" y="2.58cm" width="6.42cm" height="1.11cm" style="fill:#ffffff; stroke:#000000; stroke-width:0.500000;"/>
<rect x="10.82cm" y="4.08cm" width="5.93cm" height="0.63cm" style="fill:#ffffff; stroke:#000000; stroke-width:0.500000;"/>
<rect x="2.77cm" y="4.36cm" width="6.42cm" height="1.11cm" style="fill:#808080; stroke:#808080; stroke-width:1;"/>
<rect x="2.58cm" y="4.17cm" width="6.42cm" height="1.11cm" style="fill:#ffffff; stroke:#000000; stroke-width:0.500000;"/>
<line x1="2.54cm" y1="4.73cm" x2="2.58cm" y2="4.73cm" style="stroke:#000000; stroke-width:0.50pt;"/>
<rect x="11.01cm" y="5.30cm" width="5.93cm" height="1.11cm" style="fill:#808080; stroke:#808080; stroke-width:1;"/>
<rect x="10.82cm" y="5.11cm" width="5.93cm" height="1.11cm" style="fill:#ffffff; stroke:#000000; stroke-width:0.500000;"/>
<rect x="2.77cm" y="6.06cm" width="6.42cm" height="1.11cm" style="fill:#808080; stroke:#808080; stroke-width:1;"/>
<rect x="2.58cm" y="5.87cm" width="6.42cm" height="1.11cm" style="fill:#ffffff; stroke:#000000; stroke-width:0.500000;"/>
<line x1="2.54cm" y1="6.42cm" x2="2.58cm" y2="6.42cm" style="stroke:#000000; stroke-width:0.50pt;"/>
<rect x="10.51cm" y="7.00cm" width="6.42cm" height="1.11cm" style="fill:#808080; stroke:#808080; stroke-width:1;"/>
<rect x="10.32cm" y="6.81cm" width="6.42cm" height="1.11cm" style="fill:#ffffff; stroke:#000000; stroke-width:0.500000;"/>
<rect x="2.77cm" y="7.76cm" width="6.42cm" height="1.11cm" style="fill:#808080; stroke:#808080; stroke-width:1;"/>
<rect x="2.58cm" y="7.57cm" width="6.42cm" height="1.11cm" style="fill:#ffffff; stroke:#000000; stroke-width:0.500000;"/>
<line x1="2.54cm" y1="8.12cm" x2="2.58cm" y2="8.12cm" style="stroke:#000000; stroke-width:0.50pt;"/>
<rect x="10.82cm" y="8.31cm" width="5.93cm" height="0.63cm" style="fill:#ffffff; stroke:#000000; stroke-width:0.500000;"/>
<line x1="16.74cm" y1="8.62cm" x2="17.74cm" y2="8.62cm" style="stroke:#000000; stroke-width:0.50pt;"/>
<line x1="17.74cm" y1="7.36cm" x2="17.74cm" y2="10.76cm" style="stroke:#000000; stroke-width:0.50pt;"/>
<line x1="17.74cm" y1="7.36cm" x2="18.07cm" y2="7.36cm" style="stroke:#000000; stroke-width:0.50pt;"/>
<line x1="17.74cm" y1="9.06cm" x2="18.07cm" y2="9.06cm" style="stroke:#000000; stroke-width:0.50pt;"/>
<line x1="17.74cm" y1="10.76cm" x2="18.07cm" y2="10.76cm" style="stroke:#000000; stroke-width:0.50pt;"/>
<rect x="2.77cm" y="9.46cm" width="6.42cm" height="1.11cm" style="fill:#808080; stroke:#808080; stroke-width:1;"/>
<rect x="2.58cm" y="9.27cm" width="6.42cm" height="1.11cm" style="fill:#ffffff; stroke:#000000; stroke-width:0.500000;"/>
<line x1="2.54cm" y1="9.82cm" x2="2.58cm" y2="9.82cm" style="stroke:#000000; stroke-width:0.50pt;"/>
<rect x="11.01cm" y="9.53cm" width="5.93cm" height="1.11cm" style="fill:#808080; stroke:#808080; stroke-width:1;"/>
<rect x="10.82cm" y="9.34cm" width="5.93cm" height="1.11cm" style="fill:#ffffff; stroke:#000000; stroke-width:0.500000;"/>
<rect x="10.82cm" y="10.84cm" width="5.93cm" height="0.63cm" style="fill:#ffffff; stroke:#000000; stroke-width:0.500000;"/>
<rect x="11.01cm" y="12.06cm" width="5.93cm" height="1.11cm" style="fill:#808080; stroke:#808080; stroke-width:1;"/>
<rect x="10.82cm" y="11.87cm" width="5.93cm" height="1.11cm" style="fill:#ffffff; stroke:#000000; stroke-width:0.500000;"/>
<rect x="10.51cm" y="13.76cm" width="6.42cm" height="1.11cm" style="fill:#808080; stroke:#808080; stroke-width:1;"/>
<rect x="10.32cm" y="13.57cm" width="6.42cm" height="1.11cm" style="fill:#ffffff; stroke:#000000; stroke-width:0.500000;"/>
<rect x="10.82cm" y="15.07cm" width="5.93cm" height="0.63cm" style="fill:#ffffff; stroke:#000000; stroke-width:0.500000;"/>
<rect x="11.01cm" y="16.29cm" width="5.93cm" height="1.11cm" style="fill:#808080; stroke:#808080; stroke-width:1;"/>
<rect x="10.82cm" y="16.10cm" width="5.93cm" height="1.11cm" style="fill:#ffffff; stroke:#000000; stroke-width:0.500000;"/>
<rect x="10.51cm" y="17.99cm" width="6.42cm" height="1.11cm" style="fill:#808080; stroke:#808080; stroke-width:1;"/>
<rect x="10.32cm" y="17.80cm" width="6.42cm" height="1.11cm" style="fill:#ffffff; stroke:#000000; stroke-width:0.500000;"/>
<rect x="10.82cm" y="19.30cm" width="5.93cm" height="0.63cm" style="fill:#ffffff; stroke:#000000; stroke-width:0.500000;"/>
<rect x="11.01cm" y="20.52cm" width="5.93cm" height="1.11cm" style="fill:#808080; stroke:#808080; stroke-width:1;"/>
<rect x="10.82cm" y="20.33cm" width="5.93cm" height="1.11cm" style="fill:#ffffff; stroke:#000000; stroke-width:0.500000;"/>
<rect x="10.51cm" y="22.22cm" width="6.42cm" height="1.11cm" style="fill:#808080; stroke:#808080; stroke-width:1;"/>
<rect x="10.32cm" y="22.03cm" width="6.42cm" height="1.11cm" style="fill:#ffffff; stroke:#000000; stroke-width:0.500000;"/>
<rect x="10.82cm" y="23.53cm" width="5.93cm" height="0.63cm" style="fill:#ffffff; stroke:#000000; stroke-width:0.500000;"/>
<line x1="9.99cm" y1="2.54cm" x2="9.99cm" y2="25.40cm" style="stroke:#000000; stroke-width:0.50pt;"/>
<line x1="9.99cm" y1="3.13cm" x2="10.32cm" y2="3.13cm" style="stroke:#000000; stroke-width:0.50pt;"/>
<line x1="9.99cm" y1="7.36cm" x2="10.32cm" y2="7.36cm" style="stroke:#000000; stroke-width:0.50pt;"/>
<line x1="9.99cm" y1="14.12cm" x2="10.32cm" y2="14.12cm" style="stroke:#000000; stroke-width:0.50pt;"/>
<line x1="9.99cm" y1="18.36cm" x2="10.32cm" y2="18.36cm" style="stroke:#000000; stroke-width:0.50pt;"/>
<line x1="9.99cm" y1="22.59cm" x2="10.32cm" y2="22.59cm" style="stroke:#000000; stroke-width:0.50pt;"/>
<text x="10.67cm" y="3.02cm" style="fill:#000000;  font-weight:bold; font-size:9pt; font-family:sans-serif;">Garner, Bernadette</text>
<text x="10.67cm" y="3.40cm" style="fill:#000000;  font-weight:bold; font-size:9pt; font-family:sans-serif;">b. 1957-08-31</text>
<text x="11.17cm" y="4.47cm" style="fill:#000000;  font-size:9pt; font-family:sans-serif;">m. </text>
<text x="2.93cm" y="4.61cm" style="fill:#000000;  font-weight:bold; font-size:9pt; font-family:sans-serif;">Robinson, Robert</text>
<text x="2.93cm" y="4.99cm" style="fill:#000000;  font-weight:bold; font-size:9pt; font-family:sans-serif;">b. </text>
<text x="11.17cm" y="5.55cm" style="fill:#000000;  font-size:9pt; font-family:sans-serif;">Beck, Jack</text>
<text x="11.17cm" y="5.93cm" style="fill:#000000;  font-size:9pt; font-family:sans-serif;">b. </text>
<text x="2.93cm" y="6.31cm" style="fill:#000000;  font-weight:bold; font-size:9pt; font-family:sans-serif;">Robinson, Luther</text>
<text x="2.93cm" y="6.69cm" style="fill:#000000;  font-weight:bold; font-size:9pt; font-family:sans-serif;">b. </text>
<text x="10.67cm" y="7.25cm" style="fill:#000000;  font-weight:bold; font-size:9pt; font-family:sans-serif;">Garner, Louella Marie</text>
<text x="10.67cm" y="7.63cm" style="fill:#000000;  font-weight:bold; font-size:9pt; font-family:sans-serif;">b. </text>
<text x="2.93cm" y="8.01cm" style="fill:#000000;  font-weight:bold; font-size:9pt; font-family:sans-serif;">Robinson, Albert Raymond</text>
<text x="2.93cm" y="8.39cm" style="fill:#000000;  font-weight:bold; font-size:9pt; font-family:sans-serif;">b. </text>
<text x="11.17cm" y="8.70cm" style="fill:#000000;  font-size:9pt; font-family:sans-serif;">m. </text>
<text x="2.93cm" y="9.71cm" style="fill:#000000;  font-weight:bold; font-size:9pt; font-family:sans-serif;">Robinson, Hugh Martin</text>
<text x="2.93cm" y="10.09cm" style="fill:#000000;  font-weight:bold; font-size:9pt; font-family:sans-serif;">b. </text>
<text x="11.17cm" y="9.78cm" style="fill:#000000;  font-size:9pt; font-family:sans-serif;">Hill</text>
<text x="11.17cm" y="10.16cm" style="fill:#000000;  font-size:9pt; font-family:sans-serif;">b. </text>
<text x="11.17cm" y="11.23cm" style="fill:#000000;  font-size:9pt; font-family:sans-serif;">m. </text>
<text x="11.17cm" y="12.31cm" style="fill:#000000;  font-size:9pt; font-family:sans-serif;">Coleman</text>
<text x="11.17cm" y="12.69cm" style="fill:#000000;  font-size:9pt; font-family:sans-serif;">b. </text>
<text x="10.67cm" y="14.01cm" style="fill:#000000;  font-weight:bold; font-size:9pt; font-family:sans-serif;">Garner, Cecilia</text>
<text x="10.67cm" y="14.39cm" style="fill:#000000;  font-weight:bold; font-size:9pt; font-family:sans-serif;">b. 1960-07-14</text>
<text x="11.17cm" y="15.46cm" style="fill:#000000;  font-size:9pt; font-family:sans-serif;">m. </text>
<text x="11.17cm" y="16.54cm" style="fill:#000000;  font-size:9pt; font-family:sans-serif;">Горбунов, Matt</text>
<text x="11.17cm" y="16.92cm" style="fill:#000000;  font-size:9pt; font-family:sans-serif;">b. </text>
<text x="10.67cm" y="18.24cm" style="fill:#000000;  font-weight:bold; font-size:9pt; font-family:sans-serif;">Garner, Mark Gerard</text>
<text x="10.67cm" y="18.62cm" style="fill:#000000;  font-weight:bold; font-size:9pt; font-family:sans-serif;">b. 1962-10-16</text>
<text x="11.17cm" y="19.69cm" style="fill:#000000;  font-size:9pt; font-family:sans-serif;">m. 1991-12-02</text>
<text x="11.17cm" y="20.77cm" style="fill:#000000;  font-size:9pt; font-family:sans-serif;">Gibbs, Lori</text>
<text x="11.17cm" y="21.15cm" style="fill:#000000;  font-size:9pt; font-family:sans-serif;">b. </text>
<text x="10.67cm" y="22.47cm" style="fill:#000000;  font-weight:bold; font-size:9pt; font-family:sans-serif;">Garner, John Joseph</text>
<text x="10.67cm" y="22.85cm" style="fill:#000000;  font-weight:bold; font-size:9pt; font-family:sans-serif;">b. 1961-08-15</text>
<text x="11.17cm" y="23.92cm" style="fill:#000000;  font-size:9pt; font-family:sans-serif;">m. 1994-03-04</text>
</svg>
