<?xml version="1.0" encoding="UTF-8" standalone="no"?>
<!DOCTYPE svg PUBLIC "-//W3C//DTD SVG 1.0//EN" "http://www.w3.org/TR/2001/REC-SVG-20010904/DTD/svg10.dtd">
<svg width="21.59cm" height="27.94cm" xmlns="http://www.w3.org/2000/svg">
<rect width="21.59cm" height="27.94cm" style="fill: none;"/>
<rect x="2.77cm" y="2.77cm" width="6.42cm" height="1.11cm" style="fill:#808080; stroke:#808080; stroke-width:1;"/>
<rect x="2.58cm" y="2.58cm" width="6.42cm" height="1.11cm" style="fill:#ffffff; stroke:#000000; stroke-width:0.500000;"/>
<line x1="2.54cm" y1="3.13cm" x2="2.58cm" y2="3.13cm" style="stroke:#000000; stroke-width:0.50pt;"/>
<rect x="10.51cm" y="2.77cm" width="6.42cm" height="1.11cm" style="fill:#808080; stroke:#808080; stroke-width:1;"/>
<rect x="10.32cm" y="2.58cm" width="6.42cm" height="1.11cm" style="fill:#ffffff; stroke:#000000; stroke-width:0.500000;"/>
<rect x="3.07cm" y="4.08cm" width="5.93cm" height="0.63cm" style="fill:#ffffff; stroke:#000000; stroke-width:0.500000;"/>
<line x1="9.00cm" y1="4.39cm" x2="9.99cm" y2="4.39cm" style="stroke:#000000; stroke-width:0.50pt;"/>
<line x1="9.99cm" y1="3.13cm" x2="9.99cm" y2="25.40cm" style="stroke:#000000; stroke-width:0.50pt;"/>
<line x1="9.99cm" y1="3.13cm" x2="10.32cm" y2="3.13cm" style="stroke:#000000; stroke-width:0.50pt;"/>
<line x1="9.99cm" y1="12.02cm" x2="10.32cm" y2="12.02cm" style="stroke:#000000; stroke-width:0.50pt;"/>
<line x1="9.99cm" y1="16.25cm" x2="10.32cm" y2="16.25cm" style="stroke:#000000; stroke-width:0.50pt;"/>
<line x1="9.99cm" y1="23.44cm" x2="10.32cm" y2="23.44cm" style="stroke:#000000; stroke-width:0.50pt;"/>
<rect x="10.82cm" y="4.08cm" width="5.93cm" height="0.63cm" style="fill:#ffffff; stroke:#000000; stroke-width:0.500000;"/>
<line x1="16.74cm" y1="4.39cm" x2="17.74cm" y2="4.39cm" style="stroke:#000000; stroke-width:0.50pt;"/>
<line x1="17.74cm" y1="3.13cm" x2="17.74cm" y2="9.93cm" style="stroke:#000000; stroke-width:0.50pt;"/>
<line x1="17.74cm" y1="3.13cm" x2="18.07cm" y2="3.13cm" style="stroke:#000000; stroke-width:0.50pt;"/>
<line x1="17.74cm" y1="4.83cm" x2="18.07cm" y2="4.83cm" style="stroke:#000000; stroke-width:0.50pt;"/>
<line x1="17.74cm" y1="6.53cm" x2="18.07cm" y2="6.53cm" style="stroke:#000000; stroke-width:0.50pt;"/>
<line x1="17.74cm" y1="8.23cm" x2="18.07cm" y2="8.23cm" style="stroke:#000000; stroke-width:0.50pt;"/>
<line x1="17.74cm" y1="9.93cm" x2="18.07cm" y2="9.93cm" style="stroke:#000000; stroke-width:0.50pt;"/>
<rect x="3.26cm" y="5.30cm" width="5.93cm" height="1.11cm" style="fill:#808080; stroke:#808080; stroke-width:1;"/>
<rect x="3.07cm" y="5.11cm" width="5.93cm" height="1.11cm" style="fill:#ffffff; stroke:#000000; stroke-width:0.500000;"/>
<rect x="11.01cm" y="5.30cm" width="5.93cm" height="1.11cm" style="fill:#808080; stroke:#808080; stroke-width:1;"/>
<rect x="10.82cm" y="5.11cm" width="5.93cm" height="1.11cm" style="fill:#ffffff; stroke:#000000; stroke-width:0.500000;"/>
<rect x="10.51cm" y="11.66cm" width="6.42cm" height="1.11cm" style="fill:#808080; stroke:#808080; stroke-width:1;"/>
<rect x="10.32cm" y="11.47cm" width="6.42cm" height="1.11cm" style="fill:#ffffff; stroke:#000000; stroke-width:0.500000;"/>
<rect x="10.82cm" y="12.97cm" width="5.93cm" height="0.63cm" style="fill:#ffffff; stroke:#000000; stroke-width:0.500000;"/>
<line x1="16.74cm" y1="13.28cm" x2="17.74cm" y2="13.28cm" style="stroke:#000000; stroke-width:0.50pt;"/>
<line x1="17.74cm" y1="12.02cm" x2="17.74cm" y2="13.28cm" style="stroke:#000000; stroke-width:0.50pt;"/>
<line x1="17.74cm" y1="12.02cm" x2="18.07cm" y2="12.02cm" style="stroke:#000000; stroke-width:0.50pt;"/>
<rect x="11.01cm" y="14.19cm" width="5.93cm" height="1.11cm" style="fill:#808080; stroke:#808080; stroke-width:1;"/>
<rect x="10.82cm" y="14.00cm" width="5.93cm" height="1.11cm" style="fill:#ffffff; stroke:#000000; stroke-width:0.500000;"/>
<rect x="10.51cm" y="15.89cm" width="6.42cm" height="1.11cm" style="fill:#808080; stroke:#808080; stroke-width:1;"/>
<rect x="10.32cm" y="15.70cm" width="6.42cm" height="1.11cm" style="fill:#ffffff; stroke:#000000; stroke-width:0.500000;"/>
<rect x="10.82cm" y="17.20cm" width="5.93cm" height="0.63cm" style="fill:#ffffff; stroke:#000000; stroke-width:0.500000;"/>
<line x1="16.74cm" y1="17.51cm" x2="17.74cm" y2="17.51cm" style="stroke:#000000; stroke-width:0.50pt;"/>
<line x1="17.74cm" y1="16.25cm" x2="17.74cm" y2="21.35cm" style="stroke:#000000; stroke-width:0.50pt;"/>
<line x1="17.74cm" y1="16.25cm" x2="18.07cm" y2="16.25cm" style="stroke:#000000; stroke-width:0.50pt;"/>
<line x1="17.74cm" y1="17.95cm" x2="18.07cm" y2="17.95cm" style="stroke:#000000; stroke-width:0.50pt;"/>
<line x1="17.74cm" y1="19.65cm" x2="18.07cm" y2="19.65cm" style="stroke:#000000; stroke-width:0.50pt;"/>
<line x1="17.74cm" y1="21.35cm" x2="18.07cm" y2="21.35cm" style="stroke:#000000; stroke-width:0.50pt;"/>
<rect x="11.01cm" y="18.42cm" width="5.93cm" height="1.11cm" style="fill:#808080; stroke:#808080; stroke-width:1;"/>
<rect x="10.82cm" y="18.23cm" width="5.93cm" height="1.11cm" style="fill:#ffffff; stroke:#000000; stroke-width:0.500000;"/>
<rect x="10.51cm" y="23.08cm" width="6.42cm" height="1.11cm" style="fill:#808080; stroke:#808080; stroke-width:1;"/>
<rect x="10.32cm" y="22.89cm" width="6.42cm" height="1.11cm" style="fill:#ffffff; stroke:#000000; stroke-width:0.500000;"/>
<rect x="10.82cm" y="24.39cm" width="5.93cm" height="0.63cm" style="fill:#ffffff; stroke:#000000; stroke-width:0.500000;"/>
<line x1="16.74cm" y1="24.70cm" x2="17.74cm" y2="24.70cm" style="stroke:#000000; stroke-width:0.50pt;"/>
<line x1="17.74cm" y1="23.44cm" x2="17.74cm" y2="25.14cm" style="stroke:#000000; stroke-width:0.50pt;"/>
<line x1="17.74cm" y1="23.44cm" x2="18.07cm" y2="23.44cm" style="stroke:#000000; stroke-width:0.50pt;"/>
<text x="2.93cm" y="3.02cm" style="fill:#000000;  font-weight:bold; font-size:9pt; font-family:sans-serif;">Garner, Howard Lane</text>
<text x="2.93cm" y="3.40cm" style="fill:#000000;  font-weight:bold; font-size:9pt; font-family:sans-serif;">b. 1928-07-09</text>
<text x="10.67cm" y="3.02cm" style="fill:#000000;  font-weight:bold; font-size:9pt; font-family:sans-serif;">Garner, Rita Marie</text>
<text x="10.67cm" y="3.40cm" style="fill:#000000;  font-weight:bold; font-size:9pt; font-family:sans-serif;">b. 1952-09-07</text>
<text x="3.42cm" y="4.47cm" style="fill:#000000;  font-size:9pt; font-family:sans-serif;">m. 1948-02-02</text>
<text x="11.17cm" y="4.47cm" style="fill:#000000;  font-size:9pt; font-family:sans-serif;">m. 1974-08-10</text>
<text x="3.42cm" y="5.55cm" style="fill:#000000;  font-size:9pt; font-family:sans-serif;">Marín, Mary Anne</text>
<text x="3.42cm" y="5.93cm" style="fill:#000000;  font-size:9pt; font-family:sans-serif;">b. 1927-01-13</text>
<text x="11.17cm" y="5.55cm" style="fill:#000000;  font-size:9pt; font-family:sans-serif;">Warner, Allen Carl</text>
<text x="11.17cm" y="5.93cm" style="fill:#000000;  font-size:9pt; font-family:sans-serif;">b. 1952-02-01</text>
<text x="10.67cm" y="11.91cm" style="fill:#000000;  font-weight:bold; font-size:9pt; font-family:sans-serif;">Garner, Barry Joseph</text>
<text x="10.67cm" y="12.29cm" style="fill:#000000;  font-weight:bold; font-size:9pt; font-family:sans-serif;">b. 1948-12-14</text>
<text x="11.17cm" y="13.36cm" style="fill:#000000;  font-size:9pt; font-family:sans-serif;">m. 1992-11-07</text>
<text x="11.17cm" y="14.44cm" style="fill:#000000;  font-size:9pt; font-family:sans-serif;">Vázquez, April Lynn</text>
<text x="11.17cm" y="14.82cm" style="fill:#000000;  font-size:9pt; font-family:sans-serif;">b. 1963-09-17</text>
<text x="10.67cm" y="16.14cm" style="fill:#000000;  font-weight:bold; font-size:9pt; font-family:sans-serif;">Garner, Anne Therese</text>
<text x="10.67cm" y="16.52cm" style="fill:#000000;  font-weight:bold; font-size:9pt; font-family:sans-serif;">b. 1950-09-10</text>
<text x="11.17cm" y="17.59cm" style="fill:#000000;  font-size:9pt; font-family:sans-serif;">m. 1973-09-15</text>
<text x="11.17cm" y="18.67cm" style="fill:#000000;  font-size:9pt; font-family:sans-serif;">Hale, Lawrence Paul</text>
<text x="11.17cm" y="19.05cm" style="fill:#000000;  font-size:9pt; font-family:sans-serif;">b. 1950-10-30</text>
<text x="10.67cm" y="23.33cm" style="fill:#000000;  font-weight:bold; font-size:9pt; font-family:sans-serif;">Garner, Gerard Stephen</text>
<text x="10.67cm" y="23.71cm" style="fill:#000000;  font-weight:bold; font-size:9pt; font-family:sans-serif;">b. 1955-07-31</text>
<text x="11.17cm" y="24.78cm" style="fill:#000000;  font-size:9pt; font-family:sans-serif;">m. 1979-01-06</text>
</svg>
