<?xml version="1.0" encoding="UTF-8" standalone="no"?>
<!DOCTYPE svg PUBLIC "-//W3C//DTD SVG 1.0//EN" "http://www.w3.org/TR/2001/REC-SVG-20010904/DTD/svg10.dtd">
<svg width="21.59cm" height="27.94cm" xmlns="http://www.w3.org/2000/svg">
<rect width="21.59cm" height="27.94cm" style="fill: none;"/>
<rect x="10.82cm" y="3.05cm" width="5.93cm" height="0.63cm" style="fill:#ffffff; stroke:#000000; stroke-width:0.500000;"/>
<line x1="16.74cm" y1="3.37cm" x2="17.74cm" y2="3.37cm" style="stroke:#000000; stroke-width:0.50pt;"/>
<line x1="17.74cm" y1="2.54cm" x2="17.74cm" y2="5.86cm" style="stroke:#000000; stroke-width:0.50pt;"/>
<line x1="17.74cm" y1="5.86cm" x2="18.07cm" y2="5.86cm" style="stroke:#000000; stroke-width:0.50pt;"/>
<rect x="11.01cm" y="4.27cm" width="5.93cm" height="1.11cm" style="fill:#808080; stroke:#808080; stroke-width:1;"/>
<rect x="10.82cm" y="4.08cm" width="5.93cm" height="1.11cm" style="fill:#ffffff; stroke:#000000; stroke-width:0.500000;"/>
<rect x="10.51cm" y="5.97cm" width="6.42cm" height="1.59cm" style="fill:#808080; stroke:#808080; stroke-width:1;"/>
<rect x="10.32cm" y="5.78cm" width="6.42cm" height="1.59cm" style="fill:#ffffff; stroke:#000000; stroke-width:0.500000;"/>
<rect x="10.51cm" y="8.15cm" width="6.42cm" height="1.59cm" style="fill:#808080; stroke:#808080; stroke-width:1;"/>
<rect x="10.32cm" y="7.96cm" width="6.42cm" height="1.59cm" style="fill:#ffffff; stroke:#000000; stroke-width:0.500000;"/>
<rect x="10.82cm" y="9.93cm" width="5.93cm" height="0.63cm" style="fill:#ffffff; stroke:#000000; stroke-width:0.500000;"/>
<line x1="16.74cm" y1="10.25cm" x2="17.74cm" y2="10.25cm" style="stroke:#000000; stroke-width:0.50pt;"/>
<line x1="17.74cm" y1="8.51cm" x2="17.74cm" y2="14.44cm" style="stroke:#000000; stroke-width:0.50pt;"/>
<line x1="17.74cm" y1="8.51cm" x2="18.07cm" y2="8.51cm" style="stroke:#000000; stroke-width:0.50pt;"/>
<line x1="17.74cm" y1="10.21cm" x2="18.07cm" y2="10.21cm" style="stroke:#000000; stroke-width:0.50pt;"/>
<line x1="17.74cm" y1="14.44cm" x2="18.07cm" y2="14.44cm" style="stroke:#000000; stroke-width:0.50pt;"/>
<rect x="11.01cm" y="11.16cm" width="5.93cm" height="1.59cm" style="fill:#808080; stroke:#808080; stroke-width:1;"/>
<rect x="10.82cm" y="10.97cm" width="5.93cm" height="1.59cm" style="fill:#ffffff; stroke:#000000; stroke-width:0.500000;"/>
<rect x="10.51cm" y="16.17cm" width="6.42cm" height="1.59cm" style="fill:#808080; stroke:#808080; stroke-width:1;"/>
<rect x="10.32cm" y="15.98cm" width="6.42cm" height="1.59cm" style="fill:#ffffff; stroke:#000000; stroke-width:0.500000;"/>
<rect x="10.82cm" y="17.96cm" width="5.93cm" height="0.63cm" style="fill:#ffffff; stroke:#000000; stroke-width:0.500000;"/>
<line x1="16.74cm" y1="18.28cm" x2="17.74cm" y2="18.28cm" style="stroke:#000000; stroke-width:0.50pt;"/>
<line x1="17.74cm" y1="16.54cm" x2="17.74cm" y2="20.77cm" style="stroke:#000000; stroke-width:0.50pt;"/>
<line x1="17.74cm" y1="16.54cm" x2="18.07cm" y2="16.54cm" style="stroke:#000000; stroke-width:0.50pt;"/>
<line x1="17.74cm" y1="20.77cm" x2="18.07cm" y2="20.77cm" style="stroke:#000000; stroke-width:0.50pt;"/>
<rect x="11.01cm" y="19.18cm" width="5.93cm" height="1.59cm" style="fill:#808080; stroke:#808080; stroke-width:1;"/>
<rect x="10.82cm" y="18.99cm" width="5.93cm" height="1.59cm" style="fill:#ffffff; stroke:#000000; stroke-width:0.500000;"/>
<rect x="10.51cm" y="21.36cm" width="6.42cm" height="1.59cm" style="fill:#808080; stroke:#808080; stroke-width:1;"/>
<rect x="10.32cm" y="21.16cm" width="6.42cm" height="1.59cm" style="fill:#ffffff; stroke:#000000; stroke-width:0.500000;"/>
<rect x="10.82cm" y="23.14cm" width="5.93cm" height="0.63cm" style="fill:#ffffff; stroke:#000000; stroke-width:0.500000;"/>
<rect x="11.01cm" y="24.36cm" width="5.93cm" height="1.11cm" style="fill:#808080; stroke:#808080; stroke-width:1;"/>
<rect x="10.82cm" y="24.17cm" width="5.93cm" height="1.11cm" style="fill:#ffffff; stroke:#000000; stroke-width:0.500000;"/>
<line x1="9.99cm" y1="2.54cm" x2="9.99cm" y2="25.40cm" style="stroke:#000000; stroke-width:0.50pt;"/>
<line x1="9.99cm" y1="6.58cm" x2="10.32cm" y2="6.58cm" style="stroke:#000000; stroke-width:0.50pt;"/>
<line x1="9.99cm" y1="8.75cm" x2="10.32cm" y2="8.75cm" style="stroke:#000000; stroke-width:0.50pt;"/>
<line x1="9.99cm" y1="16.78cm" x2="10.32cm" y2="16.78cm" style="stroke:#000000; stroke-width:0.50pt;"/>
<line x1="9.99cm" y1="21.96cm" x2="10.32cm" y2="21.96cm" style="stroke:#000000; stroke-width:0.50pt;"/>
<text x="11.17cm" y="3.45cm" style="fill:#000000;  font-size:9pt; font-family:sans-serif;">m. </text>
<text x="11.17cm" y="4.52cm" style="fill:#000000;  font-size:9pt; font-family:sans-serif;">Taylor, Viola</text>
<text x="11.17cm" y="4.91cm" style="fill:#000000;  font-size:9pt; font-family:sans-serif;">b. </text>
<text x="10.67cm" y="6.27cm" style="fill:#000000;  font-weight:bold; font-size:9pt; font-family:sans-serif;">Garner, Raymond E.</text>
<text x="10.67cm" y="6.65cm" style="fill:#000000;  font-weight:bold; font-size:9pt; font-family:sans-serif;">b. 1878-09-16</text>
<text x="10.67cm" y="7.03cm" style="fill:#000000;  font-weight:bold; font-size:9pt; font-family:sans-serif;">d. 1921-05-02</text>
<text x="10.67cm" y="8.45cm" style="fill:#000000;  font-weight:bold; font-size:9pt; font-family:sans-serif;">Garner, Jennie S.</text>
<text x="10.67cm" y="8.83cm" style="fill:#000000;  font-weight:bold; font-size:9pt; font-family:sans-serif;">b. 1880-09-11</text>
<text x="10.67cm" y="9.21cm" style="fill:#000000;  font-weight:bold; font-size:9pt; font-family:sans-serif;">d. 1964-06-20</text>
<text x="11.17cm" y="10.33cm" style="fill:#000000;  font-size:9pt; font-family:sans-serif;">m. avant 1911-07-06</text>
<text x="11.17cm" y="11.45cm" style="fill:#000000;  font-size:9pt; font-family:sans-serif;">Яковлев, George</text>
<text x="11.17cm" y="11.84cm" style="fill:#000000;  font-size:9pt; font-family:sans-serif;">b. </text>
<text x="11.17cm" y="12.22cm" style="fill:#000000;  font-size:9pt; font-family:sans-serif;">d. </text>
<text x="10.67cm" y="16.47cm" style="fill:#000000;  font-weight:bold; font-size:9pt; font-family:sans-serif;">Garner, Walter E.</text>
<text x="10.67cm" y="16.85cm" style="fill:#000000;  font-weight:bold; font-size:9pt; font-family:sans-serif;">b. 1882-02-17</text>
<text x="10.67cm" y="17.23cm" style="fill:#000000;  font-weight:bold; font-size:9pt; font-family:sans-serif;">d. 1946-10-23</text>
<text x="11.17cm" y="18.35cm" style="fill:#000000;  font-size:9pt; font-family:sans-serif;">m. </text>
<text x="11.17cm" y="19.48cm" style="fill:#000000;  font-size:9pt; font-family:sans-serif;">García, Maude</text>
<text x="11.17cm" y="19.86cm" style="fill:#000000;  font-size:9pt; font-family:sans-serif;">b. </text>
<text x="11.17cm" y="20.24cm" style="fill:#000000;  font-size:9pt; font-family:sans-serif;">d. </text>
<text x="10.67cm" y="21.65cm" style="fill:#000000;  font-weight:bold; font-size:9pt; font-family:sans-serif;">Garner, Daniel Webster</text>
<text x="10.67cm" y="22.03cm" style="fill:#000000;  font-weight:bold; font-size:9pt; font-family:sans-serif;">b. 1883-09-30</text>
<text x="10.67cm" y="22.42cm" style="fill:#000000;  font-weight:bold; font-size:9pt; font-family:sans-serif;">d. 1936-03-02</text>
<text x="11.17cm" y="23.53cm" style="fill:#000000;  font-size:9pt; font-family:sans-serif;">m. 1907-06-02</text>
<text x="11.17cm" y="24.61cm" style="fill:#000000;  font-size:9pt; font-family:sans-serif;">Jackson, Cora Ellen</text>
<text x="11.17cm" y="25.00cm" style="fill:#000000;  font-size:9pt; font-family:sans-serif;">b. </text>
</svg>
