<?xml version="1.0" encoding="UTF-8" standalone="no"?>
<!DOCTYPE svg PUBLIC "-//W3C//DTD SVG 1.0//EN" "http://www.w3.org/TR/2001/REC-SVG-20010904/DTD/svg10.dtd">
<svg width="21.59cm" height="27.94cm" xmlns="http://www.w3.org/2000/svg">
<rect width="21.59cm" height="27.94cm" style="fill: none;"/>
<rect x="2.77cm" y="3.75cm" width="6.42cm" height="1.11cm" style="fill:#808080; stroke:#808080; stroke-width:1;"/>
<rect x="2.58cm" y="3.56cm" width="6.42cm" height="1.11cm" style="fill:#ffffff; stroke:#000000; stroke-width:0.500000;"/>
<line x1="2.54cm" y1="4.12cm" x2="2.58cm" y2="4.12cm" style="stroke:#000000; stroke-width:0.50pt;"/>
<rect x="2.77cm" y="6.28cm" width="6.42cm" height="1.11cm" style="fill:#808080; stroke:#808080; stroke-width:1;"/>
<rect x="2.58cm" y="6.09cm" width="6.42cm" height="1.11cm" style="fill:#ffffff; stroke:#000000; stroke-width:0.500000;"/>
<line x1="2.54cm" y1="6.65cm" x2="2.58cm" y2="6.65cm" style="stroke:#000000; stroke-width:0.50pt;"/>
<rect x="2.77cm" y="10.51cm" width="6.42cm" height="1.11cm" style="fill:#808080; stroke:#808080; stroke-width:1;"/>
<rect x="2.58cm" y="10.32cm" width="6.42cm" height="1.11cm" style="fill:#ffffff; stroke:#000000; stroke-width:0.500000;"/>
<line x1="2.54cm" y1="10.88cm" x2="2.58cm" y2="10.88cm" style="stroke:#000000; stroke-width:0.50pt;"/>
<rect x="2.77cm" y="12.21cm" width="6.42cm" height="1.11cm" style="fill:#808080; stroke:#808080; stroke-width:1;"/>
<rect x="2.58cm" y="12.02cm" width="6.42cm" height="1.11cm" style="fill:#ffffff; stroke:#000000; stroke-width:0.500000;"/>
<line x1="2.54cm" y1="12.58cm" x2="2.58cm" y2="12.58cm" style="stroke:#000000; stroke-width:0.50pt;"/>
<rect x="3.07cm" y="13.52cm" width="5.93cm" height="0.63cm" style="fill:#ffffff; stroke:#000000; stroke-width:0.500000;"/>
<rect x="3.26cm" y="14.74cm" width="5.93cm" height="1.11cm" style="fill:#808080; stroke:#808080; stroke-width:1;"/>
<rect x="3.07cm" y="14.55cm" width="5.93cm" height="1.11cm" style="fill:#ffffff; stroke:#000000; stroke-width:0.500000;"/>
<rect x="2.77cm" y="16.44cm" width="6.42cm" height="1.11cm" style="fill:#808080; stroke:#808080; stroke-width:1;"/>
<rect x="2.58cm" y="16.25cm" width="6.42cm" height="1.11cm" style="fill:#ffffff; stroke:#000000; stroke-width:0.500000;"/>
<line x1="2.54cm" y1="16.81cm" x2="2.58cm" y2="16.81cm" style="stroke:#000000; stroke-width:0.50pt;"/>
<rect x="2.77cm" y="18.14cm" width="6.42cm" height="1.11cm" style="fill:#808080; stroke:#808080; stroke-width:1;"/>
<rect x="2.58cm" y="17.95cm" width="6.42cm" height="1.11cm" style="fill:#ffffff; stroke:#000000; stroke-width:0.500000;"/>
<line x1="2.54cm" y1="18.51cm" x2="2.58cm" y2="18.51cm" style="stroke:#000000; stroke-width:0.50pt;"/>
<rect x="2.77cm" y="20.24cm" width="6.42cm" height="1.11cm" style="fill:#808080; stroke:#808080; stroke-width:1;"/>
<rect x="2.58cm" y="20.05cm" width="6.42cm" height="1.11cm" style="fill:#ffffff; stroke:#000000; stroke-width:0.500000;"/>
<line x1="2.54cm" y1="20.60cm" x2="2.58cm" y2="20.60cm" style="stroke:#000000; stroke-width:0.50pt;"/>
<rect x="2.77cm" y="21.93cm" width="6.42cm" height="1.11cm" style="fill:#808080; stroke:#808080; stroke-width:1;"/>
<rect x="2.58cm" y="21.74cm" width="6.42cm" height="1.11cm" style="fill:#ffffff; stroke:#000000; stroke-width:0.500000;"/>
<line x1="2.54cm" y1="22.30cm" x2="2.58cm" y2="22.30cm" style="stroke:#000000; stroke-width:0.50pt;"/>
<text x="2.93cm" y="4.00cm" style="fill:#000000;  font-weight:bold; font-size:9pt; font-family:sans-serif;">Garner, Megan Ann</text>
<text x="2.93cm" y="4.38cm" style="fill:#000000;  font-weight:bold; font-size:9pt; font-family:sans-serif;">b. 1978-07-17</text>
<text x="2.93cm" y="6.53cm" style="fill:#000000;  font-weight:bold; font-size:9pt; font-family:sans-serif;">Díez, William George Jr.</text>
<text x="2.93cm" y="6.91cm" style="fill:#000000;  font-weight:bold; font-size:9pt; font-family:sans-serif;">b. 1972-10-10</text>
<text x="2.93cm" y="10.76cm" style="fill:#000000;  font-weight:bold; font-size:9pt; font-family:sans-serif;">Сергеев, Jon Dennis</text>
<text x="2.93cm" y="11.14cm" style="fill:#000000;  font-weight:bold; font-size:9pt; font-family:sans-serif;">b. 1978-02-10</text>
<text x="2.93cm" y="12.46cm" style="fill:#000000;  font-weight:bold; font-size:9pt; font-family:sans-serif;">Сергеев, Adria Maria</text>
<text x="2.93cm" y="12.84cm" style="fill:#000000;  font-weight:bold; font-size:9pt; font-family:sans-serif;">b. 1971-06-01</text>
<text x="3.42cm" y="13.91cm" style="fill:#000000;  font-size:9pt; font-family:sans-serif;">m. 1993-06-00</text>
<text x="3.42cm" y="14.99cm" style="fill:#000000;  font-size:9pt; font-family:sans-serif;">Demers, ??</text>
<text x="3.42cm" y="15.38cm" style="fill:#000000;  font-size:9pt; font-family:sans-serif;">b. </text>
<text x="2.93cm" y="16.69cm" style="fill:#000000;  font-weight:bold; font-size:9pt; font-family:sans-serif;">Сергеев, Jacqueline Denise</text>
<text x="2.93cm" y="17.07cm" style="fill:#000000;  font-weight:bold; font-size:9pt; font-family:sans-serif;">b. 1981-01-18</text>
<text x="2.93cm" y="18.39cm" style="fill:#000000;  font-weight:bold; font-size:9pt; font-family:sans-serif;">Сергеев, Joshua David</text>
<text x="2.93cm" y="18.77cm" style="fill:#000000;  font-weight:bold; font-size:9pt; font-family:sans-serif;">b. 1984-04-07</text>
<text x="2.93cm" y="20.49cm" style="fill:#000000;  font-weight:bold; font-size:9pt; font-family:sans-serif;">Garner, Allison Renee</text>
<text x="2.93cm" y="20.87cm" style="fill:#000000;  font-weight:bold; font-size:9pt; font-family:sans-serif;">b. 1984-03-20</text>
<text x="2.93cm" y="22.19cm" style="fill:#000000;  font-weight:bold; font-size:9pt; font-family:sans-serif;">Garner, Amy Elizabeth</text>
<text x="2.93cm" y="22.57cm" style="fill:#000000;  font-weight:bold; font-size:9pt; font-family:sans-serif;">b. 1989-04-11</text>
</svg>
