<?xml version="1.0" encoding="UTF-8" standalone="no"?>
<!DOCTYPE svg PUBLIC "-//W3C//DTD SVG 1.0//EN" "http://www.w3.org/TR/2001/REC-SVG-20010904/DTD/svg10.dtd">
<svg width="21.59cm" height="27.94cm" xmlns="http://www.w3.org/2000/svg">
<rect width="21.59cm" height="27.94cm" style="fill: none;"/>
<rect x="2.77cm" y="2.77cm" width="6.42cm" height="1.11cm" style="fill:#808080; stroke:#808080; stroke-width:1;"/>
<rect x="2.58cm" y="2.58cm" width="6.42cm" height="1.11cm" style="fill:#ffffff; stroke:#000000; stroke-width:0.500000;"/>
<line x1="2.54cm" y1="3.13cm" x2="2.58cm" y2="3.13cm" style="stroke:#000000; stroke-width:0.50pt;"/>
<rect x="2.77cm" y="4.46cm" width="6.42cm" height="1.11cm" style="fill:#808080; stroke:#808080; stroke-width:1;"/>
<rect x="2.58cm" y="4.27cm" width="6.42cm" height="1.11cm" style="fill:#ffffff; stroke:#000000; stroke-width:0.500000;"/>
<line x1="2.54cm" y1="4.83cm" x2="2.58cm" y2="4.83cm" style="stroke:#000000; stroke-width:0.50pt;"/>
<rect x="2.77cm" y="6.16cm" width="6.42cm" height="1.11cm" style="fill:#808080; stroke:#808080; stroke-width:1;"/>
<rect x="2.58cm" y="5.97cm" width="6.42cm" height="1.11cm" style="fill:#ffffff; stroke:#000000; stroke-width:0.500000;"/>
<line x1="2.54cm" y1="6.53cm" x2="2.58cm" y2="6.53cm" style="stroke:#000000; stroke-width:0.50pt;"/>
<rect x="2.77cm" y="7.86cm" width="6.42cm" height="1.11cm" style="fill:#808080; stroke:#808080; stroke-width:1;"/>
<rect x="2.58cm" y="7.67cm" width="6.42cm" height="1.11cm" style="fill:#ffffff; stroke:#000000; stroke-width:0.500000;"/>
<line x1="2.54cm" y1="8.23cm" x2="2.58cm" y2="8.23cm" style="stroke:#000000; stroke-width:0.50pt;"/>
<rect x="2.77cm" y="9.56cm" width="6.42cm" height="1.11cm" style="fill:#808080; stroke:#808080; stroke-width:1;"/>
<rect x="2.58cm" y="9.37cm" width="6.42cm" height="1.11cm" style="fill:#ffffff; stroke:#000000; stroke-width:0.500000;"/>
<line x1="2.54cm" y1="9.93cm" x2="2.58cm" y2="9.93cm" style="stroke:#000000; stroke-width:0.50pt;"/>
<rect x="2.77cm" y="11.66cm" width="6.42cm" height="1.11cm" style="fill:#808080; stroke:#808080; stroke-width:1;"/>
<rect x="2.58cm" y="11.47cm" width="6.42cm" height="1.11cm" style="fill:#ffffff; stroke:#000000; stroke-width:0.500000;"/>
<line x1="2.54cm" y1="12.02cm" x2="2.58cm" y2="12.02cm" style="stroke:#000000; stroke-width:0.50pt;"/>
<rect x="2.77cm" y="15.89cm" width="6.42cm" height="1.11cm" style="fill:#808080; stroke:#808080; stroke-width:1;"/>
<rect x="2.58cm" y="15.70cm" width="6.42cm" height="1.11cm" style="fill:#ffffff; stroke:#000000; stroke-width:0.500000;"/>
<line x1="2.54cm" y1="16.25cm" x2="2.58cm" y2="16.25cm" style="stroke:#000000; stroke-width:0.50pt;"/>
<rect x="2.77cm" y="17.59cm" width="6.42cm" height="1.11cm" style="fill:#808080; stroke:#808080; stroke-width:1;"/>
<rect x="2.58cm" y="17.39cm" width="6.42cm" height="1.11cm" style="fill:#ffffff; stroke:#000000; stroke-width:0.500000;"/>
<line x1="2.54cm" y1="17.95cm" x2="2.58cm" y2="17.95cm" style="stroke:#000000; stroke-width:0.50pt;"/>
<rect x="2.77cm" y="19.28cm" width="6.42cm" height="1.11cm" style="fill:#808080; stroke:#808080; stroke-width:1;"/>
<rect x="2.58cm" y="19.09cm" width="6.42cm" height="1.11cm" style="fill:#ffffff; stroke:#000000; stroke-width:0.500000;"/>
<line x1="2.54cm" y1="19.65cm" x2="2.58cm" y2="19.65cm" style="stroke:#000000; stroke-width:0.50pt;"/>
<rect x="2.77cm" y="20.98cm" width="6.42cm" height="1.11cm" style="fill:#808080; stroke:#808080; stroke-width:1;"/>
<rect x="2.58cm" y="20.79cm" width="6.42cm" height="1.11cm" style="fill:#ffffff; stroke:#000000; stroke-width:0.500000;"/>
<line x1="2.54cm" y1="21.35cm" x2="2.58cm" y2="21.35cm" style="stroke:#000000; stroke-width:0.50pt;"/>
<rect x="2.77cm" y="23.08cm" width="6.42cm" height="1.11cm" style="fill:#808080; stroke:#808080; stroke-width:1;"/>
<rect x="2.58cm" y="22.89cm" width="6.42cm" height="1.11cm" style="fill:#ffffff; stroke:#000000; stroke-width:0.500000;"/>
<line x1="2.54cm" y1="23.44cm" x2="2.58cm" y2="23.44cm" style="stroke:#000000; stroke-width:0.50pt;"/>
<text x="2.93cm" y="3.02cm" style="fill:#000000;  font-weight:bold; font-size:9pt; font-family:sans-serif;">Warner, Sarah Suzanne</text>
<text x="2.93cm" y="3.40cm" style="fill:#000000;  font-weight:bold; font-size:9pt; font-family:sans-serif;">b. 1987-08-29</text>
<text x="2.93cm" y="4.72cm" style="fill:#000000;  font-weight:bold; font-size:9pt; font-family:sans-serif;">Warner, James Jeffrey</text>
<text x="2.93cm" y="5.10cm" style="fill:#000000;  font-weight:bold; font-size:9pt; font-family:sans-serif;">b. 1984-05-03</text>
<text x="2.93cm" y="6.41cm" style="fill:#000000;  font-weight:bold; font-size:9pt; font-family:sans-serif;">Warner, Carl Thomas</text>
<text x="2.93cm" y="6.79cm" style="fill:#000000;  font-weight:bold; font-size:9pt; font-family:sans-serif;">b. 1981-05-11</text>
<text x="2.93cm" y="8.11cm" style="fill:#000000;  font-weight:bold; font-size:9pt; font-family:sans-serif;">Warner, John Allen</text>
<text x="2.93cm" y="8.49cm" style="fill:#000000;  font-weight:bold; font-size:9pt; font-family:sans-serif;">b. 1979-05-04</text>
<text x="2.93cm" y="9.81cm" style="fill:#000000;  font-weight:bold; font-size:9pt; font-family:sans-serif;">Warner, Matthew Steven</text>
<text x="2.93cm" y="10.19cm" style="fill:#000000;  font-weight:bold; font-size:9pt; font-family:sans-serif;">b. 1977-06-23</text>
<text x="2.93cm" y="11.91cm" style="fill:#000000;  font-weight:bold; font-size:9pt; font-family:sans-serif;">Garner, Andrew Joseph</text>
<text x="2.93cm" y="12.29cm" style="fill:#000000;  font-weight:bold; font-size:9pt; font-family:sans-serif;">b. 1999-04-11</text>
<text x="2.93cm" y="16.14cm" style="fill:#000000;  font-weight:bold; font-size:9pt; font-family:sans-serif;">Hale, Joseph Brendan</text>
<text x="2.93cm" y="16.52cm" style="fill:#000000;  font-weight:bold; font-size:9pt; font-family:sans-serif;">b. 1975-07-17</text>
<text x="2.93cm" y="17.84cm" style="fill:#000000;  font-weight:bold; font-size:9pt; font-family:sans-serif;">Hale, Michael Patrick</text>
<text x="2.93cm" y="18.22cm" style="fill:#000000;  font-weight:bold; font-size:9pt; font-family:sans-serif;">b. 1977-07-27</text>
<text x="2.93cm" y="19.53cm" style="fill:#000000;  font-weight:bold; font-size:9pt; font-family:sans-serif;">Hale, Gina Marie</text>
<text x="2.93cm" y="19.92cm" style="fill:#000000;  font-weight:bold; font-size:9pt; font-family:sans-serif;">b. 1982-10-03</text>
<text x="2.93cm" y="21.23cm" style="fill:#000000;  font-weight:bold; font-size:9pt; font-family:sans-serif;">Hale, Jeffrey Brian</text>
<text x="2.93cm" y="21.61cm" style="fill:#000000;  font-weight:bold; font-size:9pt; font-family:sans-serif;">b. 1988-12-23</text>
<text x="2.93cm" y="23.33cm" style="fill:#000000;  font-weight:bold; font-size:9pt; font-family:sans-serif;">Garner, Stephen Gerard</text>
<text x="2.93cm" y="23.71cm" style="fill:#000000;  font-weight:bold; font-size:9pt; font-family:sans-serif;">b. 1983-10-05</text>
</svg>
