<?xml version="1.0" encoding="UTF-8" standalone="no"?>
<!DOCTYPE svg PUBLIC "-//W3C//DTD SVG 1.0//EN" "http://www.w3.org/TR/2001/REC-SVG-20010904/DTD/svg10.dtd">
<svg width="21.59cm" height="27.94cm" xmlns="http://www.w3.org/2000/svg">
<rect width="21.59cm" height="27.94cm" style="fill: none;"/>
<rect x="11.01cm" y="3.60cm" width="5.93cm" height="1.11cm" style="fill:#808080; stroke:#808080; stroke-width:1;"/>
<rect x="10.82cm" y="3.41cm" width="5.93cm" height="1.11cm" style="fill:#ffffff; stroke:#000000; stroke-width:0.500000;"/>
<rect x="10.51cm" y="5.30cm" width="6.42cm" height="1.11cm" style="fill:#808080; stroke:#808080; stroke-width:1;"/>
<rect x="10.32cm" y="5.11cm" width="6.42cm" height="1.11cm" style="fill:#ffffff; stroke:#000000; stroke-width:0.500000;"/>
<rect x="10.51cm" y="7.00cm" width="6.42cm" height="1.11cm" style="fill:#808080; stroke:#808080; stroke-width:1;"/>
<rect x="10.32cm" y="6.81cm" width="6.42cm" height="1.11cm" style="fill:#ffffff; stroke:#000000; stroke-width:0.500000;"/>
<rect x="10.82cm" y="8.31cm" width="5.93cm" height="0.63cm" style="fill:#ffffff; stroke:#000000; stroke-width:0.500000;"/>
<line x1="16.74cm" y1="8.62cm" x2="17.74cm" y2="8.62cm" style="stroke:#000000; stroke-width:0.50pt;"/>
<line x1="17.74cm" y1="7.36cm" x2="17.74cm" y2="8.62cm" style="stroke:#000000; stroke-width:0.50pt;"/>
<line x1="17.74cm" y1="7.36cm" x2="18.07cm" y2="7.36cm" style="stroke:#000000; stroke-width:0.50pt;"/>
<rect x="11.01cm" y="9.53cm" width="5.93cm" height="1.11cm" style="fill:#808080; stroke:#808080; stroke-width:1;"/>
<rect x="10.82cm" y="9.34cm" width="5.93cm" height="1.11cm" style="fill:#ffffff; stroke:#000000; stroke-width:0.500000;"/>
<rect x="2.77cm" y="11.62cm" width="6.42cm" height="1.11cm" style="fill:#808080; stroke:#808080; stroke-width:1;"/>
<rect x="2.58cm" y="11.43cm" width="6.42cm" height="1.11cm" style="fill:#ffffff; stroke:#000000; stroke-width:0.500000;"/>
<line x1="2.54cm" y1="11.99cm" x2="2.58cm" y2="11.99cm" style="stroke:#000000; stroke-width:0.50pt;"/>
<rect x="10.51cm" y="11.62cm" width="6.42cm" height="1.11cm" style="fill:#808080; stroke:#808080; stroke-width:1;"/>
<rect x="10.32cm" y="11.43cm" width="6.42cm" height="1.11cm" style="fill:#ffffff; stroke:#000000; stroke-width:0.500000;"/>
<rect x="3.07cm" y="12.93cm" width="5.93cm" height="0.63cm" style="fill:#ffffff; stroke:#000000; stroke-width:0.500000;"/>
<line x1="9.00cm" y1="13.25cm" x2="9.99cm" y2="13.25cm" style="stroke:#000000; stroke-width:0.50pt;"/>
<line x1="9.99cm" y1="11.99cm" x2="9.99cm" y2="25.40cm" style="stroke:#000000; stroke-width:0.50pt;"/>
<line x1="9.99cm" y1="11.99cm" x2="10.32cm" y2="11.99cm" style="stroke:#000000; stroke-width:0.50pt;"/>
<line x1="9.99cm" y1="16.62cm" x2="10.32cm" y2="16.62cm" style="stroke:#000000; stroke-width:0.50pt;"/>
<line x1="9.99cm" y1="24.64cm" x2="10.32cm" y2="24.64cm" style="stroke:#000000; stroke-width:0.50pt;"/>
<rect x="10.82cm" y="12.93cm" width="5.93cm" height="0.63cm" style="fill:#ffffff; stroke:#000000; stroke-width:0.500000;"/>
<line x1="16.74cm" y1="13.25cm" x2="17.74cm" y2="13.25cm" style="stroke:#000000; stroke-width:0.50pt;"/>
<line x1="17.74cm" y1="11.99cm" x2="17.74cm" y2="13.25cm" style="stroke:#000000; stroke-width:0.50pt;"/>
<line x1="17.74cm" y1="11.99cm" x2="18.07cm" y2="11.99cm" style="stroke:#000000; stroke-width:0.50pt;"/>
<rect x="3.26cm" y="14.16cm" width="5.93cm" height="1.59cm" style="fill:#808080; stroke:#808080; stroke-width:1;"/>
<rect x="3.07cm" y="13.97cm" width="5.93cm" height="1.59cm" style="fill:#ffffff; stroke:#000000; stroke-width:0.500000;"/>
<rect x="11.01cm" y="14.16cm" width="5.93cm" height="1.11cm" style="fill:#808080; stroke:#808080; stroke-width:1;"/>
<rect x="10.82cm" y="13.97cm" width="5.93cm" height="1.11cm" style="fill:#ffffff; stroke:#000000; stroke-width:0.500000;"/>
<rect x="3.07cm" y="15.94cm" width="5.93cm" height="0.63cm" style="fill:#ffffff; stroke:#000000; stroke-width:0.500000;"/>
<rect x="10.51cm" y="16.25cm" width="6.42cm" height="1.11cm" style="fill:#808080; stroke:#808080; stroke-width:1;"/>
<rect x="10.32cm" y="16.06cm" width="6.42cm" height="1.11cm" style="fill:#ffffff; stroke:#000000; stroke-width:0.500000;"/>
<rect x="3.26cm" y="17.16cm" width="5.93cm" height="1.11cm" style="fill:#808080; stroke:#808080; stroke-width:1;"/>
<rect x="3.07cm" y="16.97cm" width="5.93cm" height="1.11cm" style="fill:#ffffff; stroke:#000000; stroke-width:0.500000;"/>
<rect x="10.82cm" y="17.56cm" width="5.93cm" height="0.63cm" style="fill:#ffffff; stroke:#000000; stroke-width:0.500000;"/>
<line x1="16.74cm" y1="17.88cm" x2="17.74cm" y2="17.88cm" style="stroke:#000000; stroke-width:0.50pt;"/>
<line x1="17.74cm" y1="16.62cm" x2="17.74cm" y2="20.01cm" style="stroke:#000000; stroke-width:0.50pt;"/>
<line x1="17.74cm" y1="16.62cm" x2="18.07cm" y2="16.62cm" style="stroke:#000000; stroke-width:0.50pt;"/>
<line x1="17.74cm" y1="18.32cm" x2="18.07cm" y2="18.32cm" style="stroke:#000000; stroke-width:0.50pt;"/>
<line x1="17.74cm" y1="20.01cm" x2="18.07cm" y2="20.01cm" style="stroke:#000000; stroke-width:0.50pt;"/>
<rect x="11.01cm" y="18.78cm" width="5.93cm" height="1.11cm" style="fill:#808080; stroke:#808080; stroke-width:1;"/>
<rect x="10.82cm" y="18.59cm" width="5.93cm" height="1.11cm" style="fill:#ffffff; stroke:#000000; stroke-width:0.500000;"/>
<rect x="2.77cm" y="18.86cm" width="6.42cm" height="1.11cm" style="fill:#808080; stroke:#808080; stroke-width:1;"/>
<rect x="2.58cm" y="18.67cm" width="6.42cm" height="1.11cm" style="fill:#ffffff; stroke:#000000; stroke-width:0.500000;"/>
<line x1="2.54cm" y1="19.23cm" x2="2.58cm" y2="19.23cm" style="stroke:#000000; stroke-width:0.50pt;"/>
<rect x="3.07cm" y="20.17cm" width="5.93cm" height="0.63cm" style="fill:#ffffff; stroke:#000000; stroke-width:0.500000;"/>
<rect x="3.26cm" y="21.40cm" width="5.93cm" height="1.11cm" style="fill:#808080; stroke:#808080; stroke-width:1;"/>
<rect x="3.07cm" y="21.20cm" width="5.93cm" height="1.11cm" style="fill:#ffffff; stroke:#000000; stroke-width:0.500000;"/>
<rect x="2.77cm" y="23.49cm" width="6.42cm" height="1.11cm" style="fill:#808080; stroke:#808080; stroke-width:1;"/>
<rect x="2.58cm" y="23.30cm" width="6.42cm" height="1.11cm" style="fill:#ffffff; stroke:#000000; stroke-width:0.500000;"/>
<line x1="2.54cm" y1="23.86cm" x2="2.58cm" y2="23.86cm" style="stroke:#000000; stroke-width:0.50pt;"/>
<rect x="10.51cm" y="24.28cm" width="6.42cm" height="1.11cm" style="fill:#808080; stroke:#808080; stroke-width:1;"/>
<rect x="10.32cm" y="24.09cm" width="6.42cm" height="1.11cm" style="fill:#ffffff; stroke:#000000; stroke-width:0.500000;"/>
<line x1="9.99cm" y1="2.54cm" x2="9.99cm" y2="7.36cm" style="stroke:#000000; stroke-width:0.50pt;"/>
<line x1="9.99cm" y1="5.66cm" x2="10.32cm" y2="5.66cm" style="stroke:#000000; stroke-width:0.50pt;"/>
<line x1="9.99cm" y1="7.36cm" x2="10.32cm" y2="7.36cm" style="stroke:#000000; stroke-width:0.50pt;"/>
<line x1="17.74cm" y1="2.54cm" x2="17.74cm" y2="3.13cm" style="stroke:#000000; stroke-width:0.50pt;"/>
<line x1="17.74cm" y1="3.13cm" x2="18.07cm" y2="3.13cm" style="stroke:#000000; stroke-width:0.50pt;"/>
<line x1="17.74cm" y1="24.64cm" x2="17.74cm" y2="25.40cm" style="stroke:#000000; stroke-width:0.50pt;"/>
<line x1="17.74cm" y1="24.64cm" x2="18.07cm" y2="24.64cm" style="stroke:#000000; stroke-width:0.50pt;"/>
<text x="11.17cm" y="3.85cm" style="fill:#000000;  font-size:9pt; font-family:sans-serif;">George, Elizabeth</text>
<text x="11.17cm" y="4.23cm" style="fill:#000000;  font-size:9pt; font-family:sans-serif;">b. 1957-01-31</text>
<text x="10.67cm" y="5.55cm" style="fill:#000000;  font-weight:bold; font-size:9pt; font-family:sans-serif;">Garner, David Walter</text>
<text x="10.67cm" y="5.93cm" style="fill:#000000;  font-weight:bold; font-size:9pt; font-family:sans-serif;">b. 1956-12-21</text>
<text x="10.67cm" y="7.25cm" style="fill:#000000;  font-weight:bold; font-size:9pt; font-family:sans-serif;">Garner, Thomas James</text>
<text x="10.67cm" y="7.63cm" style="fill:#000000;  font-weight:bold; font-size:9pt; font-family:sans-serif;">b. 1965-12-10</text>
<text x="11.17cm" y="8.70cm" style="fill:#000000;  font-size:9pt; font-family:sans-serif;">m. 1997-07-07</text>
<text x="11.17cm" y="9.78cm" style="fill:#000000;  font-size:9pt; font-family:sans-serif;">Сорокин, Holly Ruth</text>
<text x="11.17cm" y="10.16cm" style="fill:#000000;  font-size:9pt; font-family:sans-serif;">b. </text>
<text x="2.93cm" y="11.87cm" style="fill:#000000;  font-weight:bold; font-size:9pt; font-family:sans-serif;">Garner, Eugene Stanley, Jr.</text>
<text x="2.93cm" y="12.26cm" style="fill:#000000;  font-weight:bold; font-size:9pt; font-family:sans-serif;">b. </text>
<text x="10.67cm" y="11.87cm" style="fill:#000000;  font-weight:bold; font-size:9pt; font-family:sans-serif;">Garner, Francis William</text>
<text x="10.67cm" y="12.26cm" style="fill:#000000;  font-weight:bold; font-size:9pt; font-family:sans-serif;">b. 1945-01-03</text>
<text x="3.42cm" y="13.33cm" style="fill:#000000;  font-size:9pt; font-family:sans-serif;">m. </text>
<text x="11.17cm" y="13.33cm" style="fill:#000000;  font-size:9pt; font-family:sans-serif;">m. 1991-06-22</text>
<text x="3.42cm" y="14.45cm" style="fill:#000000;  font-size:9pt; font-family:sans-serif;">Pelletier, Josephine</text>
<text x="3.42cm" y="14.84cm" style="fill:#000000;  font-size:9pt; font-family:sans-serif;">b. 1922-09-07</text>
<text x="3.42cm" y="15.22cm" style="fill:#000000;  font-size:9pt; font-family:sans-serif;">d. 1998-09-15</text>
<text x="11.17cm" y="14.41cm" style="fill:#000000;  font-size:9pt; font-family:sans-serif;">Gibbs, Connie</text>
<text x="11.17cm" y="14.79cm" style="fill:#000000;  font-size:9pt; font-family:sans-serif;">b. 1943-02-08</text>
<text x="3.42cm" y="16.34cm" style="fill:#000000;  font-size:9pt; font-family:sans-serif;">m. </text>
<text x="10.67cm" y="16.50cm" style="fill:#000000;  font-weight:bold; font-size:9pt; font-family:sans-serif;">Garner, Richard Eugene</text>
<text x="10.67cm" y="16.88cm" style="fill:#000000;  font-weight:bold; font-size:9pt; font-family:sans-serif;">b. 1947-02-28</text>
<text x="3.42cm" y="17.42cm" style="fill:#000000;  font-size:9pt; font-family:sans-serif;">Washington, Pearline</text>
<text x="3.42cm" y="17.80cm" style="fill:#000000;  font-size:9pt; font-family:sans-serif;">b. </text>
<text x="11.17cm" y="17.95cm" style="fill:#000000;  font-size:9pt; font-family:sans-serif;">m. 1971-10-23</text>
<text x="11.17cm" y="19.03cm" style="fill:#000000;  font-size:9pt; font-family:sans-serif;">Gibbs, Elaine</text>
<text x="11.17cm" y="19.42cm" style="fill:#000000;  font-size:9pt; font-family:sans-serif;">b. </text>
<text x="2.93cm" y="19.11cm" style="fill:#000000;  font-weight:bold; font-size:9pt; font-family:sans-serif;">Garner, John Roger</text>
<text x="2.93cm" y="19.49cm" style="fill:#000000;  font-weight:bold; font-size:9pt; font-family:sans-serif;">b. 1925-10-29</text>
<text x="3.42cm" y="20.57cm" style="fill:#000000;  font-size:9pt; font-family:sans-serif;">m. 1961-10-07</text>
<text x="3.42cm" y="21.65cm" style="fill:#000000;  font-size:9pt; font-family:sans-serif;">Брюханов, Violet Louise</text>
<text x="3.42cm" y="22.03cm" style="fill:#000000;  font-size:9pt; font-family:sans-serif;">b. 1915-09-28</text>
<text x="2.93cm" y="23.74cm" style="fill:#000000;  font-weight:bold; font-size:9pt; font-family:sans-serif;">Garner, Marie</text>
<text x="2.93cm" y="24.12cm" style="fill:#000000;  font-weight:bold; font-size:9pt; font-family:sans-serif;">b. </text>
<text x="10.67cm" y="24.53cm" style="fill:#000000;  font-weight:bold; font-size:9pt; font-family:sans-serif;">Garner, Michael Stanley</text>
<text x="10.67cm" y="24.91cm" style="fill:#000000;  font-weight:bold; font-size:9pt; font-family:sans-serif;">b. 1948-06-12</text>
</svg>
