<?xml version="1.0" encoding="UTF-8" standalone="no"?>
<!DOCTYPE svg PUBLIC "-//W3C//DTD SVG 1.0//EN" "http://www.w3.org/TR/2001/REC-SVG-20010904/DTD/svg10.dtd">
<svg width="21.59cm" height="27.94cm" xmlns="http://www.w3.org/2000/svg">
<rect width="21.59cm" height="27.94cm" style="fill: none;"/>
<rect x="2.77cm" y="2.77cm" width="6.42cm" height="1.11cm" style="fill:#808080; stroke:#808080; stroke-width:1;"/>
<rect x="2.58cm" y="2.58cm" width="6.42cm" height="1.11cm" style="fill:#ffffff; stroke:#000000; stroke-width:0.500000;"/>
<line x1="2.54cm" y1="3.13cm" x2="2.58cm" y2="3.13cm" style="stroke:#000000; stroke-width:0.50pt;"/>
<rect x="2.77cm" y="7.00cm" width="6.42cm" height="1.11cm" style="fill:#808080; stroke:#808080; stroke-width:1;"/>
<rect x="2.58cm" y="6.81cm" width="6.42cm" height="1.11cm" style="fill:#ffffff; stroke:#000000; stroke-width:0.500000;"/>
<line x1="2.54cm" y1="7.36cm" x2="2.58cm" y2="7.36cm" style="stroke:#000000; stroke-width:0.50pt;"/>
<rect x="2.77cm" y="11.62cm" width="6.42cm" height="1.11cm" style="fill:#808080; stroke:#808080; stroke-width:1;"/>
<rect x="2.58cm" y="11.43cm" width="6.42cm" height="1.11cm" style="fill:#ffffff; stroke:#000000; stroke-width:0.500000;"/>
<line x1="2.54cm" y1="11.99cm" x2="2.58cm" y2="11.99cm" style="stroke:#000000; stroke-width:0.50pt;"/>
<rect x="10.51cm" y="11.62cm" width="6.42cm" height="1.11cm" style="fill:#808080; stroke:#808080; stroke-width:1;"/>
<rect x="10.32cm" y="11.43cm" width="6.42cm" height="1.11cm" style="fill:#ffffff; stroke:#000000; stroke-width:0.500000;"/>
<rect x="3.07cm" y="12.93cm" width="5.93cm" height="0.63cm" style="fill:#ffffff; stroke:#000000; stroke-width:0.500000;"/>
<line x1="9.00cm" y1="13.25cm" x2="9.99cm" y2="13.25cm" style="stroke:#000000; stroke-width:0.50pt;"/>
<line x1="9.99cm" y1="11.99cm" x2="9.99cm" y2="13.25cm" style="stroke:#000000; stroke-width:0.50pt;"/>
<line x1="9.99cm" y1="11.99cm" x2="10.32cm" y2="11.99cm" style="stroke:#000000; stroke-width:0.50pt;"/>
<rect x="3.26cm" y="14.16cm" width="5.93cm" height="1.11cm" style="fill:#808080; stroke:#808080; stroke-width:1;"/>
<rect x="3.07cm" y="13.97cm" width="5.93cm" height="1.11cm" style="fill:#ffffff; stroke:#000000; stroke-width:0.500000;"/>
<rect x="2.77cm" y="16.25cm" width="6.42cm" height="1.11cm" style="fill:#808080; stroke:#808080; stroke-width:1;"/>
<rect x="2.58cm" y="16.06cm" width="6.42cm" height="1.11cm" style="fill:#ffffff; stroke:#000000; stroke-width:0.500000;"/>
<line x1="2.54cm" y1="16.62cm" x2="2.58cm" y2="16.62cm" style="stroke:#000000; stroke-width:0.50pt;"/>
<rect x="2.77cm" y="17.95cm" width="6.42cm" height="1.11cm" style="fill:#808080; stroke:#808080; stroke-width:1;"/>
<rect x="2.58cm" y="17.76cm" width="6.42cm" height="1.11cm" style="fill:#ffffff; stroke:#000000; stroke-width:0.500000;"/>
<line x1="2.54cm" y1="18.32cm" x2="2.58cm" y2="18.32cm" style="stroke:#000000; stroke-width:0.50pt;"/>
<rect x="2.77cm" y="19.65cm" width="6.42cm" height="1.11cm" style="fill:#808080; stroke:#808080; stroke-width:1;"/>
<rect x="2.58cm" y="19.46cm" width="6.42cm" height="1.11cm" style="fill:#ffffff; stroke:#000000; stroke-width:0.500000;"/>
<line x1="2.54cm" y1="20.01cm" x2="2.58cm" y2="20.01cm" style="stroke:#000000; stroke-width:0.50pt;"/>
<rect x="10.51cm" y="19.65cm" width="6.42cm" height="1.11cm" style="fill:#808080; stroke:#808080; stroke-width:1;"/>
<rect x="10.32cm" y="19.46cm" width="6.42cm" height="1.11cm" style="fill:#ffffff; stroke:#000000; stroke-width:0.500000;"/>
<rect x="3.07cm" y="20.96cm" width="5.93cm" height="0.63cm" style="fill:#ffffff; stroke:#000000; stroke-width:0.500000;"/>
<line x1="9.00cm" y1="21.28cm" x2="9.99cm" y2="21.28cm" style="stroke:#000000; stroke-width:0.50pt;"/>
<line x1="9.99cm" y1="20.01cm" x2="9.99cm" y2="21.71cm" style="stroke:#000000; stroke-width:0.50pt;"/>
<line x1="9.99cm" y1="20.01cm" x2="10.32cm" y2="20.01cm" style="stroke:#000000; stroke-width:0.50pt;"/>
<line x1="9.99cm" y1="21.71cm" x2="10.32cm" y2="21.71cm" style="stroke:#000000; stroke-width:0.50pt;"/>
<rect x="10.51cm" y="21.35cm" width="6.42cm" height="1.11cm" style="fill:#808080; stroke:#808080; stroke-width:1;"/>
<rect x="10.32cm" y="21.16cm" width="6.42cm" height="1.11cm" style="fill:#ffffff; stroke:#000000; stroke-width:0.500000;"/>
<rect x="3.26cm" y="22.18cm" width="5.93cm" height="1.11cm" style="fill:#808080; stroke:#808080; stroke-width:1;"/>
<rect x="3.07cm" y="21.99cm" width="5.93cm" height="1.11cm" style="fill:#ffffff; stroke:#000000; stroke-width:0.500000;"/>
<rect x="2.77cm" y="24.28cm" width="6.42cm" height="1.11cm" style="fill:#808080; stroke:#808080; stroke-width:1;"/>
<rect x="2.58cm" y="24.09cm" width="6.42cm" height="1.11cm" style="fill:#ffffff; stroke:#000000; stroke-width:0.500000;"/>
<line x1="2.54cm" y1="24.64cm" x2="2.58cm" y2="24.64cm" style="stroke:#000000; stroke-width:0.50pt;"/>
<text x="2.93cm" y="3.02cm" style="fill:#000000;  font-weight:bold; font-size:9pt; font-family:sans-serif;">Garner, Daniel Patrick</text>
<text x="2.93cm" y="3.40cm" style="fill:#000000;  font-weight:bold; font-size:9pt; font-family:sans-serif;">b. 1985-02-11</text>
<text x="2.93cm" y="7.25cm" style="fill:#000000;  font-weight:bold; font-size:9pt; font-family:sans-serif;">Garner, Alecia "Allie" Clare</text>
<text x="2.93cm" y="7.63cm" style="fill:#000000;  font-weight:bold; font-size:9pt; font-family:sans-serif;">b. 1997-12-26</text>
<text x="2.93cm" y="11.87cm" style="fill:#000000;  font-weight:bold; font-size:9pt; font-family:sans-serif;">Garner, Melissa Sue</text>
<text x="2.93cm" y="12.26cm" style="fill:#000000;  font-weight:bold; font-size:9pt; font-family:sans-serif;">b. 1969-12-03</text>
<text x="10.67cm" y="11.87cm" style="fill:#000000;  font-weight:bold; font-size:9pt; font-family:sans-serif;">Martín, Tyler William</text>
<text x="10.67cm" y="12.26cm" style="fill:#000000;  font-weight:bold; font-size:9pt; font-family:sans-serif;">b. 1993-11-29</text>
<text x="3.42cm" y="13.33cm" style="fill:#000000;  font-size:9pt; font-family:sans-serif;">m. </text>
<text x="3.42cm" y="14.41cm" style="fill:#000000;  font-size:9pt; font-family:sans-serif;">Martín</text>
<text x="3.42cm" y="14.79cm" style="fill:#000000;  font-size:9pt; font-family:sans-serif;">b. </text>
<text x="2.93cm" y="16.50cm" style="fill:#000000;  font-weight:bold; font-size:9pt; font-family:sans-serif;">Garner, Heather Jo</text>
<text x="2.93cm" y="16.88cm" style="fill:#000000;  font-weight:bold; font-size:9pt; font-family:sans-serif;">b. 1972-03-14</text>
<text x="2.93cm" y="18.20cm" style="fill:#000000;  font-weight:bold; font-size:9pt; font-family:sans-serif;">Garner, Regina Lynne</text>
<text x="2.93cm" y="18.58cm" style="fill:#000000;  font-weight:bold; font-size:9pt; font-family:sans-serif;">b. 1973-08-27</text>
<text x="2.93cm" y="19.90cm" style="fill:#000000;  font-weight:bold; font-size:9pt; font-family:sans-serif;">Garner, Jason Richard</text>
<text x="2.93cm" y="20.28cm" style="fill:#000000;  font-weight:bold; font-size:9pt; font-family:sans-serif;">b. 1975-10-20</text>
<text x="10.67cm" y="19.90cm" style="fill:#000000;  font-weight:bold; font-size:9pt; font-family:sans-serif;">Garner, Victoria Laine</text>
<text x="10.67cm" y="20.28cm" style="fill:#000000;  font-weight:bold; font-size:9pt; font-family:sans-serif;">b. </text>
<text x="3.42cm" y="21.35cm" style="fill:#000000;  font-size:9pt; font-family:sans-serif;">m. </text>
<text x="10.67cm" y="21.60cm" style="fill:#000000;  font-weight:bold; font-size:9pt; font-family:sans-serif;">Garner, Vanichia Elaine</text>
<text x="10.67cm" y="21.98cm" style="fill:#000000;  font-weight:bold; font-size:9pt; font-family:sans-serif;">b. 1993-10-01</text>
<text x="3.42cm" y="22.43cm" style="fill:#000000;  font-size:9pt; font-family:sans-serif;">Harper, ??</text>
<text x="3.42cm" y="22.81cm" style="fill:#000000;  font-size:9pt; font-family:sans-serif;">b. </text>
<text x="2.93cm" y="24.53cm" style="fill:#000000;  font-weight:bold; font-size:9pt; font-family:sans-serif;">Garner, Michael Christopher</text>
<text x="2.93cm" y="24.91cm" style="fill:#000000;  font-weight:bold; font-size:9pt; font-family:sans-serif;">b. 1975-06-01</text>
</svg>
