<?xml version="1.0" encoding="UTF-8" standalone="no"?>
<!DOCTYPE svg PUBLIC "-//W3C//DTD SVG 1.0//EN" "http://www.w3.org/TR/2001/REC-SVG-20010904/DTD/svg10.dtd">
<svg width="21.59cm" height="27.94cm" xmlns="http://www.w3.org/2000/svg">
<rect width="21.59cm" height="27.94cm" style="fill: none;"/>
<polygon fill="#ff3f00" style="stroke:#000000;  stroke-width:0.50pt;" points="382.50,900.00 350.00,900.00 350.00,899.71 350.00,899.43 350.01,899.15 350.02,898.86 350.03,898.58 350.04,898.30 350.06,898.01 350.08,897.73 350.10,897.45 350.12,897.17 350.15,896.88 350.18,896.60 350.21,896.32 350.24,896.04 350.28,895.76 350.32,895.48 350.36,895.19 350.40,894.91 350.45,894.63 350.49,894.35 350.54,894.08 350.60,893.80 350.65,893.52 350.71,893.24 350.77,892.96 350.83,892.69 350.90,892.41 350.96,892.14 351.03,891.86 351.11,891.59 351.18,891.31 351.26,891.04 351.34,890.77 351.42,890.50 351.50,890.23 351.59,889.96 351.68,889.69 351.77,889.42 351.86,889.15 351.96,888.88 352.06,888.62 352.16,888.35 352.26,888.09 352.37,887.82 352.47,887.56 352.58,887.30 352.69,887.04 352.81,886.78 352.93,886.52 353.04,886.26 353.17,886.01 353.29,885.75 353.41,885.50 353.54,885.24 353.67,884.99 353.80,884.74 353.94,884.49 354.07,884.24 354.21,883.99 354.35,883.75 354.50,883.50 354.64,883.26 354.79,883.02 354.94,882.78 355.09,882.54 355.24,882.30 355.40,882.06 355.56,881.82 355.72,881.59 355.88,881.36 356.04,881.13 356.21,880.90 356.37,880.67 356.54,880.44 356.72,880.21 356.89,879.99 357.06,879.77 357.24,879.55 357.42,879.33 357.60,879.11 357.79,878.89 357.97,878.68 358.16,878.46 358.35,878.25 358.54,878.04 358.73,877.83 358.92,877.63 359.12,877.42 359.32,877.22 359.52,877.02 359.72,876.82 359.92,876.62 360.13,876.42 360.33,876.23 360.54,876.04 360.75,875.85 360.96,875.66 361.18,875.47 361.39,875.29 361.61,875.10 361.83,874.92 362.05,874.74 362.27,874.56 362.49,874.39 362.71,874.21 362.94,874.04 363.17,873.87 363.40,873.71 363.63,873.54 363.86,873.38 364.09,873.21 364.33,873.05 364.56,872.90 364.80,872.74 365.04,872.59 365.28,872.44 365.52,872.29 365.76,872.14 366.00,872.00 366.25,871.85 366.50,871.71 366.74,871.57 366.99,871.44 367.24,871.30 367.49,871.17 367.74,871.04 368.00,870.91 368.25,870.79 368.51,870.66 368.76,870.54 369.02,870.42 369.28,870.31 369.54,870.19 369.80,870.08 370.06,869.97 370.32,869.86 370.59,869.76 370.85,869.66 371.12,869.56 371.38,869.46 371.65,869.36 371.92,869.27 372.19,869.18 372.46,869.09 372.73,869.00 373.00,868.92 373.27,868.84 373.54,868.76 373.81,868.68 374.09,868.61 374.36,868.53 374.64,868.46 374.91,868.40 375.19,868.33 375.46,868.27 375.74,868.21 376.02,868.15 376.30,868.10 376.58,868.04 376.86,867.99 377.14,867.94 377.42,867.90 377.70,867.86 377.98,867.81 378.26,867.78 378.54,867.74 378.82,867.71 379.10,867.68 379.38,867.65 379.67,867.62 379.95,867.60 380.23,867.58 380.52,867.56 380.80,867.54 381.08,867.53 381.37,867.52 381.65,867.51 381.93,867.50 382.22,867.50 382.50,867.50 382.78,867.50 383.07,867.50 383.35,867.51 383.63,867.52 383.92,867.53 384.20,867.54 384.48,867.56 384.77,867.58 385.05,867.60 385.33,867.62 385.61,867.65 385.90,867.68 386.18,867.71 386.46,867.74 386.74,867.78 387.02,867.81 387.30,867.86 387.58,867.90 387.86,867.94 388.14,867.99 388.42,868.04 388.70,868.10 388.98,868.15 389.26,868.21 389.53,868.27 389.81,868.33 390.09,868.40 390.36,868.46 390.64,868.53 390.91,868.61 391.18,868.68 391.46,868.76 391.73,868.84 392.00,868.92 392.27,869.00 392.54,869.09 392.81,869.18 393.08,869.27 393.35,869.36 393.61,869.46 393.88,869.56 394.15,869.66 394.41,869.76 394.67,869.86 394.94,869.97 395.20,870.08 395.46,870.19 395.72,870.31 395.98,870.42 396.23,870.54 396.49,870.66 396.75,870.79 397.00,870.91 397.25,871.04 397.51,871.17 397.76,871.30 398.01,871.44 398.26,871.57 398.50,871.71 398.75,871.85 398.99,872.00 399.24,872.14 399.48,872.29 399.72,872.44 399.96,872.59 400.20,872.74 400.44,872.90 400.67,873.05 400.91,873.21 401.14,873.38 401.37,873.54 401.60,873.71 401.83,873.87 402.06,874.04 402.28,874.21 402.51,874.39 402.73,874.56 402.95,874.74 403.17,874.92 403.39,875.10 403.61,875.29 403.82,875.47 404.03,875.66 404.25,875.85 404.46,876.04 404.66,876.23 404.87,876.42 405.08,876.62 405.28,876.82 405.48,877.02 405.68,877.22 405.88,877.42 406.07,877.63 406.27,877.83 406.46,878.04 406.65,878.25 406.84,878.46 407.03,878.68 407.21,878.89 407.40,879.11 407.58,879.33 407.76,879.55 407.93,879.77 408.11,879.99 408.28,880.21 408.45,880.44 408.62,880.67 408.79,880.90 408.96,881.13 409.12,881.36 409.28,881.59 409.44,881.82 409.60,882.06 409.76,882.30 409.91,882.54 410.06,882.78 410.21,883.02 410.36,883.26 410.50,883.50 410.65,883.75 410.79,883.99 410.92,884.24 411.06,884.49 411.19,884.74 411.33,884.99 411.46,885.24 411.58,885.50 411.71,885.75 411.83,886.01 411.95,886.26 412.07,886.52 412.19,886.78 412.30,887.04 412.42,887.30 412.53,887.56 412.63,887.82 412.74,888.09 412.84,888.35 412.94,888.62 413.04,888.88 413.14,889.15 413.23,889.42 413.32,889.69 413.41,889.96 413.49,890.23 413.58,890.50 413.66,890.77 413.74,891.04 413.82,891.31 413.89,891.59 413.96,891.86 414.03,892.14 414.10,892.41 414.17,892.69 414.23,892.96 414.29,893.24 414.35,893.52 414.40,893.80 414.45,894.08 414.51,894.35 414.55,894.63 414.60,894.91 414.64,895.19 414.68,895.48 414.72,895.76 414.76,896.04 414.79,896.32 414.82,896.60 414.85,896.88 414.88,897.17 414.90,897.45 414.92,897.73 414.94,898.01 414.95,898.30 414.97,898.58 414.98,898.86 414.99,899.15 414.99,899.43 415.00,899.71 415.00,900.00"/>
<polygon fill="#ffaf0f" style="stroke:#000000;  stroke-width:0.50pt;" points="350.00,900.00 317.50,900.00 317.50,899.43 317.51,898.86 317.52,898.30 317.54,897.73 317.56,897.16 317.59,896.60 317.62,896.03 317.66,895.46 317.70,894.90 317.75,894.33 317.80,893.77 317.86,893.20 317.92,892.64 317.98,892.08 318.06,891.51 318.13,890.95 318.21,890.39 318.30,889.83 318.39,889.27 318.49,888.71 318.59,888.15 318.69,887.60 318.80,887.04 318.92,886.48 319.04,885.93 319.17,885.38 319.30,884.82 319.43,884.27 319.57,883.72 319.71,883.17 319.86,882.63 320.02,882.08 320.18,881.54 320.34,880.99 320.51,880.45 320.68,879.91 320.86,879.37 321.04,878.84 321.23,878.30 321.42,877.77 321.62,877.23 321.82,876.70 322.02,876.18 322.23,875.65 322.45,875.12 322.67,874.60 322.89,874.08 323.12,873.56 323.35,873.04 323.59,872.53 323.83,872.02 324.08,871.50 324.33,871.00 324.58,870.49 324.84,869.98 325.11,869.48 325.38,868.98 325.65,868.49 325.93,867.99 326.21,867.50 326.49,867.01 326.78,866.52 327.08,866.04 327.38,865.55 327.68,865.07 327.99,864.60 328.30,864.12 328.61,863.65 328.93,863.18 329.25,862.72 329.58,862.25 329.91,861.79 330.25,861.33 330.59,860.88 330.93,860.43 331.28,859.98 331.63,859.53 331.98,859.09 332.34,858.65 332.71,858.22 333.07,857.78 333.44,857.35 333.82,856.93 334.19,856.50 334.58,856.08 334.96,855.67 335.35,855.26 335.74,854.85 336.14,854.44 336.54,854.04 336.94,853.64 337.35,853.24 337.76,852.85 338.17,852.46 338.59,852.08 339.01,851.69 339.43,851.32 339.86,850.94 340.29,850.57 340.72,850.21 341.15,849.84 341.59,849.48 342.04,849.13 342.48,848.78 342.93,848.43 343.38,848.09 343.84,847.75 344.29,847.41 344.75,847.08 345.22,846.75 345.68,846.43 346.15,846.11 346.62,845.80 347.10,845.48 347.57,845.18 348.05,844.88 348.54,844.58 349.02,844.28 349.51,843.99 350.00,843.71 350.49,843.43 350.99,843.15 351.48,842.88 351.98,842.61 352.49,842.34 352.99,842.08 353.50,841.83 354.01,841.58 354.52,841.33 355.03,841.09 355.54,840.85 356.06,840.62 356.58,840.39 357.10,840.17 357.62,839.95 358.15,839.73 358.68,839.52 359.21,839.32 359.74,839.11 360.27,838.92 360.80,838.73 361.34,838.54 361.87,838.36 362.41,838.18 362.95,838.01 363.50,837.84 364.04,837.68 364.58,837.52 365.13,837.36 365.68,837.21 366.22,837.07 366.77,836.93 367.33,836.79 367.88,836.66 368.43,836.54 368.99,836.42 369.54,836.30 370.10,836.19 370.65,836.09 371.21,835.99 371.77,835.89 372.33,835.80 372.89,835.71 373.45,835.63 374.02,835.55 374.58,835.48 375.14,835.42 375.70,835.35 376.27,835.30 376.83,835.25 377.40,835.20 377.97,835.16 378.53,835.12 379.10,835.09 379.66,835.06 380.23,835.04 380.80,835.02 381.36,835.01 381.93,835.00 382.50,835.00 382.50,867.50 382.50,867.50 382.22,867.50 381.93,867.50 381.65,867.51 381.37,867.52 381.08,867.53 380.80,867.54 380.52,867.56 380.23,867.58 379.95,867.60 379.67,867.62 379.38,867.65 379.10,867.68 378.82,867.71 378.54,867.74 378.26,867.78 377.98,867.81 377.70,867.86 377.42,867.90 377.14,867.94 376.86,867.99 376.58,868.04 376.30,868.10 376.02,868.15 375.74,868.21 375.46,868.27 375.19,868.33 374.91,868.40 374.64,868.46 374.36,868.53 374.09,868.61 373.81,868.68 373.54,868.76 373.27,868.84 373.00,868.92 372.73,869.00 372.46,869.09 372.19,869.18 371.92,869.27 371.65,869.36 371.38,869.46 371.12,869.56 370.85,869.66 370.59,869.76 370.32,869.86 370.06,869.97 369.80,870.08 369.54,870.19 369.28,870.31 369.02,870.42 368.76,870.54 368.51,870.66 368.25,870.79 368.00,870.91 367.74,871.04 367.49,871.17 367.24,871.30 366.99,871.44 366.74,871.57 366.50,871.71 366.25,871.85 366.00,872.00 365.76,872.14 365.52,872.29 365.28,872.44 365.04,872.59 364.80,872.74 364.56,872.90 364.33,873.05 364.09,873.21 363.86,873.38 363.63,873.54 363.40,873.71 363.17,873.87 362.94,874.04 362.71,874.21 362.49,874.39 362.27,874.56 362.05,874.74 361.83,874.92 361.61,875.10 361.39,875.29 361.18,875.47 360.96,875.66 360.75,875.85 360.54,876.04 360.33,876.23 360.13,876.42 359.92,876.62 359.72,876.82 359.52,877.02 359.32,877.22 359.12,877.42 358.92,877.63 358.73,877.83 358.54,878.04 358.35,878.25 358.16,878.46 357.97,878.68 357.79,878.89 357.60,879.11 357.42,879.33 357.24,879.55 357.06,879.77 356.89,879.99 356.72,880.21 356.54,880.44 356.37,880.67 356.21,880.90 356.04,881.13 355.88,881.36 355.72,881.59 355.56,881.82 355.40,882.06 355.24,882.30 355.09,882.54 354.94,882.78 354.79,883.02 354.64,883.26 354.50,883.50 354.35,883.75 354.21,883.99 354.07,884.24 353.94,884.49 353.80,884.74 353.67,884.99 353.54,885.24 353.41,885.50 353.29,885.75 353.17,886.01 353.04,886.26 352.93,886.52 352.81,886.78 352.69,887.04 352.58,887.30 352.47,887.56 352.37,887.82 352.26,888.09 352.16,888.35 352.06,888.62 351.96,888.88 351.86,889.15 351.77,889.42 351.68,889.69 351.59,889.96 351.50,890.23 351.42,890.50 351.34,890.77 351.26,891.04 351.18,891.31 351.11,891.59 351.03,891.86 350.96,892.14 350.90,892.41 350.83,892.69 350.77,892.96 350.71,893.24 350.65,893.52 350.60,893.80 350.54,894.08 350.49,894.35 350.45,894.63 350.40,894.91 350.36,895.19 350.32,895.48 350.28,895.76 350.24,896.04 350.21,896.32 350.18,896.60 350.15,896.88 350.12,897.17 350.10,897.45 350.08,897.73 350.06,898.01 350.04,898.30 350.03,898.58 350.02,898.86 350.01,899.15 350.00,899.43 350.00,899.71"/>
<polygon fill="#ffaf0f" style="stroke:#000000;  stroke-width:0.50pt;" points="382.50,867.50 382.50,835.00 383.07,835.00 383.63,835.01 384.20,835.02 384.77,835.04 385.33,835.06 385.90,835.09 386.47,835.12 387.03,835.16 387.60,835.20 388.16,835.25 388.73,835.30 389.29,835.35 389.86,835.42 390.42,835.48 390.98,835.55 391.55,835.63 392.11,835.71 392.67,835.80 393.23,835.89 393.79,835.99 394.34,836.09 394.90,836.19 395.46,836.30 396.01,836.42 396.57,836.54 397.12,836.66 397.67,836.79 398.22,836.93 398.77,837.07 399.32,837.21 399.87,837.36 400.42,837.52 400.96,837.68 401.50,837.84 402.05,838.01 402.59,838.18 403.12,838.36 403.66,838.54 404.20,838.73 404.73,838.92 405.26,839.11 405.79,839.32 406.32,839.52 406.85,839.73 407.37,839.95 407.90,840.17 408.42,840.39 408.94,840.62 409.45,840.85 409.97,841.09 410.48,841.33 410.99,841.58 411.50,841.83 412.01,842.08 412.51,842.34 413.01,842.61 413.51,842.88 414.01,843.15 414.51,843.43 415.00,843.71 415.49,843.99 415.98,844.28 416.46,844.58 416.94,844.88 417.42,845.18 417.90,845.48 418.38,845.80 418.85,846.11 419.32,846.43 419.78,846.75 420.24,847.08 420.71,847.41 421.16,847.75 421.62,848.09 422.07,848.43 422.52,848.78 422.96,849.13 423.40,849.48 423.84,849.84 424.28,850.21 424.71,850.57 425.14,850.94 425.57,851.32 425.99,851.69 426.41,852.08 426.83,852.46 427.24,852.85 427.65,853.24 428.06,853.64 428.46,854.04 428.86,854.44 429.26,854.85 429.65,855.26 430.04,855.67 430.42,856.08 430.80,856.50 431.18,856.93 431.56,857.35 431.93,857.78 432.29,858.22 432.65,858.65 433.01,859.09 433.37,859.53 433.72,859.98 434.07,860.43 434.41,860.88 434.75,861.33 435.09,861.79 435.42,862.25 435.74,862.72 436.07,863.18 436.39,863.65 436.70,864.12 437.01,864.60 437.32,865.07 437.62,865.55 437.92,866.04 438.21,866.52 438.51,867.01 438.79,867.50 439.07,867.99 439.35,868.49 439.62,868.98 439.89,869.48 440.15,869.98 440.41,870.49 440.67,871.00 440.92,871.50 441.17,872.02 441.41,872.53 441.65,873.04 441.88,873.56 442.11,874.08 442.33,874.60 442.55,875.12 442.77,875.65 442.98,876.18 443.18,876.70 443.38,877.23 443.58,877.77 443.77,878.30 443.96,878.84 444.14,879.37 444.32,879.91 444.49,880.45 444.66,880.99 444.82,881.54 444.98,882.08 445.14,882.63 445.28,883.17 445.43,883.72 445.57,884.27 445.70,884.82 445.83,885.38 445.96,885.93 446.08,886.48 446.19,887.04 446.30,887.60 446.41,888.15 446.51,888.71 446.61,889.27 446.70,889.83 446.79,890.39 446.87,890.95 446.94,891.51 447.01,892.08 447.08,892.64 447.14,893.20 447.20,893.77 447.25,894.33 447.30,894.90 447.34,895.46 447.38,896.03 447.41,896.60 447.44,897.16 447.46,897.73 447.48,898.30 447.49,898.86 447.50,899.43 447.50,900.00 415.00,900.00 415.00,900.00 415.00,899.71 414.99,899.43 414.99,899.15 414.98,898.86 414.97,898.58 414.95,898.30 414.94,898.01 414.92,897.73 414.90,897.45 414.88,897.17 414.85,896.88 414.82,896.60 414.79,896.32 414.76,896.04 414.72,895.76 414.68,895.48 414.64,895.19 414.60,894.91 414.55,894.63 414.51,894.35 414.45,894.08 414.40,893.80 414.35,893.52 414.29,893.24 414.23,892.96 414.17,892.69 414.10,892.41 414.03,892.14 413.96,891.86 413.89,891.59 413.82,891.31 413.74,891.04 413.66,890.77 413.58,890.50 413.49,890.23 413.41,889.96 413.32,889.69 413.23,889.42 413.14,889.15 413.04,888.88 412.94,888.62 412.84,888.35 412.74,888.09 412.63,887.82 412.53,887.56 412.42,887.30 412.30,887.04 412.19,886.78 412.07,886.52 411.95,886.26 411.83,886.01 411.71,885.75 411.58,885.50 411.46,885.24 411.33,884.99 411.19,884.74 411.06,884.49 410.92,884.24 410.79,883.99 410.65,883.75 410.50,883.50 410.36,883.26 410.21,883.02 410.06,882.78 409.91,882.54 409.76,882.30 409.60,882.06 409.44,881.82 409.28,881.59 409.12,881.36 408.96,881.13 408.79,880.90 408.62,880.67 408.45,880.44 408.28,880.21 408.11,879.99 407.93,879.77 407.76,879.55 407.58,879.33 407.40,879.11 407.21,878.89 407.03,878.68 406.84,878.46 406.65,878.25 406.46,878.04 406.27,877.83 406.07,877.63 405.88,877.42 405.68,877.22 405.48,877.02 405.28,876.82 405.08,876.62 404.87,876.42 404.66,876.23 404.46,876.04 404.25,875.85 404.03,875.66 403.82,875.47 403.61,875.29 403.39,875.10 403.17,874.92 402.95,874.74 402.73,874.56 402.51,874.39 402.28,874.21 402.06,874.04 401.83,873.87 401.60,873.71 401.37,873.54 401.14,873.38 400.91,873.21 400.67,873.05 400.44,872.90 400.20,872.74 399.96,872.59 399.72,872.44 399.48,872.29 399.24,872.14 398.99,872.00 398.75,871.85 398.50,871.71 398.26,871.57 398.01,871.44 397.76,871.30 397.51,871.17 397.25,871.04 397.00,870.91 396.75,870.79 396.49,870.66 396.23,870.54 395.98,870.42 395.72,870.31 395.46,870.19 395.20,870.08 394.94,869.97 394.67,869.86 394.41,869.76 394.15,869.66 393.88,869.56 393.61,869.46 393.35,869.36 393.08,869.27 392.81,869.18 392.54,869.09 392.27,869.00 392.00,868.92 391.73,868.84 391.46,868.76 391.18,868.68 390.91,868.61 390.64,868.53 390.36,868.46 390.09,868.40 389.81,868.33 389.53,868.27 389.26,868.21 388.98,868.15 388.70,868.10 388.42,868.04 388.14,867.99 387.86,867.94 387.58,867.90 387.30,867.86 387.02,867.81 386.74,867.78 386.46,867.74 386.18,867.71 385.90,867.68 385.61,867.65 385.33,867.62 385.05,867.60 384.77,867.58 384.48,867.56 384.20,867.54 383.92,867.53 383.63,867.52 383.35,867.51 383.07,867.50 382.78,867.50"/>
<polygon fill="#ffdf57" style="stroke:#000000;  stroke-width:0.50pt;" points="317.50,900.00 285.00,900.00 285.00,899.15 285.01,898.30 285.03,897.45 285.06,896.60 285.09,895.75 285.13,894.90 285.18,894.05 285.24,893.20 285.30,892.35 285.37,891.50 285.45,890.65 285.53,889.81 285.63,888.96 285.73,888.12 285.83,887.27 285.95,886.43 286.07,885.59 286.20,884.75 286.34,883.91 286.48,883.07 286.63,882.23 286.79,881.39 286.96,880.56 287.13,879.73 287.31,878.90 287.50,878.07 287.69,877.24 287.90,876.41 288.11,875.59 288.32,874.76 288.55,873.94 288.78,873.12 289.01,872.31 289.26,871.49 289.51,870.68 289.77,869.87 290.04,869.06 290.31,868.26 290.59,867.45 290.88,866.65 291.17,865.85 291.48,865.06 291.78,864.26 292.10,863.47 292.42,862.69 292.75,861.90 293.09,861.12 293.43,860.34 293.78,859.57 294.13,858.79 294.50,858.02 294.87,857.26 295.24,856.49 295.63,855.73 296.02,854.98 296.41,854.22 296.81,853.48 297.22,852.73 297.64,851.99 298.06,851.25 298.49,850.51 298.93,849.78 299.37,849.05 299.81,848.33 300.27,847.61 300.73,846.90 301.20,846.18 301.67,845.48 302.15,844.77 302.63,844.07 303.12,843.38 303.62,842.69 304.12,842.00 304.63,841.32 305.15,840.64 305.67,839.97 306.20,839.30 306.73,838.64 307.27,837.98 307.81,837.33 308.36,836.68 308.92,836.03 309.48,835.39 310.04,834.76 310.61,834.13 311.19,833.50 311.78,832.88 312.36,832.27 312.96,831.66 313.56,831.06 313.56,831.06 336.54,854.04 336.54,854.04 336.14,854.44 335.74,854.85 335.35,855.26 334.96,855.67 334.58,856.08 334.19,856.50 333.82,856.93 333.44,857.35 333.07,857.78 332.71,858.22 332.34,858.65 331.98,859.09 331.63,859.53 331.28,859.98 330.93,860.43 330.59,860.88 330.25,861.33 329.91,861.79 329.58,862.25 329.25,862.72 328.93,863.18 328.61,863.65 328.30,864.12 327.99,864.60 327.68,865.07 327.38,865.55 327.08,866.04 326.78,866.52 326.49,867.01 326.21,867.50 325.93,867.99 325.65,868.49 325.38,868.98 325.11,869.48 324.84,869.98 324.58,870.49 324.33,871.00 324.08,871.50 323.83,872.02 323.59,872.53 323.35,873.04 323.12,873.56 322.89,874.08 322.67,874.60 322.45,875.12 322.23,875.65 322.02,876.18 321.82,876.70 321.62,877.23 321.42,877.77 321.23,878.30 321.04,878.84 320.86,879.37 320.68,879.91 320.51,880.45 320.34,880.99 320.18,881.54 320.02,882.08 319.86,882.63 319.71,883.17 319.57,883.72 319.43,884.27 319.30,884.82 319.17,885.38 319.04,885.93 318.92,886.48 318.80,887.04 318.69,887.60 318.59,888.15 318.49,888.71 318.39,889.27 318.30,889.83 318.21,890.39 318.13,890.95 318.06,891.51 317.98,892.08 317.92,892.64 317.86,893.20 317.80,893.77 317.75,894.33 317.70,894.90 317.66,895.46 317.62,896.03 317.59,896.60 317.56,897.16 317.54,897.73 317.52,898.30 317.51,898.86 317.50,899.43 317.50,900.00"/>
<polygon fill="#ffdf57" style="stroke:#000000;  stroke-width:0.50pt;" points="336.54,854.04 313.56,831.06 314.16,830.46 314.77,829.86 315.38,829.27 316.00,828.69 316.63,828.11 317.26,827.54 317.89,826.98 318.53,826.41 319.18,825.86 319.83,825.31 320.48,824.76 321.14,824.23 321.80,823.69 322.47,823.17 323.15,822.65 323.82,822.13 324.50,821.62 325.19,821.12 325.88,820.62 326.58,820.13 327.27,819.65 327.98,819.17 328.69,818.69 329.40,818.23 330.11,817.77 330.83,817.31 331.56,816.87 332.28,816.42 333.01,815.99 333.75,815.56 334.49,815.14 335.23,814.72 335.98,814.31 336.73,813.91 337.48,813.51 338.24,813.13 339.00,812.74 339.76,812.37 340.52,812.00 341.29,811.63 342.07,811.28 342.84,810.93 343.62,810.59 344.40,810.25 345.19,809.92 345.98,809.60 346.77,809.28 347.56,808.97 348.35,808.67 349.15,808.38 349.95,808.09 350.76,807.81 351.56,807.54 352.37,807.27 353.18,807.01 353.99,806.76 354.81,806.51 355.62,806.28 356.44,806.04 357.26,805.82 358.09,805.60 358.91,805.39 359.74,805.19 360.57,805.00 361.40,804.81 362.23,804.63 363.06,804.46 363.90,804.29 364.73,804.13 365.57,803.98 366.41,803.84 367.25,803.70 368.09,803.57 368.93,803.45 369.77,803.33 370.62,803.23 371.46,803.13 372.31,803.03 373.15,802.95 374.00,802.87 374.85,802.80 375.70,802.74 376.55,802.68 377.40,802.63 378.25,802.59 379.10,802.56 379.95,802.53 380.80,802.51 381.65,802.50 382.50,802.50 382.50,835.00 382.50,835.00 381.93,835.00 381.36,835.01 380.80,835.02 380.23,835.04 379.66,835.06 379.10,835.09 378.53,835.12 377.97,835.16 377.40,835.20 376.83,835.25 376.27,835.30 375.70,835.35 375.14,835.42 374.58,835.48 374.02,835.55 373.45,835.63 372.89,835.71 372.33,835.80 371.77,835.89 371.21,835.99 370.65,836.09 370.10,836.19 369.54,836.30 368.99,836.42 368.43,836.54 367.88,836.66 367.33,836.79 366.77,836.93 366.22,837.07 365.68,837.21 365.13,837.36 364.58,837.52 364.04,837.68 363.50,837.84 362.95,838.01 362.41,838.18 361.87,838.36 361.34,838.54 360.80,838.73 360.27,838.92 359.74,839.11 359.21,839.32 358.68,839.52 358.15,839.73 357.62,839.95 357.10,840.17 356.58,840.39 356.06,840.62 355.54,840.85 355.03,841.09 354.52,841.33 354.01,841.58 353.50,841.83 352.99,842.08 352.49,842.34 351.98,842.61 351.48,842.88 350.99,843.15 350.49,843.43 350.00,843.71 349.51,843.99 349.02,844.28 348.54,844.58 348.05,844.88 347.57,845.18 347.10,845.48 346.62,845.80 346.15,846.11 345.68,846.43 345.22,846.75 344.75,847.08 344.29,847.41 343.84,847.75 343.38,848.09 342.93,848.43 342.48,848.78 342.04,849.13 341.59,849.48 341.15,849.84 340.72,850.21 340.29,850.57 339.86,850.94 339.43,851.32 339.01,851.69 338.59,852.08 338.17,852.46 337.76,852.85 337.35,853.24 336.94,853.64"/>
<polygon fill="#ffdf57" style="stroke:#000000;  stroke-width:0.50pt;" points="382.50,835.00 382.50,802.50 383.35,802.50 384.20,802.51 385.05,802.53 385.90,802.56 386.75,802.59 387.60,802.63 388.45,802.68 389.30,802.74 390.15,802.80 391.00,802.87 391.84,802.95 392.69,803.03 393.54,803.13 394.38,803.23 395.23,803.33 396.07,803.45 396.91,803.57 397.75,803.70 398.59,803.84 399.43,803.98 400.27,804.13 401.10,804.29 401.94,804.46 402.77,804.63 403.60,804.81 404.43,805.00 405.26,805.19 406.09,805.39 406.91,805.60 407.73,805.82 408.55,806.04 409.37,806.28 410.19,806.51 411.01,806.76 411.82,807.01 412.63,807.27 413.44,807.54 414.24,807.81 415.05,808.09 415.85,808.38 416.64,808.67 417.44,808.97 418.23,809.28 419.02,809.60 419.81,809.92 420.60,810.25 421.38,810.59 422.16,810.93 422.93,811.28 423.70,811.63 424.47,812.00 425.24,812.37 426.00,812.74 426.76,813.13 427.52,813.51 428.27,813.91 429.02,814.31 429.77,814.72 430.51,815.14 431.25,815.56 431.98,815.99 432.72,816.42 433.44,816.87 434.17,817.31 434.89,817.77 435.60,818.23 436.31,818.69 437.02,819.17 437.72,819.65 438.42,820.13 439.12,820.62 439.81,821.12 440.49,821.62 441.18,822.13 441.85,822.65 442.53,823.17 443.19,823.69 443.86,824.23 444.52,824.76 445.17,825.31 445.82,825.86 446.46,826.41 447.10,826.98 447.74,827.54 448.37,828.11 448.99,828.69 449.61,829.27 450.23,829.86 450.84,830.46 451.44,831.06 428.46,854.04 428.46,854.04 428.06,853.64 427.65,853.24 427.24,852.85 426.83,852.46 426.41,852.08 425.99,851.69 425.57,851.32 425.14,850.94 424.71,850.57 424.28,850.21 423.84,849.84 423.40,849.48 422.96,849.13 422.52,848.78 422.07,848.43 421.62,848.09 421.16,847.75 420.71,847.41 420.24,847.08 419.78,846.75 419.32,846.43 418.85,846.11 418.38,845.80 417.90,845.48 417.42,845.18 416.94,844.88 416.46,844.58 415.98,844.28 415.49,843.99 415.00,843.71 414.51,843.43 414.01,843.15 413.51,842.88 413.01,842.61 412.51,842.34 412.01,842.08 411.50,841.83 410.99,841.58 410.48,841.33 409.97,841.09 409.45,840.85 408.94,840.62 408.42,840.39 407.90,840.17 407.37,839.95 406.85,839.73 406.32,839.52 405.79,839.32 405.26,839.11 404.73,838.92 404.20,838.73 403.66,838.54 403.12,838.36 402.59,838.18 402.05,838.01 401.50,837.84 400.96,837.68 400.42,837.52 399.87,837.36 399.32,837.21 398.77,837.07 398.22,836.93 397.67,836.79 397.12,836.66 396.57,836.54 396.01,836.42 395.46,836.30 394.90,836.19 394.34,836.09 393.79,835.99 393.23,835.89 392.67,835.80 392.11,835.71 391.55,835.63 390.98,835.55 390.42,835.48 389.86,835.42 389.29,835.35 388.73,835.30 388.16,835.25 387.60,835.20 387.03,835.16 386.47,835.12 385.90,835.09 385.33,835.06 384.77,835.04 384.20,835.02 383.63,835.01 383.07,835.00"/>
<polygon fill="#ffdf57" style="stroke:#000000;  stroke-width:0.50pt;" points="428.46,854.04 451.44,831.06 452.04,831.66 452.63,832.27 453.22,832.88 453.81,833.50 454.38,834.13 454.96,834.76 455.52,835.39 456.08,836.03 456.64,836.68 457.19,837.33 457.73,837.98 458.27,838.64 458.80,839.30 459.33,839.97 459.85,840.64 460.37,841.32 460.88,842.00 461.38,842.69 461.88,843.38 462.37,844.07 462.85,844.77 463.33,845.48 463.80,846.18 464.27,846.90 464.73,847.61 465.18,848.33 465.63,849.05 466.07,849.78 466.51,850.51 466.94,851.25 467.36,851.99 467.77,852.73 468.18,853.48 468.59,854.22 468.98,854.98 469.37,855.73 469.76,856.49 470.13,857.26 470.50,858.02 470.86,858.79 471.22,859.57 471.57,860.34 471.91,861.12 472.25,861.90 472.58,862.69 472.90,863.47 473.21,864.26 473.52,865.06 473.82,865.85 474.12,866.65 474.41,867.45 474.69,868.26 474.96,869.06 475.23,869.87 475.49,870.68 475.74,871.49 475.98,872.31 476.22,873.12 476.45,873.94 476.68,874.76 476.89,875.59 477.10,876.41 477.31,877.24 477.50,878.07 477.69,878.90 477.87,879.73 478.04,880.56 478.21,881.39 478.37,882.23 478.52,883.07 478.66,883.91 478.80,884.75 478.93,885.59 479.05,886.43 479.16,887.27 479.27,888.12 479.37,888.96 479.46,889.81 479.55,890.65 479.63,891.50 479.70,892.35 479.76,893.20 479.82,894.05 479.87,894.90 479.91,895.75 479.94,896.60 479.97,897.45 479.98,898.30 480.00,899.15 480.00,900.00 447.50,900.00 447.50,900.00 447.50,899.43 447.49,898.86 447.48,898.30 447.46,897.73 447.44,897.16 447.41,896.60 447.38,896.03 447.34,895.46 447.30,894.90 447.25,894.33 447.20,893.77 447.14,893.20 447.08,892.64 447.01,892.08 446.94,891.51 446.87,890.95 446.79,890.39 446.70,889.83 446.61,889.27 446.51,888.71 446.41,888.15 446.30,887.60 446.19,887.04 446.08,886.48 445.96,885.93 445.83,885.38 445.70,884.82 445.57,884.27 445.43,883.72 445.28,883.17 445.14,882.63 444.98,882.08 444.82,881.54 444.66,880.99 444.49,880.45 444.32,879.91 444.14,879.37 443.96,878.84 443.77,878.30 443.58,877.77 443.38,877.23 443.18,876.70 442.98,876.18 442.77,875.65 442.55,875.12 442.33,874.60 442.11,874.08 441.88,873.56 441.65,873.04 441.41,872.53 441.17,872.02 440.92,871.50 440.67,871.00 440.41,870.49 440.15,869.98 439.89,869.48 439.62,868.98 439.35,868.49 439.07,867.99 438.79,867.50 438.51,867.01 438.21,866.52 437.92,866.04 437.62,865.55 437.32,865.07 437.01,864.60 436.70,864.12 436.39,863.65 436.07,863.18 435.74,862.72 435.42,862.25 435.09,861.79 434.75,861.33 434.41,860.88 434.07,860.43 433.72,859.98 433.37,859.53 433.01,859.09 432.65,858.65 432.29,858.22 431.93,857.78 431.56,857.35 431.18,856.93 430.80,856.50 430.42,856.08 430.04,855.67 429.65,855.26 429.26,854.85 428.86,854.44"/>
<polygon fill="#ffff6f" style="stroke:#000000;  stroke-width:0.50pt;" points="285.00,900.00 220.00,900.00 220.01,898.58 220.02,897.16 220.06,895.74 220.10,894.33 220.15,892.91 220.22,891.49 220.30,890.08 220.40,888.66 220.50,887.25 220.62,885.84 220.75,884.42 220.89,883.01 221.04,881.60 221.21,880.19 221.39,878.79 221.58,877.38 221.78,875.98 222.00,874.58 222.23,873.18 222.47,871.78 222.72,870.38 222.99,868.99 223.26,867.60 223.55,866.21 223.85,864.83 224.16,863.44 224.49,862.06 224.83,860.69 225.18,859.31 225.54,857.94 225.91,856.57 226.29,855.21 226.69,853.85 227.10,852.49 227.52,851.13 227.95,849.78 228.40,848.44 228.85,847.09 229.32,845.75 229.80,844.42 230.29,843.09 230.79,841.76 231.31,840.44 231.83,839.12 232.37,837.81 232.37,837.81 292.42,862.69 292.42,862.69 292.10,863.47 291.78,864.26 291.48,865.06 291.17,865.85 290.88,866.65 290.59,867.45 290.31,868.26 290.04,869.06 289.77,869.87 289.51,870.68 289.26,871.49 289.01,872.31 288.78,873.12 288.55,873.94 288.32,874.76 288.11,875.59 287.90,876.41 287.69,877.24 287.50,878.07 287.31,878.90 287.13,879.73 286.96,880.56 286.79,881.39 286.63,882.23 286.48,883.07 286.34,883.91 286.20,884.75 286.07,885.59 285.95,886.43 285.83,887.27 285.73,888.12 285.63,888.96 285.53,889.81 285.45,890.65 285.37,891.50 285.30,892.35 285.24,893.20 285.18,894.05 285.13,894.90 285.09,895.75 285.06,896.60 285.03,897.45 285.01,898.30 285.00,899.15 285.00,900.00"/>
<polygon fill="#ffff6f" style="stroke:#000000;  stroke-width:0.50pt;" points="292.42,862.69 232.37,837.81 232.92,836.50 233.48,835.20 234.05,833.90 234.63,832.61 235.22,831.32 235.83,830.04 236.45,828.76 237.07,827.49 237.71,826.22 238.36,824.96 239.02,823.71 239.69,822.46 240.37,821.22 241.07,819.98 241.77,818.75 242.48,817.52 243.21,816.30 243.95,815.09 244.69,813.89 245.45,812.69 246.22,811.49 246.99,810.31 247.78,809.13 248.58,807.96 249.39,806.79 250.21,805.63 251.03,804.48 251.87,803.34 252.72,802.20 253.58,801.07 254.45,799.95 255.33,798.84 256.21,797.73 257.11,796.64 258.02,795.55 258.93,794.46 259.86,793.39 260.79,792.32 261.74,791.26 262.69,790.22 263.65,789.17 264.63,788.14 265.61,787.12 266.60,786.10 267.59,785.09 267.59,785.09 313.56,831.06 313.56,831.06 312.96,831.66 312.36,832.27 311.78,832.88 311.19,833.50 310.61,834.13 310.04,834.76 309.48,835.39 308.92,836.03 308.36,836.68 307.81,837.33 307.27,837.98 306.73,838.64 306.20,839.30 305.67,839.97 305.15,840.64 304.63,841.32 304.12,842.00 303.62,842.69 303.12,843.38 302.63,844.07 302.15,844.77 301.67,845.48 301.20,846.18 300.73,846.90 300.27,847.61 299.81,848.33 299.37,849.05 298.93,849.78 298.49,850.51 298.06,851.25 297.64,851.99 297.22,852.73 296.81,853.48 296.41,854.22 296.02,854.98 295.63,855.73 295.24,856.49 294.87,857.26 294.50,858.02 294.13,858.79 293.78,859.57 293.43,860.34 293.09,861.12 292.75,861.90 292.42,862.69"/>
<polygon fill="#ffff6f" style="stroke:#000000;  stroke-width:0.50pt;" points="313.56,831.06 267.59,785.09 268.60,784.10 269.62,783.11 270.64,782.13 271.67,781.15 272.72,780.19 273.77,779.24 274.82,778.29 275.89,777.36 276.96,776.43 278.05,775.52 279.14,774.61 280.23,773.71 281.34,772.82 282.45,771.95 283.58,771.08 284.70,770.22 285.84,769.37 286.98,768.53 288.14,767.70 289.29,766.89 290.46,766.08 291.63,765.28 292.81,764.49 294.00,763.71 295.19,762.95 296.39,762.19 297.59,761.44 298.81,760.71 300.02,759.98 301.25,759.27 302.48,758.57 303.72,757.87 304.96,757.19 306.21,756.52 307.47,755.86 308.73,755.21 309.99,754.57 311.26,753.94 312.54,753.33 313.82,752.72 315.11,752.13 316.40,751.55 317.70,750.98 319.01,750.42 320.31,749.87 345.19,809.92 345.19,809.92 344.40,810.25 343.62,810.59 342.84,810.93 342.07,811.28 341.29,811.63 340.52,812.00 339.76,812.37 339.00,812.74 338.24,813.13 337.48,813.51 336.73,813.91 335.98,814.31 335.23,814.72 334.49,815.14 333.75,815.56 333.01,815.99 332.28,816.42 331.56,816.87 330.83,817.31 330.11,817.77 329.40,818.23 328.69,818.69 327.98,819.17 327.27,819.65 326.58,820.13 325.88,820.62 325.19,821.12 324.50,821.62 323.82,822.13 323.15,822.65 322.47,823.17 321.80,823.69 321.14,824.23 320.48,824.76 319.83,825.31 319.18,825.86 318.53,826.41 317.89,826.98 317.26,827.54 316.63,828.11 316.00,828.69 315.38,829.27 314.77,829.86 314.16,830.46"/>
<polygon fill="#ffff6f" style="stroke:#000000;  stroke-width:0.50pt;" points="345.19,809.92 320.31,749.87 321.63,749.33 322.94,748.81 324.26,748.29 325.59,747.79 326.92,747.30 328.26,746.82 329.59,746.35 330.94,745.90 332.28,745.45 333.63,745.02 334.99,744.60 336.35,744.19 337.71,743.79 339.07,743.41 340.44,743.04 341.81,742.67 343.19,742.33 344.56,741.99 345.94,741.66 347.33,741.35 348.71,741.05 350.10,740.76 351.49,740.48 352.89,740.22 354.28,739.97 355.68,739.73 357.08,739.50 358.48,739.28 359.88,739.08 361.29,738.89 362.70,738.71 364.10,738.54 365.51,738.39 366.92,738.25 368.34,738.12 369.75,738.00 371.16,737.89 372.58,737.80 373.99,737.72 375.41,737.65 376.83,737.60 378.25,737.55 379.66,737.52 381.08,737.50 382.50,737.50 382.50,802.50 382.50,802.50 381.65,802.50 380.80,802.51 379.95,802.53 379.10,802.56 378.25,802.59 377.40,802.63 376.55,802.68 375.70,802.74 374.85,802.80 374.00,802.87 373.15,802.95 372.31,803.03 371.46,803.13 370.62,803.23 369.77,803.33 368.93,803.45 368.09,803.57 367.25,803.70 366.41,803.84 365.57,803.98 364.73,804.13 363.90,804.29 363.06,804.46 362.23,804.63 361.40,804.81 360.57,805.00 359.74,805.19 358.91,805.39 358.09,805.60 357.26,805.82 356.44,806.04 355.62,806.28 354.81,806.51 353.99,806.76 353.18,807.01 352.37,807.27 351.56,807.54 350.76,807.81 349.95,808.09 349.15,808.38 348.35,808.67 347.56,808.97 346.77,809.28 345.98,809.60"/>
<polygon fill="#ffff6f" style="stroke:#000000;  stroke-width:0.50pt;" points="382.50,802.50 382.50,737.50 383.92,737.50 385.34,737.52 386.75,737.55 388.17,737.60 389.59,737.65 391.00,737.72 392.42,737.80 393.83,737.89 395.25,738.00 396.66,738.12 398.07,738.25 399.49,738.39 400.89,738.54 402.30,738.71 403.71,738.89 405.11,739.08 406.52,739.28 407.92,739.50 409.32,739.73 410.72,739.97 412.11,740.22 413.51,740.48 414.90,740.76 416.28,741.05 417.67,741.35 419.05,741.66 420.43,741.99 421.81,742.33 423.19,742.67 424.56,743.04 425.93,743.41 427.29,743.79 428.65,744.19 430.01,744.60 431.36,745.02 432.71,745.45 434.06,745.90 435.40,746.35 436.74,746.82 438.08,747.30 439.41,747.79 440.73,748.29 442.06,748.81 443.37,749.33 444.69,749.87 419.81,809.92 419.81,809.92 419.02,809.60 418.23,809.28 417.44,808.97 416.64,808.67 415.85,808.38 415.05,808.09 414.24,807.81 413.44,807.54 412.63,807.27 411.82,807.01 411.01,806.76 410.19,806.51 409.37,806.28 408.55,806.04 407.73,805.82 406.91,805.60 406.09,805.39 405.26,805.19 404.43,805.00 403.60,804.81 402.77,804.63 401.94,804.46 401.10,804.29 400.27,804.13 399.43,803.98 398.59,803.84 397.75,803.70 396.91,803.57 396.07,803.45 395.23,803.33 394.38,803.23 393.54,803.13 392.69,803.03 391.84,802.95 391.00,802.87 390.15,802.80 389.30,802.74 388.45,802.68 387.60,802.63 386.75,802.59 385.90,802.56 385.05,802.53 384.20,802.51 383.35,802.50"/>
<polygon fill="#ffff6f" style="stroke:#000000;  stroke-width:0.50pt;" points="419.81,809.92 444.69,749.87 445.99,750.42 447.30,750.98 448.59,751.55 449.89,752.13 451.17,752.72 452.46,753.33 453.73,753.94 455.01,754.57 456.27,755.21 457.53,755.86 458.79,756.52 460.04,757.19 461.28,757.87 462.52,758.57 463.75,759.27 464.97,759.98 466.19,760.71 467.41,761.44 468.61,762.19 469.81,762.95 471.00,763.71 472.19,764.49 473.37,765.28 474.54,766.08 475.71,766.89 476.86,767.70 478.01,768.53 479.16,769.37 480.29,770.22 481.42,771.08 482.54,771.95 483.66,772.82 484.76,773.71 485.86,774.61 486.95,775.52 488.03,776.43 489.11,777.36 490.17,778.29 491.23,779.24 492.28,780.19 493.32,781.15 494.36,782.13 495.38,783.11 496.40,784.10 497.40,785.09 451.44,831.06 451.44,831.06 450.84,830.46 450.23,829.86 449.61,829.27 448.99,828.69 448.37,828.11 447.74,827.54 447.10,826.98 446.46,826.41 445.82,825.86 445.17,825.31 444.52,824.76 443.86,824.23 443.19,823.69 442.53,823.17 441.85,822.65 441.18,822.13 440.49,821.62 439.81,821.12 439.12,820.62 438.42,820.13 437.72,819.65 437.02,819.17 436.31,818.69 435.60,818.23 434.89,817.77 434.17,817.31 433.44,816.87 432.72,816.42 431.98,815.99 431.25,815.56 430.51,815.14 429.77,814.72 429.02,814.31 428.27,813.91 427.52,813.51 426.76,813.13 426.00,812.74 425.24,812.37 424.47,812.00 423.70,811.63 422.93,811.28 422.16,810.93 421.38,810.59 420.60,810.25"/>
<polygon fill="#ffff6f" style="stroke:#000000;  stroke-width:0.50pt;" points="451.44,831.06 497.40,785.09 498.40,786.10 499.39,787.12 500.37,788.14 501.34,789.17 502.31,790.22 503.26,791.26 504.20,792.32 505.14,793.39 506.06,794.46 506.98,795.55 507.89,796.64 508.79,797.73 509.67,798.84 510.55,799.95 511.42,801.07 512.28,802.20 513.13,803.34 513.96,804.48 514.79,805.63 515.61,806.79 516.42,807.96 517.22,809.13 518.01,810.31 518.78,811.49 519.55,812.69 520.31,813.89 521.05,815.09 521.79,816.30 522.51,817.52 523.23,818.75 523.93,819.98 524.62,821.22 525.31,822.46 525.98,823.71 526.64,824.96 527.29,826.22 527.93,827.49 528.55,828.76 529.17,830.04 529.77,831.32 530.37,832.61 530.95,833.90 531.52,835.20 532.08,836.50 532.63,837.81 472.58,862.69 472.58,862.69 472.25,861.90 471.91,861.12 471.57,860.34 471.22,859.57 470.86,858.79 470.50,858.02 470.13,857.26 469.76,856.49 469.37,855.73 468.98,854.98 468.59,854.22 468.18,853.48 467.77,852.73 467.36,851.99 466.94,851.25 466.51,850.51 466.07,849.78 465.63,849.05 465.18,848.33 464.73,847.61 464.27,846.90 463.80,846.18 463.33,845.48 462.85,844.77 462.37,844.07 461.88,843.38 461.38,842.69 460.88,842.00 460.37,841.32 459.85,840.64 459.33,839.97 458.80,839.30 458.27,838.64 457.73,837.98 457.19,837.33 456.64,836.68 456.08,836.03 455.52,835.39 454.96,834.76 454.38,834.13 453.81,833.50 453.22,832.88 452.63,832.27 452.04,831.66"/>
<polygon fill="#ffff6f" style="stroke:#000000;  stroke-width:0.50pt;" points="472.58,862.69 532.63,837.81 533.17,839.12 533.69,840.44 534.21,841.76 534.71,843.09 535.20,844.42 535.68,845.75 536.15,847.09 536.60,848.44 537.05,849.78 537.48,851.13 537.90,852.49 538.31,853.85 538.70,855.21 539.09,856.57 539.46,857.94 539.82,859.31 540.17,860.69 540.51,862.06 540.83,863.44 541.15,864.83 541.45,866.21 541.74,867.60 542.01,868.99 542.28,870.38 542.53,871.78 542.77,873.18 543.00,874.58 543.21,875.98 543.42,877.38 543.61,878.79 543.79,880.19 543.95,881.60 544.11,883.01 544.25,884.42 544.38,885.84 544.50,887.25 544.60,888.66 544.70,890.08 544.78,891.49 544.84,892.91 544.90,894.33 544.94,895.74 544.97,897.16 544.99,898.58 545.00,900.00 480.00,900.00 480.00,900.00 480.00,899.15 479.98,898.30 479.97,897.45 479.94,896.60 479.91,895.75 479.87,894.90 479.82,894.05 479.76,893.20 479.70,892.35 479.63,891.50 479.55,890.65 479.46,889.81 479.37,888.96 479.27,888.12 479.16,887.27 479.05,886.43 478.93,885.59 478.80,884.75 478.66,883.91 478.52,883.07 478.37,882.23 478.21,881.39 478.04,880.56 477.87,879.73 477.69,878.90 477.50,878.07 477.31,877.24 477.10,876.41 476.89,875.59 476.68,874.76 476.45,873.94 476.22,873.12 475.98,872.31 475.74,871.49 475.49,870.68 475.23,869.87 474.96,869.06 474.69,868.26 474.41,867.45 474.12,866.65 473.82,865.85 473.52,865.06 473.21,864.26 472.90,863.47"/>
<polygon fill="#9fff9f" style="stroke:#000000;  stroke-width:0.50pt;" points="220.00,900.00 155.00,900.00 155.01,898.01 155.03,896.03 155.08,894.04 155.14,892.06 155.22,890.07 155.31,888.09 155.42,886.11 155.55,884.13 155.70,882.15 155.87,880.17 156.05,878.19 156.25,876.22 156.46,874.24 156.70,872.27 156.95,870.30 157.21,868.34 157.50,866.37 157.80,864.41 158.12,862.45 158.46,860.49 158.81,858.54 159.18,856.59 159.37,855.62 223.12,868.30 223.12,868.30 222.85,869.69 222.59,871.08 222.35,872.48 222.11,873.88 221.89,875.28 221.68,876.68 221.48,878.08 221.30,879.49 221.13,880.90 220.97,882.31 220.82,883.72 220.68,885.13 220.56,886.54 220.45,887.96 220.35,889.37 220.26,890.79 220.19,892.20 220.12,893.62 220.08,895.04 220.04,896.45 220.01,897.87 220.00,899.29"/>
<polygon fill="#9fff9f" style="stroke:#000000;  stroke-width:0.50pt;" points="223.12,868.30 159.37,855.62 159.77,853.67 160.18,851.73 160.61,849.79 161.06,847.86 161.52,845.92 162.00,844.00 162.50,842.08 163.01,840.16 163.54,838.25 164.09,836.34 164.65,834.43 165.23,832.54 165.83,830.64 166.44,828.75 167.07,826.87 167.72,824.99 168.38,823.12 169.06,821.26 169.76,819.40 170.47,817.54 171.20,815.70 171.94,813.86 172.32,812.94 232.37,837.81 232.37,837.81 231.83,839.12 231.31,840.44 230.79,841.76 230.29,843.09 229.80,844.42 229.32,845.75 228.85,847.09 228.40,848.44 227.95,849.78 227.52,851.13 227.10,852.49 226.69,853.85 226.29,855.21 225.91,856.57 225.54,857.94 225.18,859.31 224.83,860.69 224.49,862.06 224.16,863.44 223.85,864.83 223.55,866.21 223.26,867.60"/>
<polygon fill="#9fff9f" style="stroke:#000000;  stroke-width:0.50pt;" points="232.37,837.81 172.32,812.94 173.08,811.11 173.87,809.28 174.67,807.47 175.48,805.66 176.31,803.85 177.16,802.06 178.02,800.27 178.90,798.49 179.80,796.72 180.70,794.95 181.63,793.19 182.57,791.44 183.52,789.70 184.49,787.97 185.48,786.25 186.48,784.53 187.49,782.83 188.52,781.13 189.57,779.44 190.63,777.76 191.70,776.09 192.79,774.43 193.34,773.61 247.39,809.72 247.39,809.72 246.60,810.90 245.83,812.09 245.07,813.29 244.32,814.49 243.58,815.70 242.85,816.91 242.13,818.14 241.42,819.36 240.72,820.60 240.03,821.84 239.35,823.08 238.69,824.34 238.03,825.59 237.39,826.86 236.76,828.13 236.14,829.40 235.53,830.68 234.93,831.97 234.34,833.26 233.76,834.55 233.20,835.85 232.64,837.16"/>
<polygon fill="#9fff9f" style="stroke:#000000;  stroke-width:0.50pt;" points="247.39,809.72 193.34,773.61 194.45,771.96 195.57,770.32 196.71,768.70 197.87,767.08 199.03,765.48 200.21,763.88 201.41,762.29 202.62,760.72 203.84,759.15 205.08,757.60 206.33,756.06 207.59,754.53 208.86,753.01 210.15,751.50 211.46,750.00 212.77,748.51 214.10,747.04 215.44,745.57 216.80,744.12 218.16,742.68 219.54,741.25 220.93,739.84 221.63,739.13 267.59,785.09 267.59,785.09 266.60,786.10 265.61,787.12 264.63,788.14 263.65,789.17 262.69,790.22 261.74,791.26 260.79,792.32 259.86,793.39 258.93,794.46 258.02,795.55 257.11,796.64 256.21,797.73 255.33,798.84 254.45,799.95 253.58,801.07 252.72,802.20 251.87,803.34 251.03,804.48 250.21,805.63 249.39,806.79 248.58,807.96 247.78,809.13"/>
<polygon fill="#9fff9f" style="stroke:#000000;  stroke-width:0.50pt;" points="267.59,785.09 221.63,739.13 223.04,737.73 224.46,736.35 225.90,734.98 227.34,733.62 228.80,732.27 230.27,730.93 231.75,729.61 233.25,728.30 234.75,727.01 236.27,725.72 237.79,724.45 239.33,723.20 240.88,721.96 242.44,720.73 244.01,719.51 245.59,718.31 247.18,717.12 248.78,715.95 250.39,714.79 252.01,713.64 253.64,712.51 255.28,711.39 256.11,710.84 292.22,764.88 292.22,764.88 291.04,765.68 289.87,766.48 288.71,767.29 287.56,768.12 286.41,768.95 285.27,769.79 284.14,770.65 283.01,771.51 281.90,772.38 280.79,773.27 279.68,774.16 278.59,775.06 277.50,775.97 276.43,776.89 275.36,777.82 274.29,778.76 273.24,779.71 272.19,780.67 271.16,781.64 270.13,782.61 269.11,783.60 268.10,784.59"/>
<polygon fill="#9fff9f" style="stroke:#000000;  stroke-width:0.50pt;" points="292.22,764.88 256.11,710.84 257.76,709.74 259.43,708.66 261.10,707.60 262.79,706.54 264.48,705.51 266.18,704.48 267.89,703.48 269.61,702.48 271.34,701.51 273.07,700.54 274.82,699.60 276.57,698.66 278.33,697.75 280.10,696.85 281.88,695.96 283.66,695.09 285.46,694.24 287.25,693.40 289.06,692.57 290.87,691.77 292.70,690.97 294.52,690.20 295.44,689.82 320.31,749.87 320.31,749.87 319.01,750.42 317.70,750.98 316.40,751.55 315.11,752.13 313.82,752.72 312.54,753.33 311.26,753.94 309.99,754.57 308.73,755.21 307.47,755.86 306.21,756.52 304.96,757.19 303.72,757.87 302.48,758.57 301.25,759.27 300.02,759.98 298.81,760.71 297.59,761.44 296.39,762.19 295.19,762.95 294.00,763.71 292.81,764.49"/>
<polygon fill="#9fff9f" style="stroke:#000000;  stroke-width:0.50pt;" points="320.31,749.87 295.44,689.82 297.28,689.06 299.12,688.33 300.97,687.61 302.83,686.91 304.69,686.22 306.56,685.55 308.43,684.89 310.31,684.25 312.20,683.63 314.09,683.03 315.98,682.44 317.89,681.87 319.79,681.31 321.70,680.77 323.62,680.25 325.54,679.75 327.46,679.26 329.39,678.78 331.32,678.33 333.26,677.89 335.20,677.47 337.14,677.07 338.12,676.87 350.80,740.62 350.80,740.62 349.41,740.90 348.02,741.20 346.64,741.51 345.25,741.82 343.88,742.16 342.50,742.50 341.13,742.85 339.76,743.22 338.39,743.60 337.03,743.99 335.67,744.39 334.31,744.81 332.96,745.23 331.61,745.67 330.27,746.12 328.92,746.58 327.59,747.06 326.26,747.54 324.93,748.04 323.60,748.55 322.28,749.07 320.97,749.60"/>
<polygon fill="#9fff9f" style="stroke:#000000;  stroke-width:0.50pt;" points="350.80,740.62 338.12,676.87 340.07,676.49 342.02,676.13 343.97,675.78 345.93,675.46 347.89,675.15 349.85,674.85 351.82,674.58 353.79,674.32 355.76,674.08 357.73,673.85 359.71,673.64 361.68,673.45 363.66,673.28 365.64,673.12 367.62,672.99 369.60,672.86 371.58,672.76 373.57,672.67 375.55,672.60 377.54,672.55 379.52,672.52 381.51,672.50 382.50,672.50 382.50,737.50 382.50,737.50 381.08,737.50 379.66,737.52 378.25,737.55 376.83,737.60 375.41,737.65 373.99,737.72 372.58,737.80 371.16,737.89 369.75,738.00 368.34,738.12 366.92,738.25 365.51,738.39 364.10,738.54 362.70,738.71 361.29,738.89 359.88,739.08 358.48,739.28 357.08,739.50 355.68,739.73 354.28,739.97 352.89,740.22 351.49,740.48"/>
<polygon fill="#9fff9f" style="stroke:#000000;  stroke-width:0.50pt;" points="382.50,737.50 382.50,672.50 384.48,672.51 386.47,672.53 388.45,672.58 390.44,672.64 392.42,672.72 394.41,672.81 396.39,672.92 398.37,673.05 400.35,673.20 402.33,673.36 404.30,673.55 406.28,673.74 408.25,673.96 410.22,674.19 412.19,674.44 414.16,674.71 416.13,675.00 418.09,675.30 420.05,675.62 422.00,675.95 423.96,676.31 425.91,676.68 426.88,676.87 414.20,740.62 414.20,740.62 412.81,740.35 411.42,740.09 410.02,739.85 408.62,739.61 407.22,739.39 405.82,739.18 404.41,738.98 403.01,738.80 401.60,738.62 400.19,738.46 398.78,738.32 397.37,738.18 395.96,738.06 394.54,737.95 393.13,737.85 391.71,737.76 390.30,737.69 388.88,737.62 387.46,737.57 386.04,737.54 384.63,737.51 383.21,737.50"/>
<polygon fill="#9fff9f" style="stroke:#000000;  stroke-width:0.50pt;" points="414.20,740.62 426.88,676.87 428.83,677.27 430.77,677.68 432.71,678.11 434.64,678.55 436.57,679.02 438.50,679.50 440.42,680.00 442.34,680.51 444.25,681.04 446.16,681.59 448.06,682.15 449.96,682.73 451.86,683.33 453.74,683.94 455.63,684.57 457.50,685.22 459.38,685.88 461.24,686.56 463.10,687.26 464.95,687.97 466.80,688.69 468.64,689.44 469.56,689.82 444.69,749.87 444.69,749.87 443.37,749.33 442.06,748.81 440.73,748.29 439.41,747.79 438.08,747.30 436.74,746.82 435.40,746.35 434.06,745.90 432.71,745.45 431.36,745.02 430.01,744.60 428.65,744.19 427.29,743.79 425.93,743.41 424.56,743.04 423.19,742.67 421.81,742.33 420.43,741.99 419.05,741.66 417.67,741.35 416.28,741.05 414.90,740.76"/>
<polygon fill="#9fff9f" style="stroke:#000000;  stroke-width:0.50pt;" points="444.69,749.87 469.56,689.82 471.39,690.58 473.21,691.37 475.03,692.17 476.84,692.98 478.64,693.81 480.44,694.66 482.23,695.52 484.01,696.40 485.78,697.29 487.55,698.20 489.30,699.13 491.05,700.07 492.79,701.02 494.53,701.99 496.25,702.98 497.96,703.98 499.67,704.99 501.37,706.02 503.06,707.07 504.73,708.13 506.40,709.20 508.06,710.29 508.89,710.84 472.78,764.88 472.78,764.88 471.60,764.10 470.41,763.33 469.21,762.57 468.01,761.82 466.80,761.08 465.58,760.34 464.36,759.63 463.13,758.92 461.90,758.22 460.66,757.53 459.41,756.85 458.16,756.19 456.90,755.53 455.64,754.89 454.37,754.26 453.10,753.64 451.82,753.02 450.53,752.43 449.24,751.84 447.95,751.26 446.64,750.69 445.34,750.14"/>
<polygon fill="#9fff9f" style="stroke:#000000;  stroke-width:0.50pt;" points="472.78,764.88 508.89,710.84 510.54,711.95 512.17,713.07 513.80,714.21 515.42,715.37 517.02,716.53 518.62,717.71 520.20,718.91 521.78,720.12 523.34,721.34 524.90,722.57 526.44,723.82 527.97,725.09 529.49,726.36 531.00,727.65 532.50,728.95 533.99,730.27 535.46,731.60 536.93,732.94 538.38,734.29 539.82,735.66 541.25,737.04 542.66,738.43 543.37,739.13 497.40,785.09 497.40,785.09 496.40,784.10 495.38,783.11 494.36,782.13 493.32,781.15 492.28,780.19 491.23,779.24 490.17,778.29 489.11,777.36 488.03,776.43 486.95,775.52 485.86,774.61 484.76,773.71 483.66,772.82 482.54,771.95 481.42,771.08 480.29,770.22 479.16,769.37 478.01,768.53 476.86,767.70 475.71,766.89 474.54,766.08 473.37,765.28"/>
<polygon fill="#9fff9f" style="stroke:#000000;  stroke-width:0.50pt;" points="497.40,785.09 543.37,739.13 544.76,740.54 546.15,741.96 547.52,743.40 548.88,744.84 550.23,746.30 551.56,747.77 552.89,749.25 554.20,750.75 555.49,752.25 556.77,753.76 558.04,755.29 559.30,756.83 560.54,758.38 561.77,759.94 562.99,761.51 564.19,763.09 565.38,764.68 566.55,766.28 567.71,767.89 568.86,769.51 569.99,771.14 571.10,772.78 571.66,773.61 517.61,809.72 517.61,809.72 516.82,808.54 516.02,807.37 515.20,806.21 514.38,805.06 513.55,803.91 512.70,802.77 511.85,801.64 510.99,800.51 510.11,799.40 509.23,798.29 508.34,797.18 507.44,796.09 506.52,795.00 505.60,793.92 504.67,792.85 503.73,791.79 502.78,790.74 501.83,789.69 500.86,788.66 499.88,787.63 498.90,786.61 497.90,785.60"/>
<polygon fill="#9fff9f" style="stroke:#000000;  stroke-width:0.50pt;" points="517.61,809.72 571.66,773.61 572.75,775.26 573.84,776.93 574.90,778.60 575.95,780.28 576.99,781.98 578.01,783.68 579.02,785.39 580.01,787.11 580.99,788.84 581.95,790.57 582.90,792.32 583.83,794.07 584.75,795.83 585.65,797.60 586.54,799.38 587.41,801.16 588.26,802.95 589.10,804.75 589.92,806.56 590.73,808.37 591.52,810.19 592.30,812.02 592.68,812.94 532.63,837.81 532.63,837.81 532.08,836.50 531.52,835.20 530.95,833.90 530.37,832.61 529.77,831.32 529.17,830.04 528.55,828.76 527.93,827.49 527.29,826.22 526.64,824.96 525.98,823.71 525.31,822.46 524.62,821.22 523.93,819.98 523.23,818.75 522.51,817.52 521.79,816.30 521.05,815.09 520.31,813.89 519.55,812.69 518.78,811.49 518.01,810.31"/>
<polygon fill="#9fff9f" style="stroke:#000000;  stroke-width:0.50pt;" points="532.63,837.81 592.68,812.94 593.43,814.78 594.17,816.62 594.89,818.47 595.59,820.33 596.28,822.19 596.95,824.06 597.60,825.93 598.24,827.81 598.86,829.70 599.47,831.59 600.06,833.48 600.63,835.38 601.19,837.29 601.72,839.20 602.25,841.12 602.75,843.04 603.24,844.96 603.71,846.89 604.17,848.82 604.61,850.76 605.03,852.70 605.43,854.64 605.63,855.62 541.88,868.30 541.88,868.30 541.59,866.91 541.30,865.52 540.99,864.13 540.67,862.75 540.34,861.37 540.00,860.00 539.64,858.63 539.28,857.26 538.90,855.89 538.51,854.53 538.10,853.17 537.69,851.81 537.26,850.46 536.83,849.11 536.38,847.76 535.91,846.42 535.44,845.09 534.96,843.75 534.46,842.43 533.95,841.10 533.43,839.78 532.90,838.47"/>
<polygon fill="#9fff9f" style="stroke:#000000;  stroke-width:0.50pt;" points="541.88,868.30 605.63,855.62 606.01,857.56 606.37,859.52 606.71,861.47 607.04,863.43 607.35,865.39 607.64,867.35 607.92,869.32 608.18,871.29 608.42,873.26 608.65,875.23 608.85,877.21 609.04,879.18 609.22,881.16 609.37,883.14 609.51,885.12 609.63,887.10 609.74,889.08 609.82,891.07 609.89,893.05 609.94,895.04 609.98,897.02 610.00,899.01 610.00,900.00 545.00,900.00 545.00,900.00 544.99,898.58 544.97,897.16 544.94,895.74 544.90,894.33 544.84,892.91 544.78,891.49 544.70,890.08 544.60,888.66 544.50,887.25 544.38,885.84 544.25,884.42 544.11,883.01 543.95,881.60 543.79,880.19 543.61,878.79 543.42,877.38 543.21,875.98 543.00,874.58 542.77,873.18 542.53,871.78 542.28,870.38 542.01,868.99"/>
<polygon fill="#6fd7ff" style="stroke:#000000;  stroke-width:0.50pt;" points="155.00,900.00 90.00,900.00 90.01,897.45 90.04,894.89 90.10,892.34 90.18,889.79 90.28,887.24 90.40,884.69 90.55,882.14 90.71,879.59 90.90,877.05 91.11,874.51 91.35,871.96 91.41,871.33 156.10,877.70 156.10,877.70 155.91,879.68 155.74,881.65 155.59,883.63 155.45,885.61 155.34,887.60 155.24,889.58 155.16,891.56 155.09,893.55 155.04,895.53 155.01,897.52 155.00,899.50"/>
<polygon fill="#6fd7ff" style="stroke:#000000;  stroke-width:0.50pt;" points="156.10,877.70 91.41,871.33 91.67,868.79 91.95,866.25 92.26,863.72 92.59,861.19 92.94,858.66 93.31,856.13 93.70,853.61 94.12,851.09 94.56,848.58 95.01,846.07 95.50,843.56 95.62,842.93 159.37,855.62 159.37,855.62 158.99,857.56 158.63,859.52 158.29,861.47 157.96,863.43 157.65,865.39 157.35,867.35 157.08,869.32 156.82,871.29 156.58,873.26 156.35,875.23 156.14,877.21"/>
<polygon fill="#6fd7ff" style="stroke:#000000;  stroke-width:0.50pt;" points="159.37,855.62 95.62,842.93 96.13,840.43 96.66,837.94 97.21,835.44 97.79,832.96 98.38,830.48 99.00,828.00 99.64,825.53 100.30,823.06 100.98,820.60 101.69,818.15 102.41,815.70 102.59,815.09 164.80,833.96 164.80,833.96 164.23,835.86 163.68,837.77 163.14,839.68 162.62,841.60 162.12,843.52 161.64,845.44 161.17,847.37 160.72,849.31 160.29,851.24 159.87,853.18 159.47,855.13"/>
<polygon fill="#6fd7ff" style="stroke:#000000;  stroke-width:0.50pt;" points="164.80,833.96 102.59,815.09 103.35,812.65 104.12,810.22 104.91,807.79 105.73,805.37 106.56,802.96 107.42,800.56 108.30,798.16 109.20,795.77 110.12,793.39 111.06,791.02 112.02,788.65 112.27,788.06 172.32,812.94 172.32,812.94 171.57,814.78 170.83,816.62 170.11,818.47 169.41,820.33 168.72,822.19 168.05,824.06 167.39,825.93 166.76,827.81 166.13,829.70 165.53,831.59 164.94,833.48"/>
<polygon fill="#6fd7ff" style="stroke:#000000;  stroke-width:0.50pt;" points="172.32,812.94 112.27,788.06 113.25,785.71 114.26,783.36 115.29,781.03 116.34,778.70 117.40,776.38 118.49,774.07 119.60,771.77 120.73,769.49 121.88,767.21 123.05,764.94 124.24,762.68 124.54,762.11 181.86,792.76 181.86,792.76 180.93,794.51 180.02,796.27 179.12,798.04 178.24,799.82 177.38,801.61 176.52,803.40 175.69,805.20 174.87,807.01 174.07,808.83 173.28,810.65 172.51,812.48"/>
<polygon fill="#6fd7ff" style="stroke:#000000;  stroke-width:0.50pt;" points="181.86,792.76 124.54,762.11 125.75,759.87 126.98,757.63 128.24,755.41 129.51,753.20 130.80,750.99 132.11,748.80 133.44,746.62 134.78,744.46 136.15,742.30 137.54,740.16 138.94,738.03 139.29,737.49 193.34,773.61 193.34,773.61 192.24,775.26 191.16,776.93 190.10,778.60 189.04,780.28 188.01,781.98 186.98,783.68 185.98,785.39 184.98,787.11 184.01,788.84 183.04,790.57 182.10,792.32"/>
<polygon fill="#6fd7ff" style="stroke:#000000;  stroke-width:0.50pt;" points="193.34,773.61 139.29,737.49 140.72,735.38 142.17,733.27 143.63,731.18 145.11,729.11 146.61,727.04 148.13,724.99 149.67,722.95 151.22,720.93 152.79,718.91 154.38,716.92 155.99,714.93 156.39,714.44 206.64,755.67 206.64,755.67 205.39,757.21 204.15,758.77 202.92,760.33 201.71,761.90 200.51,763.48 199.33,765.08 198.16,766.68 197.00,768.29 195.86,769.92 194.73,771.55 193.62,773.19"/>
<polygon fill="#6fd7ff" style="stroke:#000000;  stroke-width:0.50pt;" points="206.64,755.67 156.39,714.44 158.02,712.47 159.67,710.52 161.33,708.58 163.01,706.66 164.70,704.75 166.42,702.86 168.14,700.98 169.89,699.12 171.65,697.27 173.43,695.44 175.22,693.62 175.67,693.17 221.63,739.13 221.63,739.13 220.24,740.54 218.85,741.96 217.48,743.40 216.12,744.84 214.77,746.30 213.43,747.77 212.11,749.25 210.80,750.75 209.51,752.25 208.22,753.76 206.95,755.29"/>
<polygon fill="#6fd7ff" style="stroke:#000000;  stroke-width:0.50pt;" points="221.63,739.13 175.67,693.17 177.48,691.37 179.31,689.59 181.16,687.83 183.02,686.08 184.89,684.35 186.78,682.63 188.68,680.93 190.60,679.25 192.54,677.58 194.48,675.93 196.45,674.30 196.94,673.89 238.18,724.14 238.18,724.14 236.65,725.40 235.13,726.68 233.62,727.98 232.13,729.28 230.64,730.60 229.17,731.93 227.71,733.28 226.26,734.63 224.82,736.00 223.40,737.39 221.98,738.78"/>
<polygon fill="#6fd7ff" style="stroke:#000000;  stroke-width:0.50pt;" points="238.18,724.14 196.94,673.89 198.92,672.28 200.91,670.69 202.92,669.11 204.94,667.55 206.98,666.01 209.03,664.49 211.09,662.99 213.16,661.50 215.25,660.03 217.35,658.58 219.47,657.15 220.00,656.79 256.11,710.84 256.11,710.84 254.46,711.95 252.83,713.07 251.20,714.21 249.58,715.37 247.98,716.53 246.38,717.71 244.80,718.91 243.22,720.12 241.66,721.34 240.10,722.57 238.56,723.82"/>
<polygon fill="#6fd7ff" style="stroke:#000000;  stroke-width:0.50pt;" points="256.11,710.84 220.00,656.79 222.12,655.38 224.26,653.99 226.42,652.62 228.58,651.27 230.76,649.94 232.95,648.62 235.15,647.33 237.36,646.05 239.58,644.79 241.81,643.56 244.05,642.34 244.62,642.04 275.26,699.36 275.26,699.36 273.51,700.31 271.77,701.26 270.04,702.24 268.32,703.23 266.61,704.23 264.90,705.25 263.21,706.28 261.52,707.33 259.85,708.39 258.18,709.47 256.52,710.56"/>
<polygon fill="#6fd7ff" style="stroke:#000000;  stroke-width:0.50pt;" points="275.26,699.36 244.62,642.04 246.87,640.84 249.14,639.67 251.42,638.52 253.70,637.38 256.00,636.27 258.31,635.17 260.62,634.10 262.95,633.05 265.28,632.01 267.62,631.00 269.98,630.01 270.56,629.76 295.44,689.82 295.44,689.82 293.61,690.58 291.78,691.37 289.97,692.17 288.16,692.98 286.35,693.81 284.56,694.66 282.77,695.52 280.99,696.40 279.22,697.29 277.45,698.20 275.69,699.13"/>
<polygon fill="#6fd7ff" style="stroke:#000000;  stroke-width:0.50pt;" points="295.44,689.82 270.56,629.76 272.93,628.80 275.30,627.85 277.68,626.93 280.06,626.02 282.46,625.14 284.86,624.28 287.27,623.43 289.69,622.61 292.11,621.81 294.54,621.04 296.98,620.28 297.59,620.09 316.46,682.29 316.46,682.29 314.56,682.88 312.67,683.48 310.78,684.10 308.90,684.73 307.03,685.38 305.16,686.05 303.29,686.73 301.43,687.43 299.58,688.15 297.74,688.88 295.90,689.63"/>
<polygon fill="#6fd7ff" style="stroke:#000000;  stroke-width:0.50pt;" points="316.46,682.29 297.59,620.09 300.04,619.36 302.49,618.65 304.95,617.97 307.41,617.30 309.88,616.66 312.36,616.03 314.84,615.43 317.32,614.85 319.81,614.29 322.31,613.76 324.81,613.24 325.44,613.12 338.12,676.87 338.12,676.87 336.17,677.27 334.23,677.68 332.29,678.11 330.36,678.55 328.43,679.02 326.50,679.50 324.58,680.00 322.66,680.51 320.75,681.04 318.84,681.59 316.93,682.15"/>
<polygon fill="#6fd7ff" style="stroke:#000000;  stroke-width:0.50pt;" points="338.12,676.87 325.44,613.12 327.94,612.63 330.45,612.17 332.96,611.72 335.48,611.30 338.00,610.90 340.53,610.53 343.06,610.17 345.59,609.84 348.12,609.53 350.66,609.24 353.19,608.97 353.83,608.91 360.20,673.59 360.20,673.59 358.23,673.80 356.25,674.02 354.28,674.26 352.31,674.51 350.35,674.78 348.38,675.07 346.42,675.38 344.46,675.70 342.51,676.04 340.55,676.40 338.60,676.77"/>
<polygon fill="#6fd7ff" style="stroke:#000000;  stroke-width:0.50pt;" points="360.20,673.59 353.83,608.91 356.37,608.67 358.91,608.45 361.46,608.26 364.01,608.08 366.55,607.93 369.10,607.81 371.65,607.70 374.20,607.62 376.76,607.56 379.31,607.52 381.86,607.50 382.50,607.50 382.50,672.50 382.50,672.50 380.51,672.51 378.53,672.53 376.54,672.58 374.56,672.64 372.58,672.72 370.59,672.81 368.61,672.92 366.63,673.05 364.65,673.20 362.67,673.36 360.69,673.55"/>
<polygon fill="#6fd7ff" style="stroke:#000000;  stroke-width:0.50pt;" points="382.50,672.50 382.50,607.50 385.05,607.51 387.60,607.54 390.16,607.60 392.71,607.68 395.26,607.78 397.81,607.90 400.36,608.04 402.90,608.21 405.45,608.40 407.99,608.61 410.53,608.85 411.17,608.91 404.80,673.59 404.80,673.59 402.82,673.41 400.84,673.24 398.86,673.09 396.88,672.95 394.90,672.84 392.92,672.74 390.93,672.66 388.95,672.59 386.97,672.54 384.98,672.51 383.00,672.50"/>
<polygon fill="#6fd7ff" style="stroke:#000000;  stroke-width:0.50pt;" points="404.80,673.59 411.17,608.91 413.71,609.17 416.25,609.45 418.78,609.76 421.31,610.09 423.84,610.43 426.36,610.81 428.89,611.20 431.40,611.62 433.92,612.05 436.43,612.51 438.94,613.00 439.56,613.12 426.88,676.87 426.88,676.87 424.93,676.49 422.98,676.13 421.03,675.78 419.07,675.46 417.11,675.15 415.14,674.85 413.18,674.58 411.21,674.32 409.24,674.08 407.27,673.85 405.29,673.64"/>
<polygon fill="#6fd7ff" style="stroke:#000000;  stroke-width:0.50pt;" points="426.88,676.87 439.56,613.12 442.06,613.63 444.56,614.16 447.05,614.71 449.54,615.29 452.02,615.88 454.50,616.50 456.97,617.14 459.44,617.80 461.90,618.48 464.35,619.18 466.80,619.91 467.41,620.09 448.54,682.29 448.54,682.29 446.64,681.73 444.73,681.18 442.82,680.64 440.90,680.12 438.98,679.62 437.05,679.14 435.13,678.67 433.19,678.22 431.25,677.78 429.31,677.37 427.37,676.97"/>
<polygon fill="#6fd7ff" style="stroke:#000000;  stroke-width:0.50pt;" points="448.54,682.29 467.41,620.09 469.85,620.85 472.28,621.62 474.71,622.41 477.12,623.23 479.54,624.06 481.94,624.92 484.34,625.80 486.73,626.70 489.11,627.62 491.48,628.56 493.84,629.52 494.43,629.76 469.56,689.82 469.56,689.82 467.72,689.06 465.88,688.33 464.03,687.61 462.17,686.91 460.31,686.22 458.44,685.55 456.57,684.89 454.69,684.25 452.80,683.63 450.91,683.03 449.01,682.44"/>
<polygon fill="#6fd7ff" style="stroke:#000000;  stroke-width:0.50pt;" points="469.56,689.82 494.43,629.76 496.79,630.75 499.13,631.76 501.47,632.79 503.80,633.84 506.11,634.90 508.42,635.99 510.72,637.10 513.01,638.23 515.29,639.38 517.56,640.55 519.82,641.74 520.38,642.04 489.74,699.36 489.74,699.36 487.99,698.43 486.22,697.52 484.45,696.62 482.67,695.74 480.89,694.87 479.09,694.02 477.29,693.19 475.48,692.37 473.67,691.57 471.85,690.78 470.02,690.01"/>
<polygon fill="#6fd7ff" style="stroke:#000000;  stroke-width:0.50pt;" points="489.74,699.36 520.38,642.04 522.63,643.25 524.86,644.48 527.09,645.73 529.30,647.01 531.50,648.30 533.69,649.61 535.87,650.94 538.04,652.28 540.20,653.65 542.34,655.04 544.47,656.44 545.00,656.79 508.89,710.84 508.89,710.84 507.24,709.74 505.57,708.66 503.90,707.60 502.21,706.54 500.52,705.51 498.82,704.48 497.11,703.48 495.39,702.48 493.66,701.51 491.92,700.54 490.18,699.60"/>
<polygon fill="#6fd7ff" style="stroke:#000000;  stroke-width:0.50pt;" points="508.89,710.84 545.00,656.79 547.12,658.22 549.22,659.67 551.31,661.13 553.39,662.61 555.46,664.11 557.51,665.63 559.55,667.17 561.57,668.72 563.58,670.29 565.58,671.88 567.57,673.49 568.06,673.89 526.82,724.14 526.82,724.14 525.28,722.89 523.73,721.65 522.17,720.42 520.60,719.21 519.02,718.01 517.42,716.83 515.82,715.66 514.20,714.50 512.58,713.36 510.95,712.23 509.30,711.12"/>
<polygon fill="#6fd7ff" style="stroke:#000000;  stroke-width:0.50pt;" points="526.82,724.14 568.06,673.89 570.02,675.52 571.98,677.17 573.91,678.83 575.84,680.51 577.74,682.20 579.64,683.91 581.52,685.64 583.38,687.39 585.23,689.15 587.06,690.93 588.88,692.72 589.33,693.17 543.37,739.13 543.37,739.13 541.96,737.73 540.53,736.35 539.10,734.98 537.65,733.62 536.20,732.27 534.73,730.93 533.24,729.61 531.75,728.30 530.25,727.01 528.73,725.72 527.21,724.45"/>
<polygon fill="#6fd7ff" style="stroke:#000000;  stroke-width:0.50pt;" points="543.37,739.13 589.33,693.17 591.12,694.98 592.91,696.81 594.67,698.65 596.42,700.51 598.15,702.39 599.87,704.28 601.57,706.18 603.25,708.10 604.92,710.04 606.57,711.98 608.20,713.95 608.60,714.44 558.36,755.67 558.36,755.67 557.09,754.14 555.81,752.63 554.52,751.12 553.21,749.62 551.90,748.14 550.56,746.67 549.22,745.21 547.86,743.76 546.49,742.32 545.11,740.90 543.72,739.48"/>
<polygon fill="#6fd7ff" style="stroke:#000000;  stroke-width:0.50pt;" points="558.36,755.67 608.60,714.44 610.22,716.42 611.81,718.41 613.38,720.42 614.94,722.44 616.48,724.48 618.01,726.53 619.51,728.59 621.00,730.66 622.47,732.75 623.92,734.85 625.35,736.96 625.70,737.49 571.66,773.61 571.66,773.61 570.55,771.96 569.42,770.32 568.28,768.70 567.13,767.08 565.97,765.48 564.78,763.88 563.59,762.29 562.38,760.72 561.16,759.15 559.92,757.60 558.67,756.06"/>
<polygon fill="#6fd7ff" style="stroke:#000000;  stroke-width:0.50pt;" points="571.66,773.61 625.70,737.49 627.11,739.62 628.50,741.76 629.87,743.92 631.23,746.08 632.56,748.26 633.88,750.45 635.17,752.64 636.45,754.86 637.70,757.08 638.94,759.31 640.16,761.55 640.46,762.11 583.14,792.76 583.14,792.76 582.19,791.01 581.23,789.27 580.26,787.54 579.27,785.82 578.27,784.11 577.25,782.40 576.21,780.71 575.17,779.02 574.10,777.34 573.03,775.68 571.93,774.02"/>
<polygon fill="#6fd7ff" style="stroke:#000000;  stroke-width:0.50pt;" points="583.14,792.76 640.46,762.11 641.65,764.37 642.83,766.64 643.98,768.91 645.12,771.20 646.23,773.50 647.32,775.80 648.40,778.12 649.45,780.45 650.48,782.78 651.50,785.12 652.49,787.47 652.73,788.06 592.68,812.94 592.68,812.94 591.91,811.11 591.13,809.28 590.33,807.47 589.52,805.66 588.68,803.85 587.84,802.06 586.97,800.27 586.10,798.49 585.20,796.72 584.29,794.95 583.37,793.19"/>
<polygon fill="#6fd7ff" style="stroke:#000000;  stroke-width:0.50pt;" points="592.68,812.94 652.73,788.06 653.70,790.43 654.65,792.80 655.57,795.18 656.48,797.56 657.36,799.96 658.22,802.36 659.06,804.77 659.88,807.19 660.68,809.61 661.46,812.04 662.22,814.48 662.40,815.09 600.20,833.96 600.20,833.96 599.62,832.06 599.02,830.17 598.40,828.28 597.77,826.40 597.11,824.53 596.45,822.66 595.77,820.79 595.07,818.93 594.35,817.08 593.62,815.24 592.87,813.40"/>
<polygon fill="#6fd7ff" style="stroke:#000000;  stroke-width:0.50pt;" points="600.20,833.96 662.40,815.09 663.13,817.54 663.84,819.99 664.53,822.45 665.20,824.91 665.84,827.38 666.46,829.86 667.07,832.34 667.64,834.82 668.20,837.31 668.74,839.81 669.25,842.31 669.38,842.93 605.63,855.62 605.63,855.62 605.23,853.67 604.82,851.73 604.39,849.79 603.94,847.86 603.48,845.92 603.00,844.00 602.50,842.08 601.99,840.16 601.46,838.25 600.91,836.34 600.35,834.43"/>
<polygon fill="#6fd7ff" style="stroke:#000000;  stroke-width:0.50pt;" points="605.63,855.62 669.38,842.93 669.87,845.44 670.33,847.95 670.77,850.46 671.20,852.98 671.59,855.50 671.97,858.03 672.33,860.55 672.66,863.09 672.97,865.62 673.26,868.15 673.53,870.69 673.59,871.33 608.90,877.70 608.90,877.70 608.70,875.72 608.48,873.75 608.24,871.78 607.99,869.81 607.72,867.84 607.43,865.88 607.12,863.92 606.80,861.96 606.46,860.00 606.10,858.05 605.72,856.10"/>
<polygon fill="#6fd7ff" style="stroke:#000000;  stroke-width:0.50pt;" points="608.90,877.70 673.59,871.33 673.83,873.87 674.05,876.41 674.24,878.96 674.41,881.50 674.56,884.05 674.69,886.60 674.80,889.15 674.88,891.70 674.94,894.26 674.98,896.81 675.00,899.36 675.00,900.00 610.00,900.00 610.00,900.00 609.99,898.01 609.96,896.03 609.92,894.04 609.86,892.06 609.78,890.07 609.69,888.09 609.57,886.11 609.44,884.13 609.30,882.15 609.13,880.17 608.95,878.19"/>
<text x="5.22cm" y="3.30cm" style="fill:#000000;font-weight:bold;font-size:18pt; font-family:sans-serif;">6 Generation Fan Chart for Rita Marie Garner</text>
<text x="365.86" y="874.75" transform="rotate(0 382.53 883.75)" style="fill:#000000; font-size:6pt; font-family:sans-serif;"><tspan x="365.86" dy="6">Rita Marie</tspan><tspan x="370.19" dy="6">Garner</tspan><tspan x="370.85" dy="6">* 1952</tspan></text>
<text x="323.77" y="854.97" transform="rotate(-45 348.08 865.47)" style="fill:#000000; font-size:7pt; font-family:sans-serif;"><tspan x="323.77" dy="7">Howard Lane</tspan><tspan x="333.69" dy="7">Garner</tspan><tspan x="334.46" dy="7">* 1928</tspan></text>
<text x="396.60" y="855.08" transform="rotate(45 417.03 865.58)" style="fill:#000000; font-size:7pt; font-family:sans-serif;"><tspan x="396.60" dy="7">Mary Anne</tspan><tspan x="404.58" dy="7">Marn</tspan><tspan x="403.41" dy="7">* 1927</tspan></text>
<text x="287.33" y="861.29" transform="rotate(-67 307.48 868.79)" style="fill:#000000; font-size:5pt; font-family:sans-serif;"><tspan x="287.33" dy="5">Eugene Stanley</tspan><tspan x="297.20" dy="5">Garner</tspan><tspan x="291.64" dy="5">1895 - 1984</tspan></text>
<text x="324.02" y="817.38" transform="rotate(-22 351.53 824.88)" style="fill:#000000; font-size:5pt; font-family:sans-serif;"><tspan x="324.02" dy="5">Frances Lucille (Babe)</tspan><tspan x="343.05" dy="5">Reed</tspan><tspan x="335.68" dy="5">1902 - 1988</tspan></text>
<text x="393.85" y="817.48" transform="rotate(22 413.71 824.98)" style="fill:#000000; font-size:5pt; font-family:sans-serif;"><tspan x="393.85" dy="5">Walter Matthew</tspan><tspan x="404.82" dy="5">Marn</tspan><tspan x="397.87" dy="5">1893 - 1969</tspan></text>
<text x="441.36" y="861.53" transform="rotate(67 457.61 869.03)" style="fill:#000000; font-size:5pt; font-family:sans-serif;"><tspan x="441.36" dy="5">Mary Cecilia</tspan><tspan x="445.80" dy="5">Boucher</tspan><tspan x="441.77" dy="5">1890 - 1945</tspan></text>
<text x="235.26" y="868.43" transform="rotate(371 255.04 874.43)" style="fill:#000000; font-size:4pt; font-family:sans-serif;"><tspan x="238.81" dy="4">Lewis Anderson</tspan><tspan x="235.26" dy="4">Garner von Zieliski</tspan><tspan x="242.36" dy="4">1855 - 1911</tspan></text>
<text x="259.18" y="821.60" transform="rotate(393 274.52 827.60)" style="fill:#000000; font-size:4pt; font-family:sans-serif;"><tspan x="259.18" dy="4">Luella Jacques</tspan><tspan x="266.97" dy="4">Martel</tspan><tspan x="261.85" dy="4">1852 - 1921</tspan></text>
<text x="294.67" y="785.79" transform="rotate(416 310.45 791.79)" style="fill:#000000; font-size:4pt; font-family:sans-serif;"><tspan x="294.67" dy="4">Francis Vincent</tspan><tspan x="303.67" dy="4">Reed</tspan><tspan x="297.77" dy="4">1857 - 1945</tspan></text>
<text x="339.45" y="766.46" transform="rotate(438 357.34 772.46)" style="fill:#000000; font-size:4pt; font-family:sans-serif;"><tspan x="339.45" dy="4">Catherine Virginia</tspan><tspan x="347.56" dy="4"></tspan><tspan x="344.67" dy="4">1864 - 1903</tspan></text>
<text x="392.51" y="766.54" transform="rotate(281 408.06 772.54)" style="fill:#000000; font-size:4pt; font-family:sans-serif;"><tspan x="392.51" dy="4">Moses Wallace</tspan><tspan x="400.95" dy="4">Marn</tspan><tspan x="395.39" dy="4">1862 - 1909</tspan></text>
<text x="431.22" y="786.02" transform="rotate(303 454.90 792.02)" style="fill:#000000; font-size:4pt; font-family:sans-serif;"><tspan x="431.22" dy="4">Eleanor (Nellie) Therese</tspan><tspan x="446.78" dy="4">Landry</tspan><tspan x="442.22" dy="4">1864 - 1935</tspan></text>
<text x="474.59" y="821.95" transform="rotate(326 490.71 827.95)" style="fill:#000000; font-size:4pt; font-family:sans-serif;"><tspan x="474.59" dy="4">William Bernard</tspan><tspan x="481.26" dy="4">Boucher</tspan><tspan x="478.03" dy="4">1854 - 1928</tspan></text>
<text x="497.37" y="868.84" transform="rotate(348 510.04 874.84)" style="fill:#000000; font-size:4pt; font-family:sans-serif;"><tspan x="503.04" dy="4">Maria</tspan><tspan x="501.26" dy="4">Reeves</tspan><tspan x="497.37" dy="4">1856 - 1929</tspan></text>
<text x="175.80" y="874.57" transform="rotate(365 188.47 880.57)" style="fill:#000000; font-size:4pt; font-family:sans-serif;"><tspan x="177.47" dy="4">Robert W.</tspan><tspan x="180.25" dy="4">Garner</tspan><tspan x="175.80" dy="4">1827 - 1916</tspan></text>
<text x="181.65" y="837.09" transform="rotate(376 195.99 843.09)" style="fill:#000000; font-size:4pt; font-family:sans-serif;"><tspan x="181.65" dy="4">Phoebe Emily</tspan><tspan x="186.77" dy="4">Zieliski</tspan><tspan x="183.31" dy="4">1827 - 1882</tspan></text>
<text x="198.00" y="801.80" transform="rotate(388 210.67 807.80)" style="fill:#000000; font-size:4pt; font-family:sans-serif;"><tspan x="203.34" dy="4">Henry</tspan><tspan x="203.12" dy="4">Martel</tspan><tspan x="198.00" dy="4">1805 - 1902</tspan></text>
<text x="221.62" y="770.05" transform="rotate(399 231.96 776.05)" style="fill:#000000; font-size:4pt; font-family:sans-serif;"><tspan x="221.62" dy="4">Ruth Ann</tspan><tspan x="223.96" dy="4">Hbert</tspan><tspan x="222.62" dy="4">0 - 1843</tspan></text>
<text x="249.70" y="743.06" transform="rotate(410 259.03 749.06)" style="fill:#000000; font-size:4pt; font-family:sans-serif;"><tspan x="252.70" dy="4">John</tspan><tspan x="252.25" dy="4">Reed</tspan><tspan x="249.70" dy="4">0 - 1886</tspan></text>
<text x="280.96" y="721.88" transform="rotate(421 290.85 727.88)" style="fill:#000000; font-size:4pt; font-family:sans-serif;"><tspan x="283.52" dy="4">Sarah</tspan><tspan x="280.96" dy="4">Goodwin</tspan><tspan x="284.85" dy="4">0 - 0</tspan></text>
<text x="313.52" y="707.30" transform="rotate(433 326.19 713.30)" style="fill:#000000; font-size:4pt; font-family:sans-serif;"><tspan x="318.30" dy="4">Moses</tspan><tspan x="316.41" dy="4"></tspan><tspan x="313.52" dy="4">1827 - 1872</tspan></text>
<text x="351.02" y="699.91" transform="rotate(444 363.70 705.91)" style="fill:#000000; font-size:4pt; font-family:sans-serif;"><tspan x="355.36" dy="4">Bridget</tspan><tspan x="358.14" dy="4">Holt</tspan><tspan x="351.02" dy="4">1829 - 1904</tspan></text>
<text x="380.59" y="699.97" transform="rotate(275 401.92 705.97)" style="fill:#000000; font-size:4pt; font-family:sans-serif;"><tspan x="380.59" dy="4">Alfred Franklin(Frank)</tspan><tspan x="394.81" dy="4">Marn</tspan><tspan x="392.59" dy="4">0 - 1864</tspan></text>
<text x="415.31" y="707.49" transform="rotate(286 439.40 713.49)" style="fill:#000000; font-size:4pt; font-family:sans-serif;"><tspan x="415.31" dy="4">Martha Frances "Fannie"</tspan><tspan x="432.51" dy="4">Floyd</tspan><tspan x="426.73" dy="4">1843 - 1913</tspan></text>
<text x="462.02" y="722.17" transform="rotate(298 474.70 728.17)" style="fill:#000000; font-size:4pt; font-family:sans-serif;"><tspan x="465.47" dy="4">Thomas</tspan><tspan x="463.14" dy="4">Fernandez</tspan><tspan x="462.02" dy="4">1825 - 1902</tspan></text>
<text x="493.77" y="743.46" transform="rotate(309 506.45 749.46)" style="fill:#000000; font-size:4pt; font-family:sans-serif;"><tspan x="495.78" dy="4">Catherine</tspan><tspan x="498.33" dy="4">Ortega</tspan><tspan x="493.77" dy="4">1843 - 1876</tspan></text>
<text x="520.76" y="770.53" transform="rotate(320 533.43 776.53)" style="fill:#000000; font-size:4pt; font-family:sans-serif;"><tspan x="524.54" dy="4">Michael</tspan><tspan x="523.99" dy="4">Boucher</tspan><tspan x="520.76" dy="4">1820 - 1859</tspan></text>
<text x="541.95" y="802.35" transform="rotate(331 554.62 808.35)" style="fill:#000000; font-size:4pt; font-family:sans-serif;"><tspan x="546.06" dy="4">Honora</tspan><tspan x="545.17" dy="4">Boucher</tspan><tspan x="541.95" dy="4">1824 - 1895</tspan></text>
<text x="556.52" y="837.69" transform="rotate(343 569.19 843.69)" style="fill:#000000; font-size:4pt; font-family:sans-serif;"><tspan x="561.30" dy="4">James</tspan><tspan x="560.41" dy="4">Reeves</tspan><tspan x="556.52" dy="4">1819 - 1897</tspan></text>
<text x="563.92" y="875.20" transform="rotate(354 576.59 881.20)" style="fill:#000000; font-size:4pt; font-family:sans-serif;"><tspan x="565.92" dy="4">Catherine</tspan><tspan x="569.03" dy="4">Meyer</tspan><tspan x="563.92" dy="4">1825 - 1911</tspan></text>
<text x="108.83" y="877.83" transform="rotate(362 122.83 886.83)" style="fill:#000000; font-size:6pt; font-family:sans-serif;"><tspan x="110.16" dy="6">Joseph</tspan><tspan x="110.50" dy="6">Garner</tspan><tspan x="108.83" dy="6">1792 - 0</tspan></text>
<text x="106.36" y="852.44" transform="rotate(368 125.38 861.44)" style="fill:#000000; font-size:6pt; font-family:sans-serif;"><tspan x="116.04" dy="6">Lucy</tspan><tspan x="110.71" dy="6">Edwards</tspan><tspan x="106.36" dy="6">1799 - 1879</tspan></text>
<text x="111.38" y="827.42" transform="rotate(374 130.39 836.42)" style="fill:#000000; font-size:6pt; font-family:sans-serif;"><tspan x="117.39" dy="6">George</tspan><tspan x="114.05" dy="6"></tspan><tspan x="111.38" dy="6">1784 - 1864</tspan></text>
<text x="124.50" y="803.02" transform="rotate(379 137.84 812.02)" style="fill:#000000; font-size:6pt; font-family:sans-serif;"><tspan x="124.50" dy="6">Phoebe</tspan><tspan x="124.84" dy="6">Daniels</tspan><tspan x="131.17" dy="6">* 0</tspan></text>
<text x="280.62" y="646.06" transform="rotate(430 295.30 655.06)" style="fill:#000000; font-size:6pt; font-family:sans-serif;"><tspan x="283.63" dy="6">Miles?</tspan><tspan x="280.62" dy="6"></tspan><tspan x="286.30" dy="6">0 - 0</tspan></text>
<text x="301.89" y="638.69" transform="rotate(435 319.73 647.69)" style="fill:#000000; font-size:6pt; font-family:sans-serif;"><tspan x="301.89" dy="6">Anastasia?</tspan><tspan x="309.06" dy="6">Smith</tspan><tspan x="310.73" dy="6">0 - 0</tspan></text>
<text x="332.76" y="633.75" transform="rotate(441 344.76 642.75)" style="fill:#000000; font-size:6pt; font-family:sans-serif;"><tspan x="335.26" dy="6">John</tspan><tspan x="332.76" dy="6">Howell</tspan><tspan x="335.76" dy="6">0 - 0</tspan></text>
<text x="359.15" y="631.29" transform="rotate(447 370.16 640.29)" style="fill:#000000; font-size:6pt; font-family:sans-serif;"><tspan x="359.15" dy="6">Sarah</tspan><tspan x="359.49" dy="6">Yates</tspan><tspan x="361.15" dy="6">0 - 0</tspan></text>
<text x="381.67" y="631.33" transform="rotate(272 395.67 640.33)" style="fill:#000000; font-size:6pt; font-family:sans-serif;"><tspan x="386.17" dy="6">John</tspan><tspan x="382.84" dy="6">Schultz</tspan><tspan x="381.67" dy="6">0 - 1860</tspan></text>
<text x="398.55" y="633.87" transform="rotate(278 421.06 642.87)" style="fill:#000000; font-size:6pt; font-family:sans-serif;"><tspan x="398.55" dy="6">Jane Coppage</tspan><tspan x="409.56" dy="6">Payne</tspan><tspan x="407.05" dy="6">0 - 1873</tspan></text>
<text x="427.07" y="638.89" transform="rotate(284 446.08 647.89)" style="fill:#000000; font-size:6pt; font-family:sans-serif;"><tspan x="432.90" dy="6">John S.</tspan><tspan x="435.74" dy="6">Floyd</tspan><tspan x="427.07" dy="6">1802 - 1893</tspan></text>
<text x="455.48" y="646.34" transform="rotate(289 470.48 655.34)" style="fill:#000000; font-size:6pt; font-family:sans-serif;"><tspan x="460.82" dy="6">Mary</tspan><tspan x="455.48" dy="6">Coleman</tspan><tspan x="456.47" dy="6">1812 - 0</tspan></text>
<text x="476.70" y="656.14" transform="rotate(295 494.04 665.14)" style="fill:#000000; font-size:6pt; font-family:sans-serif;"><tspan x="480.20" dy="6">Thomas</tspan><tspan x="476.70" dy="6">Fernandez</tspan><tspan x="480.03" dy="6">1787 - 0</tspan></text>
<text x="501.35" y="668.20" transform="rotate(300 516.52 677.20)" style="fill:#000000; font-size:6pt; font-family:sans-serif;"><tspan x="505.52" dy="6">Sarah</tspan><tspan x="501.35" dy="6">Holloway</tspan><tspan x="502.52" dy="6">1795 - 0</tspan></text>
<text x="561.25" y="716.70" transform="rotate(317 575.43 725.70)" style="fill:#000000; font-size:6pt; font-family:sans-serif;"><tspan x="564.76" dy="6">David</tspan><tspan x="561.25" dy="6">Boucher</tspan><tspan x="566.42" dy="6">0 - 0</tspan></text>
<text x="576.91" y="736.45" transform="rotate(323 591.58 745.45)" style="fill:#000000; font-size:6pt; font-family:sans-serif;"><tspan x="580.08" dy="6">Nancy</tspan><tspan x="576.91" dy="6">Morrison</tspan><tspan x="582.58" dy="6">0 - 0</tspan></text>
<text x="614.27" y="803.80" transform="rotate(340 627.44 812.80)" style="fill:#000000; font-size:6pt; font-family:sans-serif;"><tspan x="617.94" dy="6">John</tspan><tspan x="614.27" dy="6">Reeves</tspan><tspan x="618.44" dy="6">0 - 0</tspan></text>
<text x="618.97" y="828.23" transform="rotate(345 634.81 837.23)" style="fill:#000000; font-size:6pt; font-family:sans-serif;"><tspan x="625.14" dy="6">Mary</tspan><tspan x="618.97" dy="6">McCarthy</tspan><tspan x="625.80" dy="6">0 - 0</tspan></text>
<text x="628.41" y="853.26" transform="rotate(351 639.75 862.26)" style="fill:#000000; font-size:6pt; font-family:sans-serif;"><tspan x="630.91" dy="6">P.D.</tspan><tspan x="628.41" dy="6">Meyer</tspan><tspan x="630.74" dy="6">0 - 0</tspan></text>
</svg>
