<?xml version="1.0" encoding="UTF-8" standalone="no"?>
<!DOCTYPE svg PUBLIC "-//W3C//DTD SVG 1.0//EN" "http://www.w3.org/TR/2001/REC-SVG-20010904/DTD/svg10.dtd">
<svg width="21.59cm" height="27.94cm" xmlns="http://www.w3.org/2000/svg">
<rect width="21.59cm" height="27.94cm" style="fill: none;"/>
<polygon fill="#ff0000" style="stroke:#000000;  stroke-width:0.80pt;" points="382.50,364.57 382.50,142.93 383.97,142.94"/>
<polygon fill="#ff9e21" style="stroke:#000000;  stroke-width:0.80pt;" points="382.50,364.57 383.97,142.94 385.90,142.96 387.83,143.00 389.77,143.05 391.70,143.12 393.63,143.21 395.56,143.32 397.49,143.44 399.42,143.58 401.35,143.74 403.28,143.91 405.20,144.10 407.13,144.31 409.05,144.53 410.97,144.77 412.88,145.03 414.80,145.30 416.71,145.59 418.62,145.90 420.53,146.22 422.43,146.56 424.33,146.92 426.23,147.29 428.12,147.68 430.01,148.09 431.90,148.51 433.78,148.95 435.66,149.40 437.54,149.88 439.41,150.36 441.28,150.87 443.14,151.39 445.00,151.93 446.85,152.48 448.70,153.05 450.54,153.64 452.38,154.24 454.21,154.86 456.04,155.49 457.86,156.14 459.68,156.81 461.49,157.49 463.29,158.18 465.09,158.90 466.88,159.63 468.67,160.37 470.45,161.13 472.22,161.90 473.98,162.70 475.74,163.50 477.49,164.32 479.24,165.16 480.97,166.01 482.70,166.88 484.42,167.76 486.14,168.66 487.84,169.57 489.54,170.50 491.23,171.44 492.91,172.39 494.58,173.36 496.25,174.35 497.90,175.35 499.55,176.36 501.19,177.39 502.82,178.43 504.44,179.49 506.05,180.56 507.65,181.65 509.24,182.75 510.82,183.86 512.39,184.99 513.96,186.13 515.51,187.28 517.05,188.45 518.58,189.63 520.10,190.82 521.61,192.03 523.11,193.25 524.60,194.49 526.08,195.73 527.55,196.99 529.01,198.26 530.45,199.55 531.89,200.85 533.31,202.16 534.72,203.48 536.12,204.81 537.51,206.16 538.89,207.52 540.25,208.89 541.60,210.27 542.94,211.67 544.27,213.07 545.59,214.49 546.89,215.92 548.18,217.36 549.46,218.81 550.73,220.27 551.98,221.75 553.22,223.23 554.45,224.73 555.66,226.23 556.86,227.75 558.05,229.27 559.22,230.81 560.38,232.36 561.53,233.92 562.66,235.48 563.78,237.06 564.89,238.65 565.98,240.24 567.06,241.85 568.12,243.46 569.17,245.09 570.21,246.72 571.23,248.37 572.24,250.02 573.23,251.68 574.21,253.35 575.17,255.02 576.12,256.71 577.05,258.40 577.97,260.10 578.87,261.81 579.76,263.53 580.64,265.26 581.50,266.99 582.34,268.73 583.17,270.48 583.98,272.23 584.78,273.99 585.56,275.76 586.33,277.54 587.08,279.32 587.82,281.11 588.54,282.90 589.24,284.70 589.93,286.51 590.61,288.32 591.26,290.14 591.91,291.97 592.53,293.80 593.14,295.63 593.73,297.47 594.31,299.32 594.87,301.17 595.42,303.03 595.95,304.89 596.46,306.75 596.96,308.62 597.44,310.50 597.90,312.37 598.35,314.25 598.78,316.14 599.19,318.03 599.59,319.92 599.97,321.82 600.34,323.72 600.68,325.62 601.02,327.53 601.33,329.43 601.63,331.35 601.91,333.26 602.18,335.17 602.42,337.09 602.65,339.01 602.87,340.94 603.07,342.86 603.25,344.78 603.41,346.71 603.56,348.64 603.69,350.57 603.80,352.50 603.90,354.43 603.98,356.36 604.04,358.30 604.09,360.23 604.12,362.17 604.13,364.10 604.13,366.03 604.11,367.97 604.07,369.90 604.01,371.83 603.94,373.77 603.85,375.70 603.75,377.63 603.62,379.56 603.49,381.49 603.33,383.42 603.16,385.34 602.97,387.27 602.76,389.19 602.54,391.11 602.30,393.03 602.04,394.95 601.77,396.86 601.48,398.78 601.17,400.69 600.85,402.59 600.51,404.50 600.15,406.40 599.78,408.30 599.39,410.19 598.98,412.08 598.56,413.97 598.12,415.85 597.66,417.73 597.19,419.61 596.70,421.48 596.20,423.35 595.68,425.21 595.14,427.07 594.58,428.92 594.01,430.77 593.43,432.61 592.83,434.45 592.21,436.28 591.58,438.11 590.93,439.93 590.26,441.75 589.58,443.56 588.88,445.36 588.17,447.16 587.44,448.95 586.70,450.74 585.94,452.51 585.16,454.29 584.37,456.05 583.56,457.81 582.74,459.56 581.91,461.30 581.05,463.04 580.19,464.77 579.31,466.49 578.41,468.20 577.50,469.91 576.57,471.61 575.63,473.30 574.67,474.98 573.70,476.65 572.72,478.32 571.72,479.97 570.70,481.62 569.67,483.26 568.63,484.88 567.57,486.50 566.50,488.11 565.42,489.72 564.32,491.31 563.21,492.89 562.08,494.46 560.94,496.02 559.78,497.58 558.62,499.12 557.44,500.65 556.24,502.17 555.03,503.68 553.81,505.18 552.58,506.67 551.33,508.15 550.07,509.62 548.80,511.08 547.52,512.52 546.22,513.96 544.91,515.38 543.59,516.79 542.25,518.19 540.91,519.58 539.55,520.95 538.18,522.32 536.79,523.67 535.40,525.01 533.99,526.34 532.58,527.66 531.15,528.96 529.71,530.25 528.26,531.53 526.79,532.79 525.32,534.05 523.84,535.29 522.34,536.51 520.83,537.73 519.32,538.93 517.79,540.12 516.25,541.29 514.71,542.45 513.15,543.60 511.58,544.73 510.00,545.85 508.42,546.96 506.82,548.05 505.22,549.13 503.60,550.19 501.98,551.24 500.34,552.27 498.70,553.30 497.05,554.30 495.39,555.29 493.72,556.27 492.04,557.24 490.36,558.18 488.66,559.12 486.96,560.04 485.25,560.94 483.53,561.83 481.81,562.70 480.08,563.56 478.34,564.41 476.59,565.24 474.83,566.05 473.07,566.85 471.30,567.63 469.53,568.40 467.75,569.15 465.96,569.89 464.16,570.61 462.36,571.31 460.55,572.00 458.74,572.67 456.92,573.33 455.10,573.97 453.27,574.60 451.43,575.21 449.59,575.80 447.74,576.38 445.89,576.94 444.04,577.48 442.18,578.01 440.31,578.53 438.44,579.02 436.57,579.50 434.69,579.97 432.81,580.41 430.93,580.84 429.04,581.26 427.14,581.66 425.25,582.04 423.35,582.40 421.45,582.75 419.54,583.08 417.63,583.40 415.72,583.70 413.81,583.98 411.89,584.24 409.97,584.49 408.05,584.72 406.13,584.94 404.21,585.13 402.28,585.32 400.35,585.48 398.43,585.63 397.89,585.66"/>
<polygon fill="#00b200" style="stroke:#000000;  stroke-width:0.80pt;" points="382.50,364.57 397.89,585.66 395.96,585.79 394.03,585.90 392.10,585.99 390.17,586.07 388.24,586.13 386.30,586.17 384.37,586.19 382.43,586.20 380.50,586.19 378.57,586.16 376.63,586.12 374.70,586.06 372.77,585.99 370.83,585.89 368.90,585.78 366.97,585.66 365.05,585.51 363.12,585.35 361.19,585.17 359.27,584.98 357.34,584.77 355.42,584.54 353.51,584.29 351.59,584.03 349.68,583.76 347.76,583.46 345.85,583.15 343.95,582.82 342.05,582.48 340.15,582.12 338.25,581.74 336.36,581.34 334.47,580.93 332.58,580.50 330.70,580.06 328.82,579.60 326.94,579.12 325.07,578.63 323.21,578.12 321.35,577.60 319.49,577.05 317.64,576.50 315.79,575.92 313.95,575.33 312.11,574.73 310.28,574.10 308.46,573.47 306.63,572.81 304.82,572.14 303.01,571.46 301.21,570.75 299.41,570.04 297.62,569.30 295.84,568.56 294.06,567.79 292.29,567.01 290.53,566.22 288.77,565.41 287.02,564.58 285.28,563.74 283.55,562.88 281.82,562.01 280.10,561.13 278.39,560.23 276.69,559.31 274.99,558.38 273.30,557.43 271.63,556.47 269.96,555.50 268.29,554.51 266.64,553.51 265.00,552.49 263.36,551.45 261.73,550.41 260.12,549.35 258.51,548.27 256.91,547.18 255.32,546.08 253.74,544.96 252.17,543.83 250.61,542.69 249.06,541.53 247.53,540.36 246.00,539.18 244.48,537.98 242.97,536.77 241.47,535.54 239.99,534.31 238.51,533.06 237.05,531.79 235.59,530.52 234.15,529.23 232.72,527.93 231.30,526.61 229.89,525.29 228.49,523.95 227.11,522.60 225.73,521.24 224.37,519.86 223.02,518.48 221.69,517.08 220.36,515.67 219.05,514.25 217.75,512.82 216.46,511.38 215.19,509.92 213.93,508.46 212.68,506.98 211.44,505.49 210.22,503.99 209.01,502.49 207.81,500.97 206.63,499.44 205.46,497.90 204.30,496.35 203.16,494.79 202.03,493.22 200.91,491.64 199.81,490.05 198.72,488.45 197.65,486.84 196.59,485.22 195.54,483.59 194.51,481.96 193.49,480.31 192.49,478.66 191.50,477.00 190.53,475.33 189.57,473.65 188.62,471.96 187.69,470.26 186.78,468.56 185.88,466.85 184.99,465.13 184.12,463.40 183.27,461.67 182.43,459.92 181.60,458.17 180.79,456.42 180.00,454.65 179.22,452.88 178.46,451.11 177.71,449.32 176.98,447.53 176.26,445.73 175.56,443.93 174.88,442.12 174.21,440.31 173.56,438.49 172.92,436.66 172.30,434.83 171.69,432.99 171.10,431.15 170.53,429.30 169.97,427.45 169.43,425.59 168.91,423.73 168.40,421.87 167.91,420.00 167.43,418.12 166.97,416.24 166.53,414.36 166.11,412.47 165.70,410.58 165.30,408.69 164.93,406.79 164.57,404.89 164.22,402.99 163.89,401.08 163.58,399.17 163.29,397.26 163.01,395.35 162.75,393.43 162.51,391.51 162.28,389.59 162.07,387.67 161.88,385.74 161.70,383.82 161.54,381.89 161.40,379.96 161.28,378.03 161.17,376.10 161.07,374.17 161.00,372.24 160.94,370.30 160.90,368.37 160.87,366.44 160.87,364.50 160.87,362.57 160.90,360.63 160.94,358.70 161.00,356.77 161.08,354.83 161.17,352.90 161.28,350.97 161.41,349.04 161.55,347.11 161.71,345.18 161.89,343.26 162.09,341.33 162.30,339.41 162.53,337.49 162.77,335.57 163.03,333.66 163.31,331.74 163.60,329.83 163.92,327.92 164.24,326.02 164.59,324.11 164.95,322.21 165.33,320.32 165.72,318.42 166.13,316.53 166.56,314.65 167.00,312.76 167.47,310.88 167.94,309.01 168.43,307.14 168.94,305.27 169.47,303.41 170.01,301.56 170.57,299.70 171.14,297.86 171.73,296.02 172.34,294.18 172.96,292.35 173.60,290.52 174.25,288.70 174.92,286.89 175.61,285.08 176.31,283.28 177.03,281.48 177.76,279.69 178.51,277.91 179.27,276.13 180.05,274.36 180.85,272.60 181.66,270.84 182.48,269.09 183.33,267.35 184.18,265.62 185.05,263.89 185.94,262.17 186.84,260.46 187.76,258.75 188.69,257.06 189.63,255.37 190.59,253.69 191.57,252.02 192.56,250.36 193.56,248.71 194.58,247.06 195.61,245.43 196.66,243.80 197.72,242.18 198.79,240.58 199.88,238.98 200.99,237.39 202.10,235.81 203.23,234.24 204.38,232.68 205.53,231.13 206.71,229.59 207.89,228.06 209.09,226.55 210.30,225.04 211.52,223.54 212.76,222.05 214.01,220.58 215.27,219.11 216.55,217.66 217.84,216.22 219.14,214.78 220.45,213.36 221.78,211.96 223.11,210.56 224.46,209.17 225.83,207.80 227.20,206.44 228.59,205.09 229.98,203.75 231.39,202.43 232.81,201.12 234.25,199.82 235.69,198.53 237.14,197.25 238.61,195.99 240.09,194.74 241.57,193.51 243.07,192.28 244.58,191.07 246.10,189.88 247.63,188.69 249.17,187.52 250.72,186.37 252.28,185.22 253.85,184.09 255.43,182.98 257.02,181.88 258.62,180.79 260.23,179.71 261.84,178.65 263.47,177.61 265.11,176.58 266.75,175.56 268.41,174.56 270.07,173.57 271.74,172.59 273.42,171.63 275.11,170.69 276.80,169.76 278.51,168.84 280.22,167.94 281.94,167.06 283.67,166.19 285.40,165.33 287.14,164.50 288.89,163.67 290.65,162.86 292.41,162.07 294.18,161.29 295.96,160.53 297.74,159.78 299.53,159.05 301.33,158.33 303.13,157.63 304.94,156.95 306.76,156.28 308.58,155.62 310.40,154.99 312.24,154.37 314.07,153.76 315.91,153.17 317.76,152.60 319.61,152.04 321.47,151.50 323.33,150.98 325.20,150.47 327.07,149.98 328.94,149.50 330.82,149.04 332.71,148.60 334.59,148.17 336.48,147.76 338.38,147.37 340.27,146.99 342.17,146.63 344.08,146.29 345.98,145.96 347.89,145.65 349.80,145.36 351.72,145.08 353.63,144.82 355.55,144.58 357.47,144.35 359.40,144.14 361.32,143.95 363.25,143.77 365.18,143.61 367.10,143.47 369.03,143.34 370.96,143.23 372.90,143.14 374.83,143.07 376.76,143.01 378.70,142.97 380.63,142.94 382.50,142.93"/>
<rect x="4.54cm" y="19.00cm" width="0.71cm" height="0.35cm" style="fill:#ff0000; stroke:#000000; stroke-width:0.800000;"/>
<rect x="4.54cm" y="19.46cm" width="0.71cm" height="0.35cm" style="fill:#ff9e21; stroke:#000000; stroke-width:0.800000;"/>
<rect x="4.54cm" y="19.92cm" width="0.71cm" height="0.35cm" style="fill:#00b200; stroke:#000000; stroke-width:0.800000;"/>
<text x="7.57cm" y="3.13cm" style="fill:#000000;font-size:14pt; font-family:sans-serif;">Gender -- Persons born 1700-2015</text>
<text x="9.21cm" y="3.63cm" style="fill:#000000;font-size:14pt; font-family:sans-serif;">Entire Database</text>
<text x="5.60cm" y="18.88cm" style="fill:#000000;font-size:10pt; font-family:serif;">Gender (persons):</text>
<text x="5.60cm" y="19.34cm" style="fill:#000000;font-size:10pt; font-family:serif;">Gender unknown (1)</text>
<text x="5.60cm" y="19.80cm" style="fill:#000000;font-size:10pt; font-family:serif;">Women (463)</text>
<text x="5.60cm" y="20.25cm" style="fill:#000000;font-size:10pt; font-family:serif;">Men (485)</text>
</svg>
