<?xml version="1.0" encoding="UTF-8" standalone="no"?>
<!DOCTYPE svg PUBLIC "-//W3C//DTD SVG 1.0//EN" "http://www.w3.org/TR/2001/REC-SVG-20010904/DTD/svg10.dtd">
<svg width="21.59cm" height="27.94cm" xmlns="http://www.w3.org/2000/svg">
<rect width="21.59cm" height="27.94cm" style="fill: none;"/>
<line x1="9.69cm" y1="4.54cm" x2="9.69cm" y2="25.40cm" style="stroke:#000000; stroke-dasharray: 2,4; stroke-width:0.50pt;"/>
<line x1="11.46cm" y1="4.54cm" x2="11.46cm" y2="25.40cm" style="stroke:#000000; stroke-dasharray: 2,4; stroke-width:0.50pt;"/>
<line x1="13.23cm" y1="4.54cm" x2="13.23cm" y2="25.40cm" style="stroke:#000000; stroke-dasharray: 2,4; stroke-width:0.50pt;"/>
<line x1="15.00cm" y1="4.54cm" x2="15.00cm" y2="25.40cm" style="stroke:#000000; stroke-dasharray: 2,4; stroke-width:0.50pt;"/>
<line x1="16.78cm" y1="4.54cm" x2="16.78cm" y2="25.40cm" style="stroke:#000000; stroke-dasharray: 2,4; stroke-width:0.50pt;"/>
<line x1="18.55cm" y1="4.54cm" x2="18.55cm" y2="25.40cm" style="stroke:#000000; stroke-dasharray: 2,4; stroke-width:0.50pt;"/>
<polygon fill="#000000" style="stroke:#000000;  stroke-width:0.50pt;" points="480.78,226.49 482.56,232.74 480.78,238.99 479.01,232.74"/>
<polygon fill="#000000" style="stroke:#000000;  stroke-width:0.50pt;" points="634.30,357.74 636.07,363.99 634.30,370.24 632.53,363.99"/>
<polygon fill="#ffffff" style="stroke:#000000;  stroke-width:0.50pt;" points="353.93,379.62 355.70,385.87 353.93,392.12 352.16,385.87"/>
<polygon fill="#000000" style="stroke:#000000;  stroke-width:0.50pt;" points="636.75,379.62 638.52,385.87 636.75,392.12 634.98,385.87"/>
<line x1="10.04cm" y1="10.89cm" x2="17.92cm" y2="10.89cm" style="stroke:#000000; stroke-width:0.50pt;"/>
<polygon fill="#ffffff" style="stroke:#000000;  stroke-width:0.50pt;" points="353.93,401.49 355.70,407.74 353.93,413.99 352.16,407.74"/>
<polygon fill="#000000" style="stroke:#000000;  stroke-width:0.50pt;" points="634.61,401.49 636.38,407.74 634.61,413.99 632.84,407.74"/>
<line x1="10.04cm" y1="11.51cm" x2="17.86cm" y2="11.51cm" style="stroke:#000000; stroke-width:0.50pt;"/>
<polygon fill="#ffffff" style="stroke:#000000;  stroke-width:0.50pt;" points="438.19,423.36 439.96,429.61 438.19,435.86 436.42,429.61"/>
<polygon fill="#000000" style="stroke:#000000;  stroke-width:0.50pt;" points="447.69,423.36 449.46,429.61 447.69,435.86 445.92,429.61"/>
<line x1="12.42cm" y1="12.12cm" x2="12.58cm" y2="12.12cm" style="stroke:#000000; stroke-width:0.50pt;"/>
<polygon fill="#ffffff" style="stroke:#000000;  stroke-width:0.50pt;" points="470.37,445.24 472.14,451.49 470.37,457.74 468.60,451.49"/>
<polygon fill="#000000" style="stroke:#000000;  stroke-width:0.50pt;" points="481.86,445.24 483.63,451.49 481.86,457.74 480.09,451.49"/>
<line x1="13.32cm" y1="12.74cm" x2="13.55cm" y2="12.74cm" style="stroke:#000000; stroke-width:0.50pt;"/>
<polygon fill="#ffffff" style="stroke:#000000;  stroke-width:0.50pt;" points="476.19,467.11 477.96,473.36 476.19,479.61 474.42,473.36"/>
<polygon fill="#ffffff" style="stroke:#000000;  stroke-width:0.50pt;" points="477.72,488.99 479.49,495.24 477.72,501.49 475.95,495.24"/>
<polygon fill="#000000" style="stroke:#000000;  stroke-width:0.50pt;" points="489.06,488.99 490.83,495.24 489.06,501.49 487.29,495.24"/>
<line x1="13.53cm" y1="13.98cm" x2="13.75cm" y2="13.98cm" style="stroke:#000000; stroke-width:0.50pt;"/>
<polygon fill="#ffffff" style="stroke:#000000;  stroke-width:0.50pt;" points="506.22,510.86 507.99,517.11 506.22,523.36 504.45,517.11"/>
<polygon fill="#ffffff" style="stroke:#000000;  stroke-width:0.50pt;" points="506.83,532.74 508.60,538.99 506.83,545.24 505.06,538.99"/>
<polygon fill="#ffffff" style="stroke:#000000;  stroke-width:0.50pt;" points="511.73,554.61 513.50,560.86 511.73,567.11 509.96,560.86"/>
<polygon fill="#000000" style="stroke:#000000;  stroke-width:0.50pt;" points="521.23,554.61 523.00,560.86 521.23,567.11 519.46,560.86"/>
<line x1="14.49cm" y1="15.83cm" x2="14.66cm" y2="15.83cm" style="stroke:#000000; stroke-width:0.50pt;"/>
<polygon fill="#ffffff" style="stroke:#000000;  stroke-width:0.50pt;" points="511.73,576.49 513.50,582.74 511.73,588.99 509.96,582.74"/>
<polygon fill="#000000" style="stroke:#000000;  stroke-width:0.50pt;" points="522.61,576.49 524.38,582.74 522.61,588.99 520.84,582.74"/>
<line x1="14.49cm" y1="16.45cm" x2="14.70cm" y2="16.45cm" style="stroke:#000000; stroke-width:0.50pt;"/>
<polygon fill="#ffffff" style="stroke:#000000;  stroke-width:0.50pt;" points="516.33,598.36 518.10,604.61 516.33,610.86 514.56,604.61"/>
<polygon fill="#000000" style="stroke:#000000;  stroke-width:0.50pt;" points="525.83,598.36 527.60,604.61 525.83,610.86 524.06,604.61"/>
<line x1="14.62cm" y1="17.06cm" x2="14.79cm" y2="17.06cm" style="stroke:#000000; stroke-width:0.50pt;"/>
<polygon fill="#ffffff" style="stroke:#000000;  stroke-width:0.50pt;" points="516.33,620.24 518.10,626.49 516.33,632.74 514.56,626.49"/>
<polygon fill="#000000" style="stroke:#000000;  stroke-width:0.50pt;" points="529.81,620.24 531.58,626.49 529.81,632.74 528.04,626.49"/>
<line x1="14.62cm" y1="17.68cm" x2="14.90cm" y2="17.68cm" style="stroke:#000000; stroke-width:0.50pt;"/>
<polygon fill="#ffffff" style="stroke:#000000;  stroke-width:0.50pt;" points="520.93,642.11 522.70,648.36 520.93,654.61 519.15,648.36"/>
<polygon fill="#000000" style="stroke:#000000;  stroke-width:0.50pt;" points="532.42,642.11 534.19,648.36 532.42,654.61 530.64,648.36"/>
<line x1="14.75cm" y1="18.30cm" x2="14.98cm" y2="18.30cm" style="stroke:#000000; stroke-width:0.50pt;"/>
<polygon fill="#ffffff" style="stroke:#000000;  stroke-width:0.50pt;" points="520.93,663.99 522.70,670.24 520.93,676.49 519.15,670.24"/>
<polygon fill="#000000" style="stroke:#000000;  stroke-width:0.50pt;" points="533.95,663.99 535.72,670.24 533.95,676.49 532.18,670.24"/>
<line x1="14.75cm" y1="18.92cm" x2="15.02cm" y2="18.92cm" style="stroke:#000000; stroke-width:0.50pt;"/>
<polygon fill="#ffffff" style="stroke:#000000;  stroke-width:0.50pt;" points="533.49,685.86 535.26,692.11 533.49,698.36 531.72,692.11"/>
<polygon fill="#000000" style="stroke:#000000;  stroke-width:0.50pt;" points="542.68,685.86 544.45,692.11 542.68,698.36 540.91,692.11"/>
<line x1="15.11cm" y1="19.53cm" x2="15.27cm" y2="19.53cm" style="stroke:#000000; stroke-width:0.50pt;"/>
<polygon fill="#ffffff" style="stroke:#000000;  stroke-width:0.50pt;" points="534.10,707.74 535.87,713.99 534.10,720.24 532.33,713.99"/>
<polygon fill="#ffffff" style="stroke:#000000;  stroke-width:0.50pt;" points="537.78,729.61 539.55,735.86 537.78,742.11 536.01,735.86"/>
<polygon fill="#ffffff" style="stroke:#000000;  stroke-width:0.50pt;" points="537.78,751.49 539.55,757.74 537.78,763.99 536.01,757.74"/>
<polygon fill="#000000" style="stroke:#000000;  stroke-width:0.50pt;" points="549.12,751.49 550.89,757.74 549.12,763.99 547.34,757.74"/>
<line x1="15.23cm" y1="21.39cm" x2="15.45cm" y2="21.39cm" style="stroke:#000000; stroke-width:0.50pt;"/>
<polygon fill="#ffffff" style="stroke:#000000;  stroke-width:0.50pt;" points="542.38,773.36 544.15,779.61 542.38,785.86 540.60,779.61"/>
<polygon fill="#000000" style="stroke:#000000;  stroke-width:0.50pt;" points="552.49,773.36 554.26,779.61 552.49,785.86 550.72,779.61"/>
<line x1="15.36cm" y1="22.00cm" x2="15.54cm" y2="22.00cm" style="stroke:#000000; stroke-width:0.50pt;"/>
<polygon fill="#ffffff" style="stroke:#000000;  stroke-width:0.50pt;" points="542.38,795.24 544.15,801.49 542.38,807.74 540.60,801.49"/>
<polygon fill="#ffffff" style="stroke:#000000;  stroke-width:0.50pt;" points="550.04,817.11 551.81,823.36 550.04,829.61 548.26,823.36"/>
<polygon fill="#ffffff" style="stroke:#000000;  stroke-width:0.50pt;" points="550.04,838.99 551.81,845.24 550.04,851.49 548.26,845.24"/>
<polygon fill="#000000" style="stroke:#000000;  stroke-width:0.50pt;" points="556.62,838.99 558.40,845.24 556.62,851.49 554.85,845.24"/>
<line x1="15.57cm" y1="23.85cm" x2="15.66cm" y2="23.85cm" style="stroke:#000000; stroke-width:0.50pt;"/>
<polygon fill="#ffffff" style="stroke:#000000;  stroke-width:0.50pt;" points="553.87,860.86 555.64,867.11 553.87,873.36 552.09,867.11"/>
<polygon fill="#ffffff" style="stroke:#000000;  stroke-width:0.50pt;" points="553.87,882.74 555.64,888.99 553.87,895.24 552.09,888.99"/>
<polygon fill="#000000" style="stroke:#000000;  stroke-width:0.50pt;" points="560.45,882.74 562.23,888.99 560.45,895.24 558.68,888.99"/>
<line x1="15.68cm" y1="25.09cm" x2="15.77cm" y2="25.09cm" style="stroke:#000000; stroke-width:0.50pt;"/>
<text x="9.34cm" y="3.13cm" style="fill:#000000;font-size:14pt; font-family:sans-serif;">Timeline Chart</text>
<text x="7.22cm" y="3.74cm" style="fill:#000000;font-size:14pt; font-family:sans-serif;">Entire Database -- Sorted by Birth Date</text>
<text x="9.41cm" y="4.54cm" style="fill:#000000;font-size:8pt; font-family:sans-serif;">-50</text>
<text x="11.16cm" y="4.54cm" style="fill:#000000;font-size:8pt; font-family:sans-serif;">360</text>
<text x="12.94cm" y="4.54cm" style="fill:#000000;font-size:8pt; font-family:sans-serif;">770</text>
<text x="14.65cm" y="4.54cm" style="fill:#000000;font-size:8pt; font-family:sans-serif;">1180</text>
<text x="16.42cm" y="4.54cm" style="fill:#000000;font-size:8pt; font-family:sans-serif;">1590</text>
<text x="18.19cm" y="4.54cm" style="fill:#000000;font-size:8pt; font-family:sans-serif;">2000</text>
<text x="3.16cm" y="5.58cm" style="fill:#000000;font-size:10pt; font-family:sans-serif;">Черкашин, Merritt</text>
<text x="3.16cm" y="6.20cm" style="fill:#000000;font-size:10pt; font-family:sans-serif;">, القاسم</text>
<text x="3.16cm" y="6.82cm" style="fill:#000000;font-size:10pt; font-family:sans-serif;">الفضل, العباسة</text>
<text x="3.16cm" y="7.43cm" style="fill:#000000;font-size:10pt; font-family:sans-serif;">, أم كلثوم</text>
<text x="3.16cm" y="8.05cm" style="fill:#000000;font-size:10pt; font-family:sans-serif;">, ريحانة</text>
<text x="3.16cm" y="8.67cm" style="fill:#000000;font-size:10pt; font-family:sans-serif;">, عائشة</text>
<text x="3.16cm" y="9.28cm" style="fill:#000000;font-size:10pt; font-family:sans-serif;">, عبد الله</text>
<text x="3.16cm" y="9.90cm" style="fill:#000000;font-size:10pt; font-family:sans-serif;">, خديجة</text>
<text x="3.16cm" y="10.52cm" style="fill:#000000;font-size:10pt; font-family:sans-serif;">บุญ, Foon</text>
<text x="3.16cm" y="11.14cm" style="fill:#000000;font-size:10pt; font-family:sans-serif;">Blanco, Rufus</text>
<text x="3.16cm" y="11.75cm" style="fill:#000000;font-size:10pt; font-family:sans-serif;">Morris, Cyrus</text>
<text x="3.16cm" y="12.37cm" style="fill:#000000;font-size:10pt; font-family:sans-serif;">, محمد</text>
<text x="3.16cm" y="12.99cm" style="fill:#000000;font-size:10pt; font-family:sans-serif;">, أحمد</text>
<text x="3.16cm" y="13.61cm" style="fill:#000000;font-size:10pt; font-family:sans-serif;">, صالح</text>
<text x="3.16cm" y="14.22cm" style="fill:#000000;font-size:10pt; font-family:sans-serif;">, عبد الله</text>
<text x="3.16cm" y="14.84cm" style="fill:#000000;font-size:10pt; font-family:sans-serif;">Смирнов, Eudo</text>
<text x="3.16cm" y="15.46cm" style="fill:#000000;font-size:10pt; font-family:sans-serif;">Rios, Agnes</text>
<text x="3.16cm" y="16.08cm" style="fill:#000000;font-size:10pt; font-family:sans-serif;">Gray, Beatrix</text>
<text x="3.16cm" y="16.69cm" style="fill:#000000;font-size:10pt; font-family:sans-serif;">Смирнов, Ribald</text>
<text x="3.16cm" y="17.31cm" style="fill:#000000;font-size:10pt; font-family:sans-serif;">Rodríguez, Agatha</text>
<text x="3.16cm" y="17.93cm" style="fill:#000000;font-size:10pt; font-family:sans-serif;">Пономарев, Ralph</text>
<text x="3.16cm" y="18.55cm" style="fill:#000000;font-size:10pt; font-family:sans-serif;">Hanson, Robert</text>
<text x="3.16cm" y="19.16cm" style="fill:#000000;font-size:10pt; font-family:sans-serif;">Schwartz, Helewisa</text>
<text x="3.16cm" y="19.78cm" style="fill:#000000;font-size:10pt; font-family:sans-serif;">Knudsen, Robert</text>
<text x="3.16cm" y="20.40cm" style="fill:#000000;font-size:10pt; font-family:sans-serif;">Copeland, Mary</text>
<text x="3.16cm" y="21.01cm" style="fill:#000000;font-size:10pt; font-family:sans-serif;">Huff, Bertrama</text>
<text x="3.16cm" y="21.63cm" style="fill:#000000;font-size:10pt; font-family:sans-serif;">Knudsen, Ranulf</text>
<text x="3.16cm" y="22.25cm" style="fill:#000000;font-size:10pt; font-family:sans-serif;">Knudsen, Ralph</text>
<text x="3.16cm" y="22.87cm" style="fill:#000000;font-size:10pt; font-family:sans-serif;">Walton, Theophania(Tiffany)</text>
<text x="3.16cm" y="23.48cm" style="fill:#000000;font-size:10pt; font-family:sans-serif;">Huff, Isabel</text>
<text x="3.16cm" y="24.10cm" style="fill:#000000;font-size:10pt; font-family:sans-serif;">Knudsen, Ralph</text>
<text x="3.16cm" y="24.72cm" style="fill:#000000;font-size:10pt; font-family:sans-serif;">Чернов, Maud</text>
<text x="3.16cm" y="25.34cm" style="fill:#000000;font-size:10pt; font-family:sans-serif;">Knudsen, John</text>
</svg>
