<?xml version="1.0" encoding="UTF-8" standalone="no"?>
<!DOCTYPE svg PUBLIC "-//W3C//DTD SVG 1.0//EN" "http://www.w3.org/TR/2001/REC-SVG-20010904/DTD/svg10.dtd">
<svg width="21.59cm" height="27.94cm" xmlns="http://www.w3.org/2000/svg">
<rect width="21.59cm" height="27.94cm" style="fill: none;"/>
<line x1="9.69cm" y1="4.54cm" x2="9.69cm" y2="25.40cm" style="stroke:#000000; stroke-dasharray: 2,4; stroke-width:0.50pt;"/>
<line x1="11.46cm" y1="4.54cm" x2="11.46cm" y2="25.40cm" style="stroke:#000000; stroke-dasharray: 2,4; stroke-width:0.50pt;"/>
<line x1="13.23cm" y1="4.54cm" x2="13.23cm" y2="25.40cm" style="stroke:#000000; stroke-dasharray: 2,4; stroke-width:0.50pt;"/>
<line x1="15.00cm" y1="4.54cm" x2="15.00cm" y2="25.40cm" style="stroke:#000000; stroke-dasharray: 2,4; stroke-width:0.50pt;"/>
<line x1="16.78cm" y1="4.54cm" x2="16.78cm" y2="25.40cm" style="stroke:#000000; stroke-dasharray: 2,4; stroke-width:0.50pt;"/>
<line x1="18.55cm" y1="4.54cm" x2="18.55cm" y2="25.40cm" style="stroke:#000000; stroke-dasharray: 2,4; stroke-width:0.50pt;"/>
<polygon fill="#ffffff" style="stroke:#000000;  stroke-width:0.50pt;" points="643.95,182.74 645.72,188.99 643.95,195.24 642.18,188.99"/>
<polygon fill="#ffffff" style="stroke:#000000;  stroke-width:0.50pt;" points="643.95,204.62 645.72,210.87 643.95,217.12 642.18,210.87"/>
<polygon fill="#000000" style="stroke:#000000;  stroke-width:0.50pt;" points="654.68,204.62 656.45,210.87 654.68,217.12 652.91,210.87"/>
<line x1="18.22cm" y1="5.95cm" x2="18.43cm" y2="5.95cm" style="stroke:#000000; stroke-width:0.50pt;"/>
<polygon fill="#ffffff" style="stroke:#000000;  stroke-width:0.50pt;" points="644.11,226.49 645.88,232.74 644.11,238.99 642.33,232.74"/>
<polygon fill="#ffffff" style="stroke:#000000;  stroke-width:0.50pt;" points="644.11,248.37 645.88,254.62 644.11,260.87 642.33,254.62"/>
<polygon fill="#000000" style="stroke:#000000;  stroke-width:0.50pt;" points="644.41,248.37 646.18,254.62 644.41,260.87 642.64,254.62"/>
<line x1="18.23cm" y1="7.19cm" x2="18.14cm" y2="7.19cm" style="stroke:#000000; stroke-width:0.50pt;"/>
<polygon fill="#ffffff" style="stroke:#000000;  stroke-width:0.50pt;" points="644.11,270.24 645.88,276.49 644.11,282.74 642.33,276.49"/>
<polygon fill="#000000" style="stroke:#000000;  stroke-width:0.50pt;" points="647.48,270.24 649.25,276.49 647.48,282.74 645.71,276.49"/>
<line x1="18.23cm" y1="7.80cm" x2="18.22cm" y2="7.80cm" style="stroke:#000000; stroke-width:0.50pt;"/>
<polygon fill="#ffffff" style="stroke:#000000;  stroke-width:0.50pt;" points="644.11,292.12 645.88,298.37 644.11,304.62 642.33,298.37"/>
<polygon fill="#ffffff" style="stroke:#000000;  stroke-width:0.50pt;" points="644.26,313.99 646.03,320.24 644.26,326.49 642.49,320.24"/>
<polygon fill="#ffffff" style="stroke:#000000;  stroke-width:0.50pt;" points="644.41,335.87 646.18,342.12 644.41,348.37 642.64,342.12"/>
<polygon fill="#000000" style="stroke:#000000;  stroke-width:0.50pt;" points="651.77,335.87 653.54,342.12 651.77,348.37 649.99,342.12"/>
<line x1="18.24cm" y1="9.66cm" x2="18.34cm" y2="9.66cm" style="stroke:#000000; stroke-width:0.50pt;"/>
<polygon fill="#ffffff" style="stroke:#000000;  stroke-width:0.50pt;" points="644.41,357.74 646.18,363.99 644.41,370.24 642.64,363.99"/>
<polygon fill="#ffffff" style="stroke:#000000;  stroke-width:0.50pt;" points="644.41,379.62 646.18,385.87 644.41,392.12 642.64,385.87"/>
<polygon fill="#ffffff" style="stroke:#000000;  stroke-width:0.50pt;" points="644.41,401.49 646.18,407.74 644.41,413.99 642.64,407.74"/>
<polygon fill="#000000" style="stroke:#000000;  stroke-width:0.50pt;" points="654.68,401.49 656.45,407.74 654.68,413.99 652.91,407.74"/>
<line x1="18.24cm" y1="11.51cm" x2="18.43cm" y2="11.51cm" style="stroke:#000000; stroke-width:0.50pt;"/>
<polygon fill="#ffffff" style="stroke:#000000;  stroke-width:0.50pt;" points="644.57,423.36 646.34,429.61 644.57,435.86 642.79,429.61"/>
<polygon fill="#000000" style="stroke:#000000;  stroke-width:0.50pt;" points="654.52,423.36 656.30,429.61 654.52,435.86 652.75,429.61"/>
<line x1="18.24cm" y1="12.12cm" x2="18.42cm" y2="12.12cm" style="stroke:#000000; stroke-width:0.50pt;"/>
<polygon fill="#ffffff" style="stroke:#000000;  stroke-width:0.50pt;" points="644.57,445.24 646.34,451.49 644.57,457.74 642.79,451.49"/>
<polygon fill="#000000" style="stroke:#000000;  stroke-width:0.50pt;" points="655.90,445.24 657.67,451.49 655.90,457.74 654.13,451.49"/>
<line x1="18.24cm" y1="12.74cm" x2="18.46cm" y2="12.74cm" style="stroke:#000000; stroke-width:0.50pt;"/>
<polygon fill="#ffffff" style="stroke:#000000;  stroke-width:0.50pt;" points="644.72,467.11 646.49,473.36 644.72,479.61 642.95,473.36"/>
<polygon fill="#ffffff" style="stroke:#000000;  stroke-width:0.50pt;" points="644.72,488.99 646.49,495.24 644.72,501.49 642.95,495.24"/>
<polygon fill="#ffffff" style="stroke:#000000;  stroke-width:0.50pt;" points="645.03,510.86 646.80,517.11 645.03,523.36 643.25,517.11"/>
<polygon fill="#ffffff" style="stroke:#000000;  stroke-width:0.50pt;" points="645.03,532.74 646.80,538.99 645.03,545.24 643.25,538.99"/>
<polygon fill="#ffffff" style="stroke:#000000;  stroke-width:0.50pt;" points="645.03,554.61 646.80,560.86 645.03,567.11 643.25,560.86"/>
<polygon fill="#000000" style="stroke:#000000;  stroke-width:0.50pt;" points="654.06,554.61 655.84,560.86 654.06,567.11 652.29,560.86"/>
<line x1="18.25cm" y1="15.83cm" x2="18.41cm" y2="15.83cm" style="stroke:#000000; stroke-width:0.50pt;"/>
<polygon fill="#ffffff" style="stroke:#000000;  stroke-width:0.50pt;" points="645.18,576.49 646.95,582.74 645.18,588.99 643.41,582.74"/>
<polygon fill="#ffffff" style="stroke:#000000;  stroke-width:0.50pt;" points="645.18,598.36 646.95,604.61 645.18,610.86 643.41,604.61"/>
<polygon fill="#ffffff" style="stroke:#000000;  stroke-width:0.50pt;" points="645.18,620.24 646.95,626.49 645.18,632.74 643.41,626.49"/>
<polygon fill="#ffffff" style="stroke:#000000;  stroke-width:0.50pt;" points="645.18,642.11 646.95,648.36 645.18,654.61 643.41,648.36"/>
<polygon fill="#ffffff" style="stroke:#000000;  stroke-width:0.50pt;" points="645.18,663.99 646.95,670.24 645.18,676.49 643.41,670.24"/>
<polygon fill="#ffffff" style="stroke:#000000;  stroke-width:0.50pt;" points="645.33,685.86 647.10,692.11 645.33,698.36 643.56,692.11"/>
<polygon fill="#ffffff" style="stroke:#000000;  stroke-width:0.50pt;" points="645.33,707.74 647.10,713.99 645.33,720.24 643.56,713.99"/>
<polygon fill="#ffffff" style="stroke:#000000;  stroke-width:0.50pt;" points="645.33,729.61 647.10,735.86 645.33,742.11 643.56,735.86"/>
<polygon fill="#ffffff" style="stroke:#000000;  stroke-width:0.50pt;" points="645.33,751.49 647.10,757.74 645.33,763.99 643.56,757.74"/>
<polygon fill="#ffffff" style="stroke:#000000;  stroke-width:0.50pt;" points="645.33,773.36 647.10,779.61 645.33,785.86 643.56,779.61"/>
<polygon fill="#000000" style="stroke:#000000;  stroke-width:0.50pt;" points="654.06,773.36 655.84,779.61 654.06,785.86 652.29,779.61"/>
<line x1="18.26cm" y1="22.00cm" x2="18.41cm" y2="22.00cm" style="stroke:#000000; stroke-width:0.50pt;"/>
<polygon fill="#ffffff" style="stroke:#000000;  stroke-width:0.50pt;" points="645.33,795.24 647.10,801.49 645.33,807.74 643.56,801.49"/>
<polygon fill="#000000" style="stroke:#000000;  stroke-width:0.50pt;" points="656.98,795.24 658.75,801.49 656.98,807.74 655.20,801.49"/>
<line x1="18.26cm" y1="22.62cm" x2="18.49cm" y2="22.62cm" style="stroke:#000000; stroke-width:0.50pt;"/>
<polygon fill="#ffffff" style="stroke:#000000;  stroke-width:0.50pt;" points="645.49,817.11 647.26,823.36 645.49,829.61 643.71,823.36"/>
<polygon fill="#ffffff" style="stroke:#000000;  stroke-width:0.50pt;" points="645.49,838.99 647.26,845.24 645.49,851.49 643.71,845.24"/>
<polygon fill="#ffffff" style="stroke:#000000;  stroke-width:0.50pt;" points="645.49,860.86 647.26,867.11 645.49,873.36 643.71,867.11"/>
<polygon fill="#000000" style="stroke:#000000;  stroke-width:0.50pt;" points="656.82,860.86 658.59,867.11 656.82,873.36 655.05,867.11"/>
<line x1="18.27cm" y1="24.47cm" x2="18.49cm" y2="24.47cm" style="stroke:#000000; stroke-width:0.50pt;"/>
<polygon fill="#ffffff" style="stroke:#000000;  stroke-width:0.50pt;" points="645.64,882.74 647.41,888.99 645.64,895.24 643.87,888.99"/>
<text x="9.34cm" y="3.13cm" style="fill:#000000;font-size:14pt; font-family:sans-serif;">Timeline Chart</text>
<text x="7.22cm" y="3.74cm" style="fill:#000000;font-size:14pt; font-family:sans-serif;">Entire Database -- Sorted by Birth Date</text>
<text x="9.41cm" y="4.54cm" style="fill:#000000;font-size:8pt; font-family:sans-serif;">-50</text>
<text x="11.16cm" y="4.54cm" style="fill:#000000;font-size:8pt; font-family:sans-serif;">360</text>
<text x="12.94cm" y="4.54cm" style="fill:#000000;font-size:8pt; font-family:sans-serif;">770</text>
<text x="14.65cm" y="4.54cm" style="fill:#000000;font-size:8pt; font-family:sans-serif;">1180</text>
<text x="16.42cm" y="4.54cm" style="fill:#000000;font-size:8pt; font-family:sans-serif;">1590</text>
<text x="18.19cm" y="4.54cm" style="fill:#000000;font-size:8pt; font-family:sans-serif;">2000</text>
<text x="3.16cm" y="5.58cm" style="fill:#000000;font-size:10pt; font-family:sans-serif;">Thornton, Dorothy Eleanor</text>
<text x="3.16cm" y="6.20cm" style="fill:#000000;font-size:10pt; font-family:sans-serif;">Warner, Michael Warren</text>
<text x="3.16cm" y="6.82cm" style="fill:#000000;font-size:10pt; font-family:sans-serif;">Reed, Anastasia</text>
<text x="3.16cm" y="7.43cm" style="fill:#000000;font-size:10pt; font-family:sans-serif;">Garner, Daniel Burton</text>
<text x="3.16cm" y="8.05cm" style="fill:#000000;font-size:10pt; font-family:sans-serif;">Page, George Kenneth (Red)</text>
<text x="3.16cm" y="8.67cm" style="fill:#000000;font-size:10pt; font-family:sans-serif;">Norman, Dorothy Louise</text>
<text x="3.16cm" y="9.28cm" style="fill:#000000;font-size:10pt; font-family:sans-serif;">Брюханов, Violet Louise</text>
<text x="3.16cm" y="9.90cm" style="fill:#000000;font-size:10pt; font-family:sans-serif;">Bélanger, James</text>
<text x="3.16cm" y="10.52cm" style="fill:#000000;font-size:10pt; font-family:sans-serif;">Черных, Mary Helen</text>
<text x="3.16cm" y="11.14cm" style="fill:#000000;font-size:10pt; font-family:sans-serif;">Neal, Helen M.</text>
<text x="3.16cm" y="11.75cm" style="fill:#000000;font-size:10pt; font-family:sans-serif;">Ford, Lorinda Catherine</text>
<text x="3.16cm" y="12.37cm" style="fill:#000000;font-size:10pt; font-family:sans-serif;">Johnson, Richard F.</text>
<text x="3.16cm" y="12.99cm" style="fill:#000000;font-size:10pt; font-family:sans-serif;">Lambert, Marguerite</text>
<text x="3.16cm" y="13.61cm" style="fill:#000000;font-size:10pt; font-family:sans-serif;">Garner, Raymond Webster</text>
<text x="3.16cm" y="14.22cm" style="fill:#000000;font-size:10pt; font-family:sans-serif;">Cruz, Paul Eugene</text>
<text x="3.16cm" y="14.84cm" style="fill:#000000;font-size:10pt; font-family:sans-serif;">Garner, Betty Jane</text>
<text x="3.16cm" y="15.46cm" style="fill:#000000;font-size:10pt; font-family:sans-serif;">Marín, Joseph William</text>
<text x="3.16cm" y="16.08cm" style="fill:#000000;font-size:10pt; font-family:sans-serif;">Welch, Irwin Arthur</text>
<text x="3.16cm" y="16.69cm" style="fill:#000000;font-size:10pt; font-family:sans-serif;">Landry, Maurice, Jr.</text>
<text x="3.16cm" y="17.31cm" style="fill:#000000;font-size:10pt; font-family:sans-serif;">Cruz, Arthur Ray</text>
<text x="3.16cm" y="17.93cm" style="fill:#000000;font-size:10pt; font-family:sans-serif;">Page, Eleanor Irene</text>
<text x="3.16cm" y="18.55cm" style="fill:#000000;font-size:10pt; font-family:sans-serif;">Warner, David Luther</text>
<text x="3.16cm" y="19.16cm" style="fill:#000000;font-size:10pt; font-family:sans-serif;">Gutiérrez, Virginia Elizabeth</text>
<text x="3.16cm" y="19.78cm" style="fill:#000000;font-size:10pt; font-family:sans-serif;">Robbins, Myrabel</text>
<text x="3.16cm" y="20.40cm" style="fill:#000000;font-size:10pt; font-family:sans-serif;">Лопатин, Raymond A.</text>
<text x="3.16cm" y="21.01cm" style="fill:#000000;font-size:10pt; font-family:sans-serif;">Rhodes, Mary Jane</text>
<text x="3.16cm" y="21.63cm" style="fill:#000000;font-size:10pt; font-family:sans-serif;">Landry, Charles Doyle</text>
<text x="3.16cm" y="22.25cm" style="fill:#000000;font-size:10pt; font-family:sans-serif;">Warner, Donald Louis</text>
<text x="3.16cm" y="22.87cm" style="fill:#000000;font-size:10pt; font-family:sans-serif;">Pelletier, Josephine</text>
<text x="3.16cm" y="23.48cm" style="fill:#000000;font-size:10pt; font-family:sans-serif;">Warner, Robert Eugene</text>
<text x="3.16cm" y="24.10cm" style="fill:#000000;font-size:10pt; font-family:sans-serif;">Gagnon, Bettie Lou</text>
<text x="3.16cm" y="24.72cm" style="fill:#000000;font-size:10pt; font-family:sans-serif;">Garrett, Carmen Eloise</text>
<text x="3.16cm" y="25.34cm" style="fill:#000000;font-size:10pt; font-family:sans-serif;">Gutiérrez, Dorothy Jean</text>
</svg>
