<?xml version="1.0" encoding="UTF-8" standalone="no"?>
<!DOCTYPE svg PUBLIC "-//W3C//DTD SVG 1.0//EN" "http://www.w3.org/TR/2001/REC-SVG-20010904/DTD/svg10.dtd">
<svg width="21.59cm" height="27.94cm" xmlns="http://www.w3.org/2000/svg">
<rect width="21.59cm" height="27.94cm" style="fill: none;"/>
<line x1="9.69cm" y1="4.54cm" x2="9.69cm" y2="25.40cm" style="stroke:#000000; stroke-dasharray: 2,4; stroke-width:0.50pt;"/>
<line x1="11.46cm" y1="4.54cm" x2="11.46cm" y2="25.40cm" style="stroke:#000000; stroke-dasharray: 2,4; stroke-width:0.50pt;"/>
<line x1="13.23cm" y1="4.54cm" x2="13.23cm" y2="25.40cm" style="stroke:#000000; stroke-dasharray: 2,4; stroke-width:0.50pt;"/>
<line x1="15.00cm" y1="4.54cm" x2="15.00cm" y2="25.40cm" style="stroke:#000000; stroke-dasharray: 2,4; stroke-width:0.50pt;"/>
<line x1="16.78cm" y1="4.54cm" x2="16.78cm" y2="25.40cm" style="stroke:#000000; stroke-dasharray: 2,4; stroke-width:0.50pt;"/>
<line x1="18.55cm" y1="4.54cm" x2="18.55cm" y2="25.40cm" style="stroke:#000000; stroke-dasharray: 2,4; stroke-width:0.50pt;"/>
<polygon fill="#ffffff" style="stroke:#000000;  stroke-width:0.50pt;" points="630.78,182.74 632.55,188.99 630.78,195.24 629.01,188.99"/>
<polygon fill="#000000" style="stroke:#000000;  stroke-width:0.50pt;" points="643.95,182.74 645.72,188.99 643.95,195.24 642.18,188.99"/>
<line x1="17.85cm" y1="5.33cm" x2="18.12cm" y2="5.33cm" style="stroke:#000000; stroke-width:0.50pt;"/>
<polygon fill="#ffffff" style="stroke:#000000;  stroke-width:0.50pt;" points="630.78,204.62 632.55,210.87 630.78,217.12 629.01,210.87"/>
<polygon fill="#000000" style="stroke:#000000;  stroke-width:0.50pt;" points="644.41,204.62 646.18,210.87 644.41,217.12 642.64,210.87"/>
<line x1="17.85cm" y1="5.95cm" x2="18.14cm" y2="5.95cm" style="stroke:#000000; stroke-width:0.50pt;"/>
<polygon fill="#ffffff" style="stroke:#000000;  stroke-width:0.50pt;" points="630.93,226.49 632.70,232.74 630.93,238.99 629.16,232.74"/>
<polygon fill="#ffffff" style="stroke:#000000;  stroke-width:0.50pt;" points="630.93,248.37 632.70,254.62 630.93,260.87 629.16,254.62"/>
<polygon fill="#ffffff" style="stroke:#000000;  stroke-width:0.50pt;" points="630.93,270.24 632.70,276.49 630.93,282.74 629.16,276.49"/>
<polygon fill="#ffffff" style="stroke:#000000;  stroke-width:0.50pt;" points="631.08,292.12 632.86,298.37 631.08,304.62 629.31,298.37"/>
<polygon fill="#000000" style="stroke:#000000;  stroke-width:0.50pt;" points="640.12,292.12 641.89,298.37 640.12,304.62 638.35,298.37"/>
<line x1="17.86cm" y1="8.42cm" x2="18.02cm" y2="8.42cm" style="stroke:#000000; stroke-width:0.50pt;"/>
<polygon fill="#ffffff" style="stroke:#000000;  stroke-width:0.50pt;" points="631.08,313.99 632.86,320.24 631.08,326.49 629.31,320.24"/>
<polygon fill="#000000" style="stroke:#000000;  stroke-width:0.50pt;" points="634.45,313.99 636.23,320.24 634.45,326.49 632.68,320.24"/>
<line x1="17.86cm" y1="9.04cm" x2="17.86cm" y2="9.04cm" style="stroke:#000000; stroke-width:0.50pt;"/>
<polygon fill="#ffffff" style="stroke:#000000;  stroke-width:0.50pt;" points="631.08,335.87 632.86,342.12 631.08,348.37 629.31,342.12"/>
<polygon fill="#000000" style="stroke:#000000;  stroke-width:0.50pt;" points="642.57,335.87 644.35,342.12 642.57,348.37 640.80,342.12"/>
<line x1="17.86cm" y1="9.66cm" x2="18.08cm" y2="9.66cm" style="stroke:#000000; stroke-width:0.50pt;"/>
<polygon fill="#ffffff" style="stroke:#000000;  stroke-width:0.50pt;" points="631.24,357.74 633.01,363.99 631.24,370.24 629.46,363.99"/>
<polygon fill="#ffffff" style="stroke:#000000;  stroke-width:0.50pt;" points="631.24,379.62 633.01,385.87 631.24,392.12 629.46,385.87"/>
<polygon fill="#ffffff" style="stroke:#000000;  stroke-width:0.50pt;" points="631.24,401.49 633.01,407.74 631.24,413.99 629.46,407.74"/>
<polygon fill="#ffffff" style="stroke:#000000;  stroke-width:0.50pt;" points="631.54,423.36 633.31,429.61 631.54,435.86 629.77,429.61"/>
<polygon fill="#ffffff" style="stroke:#000000;  stroke-width:0.50pt;" points="631.54,445.24 633.31,451.49 631.54,457.74 629.77,451.49"/>
<polygon fill="#ffffff" style="stroke:#000000;  stroke-width:0.50pt;" points="631.54,467.11 633.31,473.36 631.54,479.61 629.77,473.36"/>
<polygon fill="#ffffff" style="stroke:#000000;  stroke-width:0.50pt;" points="631.54,488.99 633.31,495.24 631.54,501.49 629.77,495.24"/>
<polygon fill="#000000" style="stroke:#000000;  stroke-width:0.50pt;" points="645.18,488.99 646.95,495.24 645.18,501.49 643.41,495.24"/>
<line x1="17.87cm" y1="13.98cm" x2="18.16cm" y2="13.98cm" style="stroke:#000000; stroke-width:0.50pt;"/>
<polygon fill="#ffffff" style="stroke:#000000;  stroke-width:0.50pt;" points="631.54,510.86 633.31,517.11 631.54,523.36 629.77,517.11"/>
<polygon fill="#ffffff" style="stroke:#000000;  stroke-width:0.50pt;" points="631.70,532.74 633.47,538.99 631.70,545.24 629.92,538.99"/>
<polygon fill="#ffffff" style="stroke:#000000;  stroke-width:0.50pt;" points="631.85,554.61 633.62,560.86 631.85,567.11 630.08,560.86"/>
<polygon fill="#ffffff" style="stroke:#000000;  stroke-width:0.50pt;" points="631.85,576.49 633.62,582.74 631.85,588.99 630.08,582.74"/>
<polygon fill="#000000" style="stroke:#000000;  stroke-width:0.50pt;" points="641.81,576.49 643.58,582.74 641.81,588.99 640.04,582.74"/>
<line x1="17.88cm" y1="16.45cm" x2="18.06cm" y2="16.45cm" style="stroke:#000000; stroke-width:0.50pt;"/>
<polygon fill="#ffffff" style="stroke:#000000;  stroke-width:0.50pt;" points="632.00,598.36 633.77,604.61 632.00,610.86 630.23,604.61"/>
<polygon fill="#ffffff" style="stroke:#000000;  stroke-width:0.50pt;" points="632.00,620.24 633.77,626.49 632.00,632.74 630.23,626.49"/>
<polygon fill="#000000" style="stroke:#000000;  stroke-width:0.50pt;" points="639.36,620.24 641.13,626.49 639.36,632.74 637.59,626.49"/>
<line x1="17.89cm" y1="17.68cm" x2="17.99cm" y2="17.68cm" style="stroke:#000000; stroke-width:0.50pt;"/>
<polygon fill="#ffffff" style="stroke:#000000;  stroke-width:0.50pt;" points="632.16,642.11 633.93,648.36 632.16,654.61 630.38,648.36"/>
<polygon fill="#ffffff" style="stroke:#000000;  stroke-width:0.50pt;" points="632.16,663.99 633.93,670.24 632.16,676.49 630.38,670.24"/>
<polygon fill="#000000" style="stroke:#000000;  stroke-width:0.50pt;" points="644.72,663.99 646.49,670.24 644.72,676.49 642.95,670.24"/>
<line x1="17.89cm" y1="18.92cm" x2="18.15cm" y2="18.92cm" style="stroke:#000000; stroke-width:0.50pt;"/>
<polygon fill="#ffffff" style="stroke:#000000;  stroke-width:0.50pt;" points="632.16,685.86 633.93,692.11 632.16,698.36 630.38,692.11"/>
<polygon fill="#ffffff" style="stroke:#000000;  stroke-width:0.50pt;" points="632.31,707.74 634.08,713.99 632.31,720.24 630.54,713.99"/>
<polygon fill="#ffffff" style="stroke:#000000;  stroke-width:0.50pt;" points="632.31,729.61 634.08,735.86 632.31,742.11 630.54,735.86"/>
<polygon fill="#ffffff" style="stroke:#000000;  stroke-width:0.50pt;" points="632.31,751.49 634.08,757.74 632.31,763.99 630.54,757.74"/>
<polygon fill="#ffffff" style="stroke:#000000;  stroke-width:0.50pt;" points="632.46,773.36 634.23,779.61 632.46,785.86 630.69,779.61"/>
<polygon fill="#ffffff" style="stroke:#000000;  stroke-width:0.50pt;" points="632.46,795.24 634.23,801.49 632.46,807.74 630.69,801.49"/>
<polygon fill="#000000" style="stroke:#000000;  stroke-width:0.50pt;" points="644.41,795.24 646.18,801.49 644.41,807.74 642.64,801.49"/>
<line x1="17.90cm" y1="22.62cm" x2="18.14cm" y2="22.62cm" style="stroke:#000000; stroke-width:0.50pt;"/>
<polygon fill="#ffffff" style="stroke:#000000;  stroke-width:0.50pt;" points="632.46,817.11 634.23,823.36 632.46,829.61 630.69,823.36"/>
<polygon fill="#000000" style="stroke:#000000;  stroke-width:0.50pt;" points="644.41,817.11 646.18,823.36 644.41,829.61 642.64,823.36"/>
<line x1="17.90cm" y1="23.24cm" x2="18.14cm" y2="23.24cm" style="stroke:#000000; stroke-width:0.50pt;"/>
<polygon fill="#ffffff" style="stroke:#000000;  stroke-width:0.50pt;" points="632.62,838.99 634.39,845.24 632.62,851.49 630.84,845.24"/>
<polygon fill="#ffffff" style="stroke:#000000;  stroke-width:0.50pt;" points="632.62,860.86 634.39,867.11 632.62,873.36 630.84,867.11"/>
<polygon fill="#ffffff" style="stroke:#000000;  stroke-width:0.50pt;" points="632.62,882.74 634.39,888.99 632.62,895.24 630.84,888.99"/>
<polygon fill="#000000" style="stroke:#000000;  stroke-width:0.50pt;" points="640.89,882.74 642.66,888.99 640.89,895.24 639.12,888.99"/>
<line x1="17.90cm" y1="25.09cm" x2="18.04cm" y2="25.09cm" style="stroke:#000000; stroke-width:0.50pt;"/>
<text x="9.34cm" y="3.13cm" style="fill:#000000;font-size:14pt; font-family:sans-serif;">Timeline Chart</text>
<text x="7.22cm" y="3.74cm" style="fill:#000000;font-size:14pt; font-family:sans-serif;">Entire Database -- Sorted by Birth Date</text>
<text x="9.41cm" y="4.54cm" style="fill:#000000;font-size:8pt; font-family:sans-serif;">-50</text>
<text x="11.16cm" y="4.54cm" style="fill:#000000;font-size:8pt; font-family:sans-serif;">360</text>
<text x="12.94cm" y="4.54cm" style="fill:#000000;font-size:8pt; font-family:sans-serif;">770</text>
<text x="14.65cm" y="4.54cm" style="fill:#000000;font-size:8pt; font-family:sans-serif;">1180</text>
<text x="16.42cm" y="4.54cm" style="fill:#000000;font-size:8pt; font-family:sans-serif;">1590</text>
<text x="18.19cm" y="4.54cm" style="fill:#000000;font-size:8pt; font-family:sans-serif;">2000</text>
<text x="3.16cm" y="5.58cm" style="fill:#000000;font-size:10pt; font-family:sans-serif;">Douglas, Alfred</text>
<text x="3.16cm" y="6.20cm" style="fill:#000000;font-size:10pt; font-family:sans-serif;">Garner, Robert W.</text>
<text x="3.16cm" y="6.82cm" style="fill:#000000;font-size:10pt; font-family:sans-serif;">Moreno, Darius</text>
<text x="3.16cm" y="7.43cm" style="fill:#000000;font-size:10pt; font-family:sans-serif;">Rodriquez, Michael Mordica</text>
<text x="3.16cm" y="8.05cm" style="fill:#000000;font-size:10pt; font-family:sans-serif;">Lessard, Isaac</text>
<text x="3.16cm" y="8.67cm" style="fill:#000000;font-size:10pt; font-family:sans-serif;">Webb, William John</text>
<text x="3.16cm" y="9.28cm" style="fill:#000000;font-size:10pt; font-family:sans-serif;">Jiménez, John T. L.</text>
<text x="3.16cm" y="9.90cm" style="fill:#000000;font-size:10pt; font-family:sans-serif;">Holt, Bridget</text>
<text x="3.16cm" y="10.52cm" style="fill:#000000;font-size:10pt; font-family:sans-serif;">Morris, Carlisle</text>
<text x="3.16cm" y="11.14cm" style="fill:#000000;font-size:10pt; font-family:sans-serif;">Moreno, Minerva</text>
<text x="3.16cm" y="11.75cm" style="fill:#000000;font-size:10pt; font-family:sans-serif;">Douglas, Ellen</text>
<text x="3.16cm" y="12.37cm" style="fill:#000000;font-size:10pt; font-family:sans-serif;">Farmer, Magdalena</text>
<text x="3.16cm" y="12.99cm" style="fill:#000000;font-size:10pt; font-family:sans-serif;">Webb, Sarah Margarite</text>
<text x="3.16cm" y="13.61cm" style="fill:#000000;font-size:10pt; font-family:sans-serif;">Morris, Cyrus</text>
<text x="3.16cm" y="14.22cm" style="fill:#000000;font-size:10pt; font-family:sans-serif;">Blake, M. Susannah</text>
<text x="3.16cm" y="14.84cm" style="fill:#000000;font-size:10pt; font-family:sans-serif;">Moreno, Solon</text>
<text x="3.16cm" y="15.46cm" style="fill:#000000;font-size:10pt; font-family:sans-serif;">Douglas, Lucinda J.</text>
<text x="3.16cm" y="16.08cm" style="fill:#000000;font-size:10pt; font-family:sans-serif;">Webb, Charles Leroy Boyd</text>
<text x="3.16cm" y="16.69cm" style="fill:#000000;font-size:10pt; font-family:sans-serif;">Serrano, Joseph</text>
<text x="3.16cm" y="17.31cm" style="fill:#000000;font-size:10pt; font-family:sans-serif;">Morris, Robert</text>
<text x="3.16cm" y="17.93cm" style="fill:#000000;font-size:10pt; font-family:sans-serif;">Jiménez, Amanda E.</text>
<text x="3.16cm" y="18.55cm" style="fill:#000000;font-size:10pt; font-family:sans-serif;">Reed, Patrick</text>
<text x="3.16cm" y="19.16cm" style="fill:#000000;font-size:10pt; font-family:sans-serif;">Blanco, Malvina</text>
<text x="3.16cm" y="19.78cm" style="fill:#000000;font-size:10pt; font-family:sans-serif;">Douglas, Susan</text>
<text x="3.16cm" y="20.40cm" style="fill:#000000;font-size:10pt; font-family:sans-serif;">Boucher, Sean</text>
<text x="3.16cm" y="21.01cm" style="fill:#000000;font-size:10pt; font-family:sans-serif;">Morris, Martha</text>
<text x="3.16cm" y="21.63cm" style="fill:#000000;font-size:10pt; font-family:sans-serif;">Webb, John McCrea</text>
<text x="3.16cm" y="22.25cm" style="fill:#000000;font-size:10pt; font-family:sans-serif;">Blanco, John W.</text>
<text x="3.16cm" y="22.87cm" style="fill:#000000;font-size:10pt; font-family:sans-serif;">Quinn, Abraham</text>
<text x="3.16cm" y="23.48cm" style="fill:#000000;font-size:10pt; font-family:sans-serif;">Quinn, Abram</text>
<text x="3.16cm" y="24.10cm" style="fill:#000000;font-size:10pt; font-family:sans-serif;">Morris, Mary</text>
<text x="3.16cm" y="24.72cm" style="fill:#000000;font-size:10pt; font-family:sans-serif;">Reed, Mary</text>
<text x="3.16cm" y="25.34cm" style="fill:#000000;font-size:10pt; font-family:sans-serif;">Domínguez, Mary E.</text>
</svg>
