<?xml version="1.0" encoding="UTF-8" standalone="no"?>
<!DOCTYPE svg PUBLIC "-//W3C//DTD SVG 1.0//EN" "http://www.w3.org/TR/2001/REC-SVG-20010904/DTD/svg10.dtd">
<svg width="21.59cm" height="27.94cm" xmlns="http://www.w3.org/2000/svg">
<rect width="21.59cm" height="27.94cm" style="fill: none;"/>
<line x1="9.69cm" y1="4.54cm" x2="9.69cm" y2="25.40cm" style="stroke:#000000; stroke-dasharray: 2,4; stroke-width:0.50pt;"/>
<line x1="11.46cm" y1="4.54cm" x2="11.46cm" y2="25.40cm" style="stroke:#000000; stroke-dasharray: 2,4; stroke-width:0.50pt;"/>
<line x1="13.23cm" y1="4.54cm" x2="13.23cm" y2="25.40cm" style="stroke:#000000; stroke-dasharray: 2,4; stroke-width:0.50pt;"/>
<line x1="15.00cm" y1="4.54cm" x2="15.00cm" y2="25.40cm" style="stroke:#000000; stroke-dasharray: 2,4; stroke-width:0.50pt;"/>
<line x1="16.78cm" y1="4.54cm" x2="16.78cm" y2="25.40cm" style="stroke:#000000; stroke-dasharray: 2,4; stroke-width:0.50pt;"/>
<line x1="18.55cm" y1="4.54cm" x2="18.55cm" y2="25.40cm" style="stroke:#000000; stroke-dasharray: 2,4; stroke-width:0.50pt;"/>
<polygon fill="#ffffff" style="stroke:#000000;  stroke-width:0.50pt;" points="627.41,182.74 629.18,188.99 627.41,195.24 625.63,188.99"/>
<polygon fill="#000000" style="stroke:#000000;  stroke-width:0.50pt;" points="636.91,182.74 638.68,188.99 636.91,195.24 635.13,188.99"/>
<line x1="17.76cm" y1="5.33cm" x2="17.92cm" y2="5.33cm" style="stroke:#000000; stroke-width:0.50pt;"/>
<polygon fill="#ffffff" style="stroke:#000000;  stroke-width:0.50pt;" points="627.41,204.62 629.18,210.87 627.41,217.12 625.63,210.87"/>
<polygon fill="#000000" style="stroke:#000000;  stroke-width:0.50pt;" points="637.21,204.62 638.98,210.87 637.21,217.12 635.44,210.87"/>
<line x1="17.76cm" y1="5.95cm" x2="17.93cm" y2="5.95cm" style="stroke:#000000; stroke-width:0.50pt;"/>
<polygon fill="#ffffff" style="stroke:#000000;  stroke-width:0.50pt;" points="627.41,226.49 629.18,232.74 627.41,238.99 625.63,232.74"/>
<polygon fill="#000000" style="stroke:#000000;  stroke-width:0.50pt;" points="636.60,226.49 638.37,232.74 636.60,238.99 634.83,232.74"/>
<line x1="17.76cm" y1="6.57cm" x2="17.92cm" y2="6.57cm" style="stroke:#000000; stroke-width:0.50pt;"/>
<polygon fill="#ffffff" style="stroke:#000000;  stroke-width:0.50pt;" points="627.41,248.37 629.18,254.62 627.41,260.87 625.63,254.62"/>
<polygon fill="#000000" style="stroke:#000000;  stroke-width:0.50pt;" points="642.27,248.37 644.04,254.62 642.27,260.87 640.50,254.62"/>
<line x1="17.76cm" y1="7.19cm" x2="18.08cm" y2="7.19cm" style="stroke:#000000; stroke-width:0.50pt;"/>
<polygon fill="#ffffff" style="stroke:#000000;  stroke-width:0.50pt;" points="627.56,270.24 629.33,276.49 627.56,282.74 625.79,276.49"/>
<polygon fill="#000000" style="stroke:#000000;  stroke-width:0.50pt;" points="639.66,270.24 641.43,276.49 639.66,282.74 637.89,276.49"/>
<line x1="17.76cm" y1="7.80cm" x2="18.00cm" y2="7.80cm" style="stroke:#000000; stroke-width:0.50pt;"/>
<polygon fill="#ffffff" style="stroke:#000000;  stroke-width:0.50pt;" points="627.56,292.12 629.33,298.37 627.56,304.62 625.79,298.37"/>
<polygon fill="#ffffff" style="stroke:#000000;  stroke-width:0.50pt;" points="627.71,313.99 629.48,320.24 627.71,326.49 625.94,320.24"/>
<polygon fill="#ffffff" style="stroke:#000000;  stroke-width:0.50pt;" points="627.87,335.87 629.64,342.12 627.87,348.37 626.09,342.12"/>
<polygon fill="#ffffff" style="stroke:#000000;  stroke-width:0.50pt;" points="628.17,357.74 629.94,363.99 628.17,370.24 626.40,363.99"/>
<polygon fill="#000000" style="stroke:#000000;  stroke-width:0.50pt;" points="639.97,357.74 641.74,363.99 639.97,370.24 638.20,363.99"/>
<line x1="17.78cm" y1="10.27cm" x2="18.01cm" y2="10.27cm" style="stroke:#000000; stroke-width:0.50pt;"/>
<polygon fill="#ffffff" style="stroke:#000000;  stroke-width:0.50pt;" points="628.17,379.62 629.94,385.87 628.17,392.12 626.40,385.87"/>
<polygon fill="#ffffff" style="stroke:#000000;  stroke-width:0.50pt;" points="628.33,401.49 630.10,407.74 628.33,413.99 626.55,407.74"/>
<polygon fill="#ffffff" style="stroke:#000000;  stroke-width:0.50pt;" points="628.48,423.36 630.25,429.61 628.48,435.86 626.71,429.61"/>
<polygon fill="#ffffff" style="stroke:#000000;  stroke-width:0.50pt;" points="628.48,445.24 630.25,451.49 628.48,457.74 626.71,451.49"/>
<polygon fill="#000000" style="stroke:#000000;  stroke-width:0.50pt;" points="637.82,445.24 639.60,451.49 637.82,457.74 636.05,451.49"/>
<line x1="17.79cm" y1="12.74cm" x2="17.95cm" y2="12.74cm" style="stroke:#000000; stroke-width:0.50pt;"/>
<polygon fill="#ffffff" style="stroke:#000000;  stroke-width:0.50pt;" points="628.48,467.11 630.25,473.36 628.48,479.61 626.71,473.36"/>
<polygon fill="#000000" style="stroke:#000000;  stroke-width:0.50pt;" points="638.90,467.11 640.67,473.36 638.90,479.61 637.13,473.36"/>
<line x1="17.79cm" y1="13.36cm" x2="17.98cm" y2="13.36cm" style="stroke:#000000; stroke-width:0.50pt;"/>
<polygon fill="#ffffff" style="stroke:#000000;  stroke-width:0.50pt;" points="628.63,488.99 630.40,495.24 628.63,501.49 626.86,495.24"/>
<polygon fill="#000000" style="stroke:#000000;  stroke-width:0.50pt;" points="641.35,488.99 643.12,495.24 641.35,501.49 639.58,495.24"/>
<line x1="17.79cm" y1="13.98cm" x2="18.05cm" y2="13.98cm" style="stroke:#000000; stroke-width:0.50pt;"/>
<polygon fill="#ffffff" style="stroke:#000000;  stroke-width:0.50pt;" points="628.63,510.86 630.40,517.11 628.63,523.36 626.86,517.11"/>
<polygon fill="#000000" style="stroke:#000000;  stroke-width:0.50pt;" points="638.44,510.86 640.21,517.11 638.44,523.36 636.67,517.11"/>
<line x1="17.79cm" y1="14.59cm" x2="17.97cm" y2="14.59cm" style="stroke:#000000; stroke-width:0.50pt;"/>
<polygon fill="#ffffff" style="stroke:#000000;  stroke-width:0.50pt;" points="628.63,532.74 630.40,538.99 628.63,545.24 626.86,538.99"/>
<polygon fill="#000000" style="stroke:#000000;  stroke-width:0.50pt;" points="640.58,532.74 642.35,538.99 640.58,545.24 638.81,538.99"/>
<line x1="17.79cm" y1="15.21cm" x2="18.03cm" y2="15.21cm" style="stroke:#000000; stroke-width:0.50pt;"/>
<polygon fill="#ffffff" style="stroke:#000000;  stroke-width:0.50pt;" points="628.63,554.61 630.40,560.86 628.63,567.11 626.86,560.86"/>
<polygon fill="#ffffff" style="stroke:#000000;  stroke-width:0.50pt;" points="628.79,576.49 630.56,582.74 628.79,588.99 627.01,582.74"/>
<polygon fill="#000000" style="stroke:#000000;  stroke-width:0.50pt;" points="641.96,576.49 643.73,582.74 641.96,588.99 640.19,582.74"/>
<line x1="17.80cm" y1="16.45cm" x2="18.07cm" y2="16.45cm" style="stroke:#000000; stroke-width:0.50pt;"/>
<polygon fill="#ffffff" style="stroke:#000000;  stroke-width:0.50pt;" points="628.79,598.36 630.56,604.61 628.79,610.86 627.01,604.61"/>
<polygon fill="#ffffff" style="stroke:#000000;  stroke-width:0.50pt;" points="628.94,620.24 630.71,626.49 628.94,632.74 627.17,626.49"/>
<polygon fill="#000000" style="stroke:#000000;  stroke-width:0.50pt;" points="638.13,620.24 639.90,626.49 638.13,632.74 636.36,626.49"/>
<line x1="17.80cm" y1="17.68cm" x2="17.96cm" y2="17.68cm" style="stroke:#000000; stroke-width:0.50pt;"/>
<polygon fill="#ffffff" style="stroke:#000000;  stroke-width:0.50pt;" points="628.94,642.11 630.71,648.36 628.94,654.61 627.17,648.36"/>
<polygon fill="#ffffff" style="stroke:#000000;  stroke-width:0.50pt;" points="628.94,663.99 630.71,670.24 628.94,676.49 627.17,670.24"/>
<polygon fill="#ffffff" style="stroke:#000000;  stroke-width:0.50pt;" points="629.09,685.86 630.86,692.11 629.09,698.36 627.32,692.11"/>
<polygon fill="#000000" style="stroke:#000000;  stroke-width:0.50pt;" points="635.37,685.86 637.14,692.11 635.37,698.36 633.60,692.11"/>
<line x1="17.80cm" y1="19.53cm" x2="17.88cm" y2="19.53cm" style="stroke:#000000; stroke-width:0.50pt;"/>
<polygon fill="#ffffff" style="stroke:#000000;  stroke-width:0.50pt;" points="629.09,707.74 630.86,713.99 629.09,720.24 627.32,713.99"/>
<polygon fill="#000000" style="stroke:#000000;  stroke-width:0.50pt;" points="633.08,707.74 634.85,713.99 633.08,720.24 631.30,713.99"/>
<line x1="17.80cm" y1="20.15cm" x2="17.82cm" y2="20.15cm" style="stroke:#000000; stroke-width:0.50pt;"/>
<polygon fill="#ffffff" style="stroke:#000000;  stroke-width:0.50pt;" points="629.09,729.61 630.86,735.86 629.09,742.11 627.32,735.86"/>
<polygon fill="#ffffff" style="stroke:#000000;  stroke-width:0.50pt;" points="629.24,751.49 631.02,757.74 629.24,763.99 627.47,757.74"/>
<polygon fill="#000000" style="stroke:#000000;  stroke-width:0.50pt;" points="642.27,751.49 644.04,757.74 642.27,763.99 640.50,757.74"/>
<line x1="17.81cm" y1="21.39cm" x2="18.08cm" y2="21.39cm" style="stroke:#000000; stroke-width:0.50pt;"/>
<polygon fill="#ffffff" style="stroke:#000000;  stroke-width:0.50pt;" points="629.40,773.36 631.17,779.61 629.40,785.86 627.63,779.61"/>
<polygon fill="#ffffff" style="stroke:#000000;  stroke-width:0.50pt;" points="629.40,795.24 631.17,801.49 629.40,807.74 627.63,801.49"/>
<polygon fill="#ffffff" style="stroke:#000000;  stroke-width:0.50pt;" points="629.40,817.11 631.17,823.36 629.40,829.61 627.63,823.36"/>
<polygon fill="#ffffff" style="stroke:#000000;  stroke-width:0.50pt;" points="629.40,838.99 631.17,845.24 629.40,851.49 627.63,845.24"/>
<polygon fill="#000000" style="stroke:#000000;  stroke-width:0.50pt;" points="637.98,838.99 639.75,845.24 637.98,851.49 636.21,845.24"/>
<line x1="17.81cm" y1="23.85cm" x2="17.96cm" y2="23.85cm" style="stroke:#000000; stroke-width:0.50pt;"/>
<polygon fill="#ffffff" style="stroke:#000000;  stroke-width:0.50pt;" points="629.40,860.86 631.17,867.11 629.40,873.36 627.63,867.11"/>
<polygon fill="#000000" style="stroke:#000000;  stroke-width:0.50pt;" points="637.52,860.86 639.29,867.11 637.52,873.36 635.75,867.11"/>
<line x1="17.81cm" y1="24.47cm" x2="17.94cm" y2="24.47cm" style="stroke:#000000; stroke-width:0.50pt;"/>
<polygon fill="#ffffff" style="stroke:#000000;  stroke-width:0.50pt;" points="629.40,882.74 631.17,888.99 629.40,895.24 627.63,888.99"/>
<text x="9.34cm" y="3.13cm" style="fill:#000000;font-size:14pt; font-family:sans-serif;">Timeline Chart</text>
<text x="7.22cm" y="3.74cm" style="fill:#000000;font-size:14pt; font-family:sans-serif;">Entire Database -- Sorted by Birth Date</text>
<text x="9.41cm" y="4.54cm" style="fill:#000000;font-size:8pt; font-family:sans-serif;">-50</text>
<text x="11.16cm" y="4.54cm" style="fill:#000000;font-size:8pt; font-family:sans-serif;">360</text>
<text x="12.94cm" y="4.54cm" style="fill:#000000;font-size:8pt; font-family:sans-serif;">770</text>
<text x="14.65cm" y="4.54cm" style="fill:#000000;font-size:8pt; font-family:sans-serif;">1180</text>
<text x="16.42cm" y="4.54cm" style="fill:#000000;font-size:8pt; font-family:sans-serif;">1590</text>
<text x="18.19cm" y="4.54cm" style="fill:#000000;font-size:8pt; font-family:sans-serif;">2000</text>
<text x="3.16cm" y="5.58cm" style="fill:#000000;font-size:10pt; font-family:sans-serif;">Cunningham, Sally Sarah</text>
<text x="3.16cm" y="6.20cm" style="fill:#000000;font-size:10pt; font-family:sans-serif;">Silva, Mildred</text>
<text x="3.16cm" y="6.82cm" style="fill:#000000;font-size:10pt; font-family:sans-serif;">Hopkins, Mary Eve</text>
<text x="3.16cm" y="7.43cm" style="fill:#000000;font-size:10pt; font-family:sans-serif;">Martel, Henry</text>
<text x="3.16cm" y="8.05cm" style="fill:#000000;font-size:10pt; font-family:sans-serif;">Blake, George</text>
<text x="3.16cm" y="8.67cm" style="fill:#000000;font-size:10pt; font-family:sans-serif;">Rodriquez, William Frederick</text>
<text x="3.16cm" y="9.28cm" style="fill:#000000;font-size:10pt; font-family:sans-serif;">Rodriquez, John</text>
<text x="3.16cm" y="9.90cm" style="fill:#000000;font-size:10pt; font-family:sans-serif;">Douglas, Elizabeth</text>
<text x="3.16cm" y="10.52cm" style="fill:#000000;font-size:10pt; font-family:sans-serif;">Ball, Matthias, Jr.</text>
<text x="3.16cm" y="11.14cm" style="fill:#000000;font-size:10pt; font-family:sans-serif;">Gauthier, Julius</text>
<text x="3.16cm" y="11.75cm" style="fill:#000000;font-size:10pt; font-family:sans-serif;">Domínguez, George</text>
<text x="3.16cm" y="12.37cm" style="fill:#000000;font-size:10pt; font-family:sans-serif;">Coleman, Mary</text>
<text x="3.16cm" y="12.99cm" style="fill:#000000;font-size:10pt; font-family:sans-serif;">Farmer, Benjamin H.</text>
<text x="3.16cm" y="13.61cm" style="fill:#000000;font-size:10pt; font-family:sans-serif;">Тимофеев, Mary Ann</text>
<text x="3.16cm" y="14.22cm" style="fill:#000000;font-size:10pt; font-family:sans-serif;">Myers, James</text>
<text x="3.16cm" y="14.84cm" style="fill:#000000;font-size:10pt; font-family:sans-serif;">Тимофеев, Willoughby M.</text>
<text x="3.16cm" y="15.46cm" style="fill:#000000;font-size:10pt; font-family:sans-serif;">Marín, Frances Coppage</text>
<text x="3.16cm" y="16.08cm" style="fill:#000000;font-size:10pt; font-family:sans-serif;">Douglas, Jacob</text>
<text x="3.16cm" y="16.69cm" style="fill:#000000;font-size:10pt; font-family:sans-serif;">Rodriquez, Mariam</text>
<text x="3.16cm" y="17.31cm" style="fill:#000000;font-size:10pt; font-family:sans-serif;">Moreno, Thomas H.</text>
<text x="3.16cm" y="17.93cm" style="fill:#000000;font-size:10pt; font-family:sans-serif;">Farmer, Simon</text>
<text x="3.16cm" y="18.55cm" style="fill:#000000;font-size:10pt; font-family:sans-serif;">Баранов, Susan</text>
<text x="3.16cm" y="19.16cm" style="fill:#000000;font-size:10pt; font-family:sans-serif;">Douglas, Samuel</text>
<text x="3.16cm" y="19.78cm" style="fill:#000000;font-size:10pt; font-family:sans-serif;">Boucher, Catherine</text>
<text x="3.16cm" y="20.40cm" style="fill:#000000;font-size:10pt; font-family:sans-serif;">Moreno, Joseph McDowell</text>
<text x="3.16cm" y="21.01cm" style="fill:#000000;font-size:10pt; font-family:sans-serif;">Rodriquez, Elizabeth Jane</text>
<text x="3.16cm" y="21.63cm" style="fill:#000000;font-size:10pt; font-family:sans-serif;">Savard, Honora</text>
<text x="3.16cm" y="22.25cm" style="fill:#000000;font-size:10pt; font-family:sans-serif;">Farmer, Caroline</text>
<text x="3.16cm" y="22.87cm" style="fill:#000000;font-size:10pt; font-family:sans-serif;">Воронов, Katherine</text>
<text x="3.16cm" y="23.48cm" style="fill:#000000;font-size:10pt; font-family:sans-serif;">Тимофеев, John P.</text>
<text x="3.16cm" y="24.10cm" style="fill:#000000;font-size:10pt; font-family:sans-serif;">Mills, Isabella</text>
<text x="3.16cm" y="24.72cm" style="fill:#000000;font-size:10pt; font-family:sans-serif;">Moreno, Delilah</text>
<text x="3.16cm" y="25.34cm" style="fill:#000000;font-size:10pt; font-family:sans-serif;">Douglas, Catherine</text>
</svg>
