<?xml version="1.0" encoding="UTF-8" standalone="no"?>
<!DOCTYPE svg PUBLIC "-//W3C//DTD SVG 1.0//EN" "http://www.w3.org/TR/2001/REC-SVG-20010904/DTD/svg10.dtd">
<svg width="21.59cm" height="27.94cm" xmlns="http://www.w3.org/2000/svg">
<rect width="21.59cm" height="27.94cm" style="fill: none;"/>
<line x1="9.69cm" y1="4.54cm" x2="9.69cm" y2="25.40cm" style="stroke:#000000; stroke-dasharray: 2,4; stroke-width:0.50pt;"/>
<line x1="11.46cm" y1="4.54cm" x2="11.46cm" y2="25.40cm" style="stroke:#000000; stroke-dasharray: 2,4; stroke-width:0.50pt;"/>
<line x1="13.23cm" y1="4.54cm" x2="13.23cm" y2="25.40cm" style="stroke:#000000; stroke-dasharray: 2,4; stroke-width:0.50pt;"/>
<line x1="15.00cm" y1="4.54cm" x2="15.00cm" y2="25.40cm" style="stroke:#000000; stroke-dasharray: 2,4; stroke-width:0.50pt;"/>
<line x1="16.78cm" y1="4.54cm" x2="16.78cm" y2="25.40cm" style="stroke:#000000; stroke-dasharray: 2,4; stroke-width:0.50pt;"/>
<line x1="18.55cm" y1="4.54cm" x2="18.55cm" y2="25.40cm" style="stroke:#000000; stroke-dasharray: 2,4; stroke-width:0.50pt;"/>
<polygon fill="#ffffff" style="stroke:#000000;  stroke-width:0.50pt;" points="625.11,182.74 626.88,188.99 625.11,195.24 623.34,188.99"/>
<polygon fill="#000000" style="stroke:#000000;  stroke-width:0.50pt;" points="633.53,182.74 635.31,188.99 633.53,195.24 631.76,188.99"/>
<line x1="17.69cm" y1="5.33cm" x2="17.83cm" y2="5.33cm" style="stroke:#000000; stroke-width:0.50pt;"/>
<polygon fill="#ffffff" style="stroke:#000000;  stroke-width:0.50pt;" points="625.11,204.62 626.88,210.87 625.11,217.12 623.34,210.87"/>
<polygon fill="#ffffff" style="stroke:#000000;  stroke-width:0.50pt;" points="625.11,226.49 626.88,232.74 625.11,238.99 623.34,232.74"/>
<polygon fill="#000000" style="stroke:#000000;  stroke-width:0.50pt;" points="634.15,226.49 635.92,232.74 634.15,238.99 632.38,232.74"/>
<line x1="17.69cm" y1="6.57cm" x2="17.85cm" y2="6.57cm" style="stroke:#000000; stroke-width:0.50pt;"/>
<polygon fill="#ffffff" style="stroke:#000000;  stroke-width:0.50pt;" points="625.11,248.37 626.88,254.62 625.11,260.87 623.34,254.62"/>
<polygon fill="#000000" style="stroke:#000000;  stroke-width:0.50pt;" points="635.07,248.37 636.84,254.62 635.07,260.87 633.30,254.62"/>
<line x1="17.69cm" y1="7.19cm" x2="17.87cm" y2="7.19cm" style="stroke:#000000; stroke-width:0.50pt;"/>
<polygon fill="#ffffff" style="stroke:#000000;  stroke-width:0.50pt;" points="625.11,270.24 626.88,276.49 625.11,282.74 623.34,276.49"/>
<polygon fill="#000000" style="stroke:#000000;  stroke-width:0.50pt;" points="633.69,270.24 635.46,276.49 633.69,282.74 631.92,276.49"/>
<line x1="17.69cm" y1="7.80cm" x2="17.83cm" y2="7.80cm" style="stroke:#000000; stroke-width:0.50pt;"/>
<polygon fill="#ffffff" style="stroke:#000000;  stroke-width:0.50pt;" points="625.11,292.12 626.88,298.37 625.11,304.62 623.34,298.37"/>
<polygon fill="#000000" style="stroke:#000000;  stroke-width:0.50pt;" points="630.93,292.12 632.70,298.37 630.93,304.62 629.16,298.37"/>
<line x1="17.69cm" y1="8.42cm" x2="17.76cm" y2="8.42cm" style="stroke:#000000; stroke-width:0.50pt;"/>
<polygon fill="#ffffff" style="stroke:#000000;  stroke-width:0.50pt;" points="625.26,313.99 627.03,320.24 625.26,326.49 623.49,320.24"/>
<polygon fill="#000000" style="stroke:#000000;  stroke-width:0.50pt;" points="636.29,313.99 638.06,320.24 636.29,326.49 634.52,320.24"/>
<line x1="17.70cm" y1="9.04cm" x2="17.91cm" y2="9.04cm" style="stroke:#000000; stroke-width:0.50pt;"/>
<polygon fill="#ffffff" style="stroke:#000000;  stroke-width:0.50pt;" points="625.41,335.87 627.19,342.12 625.41,348.37 623.64,342.12"/>
<polygon fill="#ffffff" style="stroke:#000000;  stroke-width:0.50pt;" points="625.41,357.74 627.19,363.99 625.41,370.24 623.64,363.99"/>
<polygon fill="#ffffff" style="stroke:#000000;  stroke-width:0.50pt;" points="625.41,379.62 627.19,385.87 625.41,392.12 623.64,385.87"/>
<polygon fill="#ffffff" style="stroke:#000000;  stroke-width:0.50pt;" points="625.72,401.49 627.49,407.74 625.72,413.99 623.95,407.74"/>
<polygon fill="#000000" style="stroke:#000000;  stroke-width:0.50pt;" points="638.13,401.49 639.90,407.74 638.13,413.99 636.36,407.74"/>
<line x1="17.71cm" y1="11.51cm" x2="17.96cm" y2="11.51cm" style="stroke:#000000; stroke-width:0.50pt;"/>
<polygon fill="#ffffff" style="stroke:#000000;  stroke-width:0.50pt;" points="625.72,423.36 627.49,429.61 625.72,435.86 623.95,429.61"/>
<polygon fill="#000000" style="stroke:#000000;  stroke-width:0.50pt;" points="629.86,423.36 631.63,429.61 629.86,435.86 628.09,429.61"/>
<line x1="17.71cm" y1="12.12cm" x2="17.73cm" y2="12.12cm" style="stroke:#000000; stroke-width:0.50pt;"/>
<polygon fill="#ffffff" style="stroke:#000000;  stroke-width:0.50pt;" points="625.87,445.24 627.65,451.49 625.87,457.74 624.10,451.49"/>
<polygon fill="#ffffff" style="stroke:#000000;  stroke-width:0.50pt;" points="625.87,467.11 627.65,473.36 625.87,479.61 624.10,473.36"/>
<polygon fill="#000000" style="stroke:#000000;  stroke-width:0.50pt;" points="638.13,467.11 639.90,473.36 638.13,479.61 636.36,473.36"/>
<line x1="17.71cm" y1="13.36cm" x2="17.96cm" y2="13.36cm" style="stroke:#000000; stroke-width:0.50pt;"/>
<polygon fill="#ffffff" style="stroke:#000000;  stroke-width:0.50pt;" points="626.03,488.99 627.80,495.24 626.03,501.49 624.26,495.24"/>
<polygon fill="#000000" style="stroke:#000000;  stroke-width:0.50pt;" points="639.36,488.99 641.13,495.24 639.36,501.49 637.59,495.24"/>
<line x1="17.72cm" y1="13.98cm" x2="17.99cm" y2="13.98cm" style="stroke:#000000; stroke-width:0.50pt;"/>
<polygon fill="#ffffff" style="stroke:#000000;  stroke-width:0.50pt;" points="626.18,510.86 627.95,517.11 626.18,523.36 624.41,517.11"/>
<polygon fill="#ffffff" style="stroke:#000000;  stroke-width:0.50pt;" points="626.18,532.74 627.95,538.99 626.18,545.24 624.41,538.99"/>
<polygon fill="#ffffff" style="stroke:#000000;  stroke-width:0.50pt;" points="626.33,554.61 628.11,560.86 626.33,567.11 624.56,560.86"/>
<polygon fill="#ffffff" style="stroke:#000000;  stroke-width:0.50pt;" points="626.33,576.49 628.11,582.74 626.33,588.99 624.56,582.74"/>
<polygon fill="#000000" style="stroke:#000000;  stroke-width:0.50pt;" points="637.06,576.49 638.83,582.74 637.06,588.99 635.29,582.74"/>
<line x1="17.73cm" y1="16.45cm" x2="17.93cm" y2="16.45cm" style="stroke:#000000; stroke-width:0.50pt;"/>
<polygon fill="#ffffff" style="stroke:#000000;  stroke-width:0.50pt;" points="626.33,598.36 628.11,604.61 626.33,610.86 624.56,604.61"/>
<polygon fill="#000000" style="stroke:#000000;  stroke-width:0.50pt;" points="636.14,598.36 637.91,604.61 636.14,610.86 634.37,604.61"/>
<line x1="17.73cm" y1="17.06cm" x2="17.90cm" y2="17.06cm" style="stroke:#000000; stroke-width:0.50pt;"/>
<polygon fill="#ffffff" style="stroke:#000000;  stroke-width:0.50pt;" points="626.49,620.24 628.26,626.49 626.49,632.74 624.72,626.49"/>
<polygon fill="#000000" style="stroke:#000000;  stroke-width:0.50pt;" points="638.74,620.24 640.52,626.49 638.74,632.74 636.97,626.49"/>
<line x1="17.73cm" y1="17.68cm" x2="17.98cm" y2="17.68cm" style="stroke:#000000; stroke-width:0.50pt;"/>
<polygon fill="#ffffff" style="stroke:#000000;  stroke-width:0.50pt;" points="626.49,642.11 628.26,648.36 626.49,654.61 624.72,648.36"/>
<polygon fill="#ffffff" style="stroke:#000000;  stroke-width:0.50pt;" points="626.49,663.99 628.26,670.24 626.49,676.49 624.72,670.24"/>
<polygon fill="#ffffff" style="stroke:#000000;  stroke-width:0.50pt;" points="626.49,685.86 628.26,692.11 626.49,698.36 624.72,692.11"/>
<polygon fill="#ffffff" style="stroke:#000000;  stroke-width:0.50pt;" points="626.64,707.74 628.41,713.99 626.64,720.24 624.87,713.99"/>
<polygon fill="#000000" style="stroke:#000000;  stroke-width:0.50pt;" points="635.83,707.74 637.60,713.99 635.83,720.24 634.06,713.99"/>
<line x1="17.74cm" y1="20.15cm" x2="17.89cm" y2="20.15cm" style="stroke:#000000; stroke-width:0.50pt;"/>
<polygon fill="#ffffff" style="stroke:#000000;  stroke-width:0.50pt;" points="626.95,729.61 628.72,735.86 626.95,742.11 625.18,735.86"/>
<polygon fill="#000000" style="stroke:#000000;  stroke-width:0.50pt;" points="640.89,729.61 642.66,735.86 640.89,742.11 639.12,735.86"/>
<line x1="17.74cm" y1="20.77cm" x2="18.04cm" y2="20.77cm" style="stroke:#000000; stroke-width:0.50pt;"/>
<polygon fill="#ffffff" style="stroke:#000000;  stroke-width:0.50pt;" points="626.95,751.49 628.72,757.74 626.95,763.99 625.18,757.74"/>
<polygon fill="#000000" style="stroke:#000000;  stroke-width:0.50pt;" points="637.21,751.49 638.98,757.74 637.21,763.99 635.44,757.74"/>
<line x1="17.74cm" y1="21.39cm" x2="17.93cm" y2="21.39cm" style="stroke:#000000; stroke-width:0.50pt;"/>
<polygon fill="#ffffff" style="stroke:#000000;  stroke-width:0.50pt;" points="626.95,773.36 628.72,779.61 626.95,785.86 625.18,779.61"/>
<polygon fill="#000000" style="stroke:#000000;  stroke-width:0.50pt;" points="637.21,773.36 638.98,779.61 637.21,785.86 635.44,779.61"/>
<line x1="17.74cm" y1="22.00cm" x2="17.93cm" y2="22.00cm" style="stroke:#000000; stroke-width:0.50pt;"/>
<polygon fill="#ffffff" style="stroke:#000000;  stroke-width:0.50pt;" points="627.10,795.24 628.87,801.49 627.10,807.74 625.33,801.49"/>
<polygon fill="#ffffff" style="stroke:#000000;  stroke-width:0.50pt;" points="627.10,817.11 628.87,823.36 627.10,829.61 625.33,823.36"/>
<polygon fill="#000000" style="stroke:#000000;  stroke-width:0.50pt;" points="636.75,817.11 638.52,823.36 636.75,829.61 634.98,823.36"/>
<line x1="17.75cm" y1="23.24cm" x2="17.92cm" y2="23.24cm" style="stroke:#000000; stroke-width:0.50pt;"/>
<polygon fill="#ffffff" style="stroke:#000000;  stroke-width:0.50pt;" points="627.25,838.99 629.02,845.24 627.25,851.49 625.48,845.24"/>
<polygon fill="#000000" style="stroke:#000000;  stroke-width:0.50pt;" points="639.82,838.99 641.59,845.24 639.82,851.49 638.04,845.24"/>
<line x1="17.75cm" y1="23.85cm" x2="18.01cm" y2="23.85cm" style="stroke:#000000; stroke-width:0.50pt;"/>
<polygon fill="#ffffff" style="stroke:#000000;  stroke-width:0.50pt;" points="627.25,860.86 629.02,867.11 627.25,873.36 625.48,867.11"/>
<polygon fill="#000000" style="stroke:#000000;  stroke-width:0.50pt;" points="633.08,860.86 634.85,867.11 633.08,873.36 631.30,867.11"/>
<line x1="17.75cm" y1="24.47cm" x2="17.82cm" y2="24.47cm" style="stroke:#000000; stroke-width:0.50pt;"/>
<polygon fill="#ffffff" style="stroke:#000000;  stroke-width:0.50pt;" points="627.41,882.74 629.18,888.99 627.41,895.24 625.63,888.99"/>
<polygon fill="#000000" style="stroke:#000000;  stroke-width:0.50pt;" points="636.75,882.74 638.52,888.99 636.75,895.24 634.98,888.99"/>
<line x1="17.76cm" y1="25.09cm" x2="17.92cm" y2="25.09cm" style="stroke:#000000; stroke-width:0.50pt;"/>
<text x="9.34cm" y="3.13cm" style="fill:#000000;font-size:14pt; font-family:sans-serif;">Timeline Chart</text>
<text x="7.22cm" y="3.74cm" style="fill:#000000;font-size:14pt; font-family:sans-serif;">Entire Database -- Sorted by Birth Date</text>
<text x="9.41cm" y="4.54cm" style="fill:#000000;font-size:8pt; font-family:sans-serif;">-50</text>
<text x="11.16cm" y="4.54cm" style="fill:#000000;font-size:8pt; font-family:sans-serif;">360</text>
<text x="12.94cm" y="4.54cm" style="fill:#000000;font-size:8pt; font-family:sans-serif;">770</text>
<text x="14.65cm" y="4.54cm" style="fill:#000000;font-size:8pt; font-family:sans-serif;">1180</text>
<text x="16.42cm" y="4.54cm" style="fill:#000000;font-size:8pt; font-family:sans-serif;">1590</text>
<text x="18.19cm" y="4.54cm" style="fill:#000000;font-size:8pt; font-family:sans-serif;">2000</text>
<text x="3.16cm" y="5.58cm" style="fill:#000000;font-size:10pt; font-family:sans-serif;">Farmer, Peter Simon</text>
<text x="3.16cm" y="6.20cm" style="fill:#000000;font-size:10pt; font-family:sans-serif;">Moreno, Esau</text>
<text x="3.16cm" y="6.82cm" style="fill:#000000;font-size:10pt; font-family:sans-serif;">Злобин, Martha</text>
<text x="3.16cm" y="7.43cm" style="fill:#000000;font-size:10pt; font-family:sans-serif;">Houston, Ellender</text>
<text x="3.16cm" y="8.05cm" style="fill:#000000;font-size:10pt; font-family:sans-serif;">Todd, William</text>
<text x="3.16cm" y="8.67cm" style="fill:#000000;font-size:10pt; font-family:sans-serif;">Jiménez, Elizabeth</text>
<text x="3.16cm" y="9.28cm" style="fill:#000000;font-size:10pt; font-family:sans-serif;">Carroll, Grace</text>
<text x="3.16cm" y="9.90cm" style="fill:#000000;font-size:10pt; font-family:sans-serif;">Farmer, Elizabeth</text>
<text x="3.16cm" y="10.52cm" style="fill:#000000;font-size:10pt; font-family:sans-serif;">Garner, Joseph</text>
<text x="3.16cm" y="11.14cm" style="fill:#000000;font-size:10pt; font-family:sans-serif;">Jiménez, Andrew</text>
<text x="3.16cm" y="11.75cm" style="fill:#000000;font-size:10pt; font-family:sans-serif;">Moreno, Leah</text>
<text x="3.16cm" y="12.37cm" style="fill:#000000;font-size:10pt; font-family:sans-serif;">Jiménez, John</text>
<text x="3.16cm" y="12.99cm" style="fill:#000000;font-size:10pt; font-family:sans-serif;">Holloway, Sarah</text>
<text x="3.16cm" y="13.61cm" style="fill:#000000;font-size:10pt; font-family:sans-serif;">Зыков, John</text>
<text x="3.16cm" y="14.22cm" style="fill:#000000;font-size:10pt; font-family:sans-serif;">Farmer, Eva</text>
<text x="3.16cm" y="14.84cm" style="fill:#000000;font-size:10pt; font-family:sans-serif;">Parent, Montgomery</text>
<text x="3.16cm" y="15.46cm" style="fill:#000000;font-size:10pt; font-family:sans-serif;">Jiménez, Sarah</text>
<text x="3.16cm" y="16.08cm" style="fill:#000000;font-size:10pt; font-family:sans-serif;">Farmer, Catharine</text>
<text x="3.16cm" y="16.69cm" style="fill:#000000;font-size:10pt; font-family:sans-serif;">Fox, David</text>
<text x="3.16cm" y="17.31cm" style="fill:#000000;font-size:10pt; font-family:sans-serif;">Graves, Martha</text>
<text x="3.16cm" y="17.93cm" style="fill:#000000;font-size:10pt; font-family:sans-serif;">Edwards, Lucy</text>
<text x="3.16cm" y="18.55cm" style="fill:#000000;font-size:10pt; font-family:sans-serif;">Parent, Eleanor</text>
<text x="3.16cm" y="19.16cm" style="fill:#000000;font-size:10pt; font-family:sans-serif;">Jiménez, Rebecca</text>
<text x="3.16cm" y="19.78cm" style="fill:#000000;font-size:10pt; font-family:sans-serif;">Moreno, Enoch T.</text>
<text x="3.16cm" y="20.40cm" style="fill:#000000;font-size:10pt; font-family:sans-serif;">Webb, Margaret Margarite?</text>
<text x="3.16cm" y="21.01cm" style="fill:#000000;font-size:10pt; font-family:sans-serif;">Floyd, John S.</text>
<text x="3.16cm" y="21.63cm" style="fill:#000000;font-size:10pt; font-family:sans-serif;">渡辺, Mary (Polly)</text>
<text x="3.16cm" y="22.25cm" style="fill:#000000;font-size:10pt; font-family:sans-serif;">Jiménez, George Henry, Jr.</text>
<text x="3.16cm" y="22.87cm" style="fill:#000000;font-size:10pt; font-family:sans-serif;">Webb, Mary</text>
<text x="3.16cm" y="23.48cm" style="fill:#000000;font-size:10pt; font-family:sans-serif;">Blair, Jane</text>
<text x="3.16cm" y="24.10cm" style="fill:#000000;font-size:10pt; font-family:sans-serif;">Green, Frances</text>
<text x="3.16cm" y="24.72cm" style="fill:#000000;font-size:10pt; font-family:sans-serif;">Serrano, Archibald</text>
<text x="3.16cm" y="25.34cm" style="fill:#000000;font-size:10pt; font-family:sans-serif;">Jiménez, Cornelius</text>
</svg>
