<?xml version="1.0" encoding="UTF-8" standalone="no"?>
<!DOCTYPE svg PUBLIC "-//W3C//DTD SVG 1.0//EN" "http://www.w3.org/TR/2001/REC-SVG-20010904/DTD/svg10.dtd">
<svg width="21.59cm" height="27.94cm" xmlns="http://www.w3.org/2000/svg">
<rect width="21.59cm" height="27.94cm" style="fill: none;"/>
<line x1="9.69cm" y1="4.54cm" x2="9.69cm" y2="25.40cm" style="stroke:#000000; stroke-dasharray: 2,4; stroke-width:0.50pt;"/>
<line x1="11.46cm" y1="4.54cm" x2="11.46cm" y2="25.40cm" style="stroke:#000000; stroke-dasharray: 2,4; stroke-width:0.50pt;"/>
<line x1="13.23cm" y1="4.54cm" x2="13.23cm" y2="25.40cm" style="stroke:#000000; stroke-dasharray: 2,4; stroke-width:0.50pt;"/>
<line x1="15.00cm" y1="4.54cm" x2="15.00cm" y2="25.40cm" style="stroke:#000000; stroke-dasharray: 2,4; stroke-width:0.50pt;"/>
<line x1="16.78cm" y1="4.54cm" x2="16.78cm" y2="25.40cm" style="stroke:#000000; stroke-dasharray: 2,4; stroke-width:0.50pt;"/>
<line x1="18.55cm" y1="4.54cm" x2="18.55cm" y2="25.40cm" style="stroke:#000000; stroke-dasharray: 2,4; stroke-width:0.50pt;"/>
<polygon fill="#ffffff" style="stroke:#000000;  stroke-width:0.50pt;" points="640.43,182.74 642.20,188.99 640.43,195.24 638.66,188.99"/>
<polygon fill="#ffffff" style="stroke:#000000;  stroke-width:0.50pt;" points="640.43,204.62 642.20,210.87 640.43,217.12 638.66,210.87"/>
<polygon fill="#000000" style="stroke:#000000;  stroke-width:0.50pt;" points="652.23,204.62 654.00,210.87 652.23,217.12 650.45,210.87"/>
<line x1="18.12cm" y1="5.95cm" x2="18.36cm" y2="5.95cm" style="stroke:#000000; stroke-width:0.50pt;"/>
<polygon fill="#ffffff" style="stroke:#000000;  stroke-width:0.50pt;" points="640.43,226.49 642.20,232.74 640.43,238.99 638.66,232.74"/>
<polygon fill="#ffffff" style="stroke:#000000;  stroke-width:0.50pt;" points="640.58,248.37 642.35,254.62 640.58,260.87 638.81,254.62"/>
<polygon fill="#ffffff" style="stroke:#000000;  stroke-width:0.50pt;" points="640.58,270.24 642.35,276.49 640.58,282.74 638.81,276.49"/>
<polygon fill="#000000" style="stroke:#000000;  stroke-width:0.50pt;" points="652.38,270.24 654.15,276.49 652.38,282.74 650.61,276.49"/>
<line x1="18.13cm" y1="7.80cm" x2="18.36cm" y2="7.80cm" style="stroke:#000000; stroke-width:0.50pt;"/>
<polygon fill="#ffffff" style="stroke:#000000;  stroke-width:0.50pt;" points="640.74,292.12 642.51,298.37 640.74,304.62 638.96,298.37"/>
<polygon fill="#000000" style="stroke:#000000;  stroke-width:0.50pt;" points="645.94,292.12 647.72,298.37 645.94,304.62 644.17,298.37"/>
<line x1="18.13cm" y1="8.42cm" x2="18.18cm" y2="8.42cm" style="stroke:#000000; stroke-width:0.50pt;"/>
<polygon fill="#ffffff" style="stroke:#000000;  stroke-width:0.50pt;" points="640.74,313.99 642.51,320.24 640.74,326.49 638.96,320.24"/>
<polygon fill="#000000" style="stroke:#000000;  stroke-width:0.50pt;" points="654.83,313.99 656.60,320.24 654.83,326.49 653.06,320.24"/>
<line x1="18.13cm" y1="9.04cm" x2="18.43cm" y2="9.04cm" style="stroke:#000000; stroke-width:0.50pt;"/>
<polygon fill="#ffffff" style="stroke:#000000;  stroke-width:0.50pt;" points="640.74,335.87 642.51,342.12 640.74,348.37 638.96,342.12"/>
<polygon fill="#000000" style="stroke:#000000;  stroke-width:0.50pt;" points="647.78,335.87 649.55,342.12 647.78,348.37 646.01,342.12"/>
<line x1="18.13cm" y1="9.66cm" x2="18.23cm" y2="9.66cm" style="stroke:#000000; stroke-width:0.50pt;"/>
<polygon fill="#ffffff" style="stroke:#000000;  stroke-width:0.50pt;" points="640.74,357.74 642.51,363.99 640.74,370.24 638.96,363.99"/>
<polygon fill="#000000" style="stroke:#000000;  stroke-width:0.50pt;" points="652.69,357.74 654.46,363.99 652.69,370.24 650.91,363.99"/>
<line x1="18.13cm" y1="10.27cm" x2="18.37cm" y2="10.27cm" style="stroke:#000000; stroke-width:0.50pt;"/>
<polygon fill="#ffffff" style="stroke:#000000;  stroke-width:0.50pt;" points="640.74,379.62 642.51,385.87 640.74,392.12 638.96,385.87"/>
<polygon fill="#000000" style="stroke:#000000;  stroke-width:0.50pt;" points="650.54,379.62 652.31,385.87 650.54,392.12 648.77,385.87"/>
<line x1="18.13cm" y1="10.89cm" x2="18.31cm" y2="10.89cm" style="stroke:#000000; stroke-width:0.50pt;"/>
<polygon fill="#ffffff" style="stroke:#000000;  stroke-width:0.50pt;" points="640.89,401.49 642.66,407.74 640.89,413.99 639.12,407.74"/>
<polygon fill="#ffffff" style="stroke:#000000;  stroke-width:0.50pt;" points="640.89,423.36 642.66,429.61 640.89,435.86 639.12,429.61"/>
<polygon fill="#000000" style="stroke:#000000;  stroke-width:0.50pt;" points="652.53,423.36 654.30,429.61 652.53,435.86 650.76,429.61"/>
<line x1="18.14cm" y1="12.12cm" x2="18.37cm" y2="12.12cm" style="stroke:#000000; stroke-width:0.50pt;"/>
<polygon fill="#ffffff" style="stroke:#000000;  stroke-width:0.50pt;" points="641.04,445.24 642.81,451.49 641.04,457.74 639.27,451.49"/>
<polygon fill="#ffffff" style="stroke:#000000;  stroke-width:0.50pt;" points="641.04,467.11 642.81,473.36 641.04,479.61 639.27,473.36"/>
<polygon fill="#ffffff" style="stroke:#000000;  stroke-width:0.50pt;" points="641.04,488.99 642.81,495.24 641.04,501.49 639.27,495.24"/>
<polygon fill="#000000" style="stroke:#000000;  stroke-width:0.50pt;" points="649.62,488.99 651.39,495.24 649.62,501.49 647.85,495.24"/>
<line x1="18.14cm" y1="13.98cm" x2="18.28cm" y2="13.98cm" style="stroke:#000000; stroke-width:0.50pt;"/>
<polygon fill="#ffffff" style="stroke:#000000;  stroke-width:0.50pt;" points="641.04,510.86 642.81,517.11 641.04,523.36 639.27,517.11"/>
<polygon fill="#000000" style="stroke:#000000;  stroke-width:0.50pt;" points="654.22,510.86 655.99,517.11 654.22,523.36 652.45,517.11"/>
<line x1="18.14cm" y1="14.59cm" x2="18.41cm" y2="14.59cm" style="stroke:#000000; stroke-width:0.50pt;"/>
<polygon fill="#ffffff" style="stroke:#000000;  stroke-width:0.50pt;" points="641.04,532.74 642.81,538.99 641.04,545.24 639.27,538.99"/>
<polygon fill="#000000" style="stroke:#000000;  stroke-width:0.50pt;" points="653.30,532.74 655.07,538.99 653.30,545.24 651.53,538.99"/>
<line x1="18.14cm" y1="15.21cm" x2="18.39cm" y2="15.21cm" style="stroke:#000000; stroke-width:0.50pt;"/>
<polygon fill="#ffffff" style="stroke:#000000;  stroke-width:0.50pt;" points="641.20,554.61 642.97,560.86 641.20,567.11 639.42,560.86"/>
<polygon fill="#ffffff" style="stroke:#000000;  stroke-width:0.50pt;" points="641.20,576.49 642.97,582.74 641.20,588.99 639.42,582.74"/>
<polygon fill="#000000" style="stroke:#000000;  stroke-width:0.50pt;" points="652.53,576.49 654.30,582.74 652.53,588.99 650.76,582.74"/>
<line x1="18.15cm" y1="16.45cm" x2="18.37cm" y2="16.45cm" style="stroke:#000000; stroke-width:0.50pt;"/>
<polygon fill="#ffffff" style="stroke:#000000;  stroke-width:0.50pt;" points="641.20,598.36 642.97,604.61 641.20,610.86 639.42,604.61"/>
<polygon fill="#000000" style="stroke:#000000;  stroke-width:0.50pt;" points="651.92,598.36 653.69,604.61 651.92,610.86 650.15,604.61"/>
<line x1="18.15cm" y1="17.06cm" x2="18.35cm" y2="17.06cm" style="stroke:#000000; stroke-width:0.50pt;"/>
<polygon fill="#ffffff" style="stroke:#000000;  stroke-width:0.50pt;" points="641.20,620.24 642.97,626.49 641.20,632.74 639.42,626.49"/>
<polygon fill="#000000" style="stroke:#000000;  stroke-width:0.50pt;" points="645.79,620.24 647.56,626.49 645.79,632.74 644.02,626.49"/>
<line x1="18.15cm" y1="17.68cm" x2="18.18cm" y2="17.68cm" style="stroke:#000000; stroke-width:0.50pt;"/>
<polygon fill="#ffffff" style="stroke:#000000;  stroke-width:0.50pt;" points="641.20,642.11 642.97,648.36 641.20,654.61 639.42,648.36"/>
<polygon fill="#000000" style="stroke:#000000;  stroke-width:0.50pt;" points="654.83,642.11 656.60,648.36 654.83,654.61 653.06,648.36"/>
<line x1="18.15cm" y1="18.30cm" x2="18.43cm" y2="18.30cm" style="stroke:#000000; stroke-width:0.50pt;"/>
<polygon fill="#ffffff" style="stroke:#000000;  stroke-width:0.50pt;" points="641.35,663.99 643.12,670.24 641.35,676.49 639.58,670.24"/>
<polygon fill="#ffffff" style="stroke:#000000;  stroke-width:0.50pt;" points="641.35,685.86 643.12,692.11 641.35,698.36 639.58,692.11"/>
<polygon fill="#000000" style="stroke:#000000;  stroke-width:0.50pt;" points="655.44,685.86 657.22,692.11 655.44,698.36 653.67,692.11"/>
<line x1="18.15cm" y1="19.53cm" x2="18.45cm" y2="19.53cm" style="stroke:#000000; stroke-width:0.50pt;"/>
<polygon fill="#ffffff" style="stroke:#000000;  stroke-width:0.50pt;" points="641.35,707.74 643.12,713.99 641.35,720.24 639.58,713.99"/>
<polygon fill="#000000" style="stroke:#000000;  stroke-width:0.50pt;" points="652.99,707.74 654.76,713.99 652.99,720.24 651.22,713.99"/>
<line x1="18.15cm" y1="20.15cm" x2="18.38cm" y2="20.15cm" style="stroke:#000000; stroke-width:0.50pt;"/>
<polygon fill="#ffffff" style="stroke:#000000;  stroke-width:0.50pt;" points="641.35,729.61 643.12,735.86 641.35,742.11 639.58,735.86"/>
<polygon fill="#000000" style="stroke:#000000;  stroke-width:0.50pt;" points="654.37,729.61 656.14,735.86 654.37,742.11 652.60,735.86"/>
<line x1="18.15cm" y1="20.77cm" x2="18.42cm" y2="20.77cm" style="stroke:#000000; stroke-width:0.50pt;"/>
<polygon fill="#ffffff" style="stroke:#000000;  stroke-width:0.50pt;" points="641.35,751.49 643.12,757.74 641.35,763.99 639.58,757.74"/>
<polygon fill="#ffffff" style="stroke:#000000;  stroke-width:0.50pt;" points="641.50,773.36 643.27,779.61 641.50,785.86 639.73,779.61"/>
<polygon fill="#ffffff" style="stroke:#000000;  stroke-width:0.50pt;" points="641.50,795.24 643.27,801.49 641.50,807.74 639.73,801.49"/>
<polygon fill="#000000" style="stroke:#000000;  stroke-width:0.50pt;" points="652.84,795.24 654.61,801.49 652.84,807.74 651.07,801.49"/>
<line x1="18.15cm" y1="22.62cm" x2="18.37cm" y2="22.62cm" style="stroke:#000000; stroke-width:0.50pt;"/>
<polygon fill="#ffffff" style="stroke:#000000;  stroke-width:0.50pt;" points="641.50,817.11 643.27,823.36 641.50,829.61 639.73,823.36"/>
<polygon fill="#000000" style="stroke:#000000;  stroke-width:0.50pt;" points="651.46,817.11 653.23,823.36 651.46,829.61 649.69,823.36"/>
<line x1="18.15cm" y1="23.24cm" x2="18.34cm" y2="23.24cm" style="stroke:#000000; stroke-width:0.50pt;"/>
<polygon fill="#ffffff" style="stroke:#000000;  stroke-width:0.50pt;" points="641.50,838.99 643.27,845.24 641.50,851.49 639.73,845.24"/>
<polygon fill="#000000" style="stroke:#000000;  stroke-width:0.50pt;" points="649.47,838.99 651.24,845.24 649.47,851.49 647.70,845.24"/>
<line x1="18.15cm" y1="23.85cm" x2="18.28cm" y2="23.85cm" style="stroke:#000000; stroke-width:0.50pt;"/>
<polygon fill="#ffffff" style="stroke:#000000;  stroke-width:0.50pt;" points="641.50,860.86 643.27,867.11 641.50,873.36 639.73,867.11"/>
<polygon fill="#ffffff" style="stroke:#000000;  stroke-width:0.50pt;" points="641.65,882.74 643.43,888.99 641.65,895.24 639.88,888.99"/>
<polygon fill="#000000" style="stroke:#000000;  stroke-width:0.50pt;" points="653.61,882.74 655.38,888.99 653.61,895.24 651.83,888.99"/>
<line x1="18.16cm" y1="25.09cm" x2="18.40cm" y2="25.09cm" style="stroke:#000000; stroke-width:0.50pt;"/>
<text x="9.34cm" y="3.13cm" style="fill:#000000;font-size:14pt; font-family:sans-serif;">Timeline Chart</text>
<text x="7.22cm" y="3.74cm" style="fill:#000000;font-size:14pt; font-family:sans-serif;">Entire Database -- Sorted by Birth Date</text>
<text x="9.41cm" y="4.54cm" style="fill:#000000;font-size:8pt; font-family:sans-serif;">-50</text>
<text x="11.16cm" y="4.54cm" style="fill:#000000;font-size:8pt; font-family:sans-serif;">360</text>
<text x="12.94cm" y="4.54cm" style="fill:#000000;font-size:8pt; font-family:sans-serif;">770</text>
<text x="14.65cm" y="4.54cm" style="fill:#000000;font-size:8pt; font-family:sans-serif;">1180</text>
<text x="16.42cm" y="4.54cm" style="fill:#000000;font-size:8pt; font-family:sans-serif;">1590</text>
<text x="18.19cm" y="4.54cm" style="fill:#000000;font-size:8pt; font-family:sans-serif;">2000</text>
<text x="3.16cm" y="5.58cm" style="fill:#000000;font-size:10pt; font-family:sans-serif;">Lévesque, Jennie</text>
<text x="3.16cm" y="6.20cm" style="fill:#000000;font-size:10pt; font-family:sans-serif;">Webb, Anna Mabel</text>
<text x="3.16cm" y="6.82cm" style="fill:#000000;font-size:10pt; font-family:sans-serif;">Garrett, William Walker</text>
<text x="3.16cm" y="7.43cm" style="fill:#000000;font-size:10pt; font-family:sans-serif;">Landry, Maurice T.</text>
<text x="3.16cm" y="8.05cm" style="fill:#000000;font-size:10pt; font-family:sans-serif;">Todd, Benjamin Harrison</text>
<text x="3.16cm" y="8.67cm" style="fill:#000000;font-size:10pt; font-family:sans-serif;">Kristensen, Catherine Virginia</text>
<text x="3.16cm" y="9.28cm" style="fill:#000000;font-size:10pt; font-family:sans-serif;">Jankowski, Minnie</text>
<text x="3.16cm" y="9.90cm" style="fill:#000000;font-size:10pt; font-family:sans-serif;">Reeves, Margaret</text>
<text x="3.16cm" y="10.52cm" style="fill:#000000;font-size:10pt; font-family:sans-serif;">Warner, Julia Angeline</text>
<text x="3.16cm" y="11.14cm" style="fill:#000000;font-size:10pt; font-family:sans-serif;">Webb, Mary Ruth</text>
<text x="3.16cm" y="11.75cm" style="fill:#000000;font-size:10pt; font-family:sans-serif;">Lévesque, Elsie</text>
<text x="3.16cm" y="12.37cm" style="fill:#000000;font-size:10pt; font-family:sans-serif;">Marín, Walter Matthew</text>
<text x="3.16cm" y="12.99cm" style="fill:#000000;font-size:10pt; font-family:sans-serif;">Cruz, Everett</text>
<text x="3.16cm" y="13.61cm" style="fill:#000000;font-size:10pt; font-family:sans-serif;">Landry, Charles M.</text>
<text x="3.16cm" y="14.22cm" style="fill:#000000;font-size:10pt; font-family:sans-serif;">Todd, Percy Haye</text>
<text x="3.16cm" y="14.84cm" style="fill:#000000;font-size:10pt; font-family:sans-serif;">Davidson, Bernice</text>
<text x="3.16cm" y="15.46cm" style="fill:#000000;font-size:10pt; font-family:sans-serif;">Kristensen, Margaret Agnes"Maudy"</text>
<text x="3.16cm" y="16.08cm" style="fill:#000000;font-size:10pt; font-family:sans-serif;">Landry, Catherine M.</text>
<text x="3.16cm" y="16.69cm" style="fill:#000000;font-size:10pt; font-family:sans-serif;">Lessard, Ralph Raymond</text>
<text x="3.16cm" y="17.31cm" style="fill:#000000;font-size:10pt; font-family:sans-serif;">Marín, Albert</text>
<text x="3.16cm" y="17.93cm" style="fill:#000000;font-size:10pt; font-family:sans-serif;">Webb, Harry Noble</text>
<text x="3.16cm" y="18.55cm" style="fill:#000000;font-size:10pt; font-family:sans-serif;">Garner, Eugene Stanley</text>
<text x="3.16cm" y="19.16cm" style="fill:#000000;font-size:10pt; font-family:sans-serif;">Gutiérrez, Walter Harmon</text>
<text x="3.16cm" y="19.78cm" style="fill:#000000;font-size:10pt; font-family:sans-serif;">Cross, Alta M.</text>
<text x="3.16cm" y="20.40cm" style="fill:#000000;font-size:10pt; font-family:sans-serif;">Boucher, Fr.Lawrence M.</text>
<text x="3.16cm" y="21.01cm" style="fill:#000000;font-size:10pt; font-family:sans-serif;">Lessard, Susanna Marie</text>
<text x="3.16cm" y="21.63cm" style="fill:#000000;font-size:10pt; font-family:sans-serif;">Lévesque, Mary</text>
<text x="3.16cm" y="22.25cm" style="fill:#000000;font-size:10pt; font-family:sans-serif;">Myers, Nina Mae</text>
<text x="3.16cm" y="22.87cm" style="fill:#000000;font-size:10pt; font-family:sans-serif;">Kristensen, Miles Joseph"Dutch"</text>
<text x="3.16cm" y="23.48cm" style="fill:#000000;font-size:10pt; font-family:sans-serif;">Marín, Thomas Willis</text>
<text x="3.16cm" y="24.10cm" style="fill:#000000;font-size:10pt; font-family:sans-serif;">Boyd, Carmen Alberta</text>
<text x="3.16cm" y="24.72cm" style="fill:#000000;font-size:10pt; font-family:sans-serif;">Landry, John Anthony</text>
<text x="3.16cm" y="25.34cm" style="fill:#000000;font-size:10pt; font-family:sans-serif;">Reed, Jane</text>
</svg>
