<?xml version="1.0" encoding="UTF-8" standalone="no"?>
<!DOCTYPE svg PUBLIC "-//W3C//DTD SVG 1.0//EN" "http://www.w3.org/TR/2001/REC-SVG-20010904/DTD/svg10.dtd">
<svg width="21.59cm" height="27.94cm" xmlns="http://www.w3.org/2000/svg">
<rect width="21.59cm" height="27.94cm" style="fill: none;"/>
<line x1="9.69cm" y1="4.54cm" x2="9.69cm" y2="25.40cm" style="stroke:#000000; stroke-dasharray: 2,4; stroke-width:0.50pt;"/>
<line x1="11.46cm" y1="4.54cm" x2="11.46cm" y2="25.40cm" style="stroke:#000000; stroke-dasharray: 2,4; stroke-width:0.50pt;"/>
<line x1="13.23cm" y1="4.54cm" x2="13.23cm" y2="25.40cm" style="stroke:#000000; stroke-dasharray: 2,4; stroke-width:0.50pt;"/>
<line x1="15.00cm" y1="4.54cm" x2="15.00cm" y2="25.40cm" style="stroke:#000000; stroke-dasharray: 2,4; stroke-width:0.50pt;"/>
<line x1="16.78cm" y1="4.54cm" x2="16.78cm" y2="25.40cm" style="stroke:#000000; stroke-dasharray: 2,4; stroke-width:0.50pt;"/>
<line x1="18.55cm" y1="4.54cm" x2="18.55cm" y2="25.40cm" style="stroke:#000000; stroke-dasharray: 2,4; stroke-width:0.50pt;"/>
<polygon fill="#ffffff" style="stroke:#000000;  stroke-width:0.50pt;" points="637.82,182.74 639.60,188.99 637.82,195.24 636.05,188.99"/>
<polygon fill="#000000" style="stroke:#000000;  stroke-width:0.50pt;" points="649.62,182.74 651.39,188.99 649.62,195.24 647.85,188.99"/>
<line x1="18.05cm" y1="5.33cm" x2="18.28cm" y2="5.33cm" style="stroke:#000000; stroke-width:0.50pt;"/>
<polygon fill="#ffffff" style="stroke:#000000;  stroke-width:0.50pt;" points="637.98,204.62 639.75,210.87 637.98,217.12 636.21,210.87"/>
<polygon fill="#000000" style="stroke:#000000;  stroke-width:0.50pt;" points="648.09,204.62 649.86,210.87 648.09,217.12 646.32,210.87"/>
<line x1="18.06cm" y1="5.95cm" x2="18.24cm" y2="5.95cm" style="stroke:#000000; stroke-width:0.50pt;"/>
<polygon fill="#ffffff" style="stroke:#000000;  stroke-width:0.50pt;" points="637.98,226.49 639.75,232.74 637.98,238.99 636.21,232.74"/>
<polygon fill="#000000" style="stroke:#000000;  stroke-width:0.50pt;" points="649.32,226.49 651.09,232.74 649.32,238.99 647.54,232.74"/>
<line x1="18.06cm" y1="6.57cm" x2="18.28cm" y2="6.57cm" style="stroke:#000000; stroke-width:0.50pt;"/>
<polygon fill="#ffffff" style="stroke:#000000;  stroke-width:0.50pt;" points="638.28,248.37 640.06,254.62 638.28,260.87 636.51,254.62"/>
<polygon fill="#ffffff" style="stroke:#000000;  stroke-width:0.50pt;" points="638.28,270.24 640.06,276.49 638.28,282.74 636.51,276.49"/>
<polygon fill="#000000" style="stroke:#000000;  stroke-width:0.50pt;" points="647.94,270.24 649.71,276.49 647.94,282.74 646.16,276.49"/>
<line x1="18.06cm" y1="7.80cm" x2="18.24cm" y2="7.80cm" style="stroke:#000000; stroke-width:0.50pt;"/>
<polygon fill="#ffffff" style="stroke:#000000;  stroke-width:0.50pt;" points="638.28,292.12 640.06,298.37 638.28,304.62 636.51,298.37"/>
<polygon fill="#000000" style="stroke:#000000;  stroke-width:0.50pt;" points="646.40,292.12 648.18,298.37 646.40,304.62 644.63,298.37"/>
<line x1="18.06cm" y1="8.42cm" x2="18.19cm" y2="8.42cm" style="stroke:#000000; stroke-width:0.50pt;"/>
<polygon fill="#ffffff" style="stroke:#000000;  stroke-width:0.50pt;" points="638.28,313.99 640.06,320.24 638.28,326.49 636.51,320.24"/>
<polygon fill="#ffffff" style="stroke:#000000;  stroke-width:0.50pt;" points="638.28,335.87 640.06,342.12 638.28,348.37 636.51,342.12"/>
<polygon fill="#ffffff" style="stroke:#000000;  stroke-width:0.50pt;" points="638.44,357.74 640.21,363.99 638.44,370.24 636.67,363.99"/>
<polygon fill="#000000" style="stroke:#000000;  stroke-width:0.50pt;" points="649.01,357.74 650.78,363.99 649.01,370.24 647.24,363.99"/>
<line x1="18.07cm" y1="10.27cm" x2="18.27cm" y2="10.27cm" style="stroke:#000000; stroke-width:0.50pt;"/>
<polygon fill="#ffffff" style="stroke:#000000;  stroke-width:0.50pt;" points="638.44,379.62 640.21,385.87 638.44,392.12 636.67,385.87"/>
<polygon fill="#000000" style="stroke:#000000;  stroke-width:0.50pt;" points="651.92,379.62 653.69,385.87 651.92,392.12 650.15,385.87"/>
<line x1="18.07cm" y1="10.89cm" x2="18.35cm" y2="10.89cm" style="stroke:#000000; stroke-width:0.50pt;"/>
<polygon fill="#ffffff" style="stroke:#000000;  stroke-width:0.50pt;" points="638.59,401.49 640.36,407.74 638.59,413.99 636.82,407.74"/>
<polygon fill="#000000" style="stroke:#000000;  stroke-width:0.50pt;" points="645.79,401.49 647.56,407.74 645.79,413.99 644.02,407.74"/>
<line x1="18.07cm" y1="11.51cm" x2="18.18cm" y2="11.51cm" style="stroke:#000000; stroke-width:0.50pt;"/>
<polygon fill="#ffffff" style="stroke:#000000;  stroke-width:0.50pt;" points="638.59,423.36 640.36,429.61 638.59,435.86 636.82,429.61"/>
<polygon fill="#000000" style="stroke:#000000;  stroke-width:0.50pt;" points="650.08,423.36 651.85,429.61 650.08,435.86 648.31,429.61"/>
<line x1="18.07cm" y1="12.12cm" x2="18.30cm" y2="12.12cm" style="stroke:#000000; stroke-width:0.50pt;"/>
<polygon fill="#ffffff" style="stroke:#000000;  stroke-width:0.50pt;" points="638.59,445.24 640.36,451.49 638.59,457.74 636.82,451.49"/>
<polygon fill="#000000" style="stroke:#000000;  stroke-width:0.50pt;" points="649.32,445.24 651.09,451.49 649.32,457.74 647.54,451.49"/>
<line x1="18.07cm" y1="12.74cm" x2="18.28cm" y2="12.74cm" style="stroke:#000000; stroke-width:0.50pt;"/>
<polygon fill="#ffffff" style="stroke:#000000;  stroke-width:0.50pt;" points="638.59,467.11 640.36,473.36 638.59,479.61 636.82,473.36"/>
<polygon fill="#ffffff" style="stroke:#000000;  stroke-width:0.50pt;" points="638.59,488.99 640.36,495.24 638.59,501.49 636.82,495.24"/>
<polygon fill="#ffffff" style="stroke:#000000;  stroke-width:0.50pt;" points="638.59,510.86 640.36,517.11 638.59,523.36 636.82,517.11"/>
<polygon fill="#000000" style="stroke:#000000;  stroke-width:0.50pt;" points="645.18,510.86 646.95,517.11 645.18,523.36 643.41,517.11"/>
<line x1="18.07cm" y1="14.59cm" x2="18.16cm" y2="14.59cm" style="stroke:#000000; stroke-width:0.50pt;"/>
<polygon fill="#ffffff" style="stroke:#000000;  stroke-width:0.50pt;" points="638.59,532.74 640.36,538.99 638.59,545.24 636.82,538.99"/>
<polygon fill="#ffffff" style="stroke:#000000;  stroke-width:0.50pt;" points="638.74,554.61 640.52,560.86 638.74,567.11 636.97,560.86"/>
<polygon fill="#000000" style="stroke:#000000;  stroke-width:0.50pt;" points="644.87,554.61 646.64,560.86 644.87,567.11 643.10,560.86"/>
<line x1="18.08cm" y1="15.83cm" x2="18.15cm" y2="15.83cm" style="stroke:#000000; stroke-width:0.50pt;"/>
<polygon fill="#ffffff" style="stroke:#000000;  stroke-width:0.50pt;" points="638.74,576.49 640.52,582.74 638.74,588.99 636.97,582.74"/>
<polygon fill="#ffffff" style="stroke:#000000;  stroke-width:0.50pt;" points="638.74,598.36 640.52,604.61 638.74,610.86 636.97,604.61"/>
<polygon fill="#000000" style="stroke:#000000;  stroke-width:0.50pt;" points="647.94,598.36 649.71,604.61 647.94,610.86 646.16,604.61"/>
<line x1="18.08cm" y1="17.06cm" x2="18.24cm" y2="17.06cm" style="stroke:#000000; stroke-width:0.50pt;"/>
<polygon fill="#ffffff" style="stroke:#000000;  stroke-width:0.50pt;" points="638.90,620.24 640.67,626.49 638.90,632.74 637.13,626.49"/>
<polygon fill="#000000" style="stroke:#000000;  stroke-width:0.50pt;" points="638.90,620.24 640.67,626.49 638.90,632.74 637.13,626.49"/>
<line x1="18.08cm" y1="17.68cm" x2="17.98cm" y2="17.68cm" style="stroke:#000000; stroke-width:0.50pt;"/>
<polygon fill="#ffffff" style="stroke:#000000;  stroke-width:0.50pt;" points="638.90,642.11 640.67,648.36 638.90,654.61 637.13,648.36"/>
<polygon fill="#000000" style="stroke:#000000;  stroke-width:0.50pt;" points="638.90,642.11 640.67,648.36 638.90,654.61 637.13,648.36"/>
<line x1="18.08cm" y1="18.30cm" x2="17.98cm" y2="18.30cm" style="stroke:#000000; stroke-width:0.50pt;"/>
<polygon fill="#ffffff" style="stroke:#000000;  stroke-width:0.50pt;" points="638.90,663.99 640.67,670.24 638.90,676.49 637.13,670.24"/>
<polygon fill="#000000" style="stroke:#000000;  stroke-width:0.50pt;" points="651.77,663.99 653.54,670.24 651.77,676.49 649.99,670.24"/>
<line x1="18.08cm" y1="18.92cm" x2="18.34cm" y2="18.92cm" style="stroke:#000000; stroke-width:0.50pt;"/>
<polygon fill="#ffffff" style="stroke:#000000;  stroke-width:0.50pt;" points="638.90,685.86 640.67,692.11 638.90,698.36 637.13,692.11"/>
<polygon fill="#000000" style="stroke:#000000;  stroke-width:0.50pt;" points="649.62,685.86 651.39,692.11 649.62,698.36 647.85,692.11"/>
<line x1="18.08cm" y1="19.53cm" x2="18.28cm" y2="19.53cm" style="stroke:#000000; stroke-width:0.50pt;"/>
<polygon fill="#ffffff" style="stroke:#000000;  stroke-width:0.50pt;" points="639.05,707.74 640.82,713.99 639.05,720.24 637.28,713.99"/>
<polygon fill="#000000" style="stroke:#000000;  stroke-width:0.50pt;" points="650.69,707.74 652.47,713.99 650.69,720.24 648.92,713.99"/>
<line x1="18.09cm" y1="20.15cm" x2="18.31cm" y2="20.15cm" style="stroke:#000000; stroke-width:0.50pt;"/>
<polygon fill="#ffffff" style="stroke:#000000;  stroke-width:0.50pt;" points="639.05,729.61 640.82,735.86 639.05,742.11 637.28,735.86"/>
<polygon fill="#000000" style="stroke:#000000;  stroke-width:0.50pt;" points="649.93,729.61 651.70,735.86 649.93,742.11 648.16,735.86"/>
<line x1="18.09cm" y1="20.77cm" x2="18.29cm" y2="20.77cm" style="stroke:#000000; stroke-width:0.50pt;"/>
<polygon fill="#ffffff" style="stroke:#000000;  stroke-width:0.50pt;" points="639.20,751.49 640.98,757.74 639.20,763.99 637.43,757.74"/>
<polygon fill="#000000" style="stroke:#000000;  stroke-width:0.50pt;" points="649.01,751.49 650.78,757.74 649.01,763.99 647.24,757.74"/>
<line x1="18.09cm" y1="21.39cm" x2="18.27cm" y2="21.39cm" style="stroke:#000000; stroke-width:0.50pt;"/>
<polygon fill="#ffffff" style="stroke:#000000;  stroke-width:0.50pt;" points="639.20,773.36 640.98,779.61 639.20,785.86 637.43,779.61"/>
<polygon fill="#000000" style="stroke:#000000;  stroke-width:0.50pt;" points="648.40,773.36 650.17,779.61 648.40,785.86 646.62,779.61"/>
<line x1="18.09cm" y1="22.00cm" x2="18.25cm" y2="22.00cm" style="stroke:#000000; stroke-width:0.50pt;"/>
<polygon fill="#ffffff" style="stroke:#000000;  stroke-width:0.50pt;" points="639.36,795.24 641.13,801.49 639.36,807.74 637.59,801.49"/>
<polygon fill="#ffffff" style="stroke:#000000;  stroke-width:0.50pt;" points="639.36,817.11 641.13,823.36 639.36,829.61 637.59,823.36"/>
<polygon fill="#ffffff" style="stroke:#000000;  stroke-width:0.50pt;" points="639.36,838.99 641.13,845.24 639.36,851.49 637.59,845.24"/>
<polygon fill="#000000" style="stroke:#000000;  stroke-width:0.50pt;" points="649.62,838.99 651.39,845.24 649.62,851.49 647.85,845.24"/>
<line x1="18.09cm" y1="23.85cm" x2="18.28cm" y2="23.85cm" style="stroke:#000000; stroke-width:0.50pt;"/>
<polygon fill="#ffffff" style="stroke:#000000;  stroke-width:0.50pt;" points="639.36,860.86 641.13,867.11 639.36,873.36 637.59,867.11"/>
<polygon fill="#000000" style="stroke:#000000;  stroke-width:0.50pt;" points="651.31,860.86 653.08,867.11 651.31,873.36 649.54,867.11"/>
<line x1="18.09cm" y1="24.47cm" x2="18.33cm" y2="24.47cm" style="stroke:#000000; stroke-width:0.50pt;"/>
<polygon fill="#ffffff" style="stroke:#000000;  stroke-width:0.50pt;" points="639.36,882.74 641.13,888.99 639.36,895.24 637.59,888.99"/>
<polygon fill="#000000" style="stroke:#000000;  stroke-width:0.50pt;" points="643.19,882.74 644.96,888.99 643.19,895.24 641.42,888.99"/>
<line x1="18.09cm" y1="25.09cm" x2="18.10cm" y2="25.09cm" style="stroke:#000000; stroke-width:0.50pt;"/>
<text x="9.34cm" y="3.13cm" style="fill:#000000;font-size:14pt; font-family:sans-serif;">Timeline Chart</text>
<text x="7.22cm" y="3.74cm" style="fill:#000000;font-size:14pt; font-family:sans-serif;">Entire Database -- Sorted by Birth Date</text>
<text x="9.41cm" y="4.54cm" style="fill:#000000;font-size:8pt; font-family:sans-serif;">-50</text>
<text x="11.16cm" y="4.54cm" style="fill:#000000;font-size:8pt; font-family:sans-serif;">360</text>
<text x="12.94cm" y="4.54cm" style="fill:#000000;font-size:8pt; font-family:sans-serif;">770</text>
<text x="14.65cm" y="4.54cm" style="fill:#000000;font-size:8pt; font-family:sans-serif;">1180</text>
<text x="16.42cm" y="4.54cm" style="fill:#000000;font-size:8pt; font-family:sans-serif;">1590</text>
<text x="18.19cm" y="4.54cm" style="fill:#000000;font-size:8pt; font-family:sans-serif;">2000</text>
<text x="3.16cm" y="5.58cm" style="fill:#000000;font-size:10pt; font-family:sans-serif;">Todd, Flora Belle</text>
<text x="3.16cm" y="6.20cm" style="fill:#000000;font-size:10pt; font-family:sans-serif;">Todd, Robert Arthur</text>
<text x="3.16cm" y="6.82cm" style="fill:#000000;font-size:10pt; font-family:sans-serif;">Jankowski, Sarah</text>
<text x="3.16cm" y="7.43cm" style="fill:#000000;font-size:10pt; font-family:sans-serif;">Ball, Ida B.</text>
<text x="3.16cm" y="8.05cm" style="fill:#000000;font-size:10pt; font-family:sans-serif;">Jankowski, John</text>
<text x="3.16cm" y="8.67cm" style="fill:#000000;font-size:10pt; font-family:sans-serif;">Garner, Jesse V.</text>
<text x="3.16cm" y="9.28cm" style="fill:#000000;font-size:10pt; font-family:sans-serif;">Jones, Martha Elizabeth</text>
<text x="3.16cm" y="9.90cm" style="fill:#000000;font-size:10pt; font-family:sans-serif;">Reed, Terence</text>
<text x="3.16cm" y="10.52cm" style="fill:#000000;font-size:10pt; font-family:sans-serif;">Neal, Matilda</text>
<text x="3.16cm" y="11.14cm" style="fill:#000000;font-size:10pt; font-family:sans-serif;">Todd, Louella Jane</text>
<text x="3.16cm" y="11.75cm" style="fill:#000000;font-size:10pt; font-family:sans-serif;">Jankowski, Isabella Belle</text>
<text x="3.16cm" y="12.37cm" style="fill:#000000;font-size:10pt; font-family:sans-serif;">Webb, Clarence</text>
<text x="3.16cm" y="12.99cm" style="fill:#000000;font-size:10pt; font-family:sans-serif;">Webb, Lawrence</text>
<text x="3.16cm" y="13.61cm" style="fill:#000000;font-size:10pt; font-family:sans-serif;">Reed, Mary</text>
<text x="3.16cm" y="14.22cm" style="fill:#000000;font-size:10pt; font-family:sans-serif;">Reed</text>
<text x="3.16cm" y="14.84cm" style="fill:#000000;font-size:10pt; font-family:sans-serif;">Garner, Raymond E.</text>
<text x="3.16cm" y="15.46cm" style="fill:#000000;font-size:10pt; font-family:sans-serif;">Ball, Margaret</text>
<text x="3.16cm" y="16.08cm" style="fill:#000000;font-size:10pt; font-family:sans-serif;">Todd, George Walter</text>
<text x="3.16cm" y="16.69cm" style="fill:#000000;font-size:10pt; font-family:sans-serif;">Bush, Patrick</text>
<text x="3.16cm" y="17.31cm" style="fill:#000000;font-size:10pt; font-family:sans-serif;">Boucher, Nora A.</text>
<text x="3.16cm" y="17.93cm" style="fill:#000000;font-size:10pt; font-family:sans-serif;">Page, Mary</text>
<text x="3.16cm" y="18.55cm" style="fill:#000000;font-size:10pt; font-family:sans-serif;">Page, Rebecca</text>
<text x="3.16cm" y="19.16cm" style="fill:#000000;font-size:10pt; font-family:sans-serif;">Garner, Jennie S.</text>
<text x="3.16cm" y="19.78cm" style="fill:#000000;font-size:10pt; font-family:sans-serif;">Reeves, Mary</text>
<text x="3.16cm" y="20.40cm" style="fill:#000000;font-size:10pt; font-family:sans-serif;">Todd, Jesse Elmer</text>
<text x="3.16cm" y="21.01cm" style="fill:#000000;font-size:10pt; font-family:sans-serif;">Webb, William Herman</text>
<text x="3.16cm" y="21.63cm" style="fill:#000000;font-size:10pt; font-family:sans-serif;">Garner, Walter E.</text>
<text x="3.16cm" y="22.25cm" style="fill:#000000;font-size:10pt; font-family:sans-serif;">Jankowski, George Jr.</text>
<text x="3.16cm" y="22.87cm" style="fill:#000000;font-size:10pt; font-family:sans-serif;">Boucher, Michael</text>
<text x="3.16cm" y="23.48cm" style="fill:#000000;font-size:10pt; font-family:sans-serif;">Garner, Elizabeth</text>
<text x="3.16cm" y="24.10cm" style="fill:#000000;font-size:10pt; font-family:sans-serif;">Webb, David Festus</text>
<text x="3.16cm" y="24.72cm" style="fill:#000000;font-size:10pt; font-family:sans-serif;">Marín, Lilla Estella</text>
<text x="3.16cm" y="25.34cm" style="fill:#000000;font-size:10pt; font-family:sans-serif;">Reeves, Honora</text>
</svg>
