<?xml version="1.0" encoding="UTF-8" standalone="no"?>
<!DOCTYPE svg PUBLIC "-//W3C//DTD SVG 1.0//EN" "http://www.w3.org/TR/2001/REC-SVG-20010904/DTD/svg10.dtd">
<svg width="21.59cm" height="27.94cm" xmlns="http://www.w3.org/2000/svg">
<rect width="21.59cm" height="27.94cm" style="fill: none;"/>
<line x1="9.69cm" y1="4.54cm" x2="9.69cm" y2="25.40cm" style="stroke:#000000; stroke-dasharray: 2,4; stroke-width:0.50pt;"/>
<line x1="11.46cm" y1="4.54cm" x2="11.46cm" y2="25.40cm" style="stroke:#000000; stroke-dasharray: 2,4; stroke-width:0.50pt;"/>
<line x1="13.23cm" y1="4.54cm" x2="13.23cm" y2="25.40cm" style="stroke:#000000; stroke-dasharray: 2,4; stroke-width:0.50pt;"/>
<line x1="15.00cm" y1="4.54cm" x2="15.00cm" y2="25.40cm" style="stroke:#000000; stroke-dasharray: 2,4; stroke-width:0.50pt;"/>
<line x1="16.78cm" y1="4.54cm" x2="16.78cm" y2="25.40cm" style="stroke:#000000; stroke-dasharray: 2,4; stroke-width:0.50pt;"/>
<line x1="18.55cm" y1="4.54cm" x2="18.55cm" y2="25.40cm" style="stroke:#000000; stroke-dasharray: 2,4; stroke-width:0.50pt;"/>
<polygon fill="#ffffff" style="stroke:#000000;  stroke-width:0.50pt;" points="604.58,182.74 606.35,188.99 604.58,195.24 602.81,188.99"/>
<polygon fill="#000000" style="stroke:#000000;  stroke-width:0.50pt;" points="616.07,182.74 617.84,188.99 616.07,195.24 614.30,188.99"/>
<line x1="17.11cm" y1="5.33cm" x2="17.34cm" y2="5.33cm" style="stroke:#000000; stroke-width:0.50pt;"/>
<polygon fill="#ffffff" style="stroke:#000000;  stroke-width:0.50pt;" points="604.73,204.62 606.50,210.87 604.73,217.12 602.96,210.87"/>
<polygon fill="#000000" style="stroke:#000000;  stroke-width:0.50pt;" points="618.52,204.62 620.29,210.87 618.52,217.12 616.75,210.87"/>
<line x1="17.12cm" y1="5.95cm" x2="17.41cm" y2="5.95cm" style="stroke:#000000; stroke-width:0.50pt;"/>
<polygon fill="#ffffff" style="stroke:#000000;  stroke-width:0.50pt;" points="604.88,226.49 606.66,232.74 604.88,238.99 603.11,232.74"/>
<polygon fill="#000000" style="stroke:#000000;  stroke-width:0.50pt;" points="614.08,226.49 615.85,232.74 614.08,238.99 612.31,232.74"/>
<line x1="17.12cm" y1="6.57cm" x2="17.28cm" y2="6.57cm" style="stroke:#000000; stroke-width:0.50pt;"/>
<polygon fill="#ffffff" style="stroke:#000000;  stroke-width:0.50pt;" points="605.19,248.37 606.96,254.62 605.19,260.87 603.42,254.62"/>
<polygon fill="#ffffff" style="stroke:#000000;  stroke-width:0.50pt;" points="605.50,270.24 607.27,276.49 605.50,282.74 603.73,276.49"/>
<polygon fill="#000000" style="stroke:#000000;  stroke-width:0.50pt;" points="615.46,270.24 617.23,276.49 615.46,282.74 613.68,276.49"/>
<line x1="17.14cm" y1="7.80cm" x2="17.32cm" y2="7.80cm" style="stroke:#000000; stroke-width:0.50pt;"/>
<polygon fill="#ffffff" style="stroke:#000000;  stroke-width:0.50pt;" points="605.80,292.12 607.58,298.37 605.80,304.62 604.03,298.37"/>
<polygon fill="#000000" style="stroke:#000000;  stroke-width:0.50pt;" points="618.06,292.12 619.83,298.37 618.06,304.62 616.29,298.37"/>
<line x1="17.15cm" y1="8.42cm" x2="17.39cm" y2="8.42cm" style="stroke:#000000; stroke-width:0.50pt;"/>
<polygon fill="#ffffff" style="stroke:#000000;  stroke-width:0.50pt;" points="605.80,313.99 607.58,320.24 605.80,326.49 604.03,320.24"/>
<polygon fill="#000000" style="stroke:#000000;  stroke-width:0.50pt;" points="613.92,313.99 615.70,320.24 613.92,326.49 612.15,320.24"/>
<line x1="17.15cm" y1="9.04cm" x2="17.28cm" y2="9.04cm" style="stroke:#000000; stroke-width:0.50pt;"/>
<polygon fill="#ffffff" style="stroke:#000000;  stroke-width:0.50pt;" points="605.96,335.87 607.73,342.12 605.96,348.37 604.19,342.12"/>
<polygon fill="#000000" style="stroke:#000000;  stroke-width:0.50pt;" points="618.21,335.87 619.99,342.12 618.21,348.37 616.44,342.12"/>
<line x1="17.15cm" y1="9.66cm" x2="17.40cm" y2="9.66cm" style="stroke:#000000; stroke-width:0.50pt;"/>
<polygon fill="#ffffff" style="stroke:#000000;  stroke-width:0.50pt;" points="606.11,357.74 607.88,363.99 606.11,370.24 604.34,363.99"/>
<polygon fill="#ffffff" style="stroke:#000000;  stroke-width:0.50pt;" points="606.26,379.62 608.04,385.87 606.26,392.12 604.49,385.87"/>
<polygon fill="#000000" style="stroke:#000000;  stroke-width:0.50pt;" points="609.63,379.62 611.41,385.87 609.63,392.12 607.86,385.87"/>
<line x1="17.16cm" y1="10.89cm" x2="17.16cm" y2="10.89cm" style="stroke:#000000; stroke-width:0.50pt;"/>
<polygon fill="#ffffff" style="stroke:#000000;  stroke-width:0.50pt;" points="606.26,401.49 608.04,407.74 606.26,413.99 604.49,407.74"/>
<polygon fill="#000000" style="stroke:#000000;  stroke-width:0.50pt;" points="617.60,401.49 619.37,407.74 617.60,413.99 615.83,407.74"/>
<line x1="17.16cm" y1="11.51cm" x2="17.38cm" y2="11.51cm" style="stroke:#000000; stroke-width:0.50pt;"/>
<polygon fill="#ffffff" style="stroke:#000000;  stroke-width:0.50pt;" points="606.42,423.36 608.19,429.61 606.42,435.86 604.64,429.61"/>
<polygon fill="#000000" style="stroke:#000000;  stroke-width:0.50pt;" points="611.63,423.36 613.40,429.61 611.63,435.86 609.85,429.61"/>
<line x1="17.16cm" y1="12.12cm" x2="17.21cm" y2="12.12cm" style="stroke:#000000; stroke-width:0.50pt;"/>
<polygon fill="#ffffff" style="stroke:#000000;  stroke-width:0.50pt;" points="606.42,445.24 608.19,451.49 606.42,457.74 604.64,451.49"/>
<polygon fill="#000000" style="stroke:#000000;  stroke-width:0.50pt;" points="619.59,445.24 621.36,451.49 619.59,457.74 617.82,451.49"/>
<line x1="17.16cm" y1="12.74cm" x2="17.44cm" y2="12.74cm" style="stroke:#000000; stroke-width:0.50pt;"/>
<polygon fill="#ffffff" style="stroke:#000000;  stroke-width:0.50pt;" points="606.57,467.11 608.34,473.36 606.57,479.61 604.80,473.36"/>
<polygon fill="#000000" style="stroke:#000000;  stroke-width:0.50pt;" points="610.55,467.11 612.32,473.36 610.55,479.61 608.78,473.36"/>
<line x1="17.17cm" y1="13.36cm" x2="17.18cm" y2="13.36cm" style="stroke:#000000; stroke-width:0.50pt;"/>
<polygon fill="#ffffff" style="stroke:#000000;  stroke-width:0.50pt;" points="606.57,488.99 608.34,495.24 606.57,501.49 604.80,495.24"/>
<polygon fill="#ffffff" style="stroke:#000000;  stroke-width:0.50pt;" points="606.72,510.86 608.49,517.11 606.72,523.36 604.95,517.11"/>
<polygon fill="#ffffff" style="stroke:#000000;  stroke-width:0.50pt;" points="606.88,532.74 608.65,538.99 606.88,545.24 605.10,538.99"/>
<polygon fill="#ffffff" style="stroke:#000000;  stroke-width:0.50pt;" points="606.88,554.61 608.65,560.86 606.88,567.11 605.10,560.86"/>
<polygon fill="#ffffff" style="stroke:#000000;  stroke-width:0.50pt;" points="607.03,576.49 608.80,582.74 607.03,588.99 605.26,582.74"/>
<polygon fill="#ffffff" style="stroke:#000000;  stroke-width:0.50pt;" points="607.34,598.36 609.11,604.61 607.34,610.86 605.56,604.61"/>
<polygon fill="#000000" style="stroke:#000000;  stroke-width:0.50pt;" points="615.46,598.36 617.23,604.61 615.46,610.86 613.68,604.61"/>
<line x1="17.19cm" y1="17.06cm" x2="17.32cm" y2="17.06cm" style="stroke:#000000; stroke-width:0.50pt;"/>
<polygon fill="#ffffff" style="stroke:#000000;  stroke-width:0.50pt;" points="607.34,620.24 609.11,626.49 607.34,632.74 605.56,626.49"/>
<polygon fill="#ffffff" style="stroke:#000000;  stroke-width:0.50pt;" points="607.49,642.11 609.26,648.36 607.49,654.61 605.72,648.36"/>
<polygon fill="#000000" style="stroke:#000000;  stroke-width:0.50pt;" points="617.60,642.11 619.37,648.36 617.60,654.61 615.83,648.36"/>
<line x1="17.19cm" y1="18.30cm" x2="17.38cm" y2="18.30cm" style="stroke:#000000; stroke-width:0.50pt;"/>
<polygon fill="#ffffff" style="stroke:#000000;  stroke-width:0.50pt;" points="607.49,663.99 609.26,670.24 607.49,676.49 605.72,670.24"/>
<polygon fill="#000000" style="stroke:#000000;  stroke-width:0.50pt;" points="618.67,663.99 620.45,670.24 618.67,676.49 616.90,670.24"/>
<line x1="17.19cm" y1="18.92cm" x2="17.41cm" y2="18.92cm" style="stroke:#000000; stroke-width:0.50pt;"/>
<polygon fill="#ffffff" style="stroke:#000000;  stroke-width:0.50pt;" points="607.64,685.86 609.41,692.11 607.64,698.36 605.87,692.11"/>
<polygon fill="#ffffff" style="stroke:#000000;  stroke-width:0.50pt;" points="607.95,707.74 609.72,713.99 607.95,720.24 606.18,713.99"/>
<polygon fill="#000000" style="stroke:#000000;  stroke-width:0.50pt;" points="618.98,707.74 620.75,713.99 618.98,720.24 617.21,713.99"/>
<line x1="17.21cm" y1="20.15cm" x2="17.42cm" y2="20.15cm" style="stroke:#000000; stroke-width:0.50pt;"/>
<polygon fill="#ffffff" style="stroke:#000000;  stroke-width:0.50pt;" points="607.95,729.61 609.72,735.86 607.95,742.11 606.18,735.86"/>
<polygon fill="#ffffff" style="stroke:#000000;  stroke-width:0.50pt;" points="607.95,751.49 609.72,757.74 607.95,763.99 606.18,757.74"/>
<polygon fill="#000000" style="stroke:#000000;  stroke-width:0.50pt;" points="608.10,751.49 609.87,757.74 608.10,763.99 606.33,757.74"/>
<line x1="17.21cm" y1="21.39cm" x2="17.11cm" y2="21.39cm" style="stroke:#000000; stroke-width:0.50pt;"/>
<polygon fill="#ffffff" style="stroke:#000000;  stroke-width:0.50pt;" points="608.10,773.36 609.87,779.61 608.10,785.86 606.33,779.61"/>
<polygon fill="#000000" style="stroke:#000000;  stroke-width:0.50pt;" points="608.26,773.36 610.03,779.61 608.26,785.86 606.48,779.61"/>
<line x1="17.21cm" y1="22.00cm" x2="17.12cm" y2="22.00cm" style="stroke:#000000; stroke-width:0.50pt;"/>
<polygon fill="#ffffff" style="stroke:#000000;  stroke-width:0.50pt;" points="608.10,795.24 609.87,801.49 608.10,807.74 606.33,801.49"/>
<polygon fill="#000000" style="stroke:#000000;  stroke-width:0.50pt;" points="616.07,795.24 617.84,801.49 616.07,807.74 614.30,801.49"/>
<line x1="17.21cm" y1="22.62cm" x2="17.34cm" y2="22.62cm" style="stroke:#000000; stroke-width:0.50pt;"/>
<polygon fill="#ffffff" style="stroke:#000000;  stroke-width:0.50pt;" points="608.10,817.11 609.87,823.36 608.10,829.61 606.33,823.36"/>
<polygon fill="#ffffff" style="stroke:#000000;  stroke-width:0.50pt;" points="608.10,838.99 609.87,845.24 608.10,851.49 606.33,845.24"/>
<polygon fill="#ffffff" style="stroke:#000000;  stroke-width:0.50pt;" points="608.26,860.86 610.03,867.11 608.26,873.36 606.48,867.11"/>
<polygon fill="#000000" style="stroke:#000000;  stroke-width:0.50pt;" points="617.45,860.86 619.22,867.11 617.45,873.36 615.68,867.11"/>
<line x1="17.22cm" y1="24.47cm" x2="17.38cm" y2="24.47cm" style="stroke:#000000; stroke-width:0.50pt;"/>
<polygon fill="#ffffff" style="stroke:#000000;  stroke-width:0.50pt;" points="608.26,882.74 610.03,888.99 608.26,895.24 606.48,888.99"/>
<text x="9.34cm" y="3.13cm" style="fill:#000000;font-size:14pt; font-family:sans-serif;">Timeline Chart</text>
<text x="7.22cm" y="3.74cm" style="fill:#000000;font-size:14pt; font-family:sans-serif;">Entire Database -- Sorted by Birth Date</text>
<text x="9.41cm" y="4.54cm" style="fill:#000000;font-size:8pt; font-family:sans-serif;">-50</text>
<text x="11.16cm" y="4.54cm" style="fill:#000000;font-size:8pt; font-family:sans-serif;">360</text>
<text x="12.94cm" y="4.54cm" style="fill:#000000;font-size:8pt; font-family:sans-serif;">770</text>
<text x="14.65cm" y="4.54cm" style="fill:#000000;font-size:8pt; font-family:sans-serif;">1180</text>
<text x="16.42cm" y="4.54cm" style="fill:#000000;font-size:8pt; font-family:sans-serif;">1590</text>
<text x="18.19cm" y="4.54cm" style="fill:#000000;font-size:8pt; font-family:sans-serif;">2000</text>
<text x="3.16cm" y="5.58cm" style="fill:#000000;font-size:10pt; font-family:sans-serif;">Suárez, Marie</text>
<text x="3.16cm" y="6.20cm" style="fill:#000000;font-size:10pt; font-family:sans-serif;">Филиппов, Elizabeth</text>
<text x="3.16cm" y="6.82cm" style="fill:#000000;font-size:10pt; font-family:sans-serif;">Белоусов, Jacob</text>
<text x="3.16cm" y="7.43cm" style="fill:#000000;font-size:10pt; font-family:sans-serif;">Новиков, Sarah</text>
<text x="3.16cm" y="8.05cm" style="fill:#000000;font-size:10pt; font-family:sans-serif;">Christiansen, John</text>
<text x="3.16cm" y="8.67cm" style="fill:#000000;font-size:10pt; font-family:sans-serif;">Fortin, Matthias</text>
<text x="3.16cm" y="9.28cm" style="fill:#000000;font-size:10pt; font-family:sans-serif;">Bishop, Anna Barbara</text>
<text x="3.16cm" y="9.90cm" style="fill:#000000;font-size:10pt; font-family:sans-serif;">Aguilar, John</text>
<text x="3.16cm" y="10.52cm" style="fill:#000000;font-size:10pt; font-family:sans-serif;">Allen, Mary</text>
<text x="3.16cm" y="11.14cm" style="fill:#000000;font-size:10pt; font-family:sans-serif;">Allen, Enos</text>
<text x="3.16cm" y="11.75cm" style="fill:#000000;font-size:10pt; font-family:sans-serif;">Baker, Margaret</text>
<text x="3.16cm" y="12.37cm" style="fill:#000000;font-size:10pt; font-family:sans-serif;">Allen, Sarah</text>
<text x="3.16cm" y="12.99cm" style="fill:#000000;font-size:10pt; font-family:sans-serif;">Christiansen, Samuel</text>
<text x="3.16cm" y="13.61cm" style="fill:#000000;font-size:10pt; font-family:sans-serif;">Reynolds, David</text>
<text x="3.16cm" y="14.22cm" style="fill:#000000;font-size:10pt; font-family:sans-serif;">Vaughn, Mary Meriwether</text>
<text x="3.16cm" y="14.84cm" style="fill:#000000;font-size:10pt; font-family:sans-serif;">Allen, Joanna</text>
<text x="3.16cm" y="15.46cm" style="fill:#000000;font-size:10pt; font-family:sans-serif;">Dixon, Thomas</text>
<text x="3.16cm" y="16.08cm" style="fill:#000000;font-size:10pt; font-family:sans-serif;">Harmon, Martha</text>
<text x="3.16cm" y="16.69cm" style="fill:#000000;font-size:10pt; font-family:sans-serif;">山本, Gabriel Gustav</text>
<text x="3.16cm" y="17.31cm" style="fill:#000000;font-size:10pt; font-family:sans-serif;">Allen, John</text>
<text x="3.16cm" y="17.93cm" style="fill:#000000;font-size:10pt; font-family:sans-serif;">Benson, James</text>
<text x="3.16cm" y="18.55cm" style="fill:#000000;font-size:10pt; font-family:sans-serif;">Brooks, Marquis I</text>
<text x="3.16cm" y="19.16cm" style="fill:#000000;font-size:10pt; font-family:sans-serif;">斎藤, Zariakius Cyriacus</text>
<text x="3.16cm" y="19.78cm" style="fill:#000000;font-size:10pt; font-family:sans-serif;">Benson, Joseph Louis(Sr.)</text>
<text x="3.16cm" y="20.40cm" style="fill:#000000;font-size:10pt; font-family:sans-serif;">Todd, Hardy</text>
<text x="3.16cm" y="21.01cm" style="fill:#000000;font-size:10pt; font-family:sans-serif;">Benson, Robert Watkins</text>
<text x="3.16cm" y="21.63cm" style="fill:#000000;font-size:10pt; font-family:sans-serif;">Warner, George</text>
<text x="3.16cm" y="22.25cm" style="fill:#000000;font-size:10pt; font-family:sans-serif;">Allen, Lediah</text>
<text x="3.16cm" y="22.87cm" style="fill:#000000;font-size:10pt; font-family:sans-serif;">Norris, Elizabeth</text>
<text x="3.16cm" y="23.48cm" style="fill:#000000;font-size:10pt; font-family:sans-serif;">Warner, Mary</text>
<text x="3.16cm" y="24.10cm" style="fill:#000000;font-size:10pt; font-family:sans-serif;">Webster, Johanne(John)</text>
<text x="3.16cm" y="24.72cm" style="fill:#000000;font-size:10pt; font-family:sans-serif;">Saunders, Ursula</text>
<text x="3.16cm" y="25.34cm" style="fill:#000000;font-size:10pt; font-family:sans-serif;">Benson, Louise DeSoix</text>
</svg>
