<?xml version="1.0" encoding="UTF-8" standalone="no"?>
<!DOCTYPE svg PUBLIC "-//W3C//DTD SVG 1.0//EN" "http://www.w3.org/TR/2001/REC-SVG-20010904/DTD/svg10.dtd">
<svg width="21.59cm" height="27.94cm" xmlns="http://www.w3.org/2000/svg">
<rect width="21.59cm" height="27.94cm" style="fill: none;"/>
<line x1="9.69cm" y1="4.54cm" x2="9.69cm" y2="25.40cm" style="stroke:#000000; stroke-dasharray: 2,4; stroke-width:0.50pt;"/>
<line x1="11.46cm" y1="4.54cm" x2="11.46cm" y2="25.40cm" style="stroke:#000000; stroke-dasharray: 2,4; stroke-width:0.50pt;"/>
<line x1="13.23cm" y1="4.54cm" x2="13.23cm" y2="25.40cm" style="stroke:#000000; stroke-dasharray: 2,4; stroke-width:0.50pt;"/>
<line x1="15.00cm" y1="4.54cm" x2="15.00cm" y2="25.40cm" style="stroke:#000000; stroke-dasharray: 2,4; stroke-width:0.50pt;"/>
<line x1="16.78cm" y1="4.54cm" x2="16.78cm" y2="25.40cm" style="stroke:#000000; stroke-dasharray: 2,4; stroke-width:0.50pt;"/>
<line x1="18.55cm" y1="4.54cm" x2="18.55cm" y2="25.40cm" style="stroke:#000000; stroke-dasharray: 2,4; stroke-width:0.50pt;"/>
<polygon fill="#ffffff" style="stroke:#000000;  stroke-width:0.50pt;" points="614.08,182.74 615.85,188.99 614.08,195.24 612.31,188.99"/>
<polygon fill="#000000" style="stroke:#000000;  stroke-width:0.50pt;" points="617.60,182.74 619.37,188.99 617.60,195.24 615.83,188.99"/>
<line x1="17.38cm" y1="5.33cm" x2="17.38cm" y2="5.33cm" style="stroke:#000000; stroke-width:0.50pt;"/>
<polygon fill="#ffffff" style="stroke:#000000;  stroke-width:0.50pt;" points="614.08,204.62 615.85,210.87 614.08,217.12 612.31,210.87"/>
<polygon fill="#ffffff" style="stroke:#000000;  stroke-width:0.50pt;" points="614.08,226.49 615.85,232.74 614.08,238.99 612.31,232.74"/>
<polygon fill="#000000" style="stroke:#000000;  stroke-width:0.50pt;" points="624.04,226.49 625.81,232.74 624.04,238.99 622.26,232.74"/>
<line x1="17.38cm" y1="6.57cm" x2="17.56cm" y2="6.57cm" style="stroke:#000000; stroke-width:0.50pt;"/>
<polygon fill="#ffffff" style="stroke:#000000;  stroke-width:0.50pt;" points="614.23,248.37 616.00,254.62 614.23,260.87 612.46,254.62"/>
<polygon fill="#000000" style="stroke:#000000;  stroke-width:0.50pt;" points="625.87,248.37 627.65,254.62 625.87,260.87 624.10,254.62"/>
<line x1="17.38cm" y1="7.19cm" x2="17.61cm" y2="7.19cm" style="stroke:#000000; stroke-width:0.50pt;"/>
<polygon fill="#ffffff" style="stroke:#000000;  stroke-width:0.50pt;" points="614.23,270.24 616.00,276.49 614.23,282.74 612.46,276.49"/>
<polygon fill="#000000" style="stroke:#000000;  stroke-width:0.50pt;" points="623.58,270.24 625.35,276.49 623.58,282.74 621.80,276.49"/>
<line x1="17.38cm" y1="7.80cm" x2="17.55cm" y2="7.80cm" style="stroke:#000000; stroke-width:0.50pt;"/>
<polygon fill="#ffffff" style="stroke:#000000;  stroke-width:0.50pt;" points="614.23,292.12 616.00,298.37 614.23,304.62 612.46,298.37"/>
<polygon fill="#ffffff" style="stroke:#000000;  stroke-width:0.50pt;" points="614.38,313.99 616.16,320.24 614.38,326.49 612.61,320.24"/>
<polygon fill="#000000" style="stroke:#000000;  stroke-width:0.50pt;" points="620.05,313.99 621.82,320.24 620.05,326.49 618.28,320.24"/>
<line x1="17.39cm" y1="9.04cm" x2="17.45cm" y2="9.04cm" style="stroke:#000000; stroke-width:0.50pt;"/>
<polygon fill="#ffffff" style="stroke:#000000;  stroke-width:0.50pt;" points="614.54,335.87 616.31,342.12 614.54,348.37 612.77,342.12"/>
<polygon fill="#ffffff" style="stroke:#000000;  stroke-width:0.50pt;" points="614.69,357.74 616.46,363.99 614.69,370.24 612.92,363.99"/>
<polygon fill="#000000" style="stroke:#000000;  stroke-width:0.50pt;" points="625.57,357.74 627.34,363.99 625.57,370.24 623.80,363.99"/>
<line x1="17.40cm" y1="10.27cm" x2="17.60cm" y2="10.27cm" style="stroke:#000000; stroke-width:0.50pt;"/>
<polygon fill="#ffffff" style="stroke:#000000;  stroke-width:0.50pt;" points="614.84,379.62 616.61,385.87 614.84,392.12 613.07,385.87"/>
<polygon fill="#000000" style="stroke:#000000;  stroke-width:0.50pt;" points="623.58,379.62 625.35,385.87 623.58,392.12 621.80,385.87"/>
<line x1="17.40cm" y1="10.89cm" x2="17.55cm" y2="10.89cm" style="stroke:#000000; stroke-width:0.50pt;"/>
<polygon fill="#ffffff" style="stroke:#000000;  stroke-width:0.50pt;" points="615.00,401.49 616.77,407.74 615.00,413.99 613.22,407.74"/>
<polygon fill="#000000" style="stroke:#000000;  stroke-width:0.50pt;" points="620.51,401.49 622.28,407.74 620.51,413.99 618.74,407.74"/>
<line x1="17.41cm" y1="11.51cm" x2="17.46cm" y2="11.51cm" style="stroke:#000000; stroke-width:0.50pt;"/>
<polygon fill="#ffffff" style="stroke:#000000;  stroke-width:0.50pt;" points="615.30,423.36 617.07,429.61 615.30,435.86 613.53,429.61"/>
<polygon fill="#ffffff" style="stroke:#000000;  stroke-width:0.50pt;" points="615.30,445.24 617.07,451.49 615.30,457.74 613.53,451.49"/>
<polygon fill="#000000" style="stroke:#000000;  stroke-width:0.50pt;" points="626.18,445.24 627.95,451.49 626.18,457.74 624.41,451.49"/>
<line x1="17.42cm" y1="12.74cm" x2="17.62cm" y2="12.74cm" style="stroke:#000000; stroke-width:0.50pt;"/>
<polygon fill="#ffffff" style="stroke:#000000;  stroke-width:0.50pt;" points="615.46,467.11 617.23,473.36 615.46,479.61 613.68,473.36"/>
<polygon fill="#000000" style="stroke:#000000;  stroke-width:0.50pt;" points="621.43,467.11 623.20,473.36 621.43,479.61 619.66,473.36"/>
<line x1="17.42cm" y1="13.36cm" x2="17.49cm" y2="13.36cm" style="stroke:#000000; stroke-width:0.50pt;"/>
<polygon fill="#ffffff" style="stroke:#000000;  stroke-width:0.50pt;" points="615.46,488.99 617.23,495.24 615.46,501.49 613.68,495.24"/>
<polygon fill="#000000" style="stroke:#000000;  stroke-width:0.50pt;" points="622.50,488.99 624.28,495.24 622.50,501.49 620.73,495.24"/>
<line x1="17.42cm" y1="13.98cm" x2="17.52cm" y2="13.98cm" style="stroke:#000000; stroke-width:0.50pt;"/>
<polygon fill="#ffffff" style="stroke:#000000;  stroke-width:0.50pt;" points="615.46,510.86 617.23,517.11 615.46,523.36 613.68,517.11"/>
<polygon fill="#000000" style="stroke:#000000;  stroke-width:0.50pt;" points="627.41,510.86 629.18,517.11 627.41,523.36 625.63,517.11"/>
<line x1="17.42cm" y1="14.59cm" x2="17.66cm" y2="14.59cm" style="stroke:#000000; stroke-width:0.50pt;"/>
<polygon fill="#ffffff" style="stroke:#000000;  stroke-width:0.50pt;" points="615.46,532.74 617.23,538.99 615.46,545.24 613.68,538.99"/>
<polygon fill="#ffffff" style="stroke:#000000;  stroke-width:0.50pt;" points="615.61,554.61 617.38,560.86 615.61,567.11 613.84,560.86"/>
<polygon fill="#000000" style="stroke:#000000;  stroke-width:0.50pt;" points="622.20,554.61 623.97,560.86 622.20,567.11 620.43,560.86"/>
<line x1="17.42cm" y1="15.83cm" x2="17.51cm" y2="15.83cm" style="stroke:#000000; stroke-width:0.50pt;"/>
<polygon fill="#ffffff" style="stroke:#000000;  stroke-width:0.50pt;" points="615.61,576.49 617.38,582.74 615.61,588.99 613.84,582.74"/>
<polygon fill="#ffffff" style="stroke:#000000;  stroke-width:0.50pt;" points="615.76,598.36 617.53,604.61 615.76,610.86 613.99,604.61"/>
<polygon fill="#ffffff" style="stroke:#000000;  stroke-width:0.50pt;" points="615.76,620.24 617.53,626.49 615.76,632.74 613.99,626.49"/>
<polygon fill="#000000" style="stroke:#000000;  stroke-width:0.50pt;" points="624.50,620.24 626.27,626.49 624.50,632.74 622.72,626.49"/>
<line x1="17.43cm" y1="17.68cm" x2="17.57cm" y2="17.68cm" style="stroke:#000000; stroke-width:0.50pt;"/>
<polygon fill="#ffffff" style="stroke:#000000;  stroke-width:0.50pt;" points="615.92,642.11 617.69,648.36 615.92,654.61 614.14,648.36"/>
<polygon fill="#000000" style="stroke:#000000;  stroke-width:0.50pt;" points="623.12,642.11 624.89,648.36 623.12,654.61 621.34,648.36"/>
<line x1="17.43cm" y1="18.30cm" x2="17.54cm" y2="18.30cm" style="stroke:#000000; stroke-width:0.50pt;"/>
<polygon fill="#ffffff" style="stroke:#000000;  stroke-width:0.50pt;" points="615.92,663.99 617.69,670.24 615.92,676.49 614.14,670.24"/>
<polygon fill="#000000" style="stroke:#000000;  stroke-width:0.50pt;" points="629.24,663.99 631.02,670.24 629.24,676.49 627.47,670.24"/>
<line x1="17.43cm" y1="18.92cm" x2="17.71cm" y2="18.92cm" style="stroke:#000000; stroke-width:0.50pt;"/>
<polygon fill="#ffffff" style="stroke:#000000;  stroke-width:0.50pt;" points="616.07,685.86 617.84,692.11 616.07,698.36 614.30,692.11"/>
<polygon fill="#ffffff" style="stroke:#000000;  stroke-width:0.50pt;" points="616.22,707.74 617.99,713.99 616.22,720.24 614.45,713.99"/>
<polygon fill="#000000" style="stroke:#000000;  stroke-width:0.50pt;" points="624.95,707.74 626.73,713.99 624.95,720.24 623.18,713.99"/>
<line x1="17.44cm" y1="20.15cm" x2="17.59cm" y2="20.15cm" style="stroke:#000000; stroke-width:0.50pt;"/>
<polygon fill="#ffffff" style="stroke:#000000;  stroke-width:0.50pt;" points="616.38,729.61 618.15,735.86 616.38,742.11 614.60,735.86"/>
<polygon fill="#ffffff" style="stroke:#000000;  stroke-width:0.50pt;" points="616.38,751.49 618.15,757.74 616.38,763.99 614.60,757.74"/>
<polygon fill="#ffffff" style="stroke:#000000;  stroke-width:0.50pt;" points="616.53,773.36 618.30,779.61 616.53,785.86 614.76,779.61"/>
<polygon fill="#ffffff" style="stroke:#000000;  stroke-width:0.50pt;" points="616.68,795.24 618.45,801.49 616.68,807.74 614.91,801.49"/>
<polygon fill="#ffffff" style="stroke:#000000;  stroke-width:0.50pt;" points="616.68,817.11 618.45,823.36 616.68,829.61 614.91,823.36"/>
<polygon fill="#ffffff" style="stroke:#000000;  stroke-width:0.50pt;" points="616.68,838.99 618.45,845.24 616.68,851.49 614.91,845.24"/>
<polygon fill="#ffffff" style="stroke:#000000;  stroke-width:0.50pt;" points="616.99,860.86 618.76,867.11 616.99,873.36 615.22,867.11"/>
<polygon fill="#ffffff" style="stroke:#000000;  stroke-width:0.50pt;" points="616.99,882.74 618.76,888.99 616.99,895.24 615.22,888.99"/>
<polygon fill="#000000" style="stroke:#000000;  stroke-width:0.50pt;" points="627.71,882.74 629.48,888.99 627.71,895.24 625.94,888.99"/>
<line x1="17.46cm" y1="25.09cm" x2="17.67cm" y2="25.09cm" style="stroke:#000000; stroke-width:0.50pt;"/>
<text x="9.34cm" y="3.13cm" style="fill:#000000;font-size:14pt; font-family:sans-serif;">Timeline Chart</text>
<text x="7.22cm" y="3.74cm" style="fill:#000000;font-size:14pt; font-family:sans-serif;">Entire Database -- Sorted by Birth Date</text>
<text x="9.41cm" y="4.54cm" style="fill:#000000;font-size:8pt; font-family:sans-serif;">-50</text>
<text x="11.16cm" y="4.54cm" style="fill:#000000;font-size:8pt; font-family:sans-serif;">360</text>
<text x="12.94cm" y="4.54cm" style="fill:#000000;font-size:8pt; font-family:sans-serif;">770</text>
<text x="14.65cm" y="4.54cm" style="fill:#000000;font-size:8pt; font-family:sans-serif;">1180</text>
<text x="16.42cm" y="4.54cm" style="fill:#000000;font-size:8pt; font-family:sans-serif;">1590</text>
<text x="18.19cm" y="4.54cm" style="fill:#000000;font-size:8pt; font-family:sans-serif;">2000</text>
<text x="3.16cm" y="5.58cm" style="fill:#000000;font-size:10pt; font-family:sans-serif;">Lapointe, Lucy aka Sarah</text>
<text x="3.16cm" y="6.20cm" style="fill:#000000;font-size:10pt; font-family:sans-serif;">Sutton, Anna Maria</text>
<text x="3.16cm" y="6.82cm" style="fill:#000000;font-size:10pt; font-family:sans-serif;">Blanco, Gerhard</text>
<text x="3.16cm" y="7.43cm" style="fill:#000000;font-size:10pt; font-family:sans-serif;">Anderson, Mary Molly</text>
<text x="3.16cm" y="8.05cm" style="fill:#000000;font-size:10pt; font-family:sans-serif;">Beaulieu, Johann Theobald</text>
<text x="3.16cm" y="8.67cm" style="fill:#000000;font-size:10pt; font-family:sans-serif;">Benson, Martha Ellen</text>
<text x="3.16cm" y="9.28cm" style="fill:#000000;font-size:10pt; font-family:sans-serif;">Payne, Leonard?</text>
<text x="3.16cm" y="9.90cm" style="fill:#000000;font-size:10pt; font-family:sans-serif;">Александров, Johann Adam</text>
<text x="3.16cm" y="10.52cm" style="fill:#000000;font-size:10pt; font-family:sans-serif;">Beaulieu, Anna Ottilia</text>
<text x="3.16cm" y="11.14cm" style="fill:#000000;font-size:10pt; font-family:sans-serif;">Rice, Virginia Margaret</text>
<text x="3.16cm" y="11.75cm" style="fill:#000000;font-size:10pt; font-family:sans-serif;">Beaulieu, Anna Eva</text>
<text x="3.16cm" y="12.37cm" style="fill:#000000;font-size:10pt; font-family:sans-serif;">Beaulieu, Anna Margaretha</text>
<text x="3.16cm" y="12.99cm" style="fill:#000000;font-size:10pt; font-family:sans-serif;">Moreno, Johann Christian II</text>
<text x="3.16cm" y="13.61cm" style="fill:#000000;font-size:10pt; font-family:sans-serif;">Дмитриев, William</text>
<text x="3.16cm" y="14.22cm" style="fill:#000000;font-size:10pt; font-family:sans-serif;">Brooks, William Waller</text>
<text x="3.16cm" y="14.84cm" style="fill:#000000;font-size:10pt; font-family:sans-serif;">Todd, Charles</text>
<text x="3.16cm" y="15.46cm" style="fill:#000000;font-size:10pt; font-family:sans-serif;">Cole, Eurydice</text>
<text x="3.16cm" y="16.08cm" style="fill:#000000;font-size:10pt; font-family:sans-serif;">Beaulieu, Johann Simon</text>
<text x="3.16cm" y="16.69cm" style="fill:#000000;font-size:10pt; font-family:sans-serif;">Ball, Thomas</text>
<text x="3.16cm" y="17.31cm" style="fill:#000000;font-size:10pt; font-family:sans-serif;">James, Robert</text>
<text x="3.16cm" y="17.93cm" style="fill:#000000;font-size:10pt; font-family:sans-serif;">Дмитриев, Charles</text>
<text x="3.16cm" y="18.55cm" style="fill:#000000;font-size:10pt; font-family:sans-serif;">Benson, David</text>
<text x="3.16cm" y="19.16cm" style="fill:#000000;font-size:10pt; font-family:sans-serif;">Александров, Anna Margaretha</text>
<text x="3.16cm" y="19.78cm" style="fill:#000000;font-size:10pt; font-family:sans-serif;">Дмитриев, Mary</text>
<text x="3.16cm" y="20.40cm" style="fill:#000000;font-size:10pt; font-family:sans-serif;">Васильев, Lucy</text>
<text x="3.16cm" y="21.01cm" style="fill:#000000;font-size:10pt; font-family:sans-serif;">James, William</text>
<text x="3.16cm" y="21.63cm" style="fill:#000000;font-size:10pt; font-family:sans-serif;">Дмитриев, Lucy</text>
<text x="3.16cm" y="22.25cm" style="fill:#000000;font-size:10pt; font-family:sans-serif;">Шадрин, Mary</text>
<text x="3.16cm" y="22.87cm" style="fill:#000000;font-size:10pt; font-family:sans-serif;">Beaulieu, Johann Valentin</text>
<text x="3.16cm" y="23.48cm" style="fill:#000000;font-size:10pt; font-family:sans-serif;">James, Mary</text>
<text x="3.16cm" y="24.10cm" style="fill:#000000;font-size:10pt; font-family:sans-serif;">Дмитриев, Moses Aaron</text>
<text x="3.16cm" y="24.72cm" style="fill:#000000;font-size:10pt; font-family:sans-serif;">James, Martha</text>
<text x="3.16cm" y="25.34cm" style="fill:#000000;font-size:10pt; font-family:sans-serif;">Дмитриев, Isaac</text>
</svg>
