<?xml version="1.0" encoding="UTF-8" standalone="no"?>
<!DOCTYPE svg PUBLIC "-//W3C//DTD SVG 1.0//EN" "http://www.w3.org/TR/2001/REC-SVG-20010904/DTD/svg10.dtd">
<svg width="21.59cm" height="27.94cm" xmlns="http://www.w3.org/2000/svg">
<rect width="21.59cm" height="27.94cm" style="fill: none;"/>
<line x1="9.69cm" y1="4.54cm" x2="9.69cm" y2="25.40cm" style="stroke:#000000; stroke-dasharray: 2,4; stroke-width:0.50pt;"/>
<line x1="11.46cm" y1="4.54cm" x2="11.46cm" y2="25.40cm" style="stroke:#000000; stroke-dasharray: 2,4; stroke-width:0.50pt;"/>
<line x1="13.23cm" y1="4.54cm" x2="13.23cm" y2="25.40cm" style="stroke:#000000; stroke-dasharray: 2,4; stroke-width:0.50pt;"/>
<line x1="15.00cm" y1="4.54cm" x2="15.00cm" y2="25.40cm" style="stroke:#000000; stroke-dasharray: 2,4; stroke-width:0.50pt;"/>
<line x1="16.78cm" y1="4.54cm" x2="16.78cm" y2="25.40cm" style="stroke:#000000; stroke-dasharray: 2,4; stroke-width:0.50pt;"/>
<line x1="18.55cm" y1="4.54cm" x2="18.55cm" y2="25.40cm" style="stroke:#000000; stroke-dasharray: 2,4; stroke-width:0.50pt;"/>
<polygon fill="#ffffff" style="stroke:#000000;  stroke-width:0.50pt;" points="635.83,182.74 637.60,188.99 635.83,195.24 634.06,188.99"/>
<polygon fill="#ffffff" style="stroke:#000000;  stroke-width:0.50pt;" points="635.83,204.62 637.60,210.87 635.83,217.12 634.06,210.87"/>
<polygon fill="#ffffff" style="stroke:#000000;  stroke-width:0.50pt;" points="635.83,226.49 637.60,232.74 635.83,238.99 634.06,232.74"/>
<polygon fill="#000000" style="stroke:#000000;  stroke-width:0.50pt;" points="648.24,226.49 650.01,232.74 648.24,238.99 646.47,232.74"/>
<line x1="17.99cm" y1="6.57cm" x2="18.24cm" y2="6.57cm" style="stroke:#000000; stroke-width:0.50pt;"/>
<polygon fill="#ffffff" style="stroke:#000000;  stroke-width:0.50pt;" points="635.99,248.37 637.76,254.62 635.99,260.87 634.21,254.62"/>
<polygon fill="#000000" style="stroke:#000000;  stroke-width:0.50pt;" points="642.42,248.37 644.19,254.62 642.42,260.87 640.65,254.62"/>
<line x1="18.00cm" y1="7.19cm" x2="18.08cm" y2="7.19cm" style="stroke:#000000; stroke-width:0.50pt;"/>
<polygon fill="#ffffff" style="stroke:#000000;  stroke-width:0.50pt;" points="636.14,270.24 637.91,276.49 636.14,282.74 634.37,276.49"/>
<polygon fill="#000000" style="stroke:#000000;  stroke-width:0.50pt;" points="643.34,270.24 645.11,276.49 643.34,282.74 641.57,276.49"/>
<line x1="18.00cm" y1="7.80cm" x2="18.11cm" y2="7.80cm" style="stroke:#000000; stroke-width:0.50pt;"/>
<polygon fill="#ffffff" style="stroke:#000000;  stroke-width:0.50pt;" points="636.14,292.12 637.91,298.37 636.14,304.62 634.37,298.37"/>
<polygon fill="#ffffff" style="stroke:#000000;  stroke-width:0.50pt;" points="636.29,313.99 638.06,320.24 636.29,326.49 634.52,320.24"/>
<polygon fill="#000000" style="stroke:#000000;  stroke-width:0.50pt;" points="648.09,313.99 649.86,320.24 648.09,326.49 646.32,320.24"/>
<line x1="18.01cm" y1="9.04cm" x2="18.24cm" y2="9.04cm" style="stroke:#000000; stroke-width:0.50pt;"/>
<polygon fill="#ffffff" style="stroke:#000000;  stroke-width:0.50pt;" points="636.45,335.87 638.22,342.12 636.45,348.37 634.67,342.12"/>
<polygon fill="#000000" style="stroke:#000000;  stroke-width:0.50pt;" points="647.63,335.87 649.40,342.12 647.63,348.37 645.86,342.12"/>
<line x1="18.01cm" y1="9.66cm" x2="18.23cm" y2="9.66cm" style="stroke:#000000; stroke-width:0.50pt;"/>
<polygon fill="#ffffff" style="stroke:#000000;  stroke-width:0.50pt;" points="636.45,357.74 638.22,363.99 636.45,370.24 634.67,363.99"/>
<polygon fill="#000000" style="stroke:#000000;  stroke-width:0.50pt;" points="642.42,357.74 644.19,363.99 642.42,370.24 640.65,363.99"/>
<line x1="18.01cm" y1="10.27cm" x2="18.08cm" y2="10.27cm" style="stroke:#000000; stroke-width:0.50pt;"/>
<polygon fill="#ffffff" style="stroke:#000000;  stroke-width:0.50pt;" points="636.45,379.62 638.22,385.87 636.45,392.12 634.67,385.87"/>
<polygon fill="#ffffff" style="stroke:#000000;  stroke-width:0.50pt;" points="636.45,401.49 638.22,407.74 636.45,413.99 634.67,407.74"/>
<polygon fill="#000000" style="stroke:#000000;  stroke-width:0.50pt;" points="647.32,401.49 649.10,407.74 647.32,413.99 645.55,407.74"/>
<line x1="18.01cm" y1="11.51cm" x2="18.22cm" y2="11.51cm" style="stroke:#000000; stroke-width:0.50pt;"/>
<polygon fill="#ffffff" style="stroke:#000000;  stroke-width:0.50pt;" points="636.60,423.36 638.37,429.61 636.60,435.86 634.83,429.61"/>
<polygon fill="#ffffff" style="stroke:#000000;  stroke-width:0.50pt;" points="636.75,445.24 638.52,451.49 636.75,457.74 634.98,451.49"/>
<polygon fill="#000000" style="stroke:#000000;  stroke-width:0.50pt;" points="644.72,445.24 646.49,451.49 644.72,457.74 642.95,451.49"/>
<line x1="18.02cm" y1="12.74cm" x2="18.15cm" y2="12.74cm" style="stroke:#000000; stroke-width:0.50pt;"/>
<polygon fill="#ffffff" style="stroke:#000000;  stroke-width:0.50pt;" points="636.91,467.11 638.68,473.36 636.91,479.61 635.13,473.36"/>
<polygon fill="#ffffff" style="stroke:#000000;  stroke-width:0.50pt;" points="636.91,488.99 638.68,495.24 636.91,501.49 635.13,495.24"/>
<polygon fill="#000000" style="stroke:#000000;  stroke-width:0.50pt;" points="644.87,488.99 646.64,495.24 644.87,501.49 643.10,495.24"/>
<line x1="18.02cm" y1="13.98cm" x2="18.15cm" y2="13.98cm" style="stroke:#000000; stroke-width:0.50pt;"/>
<polygon fill="#ffffff" style="stroke:#000000;  stroke-width:0.50pt;" points="636.91,510.86 638.68,517.11 636.91,523.36 635.13,517.11"/>
<polygon fill="#ffffff" style="stroke:#000000;  stroke-width:0.50pt;" points="637.06,532.74 638.83,538.99 637.06,545.24 635.29,538.99"/>
<polygon fill="#000000" style="stroke:#000000;  stroke-width:0.50pt;" points="645.03,532.74 646.80,538.99 645.03,545.24 643.25,538.99"/>
<line x1="18.03cm" y1="15.21cm" x2="18.15cm" y2="15.21cm" style="stroke:#000000; stroke-width:0.50pt;"/>
<polygon fill="#ffffff" style="stroke:#000000;  stroke-width:0.50pt;" points="637.06,554.61 638.83,560.86 637.06,567.11 635.29,560.86"/>
<polygon fill="#000000" style="stroke:#000000;  stroke-width:0.50pt;" points="647.02,554.61 648.79,560.86 647.02,567.11 645.25,560.86"/>
<line x1="18.03cm" y1="15.83cm" x2="18.21cm" y2="15.83cm" style="stroke:#000000; stroke-width:0.50pt;"/>
<polygon fill="#ffffff" style="stroke:#000000;  stroke-width:0.50pt;" points="637.06,576.49 638.83,582.74 637.06,588.99 635.29,582.74"/>
<polygon fill="#000000" style="stroke:#000000;  stroke-width:0.50pt;" points="637.21,576.49 638.98,582.74 637.21,588.99 635.44,582.74"/>
<line x1="18.03cm" y1="16.45cm" x2="17.93cm" y2="16.45cm" style="stroke:#000000; stroke-width:0.50pt;"/>
<polygon fill="#ffffff" style="stroke:#000000;  stroke-width:0.50pt;" points="637.21,598.36 638.98,604.61 637.21,610.86 635.44,604.61"/>
<polygon fill="#000000" style="stroke:#000000;  stroke-width:0.50pt;" points="650.69,598.36 652.47,604.61 650.69,610.86 648.92,604.61"/>
<line x1="18.03cm" y1="17.06cm" x2="18.31cm" y2="17.06cm" style="stroke:#000000; stroke-width:0.50pt;"/>
<polygon fill="#ffffff" style="stroke:#000000;  stroke-width:0.50pt;" points="637.21,620.24 638.98,626.49 637.21,632.74 635.44,626.49"/>
<polygon fill="#000000" style="stroke:#000000;  stroke-width:0.50pt;" points="640.43,620.24 642.20,626.49 640.43,632.74 638.66,626.49"/>
<line x1="18.03cm" y1="17.68cm" x2="18.02cm" y2="17.68cm" style="stroke:#000000; stroke-width:0.50pt;"/>
<polygon fill="#ffffff" style="stroke:#000000;  stroke-width:0.50pt;" points="637.21,642.11 638.98,648.36 637.21,654.61 635.44,648.36"/>
<polygon fill="#000000" style="stroke:#000000;  stroke-width:0.50pt;" points="648.40,642.11 650.17,648.36 648.40,654.61 646.62,648.36"/>
<line x1="18.03cm" y1="18.30cm" x2="18.25cm" y2="18.30cm" style="stroke:#000000; stroke-width:0.50pt;"/>
<polygon fill="#ffffff" style="stroke:#000000;  stroke-width:0.50pt;" points="637.21,663.99 638.98,670.24 637.21,676.49 635.44,670.24"/>
<polygon fill="#ffffff" style="stroke:#000000;  stroke-width:0.50pt;" points="637.36,685.86 639.14,692.11 637.36,698.36 635.59,692.11"/>
<polygon fill="#000000" style="stroke:#000000;  stroke-width:0.50pt;" points="649.47,685.86 651.24,692.11 649.47,698.36 647.70,692.11"/>
<line x1="18.04cm" y1="19.53cm" x2="18.28cm" y2="19.53cm" style="stroke:#000000; stroke-width:0.50pt;"/>
<polygon fill="#ffffff" style="stroke:#000000;  stroke-width:0.50pt;" points="637.36,707.74 639.14,713.99 637.36,720.24 635.59,713.99"/>
<polygon fill="#000000" style="stroke:#000000;  stroke-width:0.50pt;" points="641.96,707.74 643.73,713.99 641.96,720.24 640.19,713.99"/>
<line x1="18.04cm" y1="20.15cm" x2="18.07cm" y2="20.15cm" style="stroke:#000000; stroke-width:0.50pt;"/>
<polygon fill="#ffffff" style="stroke:#000000;  stroke-width:0.50pt;" points="637.36,729.61 639.14,735.86 637.36,742.11 635.59,735.86"/>
<polygon fill="#000000" style="stroke:#000000;  stroke-width:0.50pt;" points="638.90,729.61 640.67,735.86 638.90,742.11 637.13,735.86"/>
<line x1="18.04cm" y1="20.77cm" x2="17.98cm" y2="20.77cm" style="stroke:#000000; stroke-width:0.50pt;"/>
<polygon fill="#ffffff" style="stroke:#000000;  stroke-width:0.50pt;" points="637.36,751.49 639.14,757.74 637.36,763.99 635.59,757.74"/>
<polygon fill="#000000" style="stroke:#000000;  stroke-width:0.50pt;" points="648.55,751.49 650.32,757.74 648.55,763.99 646.78,757.74"/>
<line x1="18.04cm" y1="21.39cm" x2="18.25cm" y2="21.39cm" style="stroke:#000000; stroke-width:0.50pt;"/>
<polygon fill="#ffffff" style="stroke:#000000;  stroke-width:0.50pt;" points="637.36,773.36 639.14,779.61 637.36,785.86 635.59,779.61"/>
<polygon fill="#000000" style="stroke:#000000;  stroke-width:0.50pt;" points="637.36,773.36 639.14,779.61 637.36,785.86 635.59,779.61"/>
<line x1="18.04cm" y1="22.00cm" x2="17.94cm" y2="22.00cm" style="stroke:#000000; stroke-width:0.50pt;"/>
<polygon fill="#ffffff" style="stroke:#000000;  stroke-width:0.50pt;" points="637.52,795.24 639.29,801.49 637.52,807.74 635.75,801.49"/>
<polygon fill="#000000" style="stroke:#000000;  stroke-width:0.50pt;" points="645.64,795.24 647.41,801.49 645.64,807.74 643.87,801.49"/>
<line x1="18.04cm" y1="22.62cm" x2="18.17cm" y2="22.62cm" style="stroke:#000000; stroke-width:0.50pt;"/>
<polygon fill="#ffffff" style="stroke:#000000;  stroke-width:0.50pt;" points="637.52,817.11 639.29,823.36 637.52,829.61 635.75,823.36"/>
<polygon fill="#000000" style="stroke:#000000;  stroke-width:0.50pt;" points="647.78,817.11 649.55,823.36 647.78,829.61 646.01,823.36"/>
<line x1="18.04cm" y1="23.24cm" x2="18.23cm" y2="23.24cm" style="stroke:#000000; stroke-width:0.50pt;"/>
<polygon fill="#ffffff" style="stroke:#000000;  stroke-width:0.50pt;" points="637.52,838.99 639.29,845.24 637.52,851.49 635.75,845.24"/>
<polygon fill="#ffffff" style="stroke:#000000;  stroke-width:0.50pt;" points="637.67,860.86 639.44,867.11 637.67,873.36 635.90,867.11"/>
<polygon fill="#000000" style="stroke:#000000;  stroke-width:0.50pt;" points="648.55,860.86 650.32,867.11 648.55,873.36 646.78,867.11"/>
<line x1="18.05cm" y1="24.47cm" x2="18.25cm" y2="24.47cm" style="stroke:#000000; stroke-width:0.50pt;"/>
<polygon fill="#ffffff" style="stroke:#000000;  stroke-width:0.50pt;" points="637.67,882.74 639.44,888.99 637.67,895.24 635.90,888.99"/>
<polygon fill="#000000" style="stroke:#000000;  stroke-width:0.50pt;" points="646.25,882.74 648.02,888.99 646.25,895.24 644.48,888.99"/>
<line x1="18.05cm" y1="25.09cm" x2="18.19cm" y2="25.09cm" style="stroke:#000000; stroke-width:0.50pt;"/>
<text x="9.34cm" y="3.13cm" style="fill:#000000;font-size:14pt; font-family:sans-serif;">Timeline Chart</text>
<text x="7.22cm" y="3.74cm" style="fill:#000000;font-size:14pt; font-family:sans-serif;">Entire Database -- Sorted by Birth Date</text>
<text x="9.41cm" y="4.54cm" style="fill:#000000;font-size:8pt; font-family:sans-serif;">-50</text>
<text x="11.16cm" y="4.54cm" style="fill:#000000;font-size:8pt; font-family:sans-serif;">360</text>
<text x="12.94cm" y="4.54cm" style="fill:#000000;font-size:8pt; font-family:sans-serif;">770</text>
<text x="14.65cm" y="4.54cm" style="fill:#000000;font-size:8pt; font-family:sans-serif;">1180</text>
<text x="16.42cm" y="4.54cm" style="fill:#000000;font-size:8pt; font-family:sans-serif;">1590</text>
<text x="18.19cm" y="4.54cm" style="fill:#000000;font-size:8pt; font-family:sans-serif;">2000</text>
<text x="3.16cm" y="5.58cm" style="fill:#000000;font-size:10pt; font-family:sans-serif;">Farmer, John</text>
<text x="3.16cm" y="6.20cm" style="fill:#000000;font-size:10pt; font-family:sans-serif;">Moreno, Flora E.</text>
<text x="3.16cm" y="6.82cm" style="fill:#000000;font-size:10pt; font-family:sans-serif;">Garner, Iola Elizabeth Betty</text>
<text x="3.16cm" y="7.43cm" style="fill:#000000;font-size:10pt; font-family:sans-serif;">Ballard, Judith Ellen</text>
<text x="3.16cm" y="8.05cm" style="fill:#000000;font-size:10pt; font-family:sans-serif;">Marín, Moses Wallace</text>
<text x="3.16cm" y="8.67cm" style="fill:#000000;font-size:10pt; font-family:sans-serif;">Moreno, Martha A.</text>
<text x="3.16cm" y="9.28cm" style="fill:#000000;font-size:10pt; font-family:sans-serif;">Garner, Robert F.</text>
<text x="3.16cm" y="9.90cm" style="fill:#000000;font-size:10pt; font-family:sans-serif;">Walters, Mary</text>
<text x="3.16cm" y="10.52cm" style="fill:#000000;font-size:10pt; font-family:sans-serif;">Тихонов, Catherine Virginia</text>
<text x="3.16cm" y="11.14cm" style="fill:#000000;font-size:10pt; font-family:sans-serif;">Moreno, Lydia M.</text>
<text x="3.16cm" y="11.75cm" style="fill:#000000;font-size:10pt; font-family:sans-serif;">Landry, Eleanor (Nellie) Therese</text>
<text x="3.16cm" y="12.37cm" style="fill:#000000;font-size:10pt; font-family:sans-serif;">Warner, unnamed girl</text>
<text x="3.16cm" y="12.99cm" style="fill:#000000;font-size:10pt; font-family:sans-serif;">Lévesque, James W.</text>
<text x="3.16cm" y="13.61cm" style="fill:#000000;font-size:10pt; font-family:sans-serif;">Page, Anna</text>
<text x="3.16cm" y="14.22cm" style="fill:#000000;font-size:10pt; font-family:sans-serif;">Warner, Warren W.</text>
<text x="3.16cm" y="14.84cm" style="fill:#000000;font-size:10pt; font-family:sans-serif;">Quinn, Elizabeth Marium</text>
<text x="3.16cm" y="15.46cm" style="fill:#000000;font-size:10pt; font-family:sans-serif;">Boyd, Charles Newton</text>
<text x="3.16cm" y="16.08cm" style="fill:#000000;font-size:10pt; font-family:sans-serif;">Lessard, Emma Jane</text>
<text x="3.16cm" y="16.69cm" style="fill:#000000;font-size:10pt; font-family:sans-serif;">Garner, Emma A.</text>
<text x="3.16cm" y="17.31cm" style="fill:#000000;font-size:10pt; font-family:sans-serif;">Webb, Francis Irvin</text>
<text x="3.16cm" y="17.93cm" style="fill:#000000;font-size:10pt; font-family:sans-serif;">Boucher, Catherine</text>
<text x="3.16cm" y="18.55cm" style="fill:#000000;font-size:10pt; font-family:sans-serif;">Ball, Abigail</text>
<text x="3.16cm" y="19.16cm" style="fill:#000000;font-size:10pt; font-family:sans-serif;">Sanz, John</text>
<text x="3.16cm" y="19.78cm" style="fill:#000000;font-size:10pt; font-family:sans-serif;">Jiménez, Lucinda Ellen</text>
<text x="3.16cm" y="20.40cm" style="fill:#000000;font-size:10pt; font-family:sans-serif;">Garner, Anetta</text>
<text x="3.16cm" y="21.01cm" style="fill:#000000;font-size:10pt; font-family:sans-serif;">Garner, Antoinette</text>
<text x="3.16cm" y="21.63cm" style="fill:#000000;font-size:10pt; font-family:sans-serif;">Boucher, William</text>
<text x="3.16cm" y="22.25cm" style="fill:#000000;font-size:10pt; font-family:sans-serif;">Ball, Katie E.</text>
<text x="3.16cm" y="22.87cm" style="fill:#000000;font-size:10pt; font-family:sans-serif;">Lessard, Ira Willis</text>
<text x="3.16cm" y="23.48cm" style="fill:#000000;font-size:10pt; font-family:sans-serif;">Waters, William</text>
<text x="3.16cm" y="24.10cm" style="fill:#000000;font-size:10pt; font-family:sans-serif;">Ball, Robert Lee</text>
<text x="3.16cm" y="24.72cm" style="fill:#000000;font-size:10pt; font-family:sans-serif;">Jankowski, Robert</text>
<text x="3.16cm" y="25.34cm" style="fill:#000000;font-size:10pt; font-family:sans-serif;">Neal, John</text>
</svg>
