<?xml version="1.0" encoding="UTF-8" standalone="no"?>
<!DOCTYPE svg PUBLIC "-//W3C//DTD SVG 1.0//EN" "http://www.w3.org/TR/2001/REC-SVG-20010904/DTD/svg10.dtd">
<svg width="21.59cm" height="27.94cm" xmlns="http://www.w3.org/2000/svg">
<rect width="21.59cm" height="27.94cm" style="fill: none;"/>
<line x1="9.69cm" y1="4.54cm" x2="9.69cm" y2="25.40cm" style="stroke:#000000; stroke-dasharray: 2,4; stroke-width:0.50pt;"/>
<line x1="11.46cm" y1="4.54cm" x2="11.46cm" y2="25.40cm" style="stroke:#000000; stroke-dasharray: 2,4; stroke-width:0.50pt;"/>
<line x1="13.23cm" y1="4.54cm" x2="13.23cm" y2="25.40cm" style="stroke:#000000; stroke-dasharray: 2,4; stroke-width:0.50pt;"/>
<line x1="15.00cm" y1="4.54cm" x2="15.00cm" y2="25.40cm" style="stroke:#000000; stroke-dasharray: 2,4; stroke-width:0.50pt;"/>
<line x1="16.78cm" y1="4.54cm" x2="16.78cm" y2="25.40cm" style="stroke:#000000; stroke-dasharray: 2,4; stroke-width:0.50pt;"/>
<line x1="18.55cm" y1="4.54cm" x2="18.55cm" y2="25.40cm" style="stroke:#000000; stroke-dasharray: 2,4; stroke-width:0.50pt;"/>
<polygon fill="#ffffff" style="stroke:#000000;  stroke-width:0.50pt;" points="641.65,182.74 643.43,188.99 641.65,195.24 639.88,188.99"/>
<polygon fill="#000000" style="stroke:#000000;  stroke-width:0.50pt;" points="653.45,182.74 655.22,188.99 653.45,195.24 651.68,188.99"/>
<line x1="18.16cm" y1="5.33cm" x2="18.39cm" y2="5.33cm" style="stroke:#000000; stroke-width:0.50pt;"/>
<polygon fill="#ffffff" style="stroke:#000000;  stroke-width:0.50pt;" points="641.65,204.62 643.43,210.87 641.65,217.12 639.88,210.87"/>
<polygon fill="#ffffff" style="stroke:#000000;  stroke-width:0.50pt;" points="641.81,226.49 643.58,232.74 641.81,238.99 640.04,232.74"/>
<polygon fill="#000000" style="stroke:#000000;  stroke-width:0.50pt;" points="652.84,226.49 654.61,232.74 652.84,238.99 651.07,232.74"/>
<line x1="18.16cm" y1="6.57cm" x2="18.37cm" y2="6.57cm" style="stroke:#000000; stroke-width:0.50pt;"/>
<polygon fill="#ffffff" style="stroke:#000000;  stroke-width:0.50pt;" points="641.81,248.37 643.58,254.62 641.81,260.87 640.04,254.62"/>
<polygon fill="#000000" style="stroke:#000000;  stroke-width:0.50pt;" points="655.60,248.37 657.37,254.62 655.60,260.87 653.83,254.62"/>
<line x1="18.16cm" y1="7.19cm" x2="18.45cm" y2="7.19cm" style="stroke:#000000; stroke-width:0.50pt;"/>
<polygon fill="#ffffff" style="stroke:#000000;  stroke-width:0.50pt;" points="641.81,270.24 643.58,276.49 641.81,282.74 640.04,276.49"/>
<polygon fill="#000000" style="stroke:#000000;  stroke-width:0.50pt;" points="655.44,270.24 657.22,276.49 655.44,282.74 653.67,276.49"/>
<line x1="18.16cm" y1="7.80cm" x2="18.45cm" y2="7.80cm" style="stroke:#000000; stroke-width:0.50pt;"/>
<polygon fill="#ffffff" style="stroke:#000000;  stroke-width:0.50pt;" points="641.81,292.12 643.58,298.37 641.81,304.62 640.04,298.37"/>
<polygon fill="#ffffff" style="stroke:#000000;  stroke-width:0.50pt;" points="641.96,313.99 643.73,320.24 641.96,326.49 640.19,320.24"/>
<polygon fill="#ffffff" style="stroke:#000000;  stroke-width:0.50pt;" points="641.96,335.87 643.73,342.12 641.96,348.37 640.19,342.12"/>
<polygon fill="#000000" style="stroke:#000000;  stroke-width:0.50pt;" points="655.29,335.87 657.06,342.12 655.29,348.37 653.52,342.12"/>
<line x1="18.17cm" y1="9.66cm" x2="18.44cm" y2="9.66cm" style="stroke:#000000; stroke-width:0.50pt;"/>
<polygon fill="#ffffff" style="stroke:#000000;  stroke-width:0.50pt;" points="642.11,357.74 643.89,363.99 642.11,370.24 640.34,363.99"/>
<polygon fill="#000000" style="stroke:#000000;  stroke-width:0.50pt;" points="656.36,357.74 658.13,363.99 656.36,370.24 654.59,363.99"/>
<line x1="18.17cm" y1="10.27cm" x2="18.47cm" y2="10.27cm" style="stroke:#000000; stroke-width:0.50pt;"/>
<polygon fill="#ffffff" style="stroke:#000000;  stroke-width:0.50pt;" points="642.11,379.62 643.89,385.87 642.11,392.12 640.34,385.87"/>
<polygon fill="#ffffff" style="stroke:#000000;  stroke-width:0.50pt;" points="642.11,401.49 643.89,407.74 642.11,413.99 640.34,407.74"/>
<polygon fill="#ffffff" style="stroke:#000000;  stroke-width:0.50pt;" points="642.27,423.36 644.04,429.61 642.27,435.86 640.50,429.61"/>
<polygon fill="#ffffff" style="stroke:#000000;  stroke-width:0.50pt;" points="642.27,445.24 644.04,451.49 642.27,457.74 640.50,451.49"/>
<polygon fill="#000000" style="stroke:#000000;  stroke-width:0.50pt;" points="655.44,445.24 657.22,451.49 655.44,457.74 653.67,451.49"/>
<line x1="18.18cm" y1="12.74cm" x2="18.45cm" y2="12.74cm" style="stroke:#000000; stroke-width:0.50pt;"/>
<polygon fill="#ffffff" style="stroke:#000000;  stroke-width:0.50pt;" points="642.42,467.11 644.19,473.36 642.42,479.61 640.65,473.36"/>
<polygon fill="#000000" style="stroke:#000000;  stroke-width:0.50pt;" points="648.40,467.11 650.17,473.36 648.40,479.61 646.62,473.36"/>
<line x1="18.18cm" y1="13.36cm" x2="18.25cm" y2="13.36cm" style="stroke:#000000; stroke-width:0.50pt;"/>
<polygon fill="#ffffff" style="stroke:#000000;  stroke-width:0.50pt;" points="642.57,488.99 644.35,495.24 642.57,501.49 640.80,495.24"/>
<polygon fill="#000000" style="stroke:#000000;  stroke-width:0.50pt;" points="654.37,488.99 656.14,495.24 654.37,501.49 652.60,495.24"/>
<line x1="18.18cm" y1="13.98cm" x2="18.42cm" y2="13.98cm" style="stroke:#000000; stroke-width:0.50pt;"/>
<polygon fill="#ffffff" style="stroke:#000000;  stroke-width:0.50pt;" points="642.57,510.86 644.35,517.11 642.57,523.36 640.80,517.11"/>
<polygon fill="#000000" style="stroke:#000000;  stroke-width:0.50pt;" points="654.98,510.86 656.76,517.11 654.98,523.36 653.21,517.11"/>
<line x1="18.18cm" y1="14.59cm" x2="18.44cm" y2="14.59cm" style="stroke:#000000; stroke-width:0.50pt;"/>
<polygon fill="#ffffff" style="stroke:#000000;  stroke-width:0.50pt;" points="642.73,532.74 644.50,538.99 642.73,545.24 640.96,538.99"/>
<polygon fill="#000000" style="stroke:#000000;  stroke-width:0.50pt;" points="656.52,532.74 658.29,538.99 656.52,545.24 654.74,538.99"/>
<line x1="18.19cm" y1="15.21cm" x2="18.48cm" y2="15.21cm" style="stroke:#000000; stroke-width:0.50pt;"/>
<polygon fill="#ffffff" style="stroke:#000000;  stroke-width:0.50pt;" points="642.88,554.61 644.65,560.86 642.88,567.11 641.11,560.86"/>
<polygon fill="#000000" style="stroke:#000000;  stroke-width:0.50pt;" points="654.83,554.61 656.60,560.86 654.83,567.11 653.06,560.86"/>
<line x1="18.19cm" y1="15.83cm" x2="18.43cm" y2="15.83cm" style="stroke:#000000; stroke-width:0.50pt;"/>
<polygon fill="#ffffff" style="stroke:#000000;  stroke-width:0.50pt;" points="642.88,576.49 644.65,582.74 642.88,588.99 641.11,582.74"/>
<polygon fill="#000000" style="stroke:#000000;  stroke-width:0.50pt;" points="656.52,576.49 658.29,582.74 656.52,588.99 654.74,582.74"/>
<line x1="18.19cm" y1="16.45cm" x2="18.48cm" y2="16.45cm" style="stroke:#000000; stroke-width:0.50pt;"/>
<polygon fill="#ffffff" style="stroke:#000000;  stroke-width:0.50pt;" points="642.88,598.36 644.65,604.61 642.88,610.86 641.11,604.61"/>
<polygon fill="#000000" style="stroke:#000000;  stroke-width:0.50pt;" points="656.21,598.36 657.98,604.61 656.21,610.86 654.44,604.61"/>
<line x1="18.19cm" y1="17.06cm" x2="18.47cm" y2="17.06cm" style="stroke:#000000; stroke-width:0.50pt;"/>
<polygon fill="#ffffff" style="stroke:#000000;  stroke-width:0.50pt;" points="642.88,620.24 644.65,626.49 642.88,632.74 641.11,626.49"/>
<polygon fill="#ffffff" style="stroke:#000000;  stroke-width:0.50pt;" points="642.88,642.11 644.65,648.36 642.88,654.61 641.11,648.36"/>
<polygon fill="#000000" style="stroke:#000000;  stroke-width:0.50pt;" points="655.14,642.11 656.91,648.36 655.14,654.61 653.37,648.36"/>
<line x1="18.19cm" y1="18.30cm" x2="18.44cm" y2="18.30cm" style="stroke:#000000; stroke-width:0.50pt;"/>
<polygon fill="#ffffff" style="stroke:#000000;  stroke-width:0.50pt;" points="643.19,663.99 644.96,670.24 643.19,676.49 641.42,670.24"/>
<polygon fill="#000000" style="stroke:#000000;  stroke-width:0.50pt;" points="656.82,663.99 658.59,670.24 656.82,676.49 655.05,670.24"/>
<line x1="18.20cm" y1="18.92cm" x2="18.49cm" y2="18.92cm" style="stroke:#000000; stroke-width:0.50pt;"/>
<polygon fill="#ffffff" style="stroke:#000000;  stroke-width:0.50pt;" points="643.19,685.86 644.96,692.11 643.19,698.36 641.42,692.11"/>
<polygon fill="#000000" style="stroke:#000000;  stroke-width:0.50pt;" points="653.45,685.86 655.22,692.11 653.45,698.36 651.68,692.11"/>
<line x1="18.20cm" y1="19.53cm" x2="18.39cm" y2="19.53cm" style="stroke:#000000; stroke-width:0.50pt;"/>
<polygon fill="#ffffff" style="stroke:#000000;  stroke-width:0.50pt;" points="643.19,707.74 644.96,713.99 643.19,720.24 641.42,713.99"/>
<polygon fill="#ffffff" style="stroke:#000000;  stroke-width:0.50pt;" points="643.19,729.61 644.96,735.86 643.19,742.11 641.42,735.86"/>
<polygon fill="#000000" style="stroke:#000000;  stroke-width:0.50pt;" points="655.44,729.61 657.22,735.86 655.44,742.11 653.67,735.86"/>
<line x1="18.20cm" y1="20.77cm" x2="18.45cm" y2="20.77cm" style="stroke:#000000; stroke-width:0.50pt;"/>
<polygon fill="#ffffff" style="stroke:#000000;  stroke-width:0.50pt;" points="643.19,751.49 644.96,757.74 643.19,763.99 641.42,757.74"/>
<polygon fill="#000000" style="stroke:#000000;  stroke-width:0.50pt;" points="656.67,751.49 658.44,757.74 656.67,763.99 654.90,757.74"/>
<line x1="18.20cm" y1="21.39cm" x2="18.48cm" y2="21.39cm" style="stroke:#000000; stroke-width:0.50pt;"/>
<polygon fill="#ffffff" style="stroke:#000000;  stroke-width:0.50pt;" points="643.34,773.36 645.11,779.61 643.34,785.86 641.57,779.61"/>
<polygon fill="#ffffff" style="stroke:#000000;  stroke-width:0.50pt;" points="643.65,795.24 645.42,801.49 643.65,807.74 641.87,801.49"/>
<polygon fill="#000000" style="stroke:#000000;  stroke-width:0.50pt;" points="656.06,795.24 657.83,801.49 656.06,807.74 654.28,801.49"/>
<line x1="18.22cm" y1="22.62cm" x2="18.47cm" y2="22.62cm" style="stroke:#000000; stroke-width:0.50pt;"/>
<polygon fill="#ffffff" style="stroke:#000000;  stroke-width:0.50pt;" points="643.65,817.11 645.42,823.36 643.65,829.61 641.87,823.36"/>
<polygon fill="#000000" style="stroke:#000000;  stroke-width:0.50pt;" points="656.98,817.11 658.75,823.36 656.98,829.61 655.20,823.36"/>
<line x1="18.22cm" y1="23.24cm" x2="18.49cm" y2="23.24cm" style="stroke:#000000; stroke-width:0.50pt;"/>
<polygon fill="#ffffff" style="stroke:#000000;  stroke-width:0.50pt;" points="643.65,838.99 645.42,845.24 643.65,851.49 641.87,845.24"/>
<polygon fill="#000000" style="stroke:#000000;  stroke-width:0.50pt;" points="654.68,838.99 656.45,845.24 654.68,851.49 652.91,845.24"/>
<line x1="18.22cm" y1="23.85cm" x2="18.43cm" y2="23.85cm" style="stroke:#000000; stroke-width:0.50pt;"/>
<polygon fill="#ffffff" style="stroke:#000000;  stroke-width:0.50pt;" points="643.80,860.86 645.57,867.11 643.80,873.36 642.03,867.11"/>
<polygon fill="#ffffff" style="stroke:#000000;  stroke-width:0.50pt;" points="643.80,882.74 645.57,888.99 643.80,895.24 642.03,888.99"/>
<text x="9.34cm" y="3.13cm" style="fill:#000000;font-size:14pt; font-family:sans-serif;">Timeline Chart</text>
<text x="7.22cm" y="3.74cm" style="fill:#000000;font-size:14pt; font-family:sans-serif;">Entire Database -- Sorted by Birth Date</text>
<text x="9.41cm" y="4.54cm" style="fill:#000000;font-size:8pt; font-family:sans-serif;">-50</text>
<text x="11.16cm" y="4.54cm" style="fill:#000000;font-size:8pt; font-family:sans-serif;">360</text>
<text x="12.94cm" y="4.54cm" style="fill:#000000;font-size:8pt; font-family:sans-serif;">770</text>
<text x="14.65cm" y="4.54cm" style="fill:#000000;font-size:8pt; font-family:sans-serif;">1180</text>
<text x="16.42cm" y="4.54cm" style="fill:#000000;font-size:8pt; font-family:sans-serif;">1590</text>
<text x="18.19cm" y="4.54cm" style="fill:#000000;font-size:8pt; font-family:sans-serif;">2000</text>
<text x="3.16cm" y="5.58cm" style="fill:#000000;font-size:10pt; font-family:sans-serif;">Lessard, Laura Eloise</text>
<text x="3.16cm" y="6.20cm" style="fill:#000000;font-size:10pt; font-family:sans-serif;">Lévesque, John C.</text>
<text x="3.16cm" y="6.82cm" style="fill:#000000;font-size:10pt; font-family:sans-serif;">Webb, Lucy Mabel</text>
<text x="3.16cm" y="7.43cm" style="fill:#000000;font-size:10pt; font-family:sans-serif;">Webb, Frances Mae</text>
<text x="3.16cm" y="8.05cm" style="fill:#000000;font-size:10pt; font-family:sans-serif;">Kristensen, Anna June</text>
<text x="3.16cm" y="8.67cm" style="fill:#000000;font-size:10pt; font-family:sans-serif;">Lévesque, Howard</text>
<text x="3.16cm" y="9.28cm" style="fill:#000000;font-size:10pt; font-family:sans-serif;">Landry, Alice</text>
<text x="3.16cm" y="9.90cm" style="fill:#000000;font-size:10pt; font-family:sans-serif;">Page, Maude</text>
<text x="3.16cm" y="10.52cm" style="fill:#000000;font-size:10pt; font-family:sans-serif;">Reed, Catherine</text>
<text x="3.16cm" y="11.14cm" style="fill:#000000;font-size:10pt; font-family:sans-serif;">Boyd, Lauretta Esther</text>
<text x="3.16cm" y="11.75cm" style="fill:#000000;font-size:10pt; font-family:sans-serif;">Webb, Charles Edward</text>
<text x="3.16cm" y="12.37cm" style="fill:#000000;font-size:10pt; font-family:sans-serif;">Landry, Josephine Grace</text>
<text x="3.16cm" y="12.99cm" style="fill:#000000;font-size:10pt; font-family:sans-serif;">Reed, Frances Lucille (Babe)</text>
<text x="3.16cm" y="13.61cm" style="fill:#000000;font-size:10pt; font-family:sans-serif;">Webb, Lewis I.</text>
<text x="3.16cm" y="14.22cm" style="fill:#000000;font-size:10pt; font-family:sans-serif;">Reed, Peter</text>
<text x="3.16cm" y="14.84cm" style="fill:#000000;font-size:10pt; font-family:sans-serif;">Lessard, Carl Tolbert</text>
<text x="3.16cm" y="15.46cm" style="fill:#000000;font-size:10pt; font-family:sans-serif;">Todd, Lucille</text>
<text x="3.16cm" y="16.08cm" style="fill:#000000;font-size:10pt; font-family:sans-serif;">Reed, Sarah</text>
<text x="3.16cm" y="16.69cm" style="fill:#000000;font-size:10pt; font-family:sans-serif;">Armstrong, Teddy C.</text>
<text x="3.16cm" y="17.31cm" style="fill:#000000;font-size:10pt; font-family:sans-serif;">Warner, Mary Grace Elizabeth</text>
<text x="3.16cm" y="17.93cm" style="fill:#000000;font-size:10pt; font-family:sans-serif;">Landry, Helen Margaret</text>
<text x="3.16cm" y="18.55cm" style="fill:#000000;font-size:10pt; font-family:sans-serif;">Webb, Luella Florence</text>
<text x="3.16cm" y="19.16cm" style="fill:#000000;font-size:10pt; font-family:sans-serif;">Lessard, Helen Belle</text>
<text x="3.16cm" y="19.78cm" style="fill:#000000;font-size:10pt; font-family:sans-serif;">Garner, Cecile Elizabeth</text>
<text x="3.16cm" y="20.40cm" style="fill:#000000;font-size:10pt; font-family:sans-serif;">Russell, Norman</text>
<text x="3.16cm" y="21.01cm" style="fill:#000000;font-size:10pt; font-family:sans-serif;">Lane, Joseph Robert</text>
<text x="3.16cm" y="21.63cm" style="fill:#000000;font-size:10pt; font-family:sans-serif;">Webb, John Raymond</text>
<text x="3.16cm" y="22.25cm" style="fill:#000000;font-size:10pt; font-family:sans-serif;">Garner, Helen Bernice</text>
<text x="3.16cm" y="22.87cm" style="fill:#000000;font-size:10pt; font-family:sans-serif;">Cross, Gertrude</text>
<text x="3.16cm" y="23.48cm" style="fill:#000000;font-size:10pt; font-family:sans-serif;">Page, Vernett Gail</text>
<text x="3.16cm" y="24.10cm" style="fill:#000000;font-size:10pt; font-family:sans-serif;">Thornton, James Arthur</text>
<text x="3.16cm" y="24.72cm" style="fill:#000000;font-size:10pt; font-family:sans-serif;">Garner, Bernetha Ellen</text>
<text x="3.16cm" y="25.34cm" style="fill:#000000;font-size:10pt; font-family:sans-serif;">Lachance, Helen</text>
</svg>
