<?xml version="1.0" encoding="UTF-8" standalone="no"?>
<!DOCTYPE svg PUBLIC "-//W3C//DTD SVG 1.0//EN" "http://www.w3.org/TR/2001/REC-SVG-20010904/DTD/svg10.dtd">
<svg width="21.59cm" height="27.94cm" xmlns="http://www.w3.org/2000/svg">
<rect width="21.59cm" height="27.94cm" style="fill: none;"/>
<line x1="9.69cm" y1="4.54cm" x2="9.69cm" y2="25.40cm" style="stroke:#000000; stroke-dasharray: 2,4; stroke-width:0.50pt;"/>
<line x1="11.46cm" y1="4.54cm" x2="11.46cm" y2="25.40cm" style="stroke:#000000; stroke-dasharray: 2,4; stroke-width:0.50pt;"/>
<line x1="13.23cm" y1="4.54cm" x2="13.23cm" y2="25.40cm" style="stroke:#000000; stroke-dasharray: 2,4; stroke-width:0.50pt;"/>
<line x1="15.00cm" y1="4.54cm" x2="15.00cm" y2="25.40cm" style="stroke:#000000; stroke-dasharray: 2,4; stroke-width:0.50pt;"/>
<line x1="16.78cm" y1="4.54cm" x2="16.78cm" y2="25.40cm" style="stroke:#000000; stroke-dasharray: 2,4; stroke-width:0.50pt;"/>
<line x1="18.55cm" y1="4.54cm" x2="18.55cm" y2="25.40cm" style="stroke:#000000; stroke-dasharray: 2,4; stroke-width:0.50pt;"/>
<polygon fill="#ffffff" style="stroke:#000000;  stroke-width:0.50pt;" points="599.06,182.74 600.83,188.99 599.06,195.24 597.29,188.99"/>
<polygon fill="#000000" style="stroke:#000000;  stroke-width:0.50pt;" points="608.87,182.74 610.64,188.99 608.87,195.24 607.10,188.99"/>
<line x1="16.96cm" y1="5.33cm" x2="17.13cm" y2="5.33cm" style="stroke:#000000; stroke-width:0.50pt;"/>
<polygon fill="#ffffff" style="stroke:#000000;  stroke-width:0.50pt;" points="599.06,204.62 600.83,210.87 599.06,217.12 597.29,210.87"/>
<polygon fill="#000000" style="stroke:#000000;  stroke-width:0.50pt;" points="613.31,204.62 615.08,210.87 613.31,217.12 611.54,210.87"/>
<line x1="16.96cm" y1="5.95cm" x2="17.26cm" y2="5.95cm" style="stroke:#000000; stroke-width:0.50pt;"/>
<polygon fill="#ffffff" style="stroke:#000000;  stroke-width:0.50pt;" points="599.37,226.49 601.14,232.74 599.37,238.99 597.60,232.74"/>
<polygon fill="#000000" style="stroke:#000000;  stroke-width:0.50pt;" points="606.72,226.49 608.49,232.74 606.72,238.99 604.95,232.74"/>
<line x1="16.97cm" y1="6.57cm" x2="17.07cm" y2="6.57cm" style="stroke:#000000; stroke-width:0.50pt;"/>
<polygon fill="#ffffff" style="stroke:#000000;  stroke-width:0.50pt;" points="599.83,248.37 601.60,254.62 599.83,260.87 598.06,254.62"/>
<polygon fill="#ffffff" style="stroke:#000000;  stroke-width:0.50pt;" points="599.83,270.24 601.60,276.49 599.83,282.74 598.06,276.49"/>
<polygon fill="#000000" style="stroke:#000000;  stroke-width:0.50pt;" points="609.48,270.24 611.25,276.49 609.48,282.74 607.71,276.49"/>
<line x1="16.98cm" y1="7.80cm" x2="17.15cm" y2="7.80cm" style="stroke:#000000; stroke-width:0.50pt;"/>
<polygon fill="#ffffff" style="stroke:#000000;  stroke-width:0.50pt;" points="599.98,292.12 601.75,298.37 599.98,304.62 598.21,298.37"/>
<polygon fill="#ffffff" style="stroke:#000000;  stroke-width:0.50pt;" points="599.98,313.99 601.75,320.24 599.98,326.49 598.21,320.24"/>
<polygon fill="#000000" style="stroke:#000000;  stroke-width:0.50pt;" points="608.71,313.99 610.49,320.24 608.71,326.49 606.94,320.24"/>
<line x1="16.98cm" y1="9.04cm" x2="17.13cm" y2="9.04cm" style="stroke:#000000; stroke-width:0.50pt;"/>
<polygon fill="#ffffff" style="stroke:#000000;  stroke-width:0.50pt;" points="600.29,335.87 602.06,342.12 600.29,348.37 598.52,342.12"/>
<polygon fill="#000000" style="stroke:#000000;  stroke-width:0.50pt;" points="609.33,335.87 611.10,342.12 609.33,348.37 607.56,342.12"/>
<line x1="16.99cm" y1="9.66cm" x2="17.15cm" y2="9.66cm" style="stroke:#000000; stroke-width:0.50pt;"/>
<polygon fill="#ffffff" style="stroke:#000000;  stroke-width:0.50pt;" points="600.44,357.74 602.21,363.99 600.44,370.24 598.67,363.99"/>
<polygon fill="#ffffff" style="stroke:#000000;  stroke-width:0.50pt;" points="600.59,379.62 602.37,385.87 600.59,392.12 598.82,385.87"/>
<polygon fill="#000000" style="stroke:#000000;  stroke-width:0.50pt;" points="612.55,379.62 614.32,385.87 612.55,392.12 610.77,385.87"/>
<line x1="17.00cm" y1="10.89cm" x2="17.24cm" y2="10.89cm" style="stroke:#000000; stroke-width:0.50pt;"/>
<polygon fill="#ffffff" style="stroke:#000000;  stroke-width:0.50pt;" points="600.90,401.49 602.67,407.74 600.90,413.99 599.13,407.74"/>
<polygon fill="#ffffff" style="stroke:#000000;  stroke-width:0.50pt;" points="600.90,423.36 602.67,429.61 600.90,435.86 599.13,429.61"/>
<polygon fill="#ffffff" style="stroke:#000000;  stroke-width:0.50pt;" points="601.05,445.24 602.83,451.49 601.05,457.74 599.28,451.49"/>
<polygon fill="#ffffff" style="stroke:#000000;  stroke-width:0.50pt;" points="601.05,467.11 602.83,473.36 601.05,479.61 599.28,473.36"/>
<polygon fill="#000000" style="stroke:#000000;  stroke-width:0.50pt;" points="613.16,467.11 614.93,473.36 613.16,479.61 611.39,473.36"/>
<line x1="17.01cm" y1="13.36cm" x2="17.25cm" y2="13.36cm" style="stroke:#000000; stroke-width:0.50pt;"/>
<polygon fill="#ffffff" style="stroke:#000000;  stroke-width:0.50pt;" points="601.82,488.99 603.59,495.24 601.82,501.49 600.05,495.24"/>
<polygon fill="#000000" style="stroke:#000000;  stroke-width:0.50pt;" points="611.78,488.99 613.55,495.24 611.78,501.49 610.01,495.24"/>
<line x1="17.03cm" y1="13.98cm" x2="17.22cm" y2="13.98cm" style="stroke:#000000; stroke-width:0.50pt;"/>
<polygon fill="#ffffff" style="stroke:#000000;  stroke-width:0.50pt;" points="601.97,510.86 603.75,517.11 601.97,523.36 600.20,517.11"/>
<polygon fill="#ffffff" style="stroke:#000000;  stroke-width:0.50pt;" points="602.28,532.74 604.05,538.99 602.28,545.24 600.51,538.99"/>
<polygon fill="#000000" style="stroke:#000000;  stroke-width:0.50pt;" points="609.17,532.74 610.95,538.99 609.17,545.24 607.40,538.99"/>
<line x1="17.05cm" y1="15.21cm" x2="17.14cm" y2="15.21cm" style="stroke:#000000; stroke-width:0.50pt;"/>
<polygon fill="#ffffff" style="stroke:#000000;  stroke-width:0.50pt;" points="602.43,554.61 604.20,560.86 602.43,567.11 600.66,560.86"/>
<polygon fill="#ffffff" style="stroke:#000000;  stroke-width:0.50pt;" points="602.43,576.49 604.20,582.74 602.43,588.99 600.66,582.74"/>
<polygon fill="#000000" style="stroke:#000000;  stroke-width:0.50pt;" points="613.31,576.49 615.08,582.74 613.31,588.99 611.54,582.74"/>
<line x1="17.05cm" y1="16.45cm" x2="17.26cm" y2="16.45cm" style="stroke:#000000; stroke-width:0.50pt;"/>
<polygon fill="#ffffff" style="stroke:#000000;  stroke-width:0.50pt;" points="602.59,598.36 604.36,604.61 602.59,610.86 600.81,604.61"/>
<polygon fill="#000000" style="stroke:#000000;  stroke-width:0.50pt;" points="610.55,598.36 612.32,604.61 610.55,610.86 608.78,604.61"/>
<line x1="17.06cm" y1="17.06cm" x2="17.18cm" y2="17.06cm" style="stroke:#000000; stroke-width:0.50pt;"/>
<polygon fill="#ffffff" style="stroke:#000000;  stroke-width:0.50pt;" points="602.59,620.24 604.36,626.49 602.59,632.74 600.81,626.49"/>
<polygon fill="#ffffff" style="stroke:#000000;  stroke-width:0.50pt;" points="602.74,642.11 604.51,648.36 602.74,654.61 600.97,648.36"/>
<polygon fill="#000000" style="stroke:#000000;  stroke-width:0.50pt;" points="612.39,642.11 614.16,648.36 612.39,654.61 610.62,648.36"/>
<line x1="17.06cm" y1="18.30cm" x2="17.23cm" y2="18.30cm" style="stroke:#000000; stroke-width:0.50pt;"/>
<polygon fill="#ffffff" style="stroke:#000000;  stroke-width:0.50pt;" points="602.89,663.99 604.66,670.24 602.89,676.49 601.12,670.24"/>
<polygon fill="#000000" style="stroke:#000000;  stroke-width:0.50pt;" points="611.17,663.99 612.94,670.24 611.17,676.49 609.39,670.24"/>
<line x1="17.07cm" y1="18.92cm" x2="17.20cm" y2="18.92cm" style="stroke:#000000; stroke-width:0.50pt;"/>
<polygon fill="#ffffff" style="stroke:#000000;  stroke-width:0.50pt;" points="603.20,685.86 604.97,692.11 603.20,698.36 601.43,692.11"/>
<polygon fill="#ffffff" style="stroke:#000000;  stroke-width:0.50pt;" points="603.35,707.74 605.12,713.99 603.35,720.24 601.58,713.99"/>
<polygon fill="#000000" style="stroke:#000000;  stroke-width:0.50pt;" points="611.32,707.74 613.09,713.99 611.32,720.24 609.55,713.99"/>
<line x1="17.08cm" y1="20.15cm" x2="17.20cm" y2="20.15cm" style="stroke:#000000; stroke-width:0.50pt;"/>
<polygon fill="#ffffff" style="stroke:#000000;  stroke-width:0.50pt;" points="603.66,729.61 605.43,735.86 603.66,742.11 601.89,735.86"/>
<polygon fill="#000000" style="stroke:#000000;  stroke-width:0.50pt;" points="612.85,729.61 614.62,735.86 612.85,742.11 611.08,735.86"/>
<line x1="17.09cm" y1="20.77cm" x2="17.25cm" y2="20.77cm" style="stroke:#000000; stroke-width:0.50pt;"/>
<polygon fill="#ffffff" style="stroke:#000000;  stroke-width:0.50pt;" points="604.12,751.49 605.89,757.74 604.12,763.99 602.35,757.74"/>
<polygon fill="#ffffff" style="stroke:#000000;  stroke-width:0.50pt;" points="604.27,773.36 606.04,779.61 604.27,785.86 602.50,779.61"/>
<polygon fill="#ffffff" style="stroke:#000000;  stroke-width:0.50pt;" points="604.27,795.24 606.04,801.49 604.27,807.74 602.50,801.49"/>
<polygon fill="#ffffff" style="stroke:#000000;  stroke-width:0.50pt;" points="604.42,817.11 606.20,823.36 604.42,829.61 602.65,823.36"/>
<polygon fill="#000000" style="stroke:#000000;  stroke-width:0.50pt;" points="618.21,817.11 619.99,823.36 618.21,829.61 616.44,823.36"/>
<line x1="17.11cm" y1="23.24cm" x2="17.40cm" y2="23.24cm" style="stroke:#000000; stroke-width:0.50pt;"/>
<polygon fill="#ffffff" style="stroke:#000000;  stroke-width:0.50pt;" points="604.42,838.99 606.20,845.24 604.42,851.49 602.65,845.24"/>
<polygon fill="#ffffff" style="stroke:#000000;  stroke-width:0.50pt;" points="604.42,860.86 606.20,867.11 604.42,873.36 602.65,867.11"/>
<polygon fill="#000000" style="stroke:#000000;  stroke-width:0.50pt;" points="615.30,860.86 617.07,867.11 615.30,873.36 613.53,867.11"/>
<line x1="17.11cm" y1="24.47cm" x2="17.32cm" y2="24.47cm" style="stroke:#000000; stroke-width:0.50pt;"/>
<polygon fill="#ffffff" style="stroke:#000000;  stroke-width:0.50pt;" points="604.58,882.74 606.35,888.99 604.58,895.24 602.81,888.99"/>
<text x="9.34cm" y="3.13cm" style="fill:#000000;font-size:14pt; font-family:sans-serif;">Timeline Chart</text>
<text x="7.22cm" y="3.74cm" style="fill:#000000;font-size:14pt; font-family:sans-serif;">Entire Database -- Sorted by Birth Date</text>
<text x="9.41cm" y="4.54cm" style="fill:#000000;font-size:8pt; font-family:sans-serif;">-50</text>
<text x="11.16cm" y="4.54cm" style="fill:#000000;font-size:8pt; font-family:sans-serif;">360</text>
<text x="12.94cm" y="4.54cm" style="fill:#000000;font-size:8pt; font-family:sans-serif;">770</text>
<text x="14.65cm" y="4.54cm" style="fill:#000000;font-size:8pt; font-family:sans-serif;">1180</text>
<text x="16.42cm" y="4.54cm" style="fill:#000000;font-size:8pt; font-family:sans-serif;">1590</text>
<text x="18.19cm" y="4.54cm" style="fill:#000000;font-size:8pt; font-family:sans-serif;">2000</text>
<text x="3.16cm" y="5.58cm" style="fill:#000000;font-size:10pt; font-family:sans-serif;">Swanson, William</text>
<text x="3.16cm" y="6.20cm" style="fill:#000000;font-size:10pt; font-family:sans-serif;">Thomas, Elizabeth</text>
<text x="3.16cm" y="6.82cm" style="fill:#000000;font-size:10pt; font-family:sans-serif;">Reynolds, Col. John</text>
<text x="3.16cm" y="7.43cm" style="fill:#000000;font-size:10pt; font-family:sans-serif;">Foster, William</text>
<text x="3.16cm" y="8.05cm" style="fill:#000000;font-size:10pt; font-family:sans-serif;">Ingram, Mary</text>
<text x="3.16cm" y="8.67cm" style="fill:#000000;font-size:10pt; font-family:sans-serif;">Simmons, Maria</text>
<text x="3.16cm" y="9.28cm" style="fill:#000000;font-size:10pt; font-family:sans-serif;">Bishop, Quirinus</text>
<text x="3.16cm" y="9.90cm" style="fill:#000000;font-size:10pt; font-family:sans-serif;">Anderson, Thomas</text>
<text x="3.16cm" y="10.52cm" style="fill:#000000;font-size:10pt; font-family:sans-serif;">Sanders, Mary</text>
<text x="3.16cm" y="11.14cm" style="fill:#000000;font-size:10pt; font-family:sans-serif;">Jenkins, Margaret</text>
<text x="3.16cm" y="11.75cm" style="fill:#000000;font-size:10pt; font-family:sans-serif;">Mazur, Elizabeth</text>
<text x="3.16cm" y="12.37cm" style="fill:#000000;font-size:10pt; font-family:sans-serif;">Austin, Johannas</text>
<text x="3.16cm" y="12.99cm" style="fill:#000000;font-size:10pt; font-family:sans-serif;">Carpenter, Sarah</text>
<text x="3.16cm" y="13.61cm" style="fill:#000000;font-size:10pt; font-family:sans-serif;">Norris, John</text>
<text x="3.16cm" y="14.22cm" style="fill:#000000;font-size:10pt; font-family:sans-serif;">Grenier, Mary</text>
<text x="3.16cm" y="14.84cm" style="fill:#000000;font-size:10pt; font-family:sans-serif;">Blanco, Heinrich</text>
<text x="3.16cm" y="15.46cm" style="fill:#000000;font-size:10pt; font-family:sans-serif;">Howell, Mary (Sarah)</text>
<text x="3.16cm" y="16.08cm" style="fill:#000000;font-size:10pt; font-family:sans-serif;">Brooks, Guillaume de</text>
<text x="3.16cm" y="16.69cm" style="fill:#000000;font-size:10pt; font-family:sans-serif;">Christiansen, Nathaniel</text>
<text x="3.16cm" y="17.31cm" style="fill:#000000;font-size:10pt; font-family:sans-serif;">Reynolds, Nicholas</text>
<text x="3.16cm" y="17.93cm" style="fill:#000000;font-size:10pt; font-family:sans-serif;">山本, Antoine Desaure Perronett</text>
<text x="3.16cm" y="18.55cm" style="fill:#000000;font-size:10pt; font-family:sans-serif;">Reid, Hans</text>
<text x="3.16cm" y="19.16cm" style="fill:#000000;font-size:10pt; font-family:sans-serif;">Семенов, Cathern</text>
<text x="3.16cm" y="19.78cm" style="fill:#000000;font-size:10pt; font-family:sans-serif;">Murray, Susannah</text>
<text x="3.16cm" y="20.40cm" style="fill:#000000;font-size:10pt; font-family:sans-serif;">Diaz, William</text>
<text x="3.16cm" y="21.01cm" style="fill:#000000;font-size:10pt; font-family:sans-serif;">Warner, Capt. George</text>
<text x="3.16cm" y="21.63cm" style="fill:#000000;font-size:10pt; font-family:sans-serif;">Foster, David</text>
<text x="3.16cm" y="22.25cm" style="fill:#000000;font-size:10pt; font-family:sans-serif;">Anderson, Samuel</text>
<text x="3.16cm" y="22.87cm" style="fill:#000000;font-size:10pt; font-family:sans-serif;">Lefebvre, Mary</text>
<text x="3.16cm" y="23.48cm" style="fill:#000000;font-size:10pt; font-family:sans-serif;">Payne, Leonard</text>
<text x="3.16cm" y="24.10cm" style="fill:#000000;font-size:10pt; font-family:sans-serif;">Schmidt, Barbli</text>
<text x="3.16cm" y="24.72cm" style="fill:#000000;font-size:10pt; font-family:sans-serif;">Christiansen, Joseph</text>
<text x="3.16cm" y="25.34cm" style="fill:#000000;font-size:10pt; font-family:sans-serif;">Baldwin, Anne</text>
</svg>
