<?xml version="1.0" encoding="UTF-8" standalone="no"?>
<!DOCTYPE svg PUBLIC "-//W3C//DTD SVG 1.0//EN" "http://www.w3.org/TR/2001/REC-SVG-20010904/DTD/svg10.dtd">
<svg width="21.59cm" height="27.94cm" xmlns="http://www.w3.org/2000/svg">
<rect width="21.59cm" height="27.94cm" style="fill: none;"/>
<line x1="9.69cm" y1="4.54cm" x2="9.69cm" y2="25.40cm" style="stroke:#000000; stroke-dasharray: 2,4; stroke-width:0.50pt;"/>
<line x1="11.46cm" y1="4.54cm" x2="11.46cm" y2="25.40cm" style="stroke:#000000; stroke-dasharray: 2,4; stroke-width:0.50pt;"/>
<line x1="13.23cm" y1="4.54cm" x2="13.23cm" y2="25.40cm" style="stroke:#000000; stroke-dasharray: 2,4; stroke-width:0.50pt;"/>
<line x1="15.00cm" y1="4.54cm" x2="15.00cm" y2="25.40cm" style="stroke:#000000; stroke-dasharray: 2,4; stroke-width:0.50pt;"/>
<line x1="16.78cm" y1="4.54cm" x2="16.78cm" y2="25.40cm" style="stroke:#000000; stroke-dasharray: 2,4; stroke-width:0.50pt;"/>
<line x1="18.55cm" y1="4.54cm" x2="18.55cm" y2="25.40cm" style="stroke:#000000; stroke-dasharray: 2,4; stroke-width:0.50pt;"/>
<polygon fill="#ffffff" style="stroke:#000000;  stroke-width:0.50pt;" points="634.30,182.74 636.07,188.99 634.30,195.24 632.53,188.99"/>
<polygon fill="#000000" style="stroke:#000000;  stroke-width:0.50pt;" points="642.11,182.74 643.89,188.99 642.11,195.24 640.34,188.99"/>
<line x1="17.95cm" y1="5.33cm" x2="18.07cm" y2="5.33cm" style="stroke:#000000; stroke-width:0.50pt;"/>
<polygon fill="#ffffff" style="stroke:#000000;  stroke-width:0.50pt;" points="634.30,204.62 636.07,210.87 634.30,217.12 632.53,210.87"/>
<polygon fill="#000000" style="stroke:#000000;  stroke-width:0.50pt;" points="645.33,204.62 647.10,210.87 645.33,217.12 643.56,210.87"/>
<line x1="17.95cm" y1="5.95cm" x2="18.16cm" y2="5.95cm" style="stroke:#000000; stroke-width:0.50pt;"/>
<polygon fill="#ffffff" style="stroke:#000000;  stroke-width:0.50pt;" points="634.30,226.49 636.07,232.74 634.30,238.99 632.53,232.74"/>
<polygon fill="#000000" style="stroke:#000000;  stroke-width:0.50pt;" points="646.71,226.49 648.48,232.74 646.71,238.99 644.94,232.74"/>
<line x1="17.95cm" y1="6.57cm" x2="18.20cm" y2="6.57cm" style="stroke:#000000; stroke-width:0.50pt;"/>
<polygon fill="#ffffff" style="stroke:#000000;  stroke-width:0.50pt;" points="634.30,248.37 636.07,254.62 634.30,260.87 632.53,254.62"/>
<polygon fill="#000000" style="stroke:#000000;  stroke-width:0.50pt;" points="644.26,248.37 646.03,254.62 644.26,260.87 642.49,254.62"/>
<line x1="17.95cm" y1="7.19cm" x2="18.13cm" y2="7.19cm" style="stroke:#000000; stroke-width:0.50pt;"/>
<polygon fill="#ffffff" style="stroke:#000000;  stroke-width:0.50pt;" points="634.45,270.24 636.23,276.49 634.45,282.74 632.68,276.49"/>
<polygon fill="#000000" style="stroke:#000000;  stroke-width:0.50pt;" points="649.93,270.24 651.70,276.49 649.93,282.74 648.16,276.49"/>
<line x1="17.96cm" y1="7.80cm" x2="18.29cm" y2="7.80cm" style="stroke:#000000; stroke-width:0.50pt;"/>
<polygon fill="#ffffff" style="stroke:#000000;  stroke-width:0.50pt;" points="634.45,292.12 636.23,298.37 634.45,304.62 632.68,298.37"/>
<polygon fill="#000000" style="stroke:#000000;  stroke-width:0.50pt;" points="645.79,292.12 647.56,298.37 645.79,304.62 644.02,298.37"/>
<line x1="17.96cm" y1="8.42cm" x2="18.18cm" y2="8.42cm" style="stroke:#000000; stroke-width:0.50pt;"/>
<polygon fill="#ffffff" style="stroke:#000000;  stroke-width:0.50pt;" points="634.45,313.99 636.23,320.24 634.45,326.49 632.68,320.24"/>
<polygon fill="#000000" style="stroke:#000000;  stroke-width:0.50pt;" points="642.42,313.99 644.19,320.24 642.42,326.49 640.65,320.24"/>
<line x1="17.96cm" y1="9.04cm" x2="18.08cm" y2="9.04cm" style="stroke:#000000; stroke-width:0.50pt;"/>
<polygon fill="#ffffff" style="stroke:#000000;  stroke-width:0.50pt;" points="634.45,335.87 636.23,342.12 634.45,348.37 632.68,342.12"/>
<polygon fill="#000000" style="stroke:#000000;  stroke-width:0.50pt;" points="645.18,335.87 646.95,342.12 645.18,348.37 643.41,342.12"/>
<line x1="17.96cm" y1="9.66cm" x2="18.16cm" y2="9.66cm" style="stroke:#000000; stroke-width:0.50pt;"/>
<polygon fill="#ffffff" style="stroke:#000000;  stroke-width:0.50pt;" points="634.45,357.74 636.23,363.99 634.45,370.24 632.68,363.99"/>
<polygon fill="#000000" style="stroke:#000000;  stroke-width:0.50pt;" points="634.61,357.74 636.38,363.99 634.61,370.24 632.84,363.99"/>
<line x1="17.96cm" y1="10.27cm" x2="17.86cm" y2="10.27cm" style="stroke:#000000; stroke-width:0.50pt;"/>
<polygon fill="#ffffff" style="stroke:#000000;  stroke-width:0.50pt;" points="634.45,379.62 636.23,385.87 634.45,392.12 632.68,385.87"/>
<polygon fill="#000000" style="stroke:#000000;  stroke-width:0.50pt;" points="635.53,379.62 637.30,385.87 635.53,392.12 633.75,385.87"/>
<line x1="17.96cm" y1="10.89cm" x2="17.89cm" y2="10.89cm" style="stroke:#000000; stroke-width:0.50pt;"/>
<polygon fill="#ffffff" style="stroke:#000000;  stroke-width:0.50pt;" points="634.61,401.49 636.38,407.74 634.61,413.99 632.84,407.74"/>
<polygon fill="#000000" style="stroke:#000000;  stroke-width:0.50pt;" points="645.18,401.49 646.95,407.74 645.18,413.99 643.41,407.74"/>
<line x1="17.96cm" y1="11.51cm" x2="18.16cm" y2="11.51cm" style="stroke:#000000; stroke-width:0.50pt;"/>
<polygon fill="#ffffff" style="stroke:#000000;  stroke-width:0.50pt;" points="634.61,423.36 636.38,429.61 634.61,435.86 632.84,429.61"/>
<polygon fill="#ffffff" style="stroke:#000000;  stroke-width:0.50pt;" points="634.61,445.24 636.38,451.49 634.61,457.74 632.84,451.49"/>
<polygon fill="#ffffff" style="stroke:#000000;  stroke-width:0.50pt;" points="634.76,467.11 636.53,473.36 634.76,479.61 632.99,473.36"/>
<polygon fill="#000000" style="stroke:#000000;  stroke-width:0.50pt;" points="640.43,467.11 642.20,473.36 640.43,479.61 638.66,473.36"/>
<line x1="17.96cm" y1="13.36cm" x2="18.02cm" y2="13.36cm" style="stroke:#000000; stroke-width:0.50pt;"/>
<polygon fill="#ffffff" style="stroke:#000000;  stroke-width:0.50pt;" points="634.76,488.99 636.53,495.24 634.76,501.49 632.99,495.24"/>
<polygon fill="#000000" style="stroke:#000000;  stroke-width:0.50pt;" points="644.57,488.99 646.34,495.24 644.57,501.49 642.79,495.24"/>
<line x1="17.96cm" y1="13.98cm" x2="18.14cm" y2="13.98cm" style="stroke:#000000; stroke-width:0.50pt;"/>
<polygon fill="#ffffff" style="stroke:#000000;  stroke-width:0.50pt;" points="634.91,510.86 636.69,517.11 634.91,523.36 633.14,517.11"/>
<polygon fill="#ffffff" style="stroke:#000000;  stroke-width:0.50pt;" points="634.91,532.74 636.69,538.99 634.91,545.24 633.14,538.99"/>
<polygon fill="#000000" style="stroke:#000000;  stroke-width:0.50pt;" points="646.25,532.74 648.02,538.99 646.25,545.24 644.48,538.99"/>
<line x1="17.97cm" y1="15.21cm" x2="18.19cm" y2="15.21cm" style="stroke:#000000; stroke-width:0.50pt;"/>
<polygon fill="#ffffff" style="stroke:#000000;  stroke-width:0.50pt;" points="635.07,554.61 636.84,560.86 635.07,567.11 633.30,560.86"/>
<polygon fill="#ffffff" style="stroke:#000000;  stroke-width:0.50pt;" points="635.07,576.49 636.84,582.74 635.07,588.99 633.30,582.74"/>
<polygon fill="#ffffff" style="stroke:#000000;  stroke-width:0.50pt;" points="635.07,598.36 636.84,604.61 635.07,610.86 633.30,604.61"/>
<polygon fill="#000000" style="stroke:#000000;  stroke-width:0.50pt;" points="646.10,598.36 647.87,604.61 646.10,610.86 644.33,604.61"/>
<line x1="17.97cm" y1="17.06cm" x2="18.18cm" y2="17.06cm" style="stroke:#000000; stroke-width:0.50pt;"/>
<polygon fill="#ffffff" style="stroke:#000000;  stroke-width:0.50pt;" points="635.07,620.24 636.84,626.49 635.07,632.74 633.30,626.49"/>
<polygon fill="#000000" style="stroke:#000000;  stroke-width:0.50pt;" points="643.65,620.24 645.42,626.49 643.65,632.74 641.87,626.49"/>
<line x1="17.97cm" y1="17.68cm" x2="18.12cm" y2="17.68cm" style="stroke:#000000; stroke-width:0.50pt;"/>
<polygon fill="#ffffff" style="stroke:#000000;  stroke-width:0.50pt;" points="635.22,642.11 636.99,648.36 635.22,654.61 633.45,648.36"/>
<polygon fill="#ffffff" style="stroke:#000000;  stroke-width:0.50pt;" points="635.22,663.99 636.99,670.24 635.22,676.49 633.45,670.24"/>
<polygon fill="#ffffff" style="stroke:#000000;  stroke-width:0.50pt;" points="635.22,685.86 636.99,692.11 635.22,698.36 633.45,692.11"/>
<polygon fill="#000000" style="stroke:#000000;  stroke-width:0.50pt;" points="646.40,685.86 648.18,692.11 646.40,698.36 644.63,692.11"/>
<line x1="17.98cm" y1="19.53cm" x2="18.19cm" y2="19.53cm" style="stroke:#000000; stroke-width:0.50pt;"/>
<polygon fill="#ffffff" style="stroke:#000000;  stroke-width:0.50pt;" points="635.22,707.74 636.99,713.99 635.22,720.24 633.45,713.99"/>
<polygon fill="#000000" style="stroke:#000000;  stroke-width:0.50pt;" points="647.78,707.74 649.55,713.99 647.78,720.24 646.01,713.99"/>
<line x1="17.98cm" y1="20.15cm" x2="18.23cm" y2="20.15cm" style="stroke:#000000; stroke-width:0.50pt;"/>
<polygon fill="#ffffff" style="stroke:#000000;  stroke-width:0.50pt;" points="635.37,729.61 637.14,735.86 635.37,742.11 633.60,735.86"/>
<polygon fill="#ffffff" style="stroke:#000000;  stroke-width:0.50pt;" points="635.37,751.49 637.14,757.74 635.37,763.99 633.60,757.74"/>
<polygon fill="#000000" style="stroke:#000000;  stroke-width:0.50pt;" points="648.86,751.49 650.63,757.74 648.86,763.99 647.08,757.74"/>
<line x1="17.98cm" y1="21.39cm" x2="18.26cm" y2="21.39cm" style="stroke:#000000; stroke-width:0.50pt;"/>
<polygon fill="#ffffff" style="stroke:#000000;  stroke-width:0.50pt;" points="635.37,773.36 637.14,779.61 635.37,785.86 633.60,779.61"/>
<polygon fill="#000000" style="stroke:#000000;  stroke-width:0.50pt;" points="647.63,773.36 649.40,779.61 647.63,785.86 645.86,779.61"/>
<line x1="17.98cm" y1="22.00cm" x2="18.23cm" y2="22.00cm" style="stroke:#000000; stroke-width:0.50pt;"/>
<polygon fill="#ffffff" style="stroke:#000000;  stroke-width:0.50pt;" points="635.37,795.24 637.14,801.49 635.37,807.74 633.60,801.49"/>
<polygon fill="#000000" style="stroke:#000000;  stroke-width:0.50pt;" points="647.17,795.24 648.94,801.49 647.17,807.74 645.40,801.49"/>
<line x1="17.98cm" y1="22.62cm" x2="18.21cm" y2="22.62cm" style="stroke:#000000; stroke-width:0.50pt;"/>
<polygon fill="#ffffff" style="stroke:#000000;  stroke-width:0.50pt;" points="635.53,817.11 637.30,823.36 635.53,829.61 633.75,823.36"/>
<polygon fill="#000000" style="stroke:#000000;  stroke-width:0.50pt;" points="643.95,817.11 645.72,823.36 643.95,829.61 642.18,823.36"/>
<line x1="17.99cm" y1="23.24cm" x2="18.12cm" y2="23.24cm" style="stroke:#000000; stroke-width:0.50pt;"/>
<polygon fill="#ffffff" style="stroke:#000000;  stroke-width:0.50pt;" points="635.53,838.99 637.30,845.24 635.53,851.49 633.75,845.24"/>
<polygon fill="#ffffff" style="stroke:#000000;  stroke-width:0.50pt;" points="635.53,860.86 637.30,867.11 635.53,873.36 633.75,867.11"/>
<polygon fill="#ffffff" style="stroke:#000000;  stroke-width:0.50pt;" points="635.53,882.74 637.30,888.99 635.53,895.24 633.75,888.99"/>
<polygon fill="#000000" style="stroke:#000000;  stroke-width:0.50pt;" points="641.20,882.74 642.97,888.99 641.20,895.24 639.42,888.99"/>
<line x1="17.99cm" y1="25.09cm" x2="18.05cm" y2="25.09cm" style="stroke:#000000; stroke-width:0.50pt;"/>
<text x="9.34cm" y="3.13cm" style="fill:#000000;font-size:14pt; font-family:sans-serif;">Timeline Chart</text>
<text x="7.22cm" y="3.74cm" style="fill:#000000;font-size:14pt; font-family:sans-serif;">Entire Database -- Sorted by Birth Date</text>
<text x="9.41cm" y="4.54cm" style="fill:#000000;font-size:8pt; font-family:sans-serif;">-50</text>
<text x="11.16cm" y="4.54cm" style="fill:#000000;font-size:8pt; font-family:sans-serif;">360</text>
<text x="12.94cm" y="4.54cm" style="fill:#000000;font-size:8pt; font-family:sans-serif;">770</text>
<text x="14.65cm" y="4.54cm" style="fill:#000000;font-size:8pt; font-family:sans-serif;">1180</text>
<text x="16.42cm" y="4.54cm" style="fill:#000000;font-size:8pt; font-family:sans-serif;">1590</text>
<text x="18.19cm" y="4.54cm" style="fill:#000000;font-size:8pt; font-family:sans-serif;">2000</text>
<text x="3.16cm" y="5.58cm" style="fill:#000000;font-size:10pt; font-family:sans-serif;">Reed, Bridgette</text>
<text x="3.16cm" y="6.20cm" style="fill:#000000;font-size:10pt; font-family:sans-serif;">Boucher, Bridget</text>
<text x="3.16cm" y="6.82cm" style="fill:#000000;font-size:10pt; font-family:sans-serif;">Farmer, Elizabeth Ellen</text>
<text x="3.16cm" y="7.43cm" style="fill:#000000;font-size:10pt; font-family:sans-serif;">Douglas, Eliza Jane</text>
<text x="3.16cm" y="8.05cm" style="fill:#000000;font-size:10pt; font-family:sans-serif;">Boucher, William</text>
<text x="3.16cm" y="8.67cm" style="fill:#000000;font-size:10pt; font-family:sans-serif;">Page, Margaret</text>
<text x="3.16cm" y="9.28cm" style="fill:#000000;font-size:10pt; font-family:sans-serif;">Blanco, Stephen</text>
<text x="3.16cm" y="9.90cm" style="fill:#000000;font-size:10pt; font-family:sans-serif;">Todd, John M.</text>
<text x="3.16cm" y="10.52cm" style="fill:#000000;font-size:10pt; font-family:sans-serif;">Garner, Mary J.</text>
<text x="3.16cm" y="11.14cm" style="fill:#000000;font-size:10pt; font-family:sans-serif;">Garner, Mary M.</text>
<text x="3.16cm" y="11.75cm" style="fill:#000000;font-size:10pt; font-family:sans-serif;">Martel, Luella Jacques</text>
<text x="3.16cm" y="12.37cm" style="fill:#000000;font-size:10pt; font-family:sans-serif;">Ball, Martha</text>
<text x="3.16cm" y="12.99cm" style="fill:#000000;font-size:10pt; font-family:sans-serif;">Farmer, Miranda Keziah</text>
<text x="3.16cm" y="13.61cm" style="fill:#000000;font-size:10pt; font-family:sans-serif;">Douglas, Elizabeth</text>
<text x="3.16cm" y="14.22cm" style="fill:#000000;font-size:10pt; font-family:sans-serif;">Reed, Hugh</text>
<text x="3.16cm" y="14.84cm" style="fill:#000000;font-size:10pt; font-family:sans-serif;">Blanco, Milton</text>
<text x="3.16cm" y="15.46cm" style="fill:#000000;font-size:10pt; font-family:sans-serif;">Boucher, William Bernard</text>
<text x="3.16cm" y="16.08cm" style="fill:#000000;font-size:10pt; font-family:sans-serif;">Farmer, Cyrus Melville</text>
<text x="3.16cm" y="16.69cm" style="fill:#000000;font-size:10pt; font-family:sans-serif;">Fernandez, Michael</text>
<text x="3.16cm" y="17.31cm" style="fill:#000000;font-size:10pt; font-family:sans-serif;">Landry, Michael Edward</text>
<text x="3.16cm" y="17.93cm" style="fill:#000000;font-size:10pt; font-family:sans-serif;">Garner von Zieliński, Lewis Anderson Sr</text>
<text x="3.16cm" y="18.55cm" style="fill:#000000;font-size:10pt; font-family:sans-serif;">Blanco, L. J.</text>
<text x="3.16cm" y="19.16cm" style="fill:#000000;font-size:10pt; font-family:sans-serif;">Moreno, Phebe J.</text>
<text x="3.16cm" y="19.78cm" style="fill:#000000;font-size:10pt; font-family:sans-serif;">Reeves, Maria</text>
<text x="3.16cm" y="20.40cm" style="fill:#000000;font-size:10pt; font-family:sans-serif;">Webb, James Marshall</text>
<text x="3.16cm" y="21.01cm" style="fill:#000000;font-size:10pt; font-family:sans-serif;">Landry, Sarah</text>
<text x="3.16cm" y="21.63cm" style="fill:#000000;font-size:10pt; font-family:sans-serif;">Reed, Francis Vincent</text>
<text x="3.16cm" y="22.25cm" style="fill:#000000;font-size:10pt; font-family:sans-serif;">Garner, Rebecca Catharine</text>
<text x="3.16cm" y="22.87cm" style="fill:#000000;font-size:10pt; font-family:sans-serif;">Myers, James Joseph Jr.</text>
<text x="3.16cm" y="23.48cm" style="fill:#000000;font-size:10pt; font-family:sans-serif;">Казанцев, Katherine</text>
<text x="3.16cm" y="24.10cm" style="fill:#000000;font-size:10pt; font-family:sans-serif;">Farmer, Flora Alice</text>
<text x="3.16cm" y="24.72cm" style="fill:#000000;font-size:10pt; font-family:sans-serif;">Moreno, Lelia L.</text>
<text x="3.16cm" y="25.34cm" style="fill:#000000;font-size:10pt; font-family:sans-serif;">Carr, Zelpha Josephine</text>
</svg>
