<?xml version="1.0" encoding="UTF-8" standalone="no"?>
<!DOCTYPE svg PUBLIC "-//W3C//DTD SVG 1.0//EN" "http://www.w3.org/TR/2001/REC-SVG-20010904/DTD/svg10.dtd">
<svg width="21.59cm" height="27.94cm" xmlns="http://www.w3.org/2000/svg">
<rect width="21.59cm" height="27.94cm" style="fill: none;"/>
<line x1="9.69cm" y1="4.54cm" x2="9.69cm" y2="25.40cm" style="stroke:#000000; stroke-dasharray: 2,4; stroke-width:0.50pt;"/>
<line x1="11.46cm" y1="4.54cm" x2="11.46cm" y2="25.40cm" style="stroke:#000000; stroke-dasharray: 2,4; stroke-width:0.50pt;"/>
<line x1="13.23cm" y1="4.54cm" x2="13.23cm" y2="25.40cm" style="stroke:#000000; stroke-dasharray: 2,4; stroke-width:0.50pt;"/>
<line x1="15.00cm" y1="4.54cm" x2="15.00cm" y2="25.40cm" style="stroke:#000000; stroke-dasharray: 2,4; stroke-width:0.50pt;"/>
<line x1="16.78cm" y1="4.54cm" x2="16.78cm" y2="25.40cm" style="stroke:#000000; stroke-dasharray: 2,4; stroke-width:0.50pt;"/>
<line x1="18.55cm" y1="4.54cm" x2="18.55cm" y2="25.40cm" style="stroke:#000000; stroke-dasharray: 2,4; stroke-width:0.50pt;"/>
<polygon fill="#ffffff" style="stroke:#000000;  stroke-width:0.50pt;" points="639.36,182.74 641.13,188.99 639.36,195.24 637.59,188.99"/>
<polygon fill="#ffffff" style="stroke:#000000;  stroke-width:0.50pt;" points="639.36,204.62 641.13,210.87 639.36,217.12 637.59,210.87"/>
<polygon fill="#000000" style="stroke:#000000;  stroke-width:0.50pt;" points="653.15,204.62 654.92,210.87 653.15,217.12 651.37,210.87"/>
<line x1="18.09cm" y1="5.95cm" x2="18.38cm" y2="5.95cm" style="stroke:#000000; stroke-width:0.50pt;"/>
<polygon fill="#ffffff" style="stroke:#000000;  stroke-width:0.50pt;" points="639.36,226.49 641.13,232.74 639.36,238.99 637.59,232.74"/>
<polygon fill="#000000" style="stroke:#000000;  stroke-width:0.50pt;" points="647.48,226.49 649.25,232.74 647.48,238.99 645.71,232.74"/>
<line x1="18.09cm" y1="6.57cm" x2="18.22cm" y2="6.57cm" style="stroke:#000000; stroke-width:0.50pt;"/>
<polygon fill="#ffffff" style="stroke:#000000;  stroke-width:0.50pt;" points="639.36,248.37 641.13,254.62 639.36,260.87 637.59,254.62"/>
<polygon fill="#ffffff" style="stroke:#000000;  stroke-width:0.50pt;" points="639.51,270.24 641.28,276.49 639.51,282.74 637.74,276.49"/>
<polygon fill="#ffffff" style="stroke:#000000;  stroke-width:0.50pt;" points="639.51,292.12 641.28,298.37 639.51,304.62 637.74,298.37"/>
<polygon fill="#000000" style="stroke:#000000;  stroke-width:0.50pt;" points="650.69,292.12 652.47,298.37 650.69,304.62 648.92,298.37"/>
<line x1="18.10cm" y1="8.42cm" x2="18.31cm" y2="8.42cm" style="stroke:#000000; stroke-width:0.50pt;"/>
<polygon fill="#ffffff" style="stroke:#000000;  stroke-width:0.50pt;" points="639.66,313.99 641.43,320.24 639.66,326.49 637.89,320.24"/>
<polygon fill="#ffffff" style="stroke:#000000;  stroke-width:0.50pt;" points="639.66,335.87 641.43,342.12 639.66,348.37 637.89,342.12"/>
<polygon fill="#000000" style="stroke:#000000;  stroke-width:0.50pt;" points="651.15,335.87 652.93,342.12 651.15,348.37 649.38,342.12"/>
<line x1="18.10cm" y1="9.66cm" x2="18.33cm" y2="9.66cm" style="stroke:#000000; stroke-width:0.50pt;"/>
<polygon fill="#ffffff" style="stroke:#000000;  stroke-width:0.50pt;" points="639.66,357.74 641.43,363.99 639.66,370.24 637.89,363.99"/>
<polygon fill="#ffffff" style="stroke:#000000;  stroke-width:0.50pt;" points="639.66,379.62 641.43,385.87 639.66,392.12 637.89,385.87"/>
<polygon fill="#000000" style="stroke:#000000;  stroke-width:0.50pt;" points="651.92,379.62 653.69,385.87 651.92,392.12 650.15,385.87"/>
<line x1="18.10cm" y1="10.89cm" x2="18.35cm" y2="10.89cm" style="stroke:#000000; stroke-width:0.50pt;"/>
<polygon fill="#ffffff" style="stroke:#000000;  stroke-width:0.50pt;" points="639.66,401.49 641.43,407.74 639.66,413.99 637.89,407.74"/>
<polygon fill="#000000" style="stroke:#000000;  stroke-width:0.50pt;" points="645.79,401.49 647.56,407.74 645.79,413.99 644.02,407.74"/>
<line x1="18.10cm" y1="11.51cm" x2="18.18cm" y2="11.51cm" style="stroke:#000000; stroke-width:0.50pt;"/>
<polygon fill="#ffffff" style="stroke:#000000;  stroke-width:0.50pt;" points="639.66,423.36 641.43,429.61 639.66,435.86 637.89,429.61"/>
<polygon fill="#000000" style="stroke:#000000;  stroke-width:0.50pt;" points="645.94,423.36 647.72,429.61 645.94,435.86 644.17,429.61"/>
<line x1="18.10cm" y1="12.12cm" x2="18.18cm" y2="12.12cm" style="stroke:#000000; stroke-width:0.50pt;"/>
<polygon fill="#ffffff" style="stroke:#000000;  stroke-width:0.50pt;" points="639.66,445.24 641.43,451.49 639.66,457.74 637.89,451.49"/>
<polygon fill="#000000" style="stroke:#000000;  stroke-width:0.50pt;" points="643.95,445.24 645.72,451.49 643.95,457.74 642.18,451.49"/>
<line x1="18.10cm" y1="12.74cm" x2="18.12cm" y2="12.74cm" style="stroke:#000000; stroke-width:0.50pt;"/>
<polygon fill="#ffffff" style="stroke:#000000;  stroke-width:0.50pt;" points="639.82,467.11 641.59,473.36 639.82,479.61 638.04,473.36"/>
<polygon fill="#000000" style="stroke:#000000;  stroke-width:0.50pt;" points="653.76,467.11 655.53,473.36 653.76,479.61 651.99,473.36"/>
<line x1="18.11cm" y1="13.36cm" x2="18.40cm" y2="13.36cm" style="stroke:#000000; stroke-width:0.50pt;"/>
<polygon fill="#ffffff" style="stroke:#000000;  stroke-width:0.50pt;" points="639.82,488.99 641.59,495.24 639.82,501.49 638.04,495.24"/>
<polygon fill="#000000" style="stroke:#000000;  stroke-width:0.50pt;" points="649.77,488.99 651.55,495.24 649.77,501.49 648.00,495.24"/>
<line x1="18.11cm" y1="13.98cm" x2="18.29cm" y2="13.98cm" style="stroke:#000000; stroke-width:0.50pt;"/>
<polygon fill="#ffffff" style="stroke:#000000;  stroke-width:0.50pt;" points="639.82,510.86 641.59,517.11 639.82,523.36 638.04,517.11"/>
<polygon fill="#ffffff" style="stroke:#000000;  stroke-width:0.50pt;" points="639.82,532.74 641.59,538.99 639.82,545.24 638.04,538.99"/>
<polygon fill="#000000" style="stroke:#000000;  stroke-width:0.50pt;" points="651.61,532.74 653.39,538.99 651.61,545.24 649.84,538.99"/>
<line x1="18.11cm" y1="15.21cm" x2="18.34cm" y2="15.21cm" style="stroke:#000000; stroke-width:0.50pt;"/>
<polygon fill="#ffffff" style="stroke:#000000;  stroke-width:0.50pt;" points="639.82,554.61 641.59,560.86 639.82,567.11 638.04,560.86"/>
<polygon fill="#ffffff" style="stroke:#000000;  stroke-width:0.50pt;" points="639.97,576.49 641.74,582.74 639.97,588.99 638.20,582.74"/>
<polygon fill="#000000" style="stroke:#000000;  stroke-width:0.50pt;" points="654.06,576.49 655.84,582.74 654.06,588.99 652.29,582.74"/>
<line x1="18.11cm" y1="16.45cm" x2="18.41cm" y2="16.45cm" style="stroke:#000000; stroke-width:0.50pt;"/>
<polygon fill="#ffffff" style="stroke:#000000;  stroke-width:0.50pt;" points="639.97,598.36 641.74,604.61 639.97,610.86 638.20,604.61"/>
<polygon fill="#ffffff" style="stroke:#000000;  stroke-width:0.50pt;" points="639.97,620.24 641.74,626.49 639.97,632.74 638.20,626.49"/>
<polygon fill="#000000" style="stroke:#000000;  stroke-width:0.50pt;" points="644.72,620.24 646.49,626.49 644.72,632.74 642.95,626.49"/>
<line x1="18.11cm" y1="17.68cm" x2="18.15cm" y2="17.68cm" style="stroke:#000000; stroke-width:0.50pt;"/>
<polygon fill="#ffffff" style="stroke:#000000;  stroke-width:0.50pt;" points="640.12,642.11 641.89,648.36 640.12,654.61 638.35,648.36"/>
<polygon fill="#000000" style="stroke:#000000;  stroke-width:0.50pt;" points="644.72,642.11 646.49,648.36 644.72,654.61 642.95,648.36"/>
<line x1="18.12cm" y1="18.30cm" x2="18.15cm" y2="18.30cm" style="stroke:#000000; stroke-width:0.50pt;"/>
<polygon fill="#ffffff" style="stroke:#000000;  stroke-width:0.50pt;" points="640.12,663.99 641.89,670.24 640.12,676.49 638.35,670.24"/>
<polygon fill="#000000" style="stroke:#000000;  stroke-width:0.50pt;" points="652.69,663.99 654.46,670.24 652.69,676.49 650.91,670.24"/>
<line x1="18.12cm" y1="18.92cm" x2="18.37cm" y2="18.92cm" style="stroke:#000000; stroke-width:0.50pt;"/>
<polygon fill="#ffffff" style="stroke:#000000;  stroke-width:0.50pt;" points="640.12,685.86 641.89,692.11 640.12,698.36 638.35,692.11"/>
<polygon fill="#000000" style="stroke:#000000;  stroke-width:0.50pt;" points="648.40,685.86 650.17,692.11 648.40,698.36 646.62,692.11"/>
<line x1="18.12cm" y1="19.53cm" x2="18.25cm" y2="19.53cm" style="stroke:#000000; stroke-width:0.50pt;"/>
<polygon fill="#ffffff" style="stroke:#000000;  stroke-width:0.50pt;" points="640.28,707.74 642.05,713.99 640.28,720.24 638.50,713.99"/>
<polygon fill="#000000" style="stroke:#000000;  stroke-width:0.50pt;" points="651.15,707.74 652.93,713.99 651.15,720.24 649.38,713.99"/>
<line x1="18.12cm" y1="20.15cm" x2="18.33cm" y2="20.15cm" style="stroke:#000000; stroke-width:0.50pt;"/>
<polygon fill="#ffffff" style="stroke:#000000;  stroke-width:0.50pt;" points="640.28,729.61 642.05,735.86 640.28,742.11 638.50,735.86"/>
<polygon fill="#000000" style="stroke:#000000;  stroke-width:0.50pt;" points="650.39,729.61 652.16,735.86 650.39,742.11 648.62,735.86"/>
<line x1="18.12cm" y1="20.77cm" x2="18.31cm" y2="20.77cm" style="stroke:#000000; stroke-width:0.50pt;"/>
<polygon fill="#ffffff" style="stroke:#000000;  stroke-width:0.50pt;" points="640.28,751.49 642.05,757.74 640.28,763.99 638.50,757.74"/>
<polygon fill="#ffffff" style="stroke:#000000;  stroke-width:0.50pt;" points="640.28,773.36 642.05,779.61 640.28,785.86 638.50,779.61"/>
<polygon fill="#000000" style="stroke:#000000;  stroke-width:0.50pt;" points="651.31,773.36 653.08,779.61 651.31,785.86 649.54,779.61"/>
<line x1="18.12cm" y1="22.00cm" x2="18.33cm" y2="22.00cm" style="stroke:#000000; stroke-width:0.50pt;"/>
<polygon fill="#ffffff" style="stroke:#000000;  stroke-width:0.50pt;" points="640.28,795.24 642.05,801.49 640.28,807.74 638.50,801.49"/>
<polygon fill="#000000" style="stroke:#000000;  stroke-width:0.50pt;" points="647.78,795.24 649.55,801.49 647.78,807.74 646.01,801.49"/>
<line x1="18.12cm" y1="22.62cm" x2="18.23cm" y2="22.62cm" style="stroke:#000000; stroke-width:0.50pt;"/>
<polygon fill="#ffffff" style="stroke:#000000;  stroke-width:0.50pt;" points="640.28,817.11 642.05,823.36 640.28,829.61 638.50,823.36"/>
<polygon fill="#000000" style="stroke:#000000;  stroke-width:0.50pt;" points="652.53,817.11 654.30,823.36 652.53,829.61 650.76,823.36"/>
<line x1="18.12cm" y1="23.24cm" x2="18.37cm" y2="23.24cm" style="stroke:#000000; stroke-width:0.50pt;"/>
<polygon fill="#ffffff" style="stroke:#000000;  stroke-width:0.50pt;" points="640.43,838.99 642.20,845.24 640.43,851.49 638.66,845.24"/>
<polygon fill="#000000" style="stroke:#000000;  stroke-width:0.50pt;" points="648.86,838.99 650.63,845.24 648.86,851.49 647.08,845.24"/>
<line x1="18.12cm" y1="23.85cm" x2="18.26cm" y2="23.85cm" style="stroke:#000000; stroke-width:0.50pt;"/>
<polygon fill="#ffffff" style="stroke:#000000;  stroke-width:0.50pt;" points="640.43,860.86 642.20,867.11 640.43,873.36 638.66,867.11"/>
<polygon fill="#000000" style="stroke:#000000;  stroke-width:0.50pt;" points="651.46,860.86 653.23,867.11 651.46,873.36 649.69,867.11"/>
<line x1="18.12cm" y1="24.47cm" x2="18.34cm" y2="24.47cm" style="stroke:#000000; stroke-width:0.50pt;"/>
<polygon fill="#ffffff" style="stroke:#000000;  stroke-width:0.50pt;" points="640.43,882.74 642.20,888.99 640.43,895.24 638.66,888.99"/>
<polygon fill="#000000" style="stroke:#000000;  stroke-width:0.50pt;" points="651.46,882.74 653.23,888.99 651.46,895.24 649.69,888.99"/>
<line x1="18.12cm" y1="25.09cm" x2="18.34cm" y2="25.09cm" style="stroke:#000000; stroke-width:0.50pt;"/>
<text x="9.34cm" y="3.13cm" style="fill:#000000;font-size:14pt; font-family:sans-serif;">Timeline Chart</text>
<text x="7.22cm" y="3.74cm" style="fill:#000000;font-size:14pt; font-family:sans-serif;">Entire Database -- Sorted by Birth Date</text>
<text x="9.41cm" y="4.54cm" style="fill:#000000;font-size:8pt; font-family:sans-serif;">-50</text>
<text x="11.16cm" y="4.54cm" style="fill:#000000;font-size:8pt; font-family:sans-serif;">360</text>
<text x="12.94cm" y="4.54cm" style="fill:#000000;font-size:8pt; font-family:sans-serif;">770</text>
<text x="14.65cm" y="4.54cm" style="fill:#000000;font-size:8pt; font-family:sans-serif;">1180</text>
<text x="16.42cm" y="4.54cm" style="fill:#000000;font-size:8pt; font-family:sans-serif;">1590</text>
<text x="18.19cm" y="4.54cm" style="fill:#000000;font-size:8pt; font-family:sans-serif;">2000</text>
<text x="3.16cm" y="5.58cm" style="fill:#000000;font-size:10pt; font-family:sans-serif;">Boucher, Michael J.</text>
<text x="3.16cm" y="6.20cm" style="fill:#000000;font-size:10pt; font-family:sans-serif;">Черкашин, Thomas</text>
<text x="3.16cm" y="6.82cm" style="fill:#000000;font-size:10pt; font-family:sans-serif;">Garner, Daniel Webster</text>
<text x="3.16cm" y="7.43cm" style="fill:#000000;font-size:10pt; font-family:sans-serif;">Page, Eleanor Maude</text>
<text x="3.16cm" y="8.05cm" style="fill:#000000;font-size:10pt; font-family:sans-serif;">Todd, Lena Viola</text>
<text x="3.16cm" y="8.67cm" style="fill:#000000;font-size:10pt; font-family:sans-serif;">Webb, Ernest Arlington</text>
<text x="3.16cm" y="9.28cm" style="fill:#000000;font-size:10pt; font-family:sans-serif;">Boucher, Mary Josephine</text>
<text x="3.16cm" y="9.90cm" style="fill:#000000;font-size:10pt; font-family:sans-serif;">Schneider, Belle Irene</text>
<text x="3.16cm" y="10.52cm" style="fill:#000000;font-size:10pt; font-family:sans-serif;">Reed, Bridget Ann</text>
<text x="3.16cm" y="11.14cm" style="fill:#000000;font-size:10pt; font-family:sans-serif;">Page, Edith Mae</text>
<text x="3.16cm" y="11.75cm" style="fill:#000000;font-size:10pt; font-family:sans-serif;">Jankowski, Matilda</text>
<text x="3.16cm" y="12.37cm" style="fill:#000000;font-size:10pt; font-family:sans-serif;">Kristensen, Sarah "Sr. Sabina"</text>
<text x="3.16cm" y="12.99cm" style="fill:#000000;font-size:10pt; font-family:sans-serif;">Klein, Alma Katherine</text>
<text x="3.16cm" y="13.61cm" style="fill:#000000;font-size:10pt; font-family:sans-serif;">Boucher, Prof. William Joseph</text>
<text x="3.16cm" y="14.22cm" style="fill:#000000;font-size:10pt; font-family:sans-serif;">Jankowski, David</text>
<text x="3.16cm" y="14.84cm" style="fill:#000000;font-size:10pt; font-family:sans-serif;">Todd, Irene Frances</text>
<text x="3.16cm" y="15.46cm" style="fill:#000000;font-size:10pt; font-family:sans-serif;">Webb, James Leslie</text>
<text x="3.16cm" y="16.08cm" style="fill:#000000;font-size:10pt; font-family:sans-serif;">Landry, Theresa A.</text>
<text x="3.16cm" y="16.69cm" style="fill:#000000;font-size:10pt; font-family:sans-serif;">Page, Andrew Vincent</text>
<text x="3.16cm" y="17.31cm" style="fill:#000000;font-size:10pt; font-family:sans-serif;">Zimmerman, Edith Irene</text>
<text x="3.16cm" y="17.93cm" style="fill:#000000;font-size:10pt; font-family:sans-serif;">Kristensen, Mary Elizabeth</text>
<text x="3.16cm" y="18.55cm" style="fill:#000000;font-size:10pt; font-family:sans-serif;">Garner, Bertha P.</text>
<text x="3.16cm" y="19.16cm" style="fill:#000000;font-size:10pt; font-family:sans-serif;">Webb, Michael Christie</text>
<text x="3.16cm" y="19.78cm" style="fill:#000000;font-size:10pt; font-family:sans-serif;">Boucher, Thomas W.</text>
<text x="3.16cm" y="20.40cm" style="fill:#000000;font-size:10pt; font-family:sans-serif;">Jankowski, Margaret Jane "Maggie"</text>
<text x="3.16cm" y="21.01cm" style="fill:#000000;font-size:10pt; font-family:sans-serif;">Landry, Mary A.</text>
<text x="3.16cm" y="21.63cm" style="fill:#000000;font-size:10pt; font-family:sans-serif;">Todd, Cora Olive</text>
<text x="3.16cm" y="22.25cm" style="fill:#000000;font-size:10pt; font-family:sans-serif;">Warner, Martin Bogarte</text>
<text x="3.16cm" y="22.87cm" style="fill:#000000;font-size:10pt; font-family:sans-serif;">Kristensen, John Francis"Chick"</text>
<text x="3.16cm" y="23.48cm" style="fill:#000000;font-size:10pt; font-family:sans-serif;">Page, Clara Belle</text>
<text x="3.16cm" y="24.10cm" style="fill:#000000;font-size:10pt; font-family:sans-serif;">Boucher, Mary Cecilia</text>
<text x="3.16cm" y="24.72cm" style="fill:#000000;font-size:10pt; font-family:sans-serif;">Zimmerman, Edith Irene</text>
<text x="3.16cm" y="25.34cm" style="fill:#000000;font-size:10pt; font-family:sans-serif;">McCoy, Francis</text>
</svg>
