<?xml version="1.0" encoding="UTF-8" standalone="no"?>
<!DOCTYPE svg PUBLIC "-//W3C//DTD SVG 1.0//EN" "http://www.w3.org/TR/2001/REC-SVG-20010904/DTD/svg10.dtd">
<svg width="21.59cm" height="27.94cm" xmlns="http://www.w3.org/2000/svg">
<rect width="21.59cm" height="27.94cm" style="fill: none;"/>
<line x1="9.69cm" y1="4.54cm" x2="9.69cm" y2="25.40cm" style="stroke:#000000; stroke-dasharray: 2,4; stroke-width:0.50pt;"/>
<line x1="11.46cm" y1="4.54cm" x2="11.46cm" y2="25.40cm" style="stroke:#000000; stroke-dasharray: 2,4; stroke-width:0.50pt;"/>
<line x1="13.23cm" y1="4.54cm" x2="13.23cm" y2="25.40cm" style="stroke:#000000; stroke-dasharray: 2,4; stroke-width:0.50pt;"/>
<line x1="15.00cm" y1="4.54cm" x2="15.00cm" y2="25.40cm" style="stroke:#000000; stroke-dasharray: 2,4; stroke-width:0.50pt;"/>
<line x1="16.78cm" y1="4.54cm" x2="16.78cm" y2="25.40cm" style="stroke:#000000; stroke-dasharray: 2,4; stroke-width:0.50pt;"/>
<line x1="18.55cm" y1="4.54cm" x2="18.55cm" y2="25.40cm" style="stroke:#000000; stroke-dasharray: 2,4; stroke-width:0.50pt;"/>
<polygon fill="#ffffff" style="stroke:#000000;  stroke-width:0.50pt;" points="619.75,182.74 621.52,188.99 619.75,195.24 617.97,188.99"/>
<polygon fill="#000000" style="stroke:#000000;  stroke-width:0.50pt;" points="626.03,182.74 627.80,188.99 626.03,195.24 624.26,188.99"/>
<line x1="17.54cm" y1="5.33cm" x2="17.62cm" y2="5.33cm" style="stroke:#000000; stroke-width:0.50pt;"/>
<polygon fill="#ffffff" style="stroke:#000000;  stroke-width:0.50pt;" points="619.75,204.62 621.52,210.87 619.75,217.12 617.97,210.87"/>
<polygon fill="#000000" style="stroke:#000000;  stroke-width:0.50pt;" points="632.62,204.62 634.39,210.87 632.62,217.12 630.84,210.87"/>
<line x1="17.54cm" y1="5.95cm" x2="17.80cm" y2="5.95cm" style="stroke:#000000; stroke-width:0.50pt;"/>
<polygon fill="#ffffff" style="stroke:#000000;  stroke-width:0.50pt;" points="619.90,226.49 621.67,232.74 619.90,238.99 618.13,232.74"/>
<polygon fill="#000000" style="stroke:#000000;  stroke-width:0.50pt;" points="626.79,226.49 628.57,232.74 626.79,238.99 625.02,232.74"/>
<line x1="17.54cm" y1="6.57cm" x2="17.64cm" y2="6.57cm" style="stroke:#000000; stroke-width:0.50pt;"/>
<polygon fill="#ffffff" style="stroke:#000000;  stroke-width:0.50pt;" points="620.36,248.37 622.13,254.62 620.36,260.87 618.59,254.62"/>
<polygon fill="#000000" style="stroke:#000000;  stroke-width:0.50pt;" points="632.77,248.37 634.54,254.62 632.77,260.87 631.00,254.62"/>
<line x1="17.56cm" y1="7.19cm" x2="17.81cm" y2="7.19cm" style="stroke:#000000; stroke-width:0.50pt;"/>
<polygon fill="#ffffff" style="stroke:#000000;  stroke-width:0.50pt;" points="620.36,270.24 622.13,276.49 620.36,282.74 618.59,276.49"/>
<polygon fill="#000000" style="stroke:#000000;  stroke-width:0.50pt;" points="624.34,270.24 626.11,276.49 624.34,282.74 622.57,276.49"/>
<line x1="17.56cm" y1="7.80cm" x2="17.57cm" y2="7.80cm" style="stroke:#000000; stroke-width:0.50pt;"/>
<polygon fill="#ffffff" style="stroke:#000000;  stroke-width:0.50pt;" points="620.36,292.12 622.13,298.37 620.36,304.62 618.59,298.37"/>
<polygon fill="#ffffff" style="stroke:#000000;  stroke-width:0.50pt;" points="620.51,313.99 622.28,320.24 620.51,326.49 618.74,320.24"/>
<polygon fill="#000000" style="stroke:#000000;  stroke-width:0.50pt;" points="630.78,313.99 632.55,320.24 630.78,326.49 629.01,320.24"/>
<line x1="17.56cm" y1="9.04cm" x2="17.75cm" y2="9.04cm" style="stroke:#000000; stroke-width:0.50pt;"/>
<polygon fill="#ffffff" style="stroke:#000000;  stroke-width:0.50pt;" points="620.67,335.87 622.44,342.12 620.67,348.37 618.89,342.12"/>
<polygon fill="#ffffff" style="stroke:#000000;  stroke-width:0.50pt;" points="620.67,357.74 622.44,363.99 620.67,370.24 618.89,363.99"/>
<polygon fill="#000000" style="stroke:#000000;  stroke-width:0.50pt;" points="634.45,357.74 636.23,363.99 634.45,370.24 632.68,363.99"/>
<line x1="17.57cm" y1="10.27cm" x2="17.86cm" y2="10.27cm" style="stroke:#000000; stroke-width:0.50pt;"/>
<polygon fill="#ffffff" style="stroke:#000000;  stroke-width:0.50pt;" points="620.82,379.62 622.59,385.87 620.82,392.12 619.05,385.87"/>
<polygon fill="#000000" style="stroke:#000000;  stroke-width:0.50pt;" points="633.53,379.62 635.31,385.87 633.53,392.12 631.76,385.87"/>
<line x1="17.57cm" y1="10.89cm" x2="17.83cm" y2="10.89cm" style="stroke:#000000; stroke-width:0.50pt;"/>
<polygon fill="#ffffff" style="stroke:#000000;  stroke-width:0.50pt;" points="620.97,401.49 622.74,407.74 620.97,413.99 619.20,407.74"/>
<polygon fill="#ffffff" style="stroke:#000000;  stroke-width:0.50pt;" points="620.97,423.36 622.74,429.61 620.97,435.86 619.20,429.61"/>
<polygon fill="#000000" style="stroke:#000000;  stroke-width:0.50pt;" points="630.93,423.36 632.70,429.61 630.93,435.86 629.16,429.61"/>
<line x1="17.58cm" y1="12.12cm" x2="17.76cm" y2="12.12cm" style="stroke:#000000; stroke-width:0.50pt;"/>
<polygon fill="#ffffff" style="stroke:#000000;  stroke-width:0.50pt;" points="621.28,445.24 623.05,451.49 621.28,457.74 619.51,451.49"/>
<polygon fill="#000000" style="stroke:#000000;  stroke-width:0.50pt;" points="637.52,445.24 639.29,451.49 637.52,457.74 635.75,451.49"/>
<line x1="17.58cm" y1="12.74cm" x2="17.94cm" y2="12.74cm" style="stroke:#000000; stroke-width:0.50pt;"/>
<polygon fill="#ffffff" style="stroke:#000000;  stroke-width:0.50pt;" points="621.28,467.11 623.05,473.36 621.28,479.61 619.51,473.36"/>
<polygon fill="#ffffff" style="stroke:#000000;  stroke-width:0.50pt;" points="621.58,488.99 623.36,495.24 621.58,501.49 619.81,495.24"/>
<polygon fill="#000000" style="stroke:#000000;  stroke-width:0.50pt;" points="633.99,488.99 635.77,495.24 633.99,501.49 632.22,495.24"/>
<line x1="17.59cm" y1="13.98cm" x2="17.84cm" y2="13.98cm" style="stroke:#000000; stroke-width:0.50pt;"/>
<polygon fill="#ffffff" style="stroke:#000000;  stroke-width:0.50pt;" points="621.58,510.86 623.36,517.11 621.58,523.36 619.81,517.11"/>
<polygon fill="#ffffff" style="stroke:#000000;  stroke-width:0.50pt;" points="621.74,532.74 623.51,538.99 621.74,545.24 619.97,538.99"/>
<polygon fill="#000000" style="stroke:#000000;  stroke-width:0.50pt;" points="621.74,532.74 623.51,538.99 621.74,545.24 619.97,538.99"/>
<line x1="17.60cm" y1="15.21cm" x2="17.50cm" y2="15.21cm" style="stroke:#000000; stroke-width:0.50pt;"/>
<polygon fill="#ffffff" style="stroke:#000000;  stroke-width:0.50pt;" points="621.74,554.61 623.51,560.86 621.74,567.11 619.97,560.86"/>
<polygon fill="#000000" style="stroke:#000000;  stroke-width:0.50pt;" points="630.93,554.61 632.70,560.86 630.93,567.11 629.16,560.86"/>
<line x1="17.60cm" y1="15.83cm" x2="17.76cm" y2="15.83cm" style="stroke:#000000; stroke-width:0.50pt;"/>
<polygon fill="#ffffff" style="stroke:#000000;  stroke-width:0.50pt;" points="621.74,576.49 623.51,582.74 621.74,588.99 619.97,582.74"/>
<polygon fill="#000000" style="stroke:#000000;  stroke-width:0.50pt;" points="632.46,576.49 634.23,582.74 632.46,588.99 630.69,582.74"/>
<line x1="17.60cm" y1="16.45cm" x2="17.80cm" y2="16.45cm" style="stroke:#000000; stroke-width:0.50pt;"/>
<polygon fill="#ffffff" style="stroke:#000000;  stroke-width:0.50pt;" points="621.74,598.36 623.51,604.61 621.74,610.86 619.97,604.61"/>
<polygon fill="#000000" style="stroke:#000000;  stroke-width:0.50pt;" points="634.76,598.36 636.53,604.61 634.76,610.86 632.99,604.61"/>
<line x1="17.60cm" y1="17.06cm" x2="17.86cm" y2="17.06cm" style="stroke:#000000; stroke-width:0.50pt;"/>
<polygon fill="#ffffff" style="stroke:#000000;  stroke-width:0.50pt;" points="621.89,620.24 623.66,626.49 621.89,632.74 620.12,626.49"/>
<polygon fill="#000000" style="stroke:#000000;  stroke-width:0.50pt;" points="630.32,620.24 632.09,626.49 630.32,632.74 628.55,626.49"/>
<line x1="17.60cm" y1="17.68cm" x2="17.74cm" y2="17.68cm" style="stroke:#000000; stroke-width:0.50pt;"/>
<polygon fill="#ffffff" style="stroke:#000000;  stroke-width:0.50pt;" points="622.04,642.11 623.82,648.36 622.04,654.61 620.27,648.36"/>
<polygon fill="#ffffff" style="stroke:#000000;  stroke-width:0.50pt;" points="622.04,663.99 623.82,670.24 622.04,676.49 620.27,670.24"/>
<polygon fill="#ffffff" style="stroke:#000000;  stroke-width:0.50pt;" points="622.04,685.86 623.82,692.11 622.04,698.36 620.27,692.11"/>
<polygon fill="#000000" style="stroke:#000000;  stroke-width:0.50pt;" points="632.16,685.86 633.93,692.11 632.16,698.36 630.38,692.11"/>
<line x1="17.61cm" y1="19.53cm" x2="17.79cm" y2="19.53cm" style="stroke:#000000; stroke-width:0.50pt;"/>
<polygon fill="#ffffff" style="stroke:#000000;  stroke-width:0.50pt;" points="622.20,707.74 623.97,713.99 622.20,720.24 620.43,713.99"/>
<polygon fill="#ffffff" style="stroke:#000000;  stroke-width:0.50pt;" points="622.20,729.61 623.97,735.86 622.20,742.11 620.43,735.86"/>
<polygon fill="#000000" style="stroke:#000000;  stroke-width:0.50pt;" points="634.30,729.61 636.07,735.86 634.30,742.11 632.53,735.86"/>
<line x1="17.61cm" y1="20.77cm" x2="17.85cm" y2="20.77cm" style="stroke:#000000; stroke-width:0.50pt;"/>
<polygon fill="#ffffff" style="stroke:#000000;  stroke-width:0.50pt;" points="622.20,751.49 623.97,757.74 622.20,763.99 620.43,757.74"/>
<polygon fill="#000000" style="stroke:#000000;  stroke-width:0.50pt;" points="632.46,751.49 634.23,757.74 632.46,763.99 630.69,757.74"/>
<line x1="17.61cm" y1="21.39cm" x2="17.80cm" y2="21.39cm" style="stroke:#000000; stroke-width:0.50pt;"/>
<polygon fill="#ffffff" style="stroke:#000000;  stroke-width:0.50pt;" points="622.35,773.36 624.12,779.61 622.35,785.86 620.58,779.61"/>
<polygon fill="#000000" style="stroke:#000000;  stroke-width:0.50pt;" points="634.76,773.36 636.53,779.61 634.76,785.86 632.99,779.61"/>
<line x1="17.61cm" y1="22.00cm" x2="17.86cm" y2="22.00cm" style="stroke:#000000; stroke-width:0.50pt;"/>
<polygon fill="#ffffff" style="stroke:#000000;  stroke-width:0.50pt;" points="622.35,795.24 624.12,801.49 622.35,807.74 620.58,801.49"/>
<polygon fill="#ffffff" style="stroke:#000000;  stroke-width:0.50pt;" points="622.50,817.11 624.28,823.36 622.50,829.61 620.73,823.36"/>
<polygon fill="#000000" style="stroke:#000000;  stroke-width:0.50pt;" points="630.32,817.11 632.09,823.36 630.32,829.61 628.55,823.36"/>
<line x1="17.62cm" y1="23.24cm" x2="17.74cm" y2="23.24cm" style="stroke:#000000; stroke-width:0.50pt;"/>
<polygon fill="#ffffff" style="stroke:#000000;  stroke-width:0.50pt;" points="622.50,838.99 624.28,845.24 622.50,851.49 620.73,845.24"/>
<polygon fill="#ffffff" style="stroke:#000000;  stroke-width:0.50pt;" points="622.66,860.86 624.43,867.11 622.66,873.36 620.89,867.11"/>
<polygon fill="#000000" style="stroke:#000000;  stroke-width:0.50pt;" points="634.15,860.86 635.92,867.11 634.15,873.36 632.38,867.11"/>
<line x1="17.62cm" y1="24.47cm" x2="17.85cm" y2="24.47cm" style="stroke:#000000; stroke-width:0.50pt;"/>
<polygon fill="#ffffff" style="stroke:#000000;  stroke-width:0.50pt;" points="622.81,882.74 624.58,888.99 622.81,895.24 621.04,888.99"/>
<text x="9.34cm" y="3.13cm" style="fill:#000000;font-size:14pt; font-family:sans-serif;">Timeline Chart</text>
<text x="7.22cm" y="3.74cm" style="fill:#000000;font-size:14pt; font-family:sans-serif;">Entire Database -- Sorted by Birth Date</text>
<text x="9.41cm" y="4.54cm" style="fill:#000000;font-size:8pt; font-family:sans-serif;">-50</text>
<text x="11.16cm" y="4.54cm" style="fill:#000000;font-size:8pt; font-family:sans-serif;">360</text>
<text x="12.94cm" y="4.54cm" style="fill:#000000;font-size:8pt; font-family:sans-serif;">770</text>
<text x="14.65cm" y="4.54cm" style="fill:#000000;font-size:8pt; font-family:sans-serif;">1180</text>
<text x="16.42cm" y="4.54cm" style="fill:#000000;font-size:8pt; font-family:sans-serif;">1590</text>
<text x="18.19cm" y="4.54cm" style="fill:#000000;font-size:8pt; font-family:sans-serif;">2000</text>
<text x="3.16cm" y="5.58cm" style="fill:#000000;font-size:10pt; font-family:sans-serif;">Beaulieu, Anna Margaretha</text>
<text x="3.16cm" y="6.20cm" style="fill:#000000;font-size:10pt; font-family:sans-serif;">Brooks, Marquis IV</text>
<text x="3.16cm" y="6.82cm" style="fill:#000000;font-size:10pt; font-family:sans-serif;">Злобин, Joseph Jr.</text>
<text x="3.16cm" y="7.43cm" style="fill:#000000;font-size:10pt; font-family:sans-serif;">Blanco, Samuel</text>
<text x="3.16cm" y="8.05cm" style="fill:#000000;font-size:10pt; font-family:sans-serif;">Rogers, Barbara</text>
<text x="3.16cm" y="8.67cm" style="fill:#000000;font-size:10pt; font-family:sans-serif;">Maldonado, Eunice</text>
<text x="3.16cm" y="9.28cm" style="fill:#000000;font-size:10pt; font-family:sans-serif;">Jiménez, George, Sr.</text>
<text x="3.16cm" y="9.90cm" style="fill:#000000;font-size:10pt; font-family:sans-serif;">Douglas, John Jr.</text>
<text x="3.16cm" y="10.52cm" style="fill:#000000;font-size:10pt; font-family:sans-serif;">Diaz, Frances</text>
<text x="3.16cm" y="11.14cm" style="fill:#000000;font-size:10pt; font-family:sans-serif;">Davis, Sabra</text>
<text x="3.16cm" y="11.75cm" style="fill:#000000;font-size:10pt; font-family:sans-serif;">Diaz, James</text>
<text x="3.16cm" y="12.37cm" style="fill:#000000;font-size:10pt; font-family:sans-serif;">Adkins, Martha</text>
<text x="3.16cm" y="12.99cm" style="fill:#000000;font-size:10pt; font-family:sans-serif;">Cunningham, William Philip</text>
<text x="3.16cm" y="13.61cm" style="fill:#000000;font-size:10pt; font-family:sans-serif;">Todd, John</text>
<text x="3.16cm" y="14.22cm" style="fill:#000000;font-size:10pt; font-family:sans-serif;">Ball, Matthias Sr.</text>
<text x="3.16cm" y="14.84cm" style="fill:#000000;font-size:10pt; font-family:sans-serif;">Дмитриев, Travis</text>
<text x="3.16cm" y="15.46cm" style="fill:#000000;font-size:10pt; font-family:sans-serif;">James, Hugh Jr.</text>
<text x="3.16cm" y="16.08cm" style="fill:#000000;font-size:10pt; font-family:sans-serif;">Казаков, Jane</text>
<text x="3.16cm" y="16.69cm" style="fill:#000000;font-size:10pt; font-family:sans-serif;">Green, Randolph</text>
<text x="3.16cm" y="17.31cm" style="fill:#000000;font-size:10pt; font-family:sans-serif;">Дмитриев, William</text>
<text x="3.16cm" y="17.93cm" style="fill:#000000;font-size:10pt; font-family:sans-serif;">Fox, Jacob, Sr.</text>
<text x="3.16cm" y="18.55cm" style="fill:#000000;font-size:10pt; font-family:sans-serif;">James, Molly</text>
<text x="3.16cm" y="19.16cm" style="fill:#000000;font-size:10pt; font-family:sans-serif;">Rodriquez, Mary</text>
<text x="3.16cm" y="19.78cm" style="fill:#000000;font-size:10pt; font-family:sans-serif;">Henry, Elizabeth</text>
<text x="3.16cm" y="20.40cm" style="fill:#000000;font-size:10pt; font-family:sans-serif;">Поляков, Eve</text>
<text x="3.16cm" y="21.01cm" style="fill:#000000;font-size:10pt; font-family:sans-serif;">Wood, Polly</text>
<text x="3.16cm" y="21.63cm" style="fill:#000000;font-size:10pt; font-family:sans-serif;">Дмитриев, Alexander Carroll Sr.</text>
<text x="3.16cm" y="22.25cm" style="fill:#000000;font-size:10pt; font-family:sans-serif;">Rodriquez, Mordica</text>
<text x="3.16cm" y="22.87cm" style="fill:#000000;font-size:10pt; font-family:sans-serif;">Payne, Elizabeth</text>
<text x="3.16cm" y="23.48cm" style="fill:#000000;font-size:10pt; font-family:sans-serif;">James, Joseph</text>
<text x="3.16cm" y="24.10cm" style="fill:#000000;font-size:10pt; font-family:sans-serif;">Doyle, Robert Gove</text>
<text x="3.16cm" y="24.72cm" style="fill:#000000;font-size:10pt; font-family:sans-serif;">Floyd, Nancy</text>
<text x="3.16cm" y="25.34cm" style="fill:#000000;font-size:10pt; font-family:sans-serif;">Farmer, Michael</text>
</svg>
